<svg width="30" height="12" viewBox="0 0 30 12" fill="none" xmlns="http://www.w3.org/2000/svg">
<path d="M23.1892 8.60828C23.0715 8.47872 23.0638 8.31237 23.1509 8.15291C23.2312 8.00726 23.358 7.93443 23.4696 7.92677C23.7967 7.9237 24.6044 8.74013 24.5975 9.01381C24.5929 9.18016 24.5203 9.30895 24.3698 9.38331C24.2101 9.46227 24.0427 9.45767 23.9143 9.33885C23.6629 9.10657 23.4207 8.86202 23.1892 8.60828Z" fill="#3D83DF"/>
<path d="M29.273 6.43097C29.0773 5.66437 28.6173 5.12468 27.8852 4.82724C27.5765 4.70151 27.2655 4.57732 26.9484 4.4769C25.1954 3.92494 23.3889 3.71873 21.5618 3.65893C21.3226 3.6505 21.1239 3.5838 20.9237 3.45425C19.8982 2.7896 18.8627 2.14029 17.8349 1.47871C16.8331 0.833229 15.7426 0.449161 14.5513 0.429996C13.0145 0.405464 11.477 0.419263 9.94029 0.426163C9.59794 0.427696 9.25712 0.482891 8.91784 0.54192C7.90455 0.719772 7.01659 1.20887 6.11258 1.66193C5.22691 2.10579 4.36492 2.61712 3.37074 2.785C2.63714 2.90919 1.89666 2.98739 1.16001 3.09241C0.666354 3.16217 0.324771 3.44045 0.112333 3.88738C0.0810018 3.95331 0.0825301 4.03993 0 4.07673V7.58241C0.0221609 7.61001 0.0542559 7.63531 0.0641901 7.66674C0.29879 8.38734 0.798555 8.80131 1.52375 8.98223C2.04109 9.11178 2.54773 9.28274 3.06431 9.41766C3.25765 9.46826 3.35928 9.56178 3.44181 9.74807C3.88579 10.7408 4.6576 11.3112 5.73737 11.3986C6.7476 11.4798 7.56297 11.0751 8.15672 10.2533C8.27975 10.0831 8.40202 10.0302 8.60223 10.0302C12.7929 10.0355 16.9836 10.0355 21.1743 10.0302C21.3837 10.0302 21.5151 10.0823 21.6435 10.264C22.4016 11.3411 23.8015 11.7121 24.9768 11.1663C26.1811 10.6067 26.8169 9.2904 26.4945 8.02474C26.1422 6.64179 24.8607 5.78396 23.4363 5.97791C22.1028 6.15883 21.1033 7.37006 21.1346 8.76758C21.1402 9.03743 21.0065 9.17235 20.7334 9.17235H9.04927C8.97285 9.17235 8.89567 9.16775 8.82002 9.17311C8.68324 9.18231 8.62898 9.12788 8.64656 8.9876C8.66107 8.87414 8.66031 8.75761 8.65955 8.64339C8.63815 6.75754 6.75218 5.45125 4.99536 6.1228C4.00577 6.50073 3.41965 7.23667 3.25383 8.28922C3.21944 8.5077 3.16747 8.57363 2.94204 8.4985C2.508 8.35361 2.06402 8.24092 1.62538 8.10907C1.10804 7.95421 0.865802 7.63377 0.860453 7.10405C0.857396 6.83574 0.859688 6.56743 0.859688 6.29988C0.859688 6.03055 0.994182 5.89154 1.26317 5.88285C1.58641 5.87212 1.76905 5.72263 1.77516 5.46352C1.78051 5.20517 1.59635 5.03959 1.28227 5.02195C0.999022 5.00611 0.85816 4.85483 0.859688 4.56812C0.859688 4.53899 0.858924 4.51063 0.859688 4.4815C0.870387 4.15492 1.00259 3.99317 1.33042 3.93644C1.56502 3.89658 1.80267 3.87358 2.03956 3.84522C2.96803 3.73559 3.89573 3.6252 4.77452 3.27103C5.04351 3.16294 5.31249 2.88389 5.57384 2.97665C5.82678 3.06635 6.01094 3.36149 6.21497 3.57614C6.67806 4.06293 7.2252 4.39947 7.89844 4.47076C8.29504 4.51216 8.69928 4.50296 9.09971 4.49913C9.40767 4.49606 9.57196 4.33814 9.57655 4.08056C9.58113 3.81149 9.40767 3.65203 9.08748 3.6436C8.82996 3.6367 8.57167 3.63517 8.31414 3.64207C8.11852 3.64667 8.03981 3.5953 8.09788 3.37605C8.21022 2.95136 8.2958 2.51976 8.39438 2.09123C8.53575 1.47871 8.53728 1.48101 9.17459 1.37445C10.1802 1.2058 11.1943 1.30162 12.2038 1.27249C12.3879 1.26713 12.3994 1.36832 12.3986 1.50784C12.3956 2.13032 12.3879 2.75281 12.4024 3.37529C12.4078 3.5953 12.3329 3.65433 12.1243 3.6459C11.7621 3.63133 11.3991 3.63593 11.0361 3.64437C10.7465 3.65203 10.5631 3.82988 10.5654 4.07673C10.5677 4.31438 10.7404 4.47843 11.0155 4.49913C11.111 4.5068 11.2065 4.50373 11.302 4.50373C14.1661 4.50373 17.0302 4.5091 19.8936 4.50143C21.2408 4.4976 22.585 4.52903 23.9215 4.70995C25.1724 4.87936 26.405 5.12085 27.5712 5.62757C27.7232 5.69427 27.8768 5.76249 27.9983 5.90815C27.8463 5.97638 27.7118 5.93958 27.5819 5.94724C27.2815 5.96564 27.105 6.1159 27.0997 6.36658C27.0943 6.61802 27.2693 6.79128 27.5635 6.80584C27.8019 6.81734 28.0404 6.81274 28.2795 6.80967C28.4011 6.80814 28.4775 6.83267 28.4752 6.98139C28.4691 7.51802 28.4828 8.05464 28.4645 8.59049C28.4522 8.95463 28.3017 9.10565 27.9578 9.17695C27.685 9.23368 27.5345 9.41153 27.5605 9.64611C27.5872 9.89295 27.7966 10.0539 28.0763 10.0271C28.6357 9.97422 29.004 9.66757 29.2164 9.15395C29.2516 9.06962 29.2424 8.9623 29.3333 8.90404V6.5475C29.2753 6.52833 29.2844 6.47543 29.273 6.43097ZM23.8504 6.81197C24.8874 6.81274 25.7272 7.65754 25.7196 8.69245C25.7127 9.71127 24.8683 10.553 23.8535 10.5553C22.8249 10.5568 21.9874 9.70667 21.992 8.66639C21.9966 7.63607 22.8226 6.81121 23.8504 6.81197ZM5.95669 6.81197C6.98526 6.82117 7.80215 7.64834 7.80062 8.68172C7.79986 9.7082 6.97456 10.5446 5.95287 10.5545C4.93041 10.5645 4.07225 9.7082 4.07301 8.67789C4.07378 7.64297 4.92124 6.80354 5.95669 6.81197ZM7.27029 3.17444C7.23972 3.31243 7.16254 3.29096 7.08995 3.2166C6.8584 2.98049 6.63145 2.73901 6.3915 2.48756C6.75753 2.30434 7.11975 2.12342 7.54998 1.90801C7.44605 2.3787 7.35817 2.77657 7.27029 3.17444ZM19.2203 3.63977C17.342 3.64207 15.4637 3.6367 13.5861 3.64743C13.3248 3.64897 13.2423 3.58074 13.2507 3.31319C13.2705 2.71141 13.2614 2.10886 13.2545 1.50631C13.2522 1.33765 13.3011 1.27939 13.4799 1.27019C15.022 1.1874 16.4464 1.50784 17.7241 2.42163C18.2972 2.83177 18.9086 3.18747 19.5268 3.58304C19.4076 3.66966 19.3105 3.63977 19.2203 3.63977ZM5.60593 9.42839C5.87951 9.43376 6.6964 8.62806 6.69564 8.33675C6.68035 8.19186 6.61616 8.06001 6.46868 7.97951C6.32119 7.89902 6.15919 7.88905 6.03845 7.99868C5.77099 8.24169 5.51576 8.50004 5.27046 8.76605C5.15813 8.88794 5.16807 9.05276 5.23913 9.19841C5.31096 9.34637 5.43629 9.42533 5.60593 9.42839Z" fill="#3D83DF"/>
<path d="M14.8821 8.18923C13.3545 8.18923 11.8277 8.18923 10.3001 8.18923C10.1954 8.18923 10.0884 8.19153 9.98681 8.17083C9.75756 8.1233 9.63987 7.96155 9.65057 7.7377C9.65974 7.52842 9.77895 7.37893 9.9998 7.34443C10.0938 7.32987 10.1901 7.3291 10.2848 7.3291C13.3583 7.3291 16.4318 7.3291 19.5053 7.3291C19.5909 7.3291 19.6772 7.3291 19.762 7.33983C20.0096 7.37126 20.1418 7.52842 20.1403 7.76607C20.1388 7.99145 20.0073 8.1417 19.7766 8.1785C19.6833 8.19306 19.5863 8.19076 19.4908 8.19076C17.954 8.19076 16.4173 8.19076 14.8805 8.19076L14.8821 8.18923Z" fill="#3D83DF"/>
<path d="M6.69588 8.33696C6.69665 8.62827 5.87975 9.43397 5.60618 9.4286C5.43654 9.42554 5.31121 9.34658 5.23938 9.19862C5.16831 9.05297 5.15838 8.88815 5.27071 8.76626C5.51601 8.50025 5.77124 8.2419 6.0387 7.99889C6.15944 7.88926 6.32144 7.89923 6.46893 7.97972C6.61641 8.06022 6.6806 8.19207 6.69588 8.33696Z" fill="#FEFEFE"/>
<path d="M24.5975 9.01381C24.5929 9.18016 24.5203 9.30895 24.3698 9.38331C24.2101 9.46227 24.0427 9.45767 23.9143 9.33885C23.6629 9.10657 23.4207 8.86202 23.1892 8.60828C23.0715 8.47872 23.0638 8.31237 23.1509 8.15291C23.2312 8.00726 23.358 7.93443 23.4696 7.92677C23.7967 7.9237 24.6044 8.74013 24.5975 9.01381Z" fill="#FEFEFE"/>
<path d="M6.69588 8.33696C6.69665 8.62827 5.87975 9.43397 5.60618 9.4286C5.43654 9.42554 5.31121 9.34658 5.23938 9.19862C5.16831 9.05297 5.15838 8.88815 5.27071 8.76626C5.51601 8.50025 5.77124 8.2419 6.0387 7.99889C6.15944 7.88926 6.32144 7.89923 6.46893 7.97972C6.61641 8.06022 6.6806 8.19207 6.69588 8.33696Z" fill="#3D83DF"/>
<path d="M24.5975 9.01381C24.5929 9.18016 24.5203 9.30895 24.3698 9.38331C24.2101 9.46227 24.0427 9.45767 23.9143 9.33885C23.6629 9.10657 23.4207 8.86202 23.1892 8.60828C23.0715 8.47872 23.0638 8.31237 23.1509 8.15291C23.2312 8.00726 23.358 7.93443 23.4696 7.92677C23.7967 7.9237 24.6044 8.74013 24.5975 9.01381Z" fill="#3D83DF"/>
</svg>
