<svg width="24" height="24" viewBox="0 0 24 24" fill="none" xmlns="http://www.w3.org/2000/svg">
<path d="M12.3996 22.6C14.5356 22.6 16.6237 21.9666 18.3998 20.7799C20.1758 19.5931 21.5601 17.9064 22.3775 15.933C23.1949 13.9596 23.4088 11.7881 22.9921 9.69306C22.5754 7.59807 21.5468 5.67369 20.0364 4.16328C18.526 2.65287 16.6016 1.62425 14.5066 1.20753C12.4116 0.790808 10.2401 1.00467 8.26663 1.82209C6.29319 2.63952 4.60646 4.02382 3.41974 5.79987C2.23302 7.57593 1.59961 9.66396 1.59961 11.8C1.59961 14.6643 2.73746 17.4114 4.76286 19.4368C6.78825 21.4622 9.53527 22.6 12.3996 22.6V22.6Z" stroke="#3D83DF" stroke-width="1.5" stroke-linecap="round" stroke-linejoin="round"/>
<path d="M12.3986 18.3333C12.6636 18.3331 12.9226 18.2543 13.1428 18.107C13.363 17.9596 13.5346 17.7503 13.6359 17.5054C13.7372 17.2605 13.7636 16.9911 13.7117 16.7312C13.6599 16.4714 13.5322 16.2328 13.3448 16.0455C13.1573 15.8581 12.9186 15.7306 12.6587 15.679C12.3988 15.6274 12.1294 15.654 11.8846 15.7554C11.6398 15.8569 11.4306 16.0286 11.2834 16.2489C11.1362 16.4693 11.0576 16.7283 11.0576 16.9933C11.0576 17.1694 11.0923 17.3437 11.1597 17.5063C11.2271 17.669 11.3259 17.8168 11.4504 17.9412C11.575 18.0656 11.7228 18.1643 11.8855 18.2316C12.0482 18.2989 12.2226 18.3334 12.3986 18.3333Z" fill="#3D83DF"/>
<path d="M9.74121 7.74032C9.97889 7.14235 10.4184 6.64641 10.9835 6.33859C11.5485 6.03076 12.2035 5.93048 12.8348 6.05508C13.4661 6.17968 14.0339 6.52128 14.4397 7.02072C14.8454 7.52015 15.0635 8.1459 15.0562 8.78933C15.0562 11.3733 12.3012 11.6893 12.3012 12.6653V13.4333" stroke="#3D83DF" stroke-width="1.5" stroke-linecap="round" stroke-linejoin="round"/>
</svg>
