<svg width="15" height="14" viewBox="0 0 15 14" fill="none" xmlns="http://www.w3.org/2000/svg">
<path d="M12.75 3.62728H9.41667V1.62728C9.41667 0.893945 8.81667 0.293945 8.08333 0.293945H6.75C6.01667 0.293945 5.41667 0.893945 5.41667 1.62728V3.62728H2.08333C1.35 3.62728 0.75 4.22728 0.75 4.96061V12.2939C0.75 13.0273 1.35 13.6273 2.08333 13.6273H12.75C13.4833 13.6273 14.0833 13.0273 14.0833 12.2939V4.96061C14.0833 4.22728 13.4833 3.62728 12.75 3.62728ZM5.41667 6.96061C5.97 6.96061 6.41667 7.40728 6.41667 7.96061C6.41667 8.51395 5.97 8.96061 5.41667 8.96061C4.86333 8.96061 4.41667 8.51395 4.41667 7.96061C4.41667 7.40728 4.86333 6.96061 5.41667 6.96061ZM7.41667 10.9606H3.41667V10.6739C3.41667 10.2739 3.65667 9.90728 4.03 9.74728C4.45667 9.56061 4.92333 9.46061 5.41667 9.46061C5.91 9.46061 6.37667 9.56061 6.80333 9.74728C7.17 9.90728 7.41667 10.2673 7.41667 10.6739V10.9606ZM8.08333 4.29395C8.08333 4.47076 8.0131 4.64033 7.88807 4.76535C7.76305 4.89037 7.59348 4.96061 7.41667 4.96061C7.23986 4.96061 7.07029 4.89037 6.94526 4.76535C6.82024 4.64033 6.75 4.47076 6.75 4.29395V2.29395C6.75 2.11713 6.82024 1.94757 6.94526 1.82254C7.07029 1.69752 7.23986 1.62728 7.41667 1.62728C7.59348 1.62728 7.76305 1.69752 7.88807 1.82254C8.0131 1.94757 8.08333 2.11713 8.08333 2.29395V4.29395ZM10.9167 9.96061H9.25C8.97667 9.96061 8.75 9.73395 8.75 9.46061C8.75 9.18728 8.97667 8.96061 9.25 8.96061H10.9167C11.19 8.96061 11.4167 9.18728 11.4167 9.46061C11.4167 9.73395 11.19 9.96061 10.9167 9.96061ZM10.9167 7.96061H9.25C8.97667 7.96061 8.75 7.73395 8.75 7.46061C8.75 7.18728 8.97667 6.96061 9.25 6.96061H10.9167C11.19 6.96061 11.4167 7.18728 11.4167 7.46061C11.4167 7.73395 11.19 7.96061 10.9167 7.96061Z" fill="#98A1AB"/>
</svg>
