<svg width="23" height="23" viewBox="0 0 23 23" fill="none" xmlns="http://www.w3.org/2000/svg">
<path d="M8.14551 2.33325V5.08325" stroke="white" stroke-width="1.5" stroke-miterlimit="10" stroke-linecap="round" stroke-linejoin="round"/>
<path d="M15.4795 2.33325V5.08325" stroke="white" stroke-width="1.5" stroke-miterlimit="10" stroke-linecap="round" stroke-linejoin="round"/>
<path d="M15.4792 3.70831C18.5317 3.87331 20.0625 5.03748 20.0625 9.34581V15.0108C20.0625 18.7875 19.1458 20.6758 14.5625 20.6758H9.0625C4.47917 20.6758 3.5625 18.7875 3.5625 15.0108V9.34581C3.5625 5.03748 5.09333 3.88248 8.14583 3.70831H15.4792Z" stroke="white" stroke-width="1.5" stroke-miterlimit="10" stroke-linecap="round" stroke-linejoin="round"/>
<path d="M19.8337 16.6333H3.79199" stroke="white" stroke-width="1.5" stroke-miterlimit="10" stroke-linecap="round" stroke-linejoin="round"/>
<path d="M11.8122 8.0625C10.6847 8.0625 9.73134 8.67667 9.73134 9.86833C9.73134 10.4367 9.99717 10.8675 10.4005 11.1425C9.84134 11.4725 9.52051 12.0042 9.52051 12.6275C9.52051 13.7642 10.3913 14.47 11.8122 14.47C13.2238 14.47 14.1038 13.7642 14.1038 12.6275C14.1038 12.0042 13.783 11.4633 13.2147 11.1425C13.6272 10.8583 13.8838 10.4367 13.8838 9.86833C13.8838 8.67667 12.9397 8.0625 11.8122 8.0625ZM11.8122 10.6658C11.3355 10.6658 10.9872 10.3817 10.9872 9.9325C10.9872 9.47417 11.3355 9.20833 11.8122 9.20833C12.2888 9.20833 12.6372 9.47417 12.6372 9.9325C12.6372 10.3817 12.2888 10.6658 11.8122 10.6658ZM11.8122 13.3333C11.2072 13.3333 10.7672 13.0308 10.7672 12.4808C10.7672 11.9308 11.2072 11.6375 11.8122 11.6375C12.4172 11.6375 12.8572 11.94 12.8572 12.4808C12.8572 13.0308 12.4172 13.3333 11.8122 13.3333Z" fill="white"/>
</svg>
