<svg width="22" height="22" viewBox="0 0 22 22" fill="none" xmlns="http://www.w3.org/2000/svg">
<path d="M7.33301 1.83325V4.58325" stroke="white" stroke-width="1.5" stroke-miterlimit="10" stroke-linecap="round" stroke-linejoin="round"/>
<path d="M14.667 1.83325V4.58325" stroke="white" stroke-width="1.5" stroke-miterlimit="10" stroke-linecap="round" stroke-linejoin="round"/>
<path d="M14.6667 3.20837C17.7192 3.37337 19.25 4.53754 19.25 8.84587V14.5109C19.25 18.2875 18.3333 20.1759 13.75 20.1759H8.25C3.66667 20.1759 2.75 18.2875 2.75 14.5109V8.84587C2.75 4.53754 4.28083 3.38254 7.33333 3.20837H14.6667Z" stroke="white" stroke-width="1.5" stroke-miterlimit="10" stroke-linecap="round" stroke-linejoin="round"/>
<path d="M19.0212 16.1333H2.97949" stroke="white" stroke-width="1.5" stroke-miterlimit="10" stroke-linecap="round" stroke-linejoin="round"/>
<path d="M10.9997 7.5625C9.87217 7.5625 8.91884 8.17667 8.91884 9.36833C8.91884 9.93667 9.18467 10.3675 9.58801 10.6425C9.02884 10.9725 8.70801 11.5042 8.70801 12.1275C8.70801 13.2642 9.57884 13.97 10.9997 13.97C12.4113 13.97 13.2913 13.2642 13.2913 12.1275C13.2913 11.5042 12.9705 10.9633 12.4022 10.6425C12.8147 10.3583 13.0713 9.93667 13.0713 9.36833C13.0713 8.17667 12.1272 7.5625 10.9997 7.5625ZM10.9997 10.1658C10.523 10.1658 10.1747 9.88167 10.1747 9.4325C10.1747 8.97417 10.523 8.70833 10.9997 8.70833C11.4763 8.70833 11.8247 8.97417 11.8247 9.4325C11.8247 9.88167 11.4763 10.1658 10.9997 10.1658ZM10.9997 12.8333C10.3947 12.8333 9.95467 12.5308 9.95467 11.9808C9.95467 11.4308 10.3947 11.1375 10.9997 11.1375C11.6047 11.1375 12.0447 11.44 12.0447 11.9808C12.0447 12.5308 11.6047 12.8333 10.9997 12.8333Z" fill="white"/>
</svg>
