<svg width="17" height="17" viewBox="0 0 17 17" fill="none" xmlns="http://www.w3.org/2000/svg">
<path d="M16.7117 15.3762C16.8019 15.4633 16.8738 15.5676 16.9233 15.6828C16.9728 15.798 16.9989 15.9219 17 16.0473C17.0011 16.1728 16.9772 16.2971 16.9297 16.4132C16.8822 16.5293 16.8121 16.6347 16.7234 16.7234C16.6347 16.8121 16.5293 16.8822 16.4132 16.9297C16.2971 16.9772 16.1728 17.0011 16.0473 17C15.9219 16.9989 15.798 16.9728 15.6828 16.9233C15.5676 16.8738 15.4634 16.8019 15.3762 16.7117L8.48839 9.82384L1.60056 16.7117C1.42244 16.8837 1.18387 16.9789 0.936237 16.9768C0.688608 16.9746 0.451729 16.8753 0.276621 16.7002C0.101513 16.5251 0.00218582 16.2882 3.43323e-05 16.0406C-0.00211716 15.7929 0.0930767 15.5543 0.265116 15.3762L7.15295 8.48839L0.265116 1.60056C0.0930767 1.42244 -0.00211716 1.18387 3.43323e-05 0.936238C0.00218582 0.688607 0.101513 0.451729 0.276621 0.276621C0.451729 0.101514 0.688608 0.00218754 0.936237 3.57025e-05C1.18387 -0.00211614 1.42244 0.0930785 1.60056 0.265117L8.48839 7.15295L15.3762 0.265117C15.5544 0.0930785 15.7929 -0.00211614 16.0406 3.57025e-05C16.2882 0.00218754 16.5251 0.101514 16.7002 0.276621C16.8753 0.451729 16.9746 0.688607 16.9768 0.936238C16.9789 1.18387 16.8837 1.42244 16.7117 1.60056L9.82384 8.48839L16.7117 15.3762Z" fill="#E74C3C"/>
</svg>
