<svg width="17" height="17" viewBox="0 0 17 17" fill="none" xmlns="http://www.w3.org/2000/svg">
<g clip-path="url(#clip0_351_3441)">
<g clip-path="url(#clip1_351_3441)">
<path d="M13.444 4.33325H2.55512C2.34884 4.33325 2.15101 4.4152 2.00515 4.56106C1.85929 4.70692 1.77734 4.90475 1.77734 5.11103V12.8888C1.77734 13.0951 1.85929 13.2929 2.00515 13.4388C2.15101 13.5846 2.34884 13.6666 2.55512 13.6666H8.38845L8.61012 13.3944L8.97179 12.951L8.93679 12.8888H2.55512V5.11103H13.444V8.43992C13.7395 8.63117 14.0021 8.86886 14.2218 9.14381V5.11103C14.2218 4.90475 14.1398 4.70692 13.994 4.56106C13.8481 4.4152 13.6503 4.33325 13.444 4.33325Z" fill="#98A1AB"/>
<path d="M3.72266 6.66675H10.3338V7.28897H3.72266V6.66675Z" fill="#98A1AB"/>
<path d="M3.72266 8.22217H8.00043V8.84439H3.72266V8.22217Z" fill="#98A1AB"/>
<path d="M3.72266 10.9443H7.61155V11.5666H3.72266V10.9443Z" fill="#98A1AB"/>
<path d="M11.6785 8.70052C11.1809 8.69657 10.6936 8.84283 10.2804 9.1202C9.8672 9.39756 9.54728 9.79313 9.36245 10.2552C9.17762 10.7173 9.13648 11.2243 9.24441 11.7102C9.35234 12.196 9.60432 12.638 9.96741 12.9783L9.21297 13.9L9.56296 15.3039L10.9863 13.5694C11.4368 13.7026 11.9163 13.7026 12.3669 13.5694L13.7902 15.3039L14.1402 13.9L13.3857 12.9783C13.7488 12.638 14.0008 12.196 14.1087 11.7102C14.2167 11.2243 14.1755 10.7173 13.9907 10.2552C13.8059 9.79313 13.486 9.39756 13.0728 9.1202C12.6595 8.84283 12.1723 8.69657 11.6746 8.70052H11.6785ZM11.6785 12.8539C11.348 12.8492 11.0263 12.7471 10.7538 12.5601C10.4812 12.3732 10.27 12.1098 10.1467 11.8032C10.0234 11.4965 9.99356 11.1603 10.0608 10.8367C10.1281 10.5131 10.2896 10.2166 10.5249 9.98455C10.7602 9.75247 11.0589 9.59514 11.3833 9.53233C11.7078 9.46953 12.0436 9.50405 12.3485 9.63157C12.6535 9.75909 12.9139 9.97391 13.097 10.249C13.2802 10.5241 13.3779 10.8472 13.378 11.1777C13.3739 11.625 13.1927 12.0525 12.8743 12.3666C12.5558 12.6807 12.1258 12.8559 11.6785 12.8539Z" fill="#98A1AB"/>
</g>
</g>
<defs>
<clipPath id="clip0_351_3441">
<rect width="16" height="16" fill="white" transform="translate(0.234375 0.875)"/>
</clipPath>
<clipPath id="clip1_351_3441">
<rect width="14" height="14" fill="white" transform="translate(1 2)"/>
</clipPath>
</defs>
</svg>
