<svg width="114" height="114" viewBox="0 0 114 114" fill="none" xmlns="http://www.w3.org/2000/svg">
<circle cx="57" cy="57" r="57" fill="#00C3A5"/>
<path d="M84.3697 92.2895L85.0757 93.1002L87.7359 90.7828L92.1495 95.8501L93.0495 95.0656L87.9305 89.1885L84.3697 92.2895Z" fill="black"/>
<path d="M79.9048 96.4594L83.0312 94.3975L84.3817 96.4453L81.5906 98.286L82.1645 99.1561L84.9555 97.3154L86.1746 99.1639L83.1116 101.184L83.6854 102.054L87.7451 99.3764L83.4543 92.8703L79.3309 95.5892L79.9048 96.4594Z" fill="black"/>
<path d="M75.5202 97.3854L78.4056 103.454L76.1117 104.545L76.5731 105.516L82.2394 102.821L81.7779 101.85L79.4839 102.941L76.5988 96.8729L75.5202 97.3854Z" fill="black"/>
<path d="M73.2209 105.53C73.4264 106.124 73.8831 106.415 74.4267 106.227C74.8782 106.071 75.0902 105.687 74.9481 105.277C74.8273 104.928 74.4511 104.736 74.0612 104.871C73.9895 104.896 73.911 104.935 73.8395 104.994C73.7757 104.511 74.0867 104.081 74.672 103.914L74.4801 103.359C73.4258 103.632 72.9157 104.647 73.2209 105.53Z" fill="black"/>
<path d="M64.1093 103.131C64.3622 104.265 65.2208 104.674 66.5829 104.648L67.7556 104.62C68.4987 104.61 69.1804 104.725 69.3412 105.446C69.4877 106.103 69.0773 106.806 68.0919 107.026C67.1384 107.238 66.3398 106.749 66.0731 105.852L64.8863 106.117C65.3196 107.611 66.7318 108.308 68.3103 107.956C69.8891 107.604 70.797 106.389 70.5112 105.107C70.2232 103.815 69.1278 103.491 68.0103 103.518L66.8613 103.552C65.9395 103.557 65.4552 103.331 65.3137 102.696C65.1386 101.912 65.7578 101.296 66.7217 101.081C67.8873 100.821 68.6412 101.309 68.909 102.261L70.0957 101.997C69.6624 100.503 68.3258 99.7446 66.4926 100.153C64.649 100.564 63.8141 101.807 64.1093 103.131Z" fill="black"/>
<path d="M53.8723 101.092L52.6352 101.061L50.4117 108.803L51.5835 108.832L53.2313 102.857L54.6981 108.909L55.9352 108.94L57.7236 102.98L59.0715 109.019L60.2433 109.048L58.4084 101.205L57.1823 101.175L55.3695 107.243L53.8723 101.092Z" fill="black"/>
<path d="M47.2925 99.8121C45.0866 99.3296 43.0438 100.694 42.5521 102.942C42.0607 105.191 43.3521 107.262 45.5581 107.745C47.7637 108.227 49.802 106.883 50.2937 104.635C50.7854 102.387 49.4985 100.295 47.2925 99.8121ZM47.0631 100.862C48.675 101.215 49.4417 102.738 49.0848 104.371C48.7277 106.004 47.3994 107.047 45.7875 106.694C44.1756 106.342 43.4041 104.84 43.7613 103.207C44.1182 101.574 45.4511 100.51 47.0631 100.862Z" fill="black"/>
<path d="M41.9462 98.3555L40.8589 101.077L39.5282 100.546L38.811 97.1029L37.4803 96.5714L38.2945 100.24C37.0909 100.063 36.1174 100.597 35.7026 101.636C35.127 103.078 35.7986 104.293 37.462 104.957L40.1636 106.036L43.0549 98.7981L41.9462 98.3555ZM39.4254 104.666L37.903 104.058C36.8748 103.647 36.4755 102.95 36.8217 102.083C37.172 101.206 37.9378 100.986 38.9661 101.396L40.4884 102.005L39.4254 104.666Z" fill="black"/>
<path d="M35.7623 95.4771L33.9327 98.5945L32.944 93.8235L31.652 93.0653L32.7122 98.2938L27.7824 99.8314L28.9716 100.529L33.6418 99.0912L31.8179 102.199L32.8479 102.804L36.7919 96.081L35.7623 95.4771Z" fill="black"/>
<path d="M26.5648 88.6184L22.0157 93.5637L20.146 91.8436L19.4185 92.6348L24.0362 96.8823L24.7639 96.0917L22.8945 94.3721L27.4433 89.4263L26.5648 88.6184Z" fill="black"/>
<path d="M22.2857 83.526C20.8871 81.7534 18.4423 81.5115 16.6357 82.937C14.8291 84.3626 14.5127 86.7831 15.9113 88.5556C17.31 90.3282 19.7377 90.5836 21.5443 89.1581C23.3509 87.7325 23.6844 85.2985 22.2857 83.526ZM21.442 84.1917C22.4642 85.487 22.0901 87.151 20.7778 88.1865C19.4654 89.222 17.7771 89.1853 16.755 87.89C15.7329 86.5946 16.0899 84.9441 17.4023 83.9086C18.7147 82.873 20.42 82.8964 21.442 84.1917Z" fill="black"/>
<path d="M18.1254 76.9151C16.9975 74.8101 14.7723 74.2659 12.5922 75.4833L14.4583 78.9661L15.3004 78.515L14.0289 76.1421C15.3084 75.7028 16.5236 76.0861 17.2054 77.3588C18.0258 78.8897 17.3748 80.433 15.8535 81.2482C14.2365 82.1146 12.6897 81.6872 11.9617 80.3285C11.3311 79.1516 11.6054 78.0317 12.3473 77.3017L11.691 76.0769C10.4909 77.2619 10.0506 79.0372 10.9991 80.8074C12.0706 82.8072 14.3903 83.4361 16.4188 82.3492C18.5047 81.2316 19.1866 78.8957 18.1254 76.9151Z" fill="black"/>
<path d="M13.5495 68.6989L14.783 72.235L12.4666 73.0431L11.3654 69.8862L10.3814 70.2294L11.4827 73.3863L9.39173 74.1157L8.18324 70.6513L7.19927 70.9946L8.80105 75.5864L16.1603 73.0192L14.5335 68.3557L13.5495 68.6989Z" fill="black"/>
<path d="M13.7246 64.2205L7.1344 65.5319L6.63863 63.0406L5.58461 63.2504L6.80918 69.404L7.86321 69.1943L7.36744 66.703L13.9576 65.3916L13.7246 64.2205Z" fill="black"/>
<path d="M13.2004 59.8802L9.70821 60.0306L9.53827 56.0829L13.0304 55.9325L12.9791 54.7395L5.1922 55.0748L5.24357 56.2678L8.49716 56.1277L8.66709 60.0753L5.41351 60.2154L5.46488 61.4084L13.2518 61.0732L13.2004 59.8802Z" fill="black"/>
<path d="M12.6701 48.6811L12.2681 52.4045L9.82903 52.1412L10.1879 48.817L9.15178 48.7052L8.79292 52.0293L6.59125 51.7916L6.98506 48.1437L5.949 48.0318L5.42697 52.8669L13.1761 53.7035L13.7062 48.7929L12.6701 48.6811Z" fill="black"/>
<path d="M14.2756 46.5708L11.4376 45.8387L11.7955 44.4512L15.1188 43.3017L15.4767 41.9142L11.9418 43.1885C11.964 41.9723 11.3099 41.0749 10.2272 40.7956C8.72411 40.4079 7.60427 41.2289 7.15692 42.9633L6.4303 45.7803L13.9774 47.727L14.2756 46.5708ZM7.69558 44.8735L8.10497 43.2863C8.38154 42.2142 9.02228 41.7293 9.92625 41.9624C10.8407 42.1982 11.1565 42.9299 10.8799 44.0021L10.4705 45.5892L7.69558 44.8735Z" fill="black"/>
<path d="M19.5716 28.4649C18.7437 27.9065 17.7581 28.106 17.2179 28.9069C16.6777 29.708 16.8621 30.6965 17.6901 31.2549C18.4911 31.795 19.4677 31.5895 20.0079 30.7885C20.548 29.9875 20.3727 29.0051 19.5716 28.4649Z" fill="black"/>
<path d="M33.2056 19.4329L32.557 18.576L29.744 20.7053L25.6887 15.3475L24.7366 16.0682L29.4405 22.2828L33.2056 19.4329Z" fill="black"/>
<path d="M37.9473 15.578L34.6868 17.4206L33.4798 15.2847L36.3906 13.6397L35.8779 12.7325L32.9671 14.3775L31.8776 12.4496L35.0719 10.6444L34.5591 9.73712L30.3253 12.1298L34.16 18.9153L38.46 16.4852L37.9473 15.578Z" fill="black"/>
<path d="M42.3854 14.954L39.923 8.70214L42.2867 7.77114L41.8927 6.77134L36.0549 9.07047L36.4487 10.0704L38.8121 9.13958L41.2744 15.3916L42.3854 14.954Z" fill="black"/>
<path d="M45.2374 6.98768C45.0727 6.38004 44.6375 6.05919 44.082 6.20959C43.6211 6.33433 43.3831 6.70253 43.4968 7.12146C43.5931 7.4778 43.9555 7.69461 44.3536 7.58686C44.4269 7.56698 44.5081 7.53367 44.5833 7.47962C44.6141 7.96603 44.2742 8.37299 43.6789 8.50043L43.8321 9.06624C44.9026 8.86643 45.4814 7.88876 45.2374 6.98768Z" fill="black"/>
<path d="M54.1635 10.0062C53.9889 8.85794 53.1607 8.39063 51.7994 8.32311L50.628 8.27032C49.8856 8.22958 49.2137 8.06803 49.1027 7.33828C49.0016 6.67291 49.4593 5.99948 50.4575 5.8478C51.4232 5.70115 52.1863 6.24405 52.3912 7.15709L53.593 6.97461C53.2635 5.45446 51.9021 4.66223 50.3033 4.90497C48.704 5.14803 47.715 6.29731 47.9122 7.5959C48.111 8.90534 49.1814 9.30273 50.2982 9.35257L51.4469 9.39765C52.3669 9.45566 52.8345 9.71391 52.9321 10.358C53.053 11.152 52.3932 11.7244 51.4163 11.8729C50.2358 12.0522 49.5172 11.5136 49.3151 10.5452L48.1133 10.7276C48.4428 12.2477 49.725 13.0959 51.5816 12.8139C53.4489 12.5303 54.3671 11.3478 54.1635 10.0062Z" fill="black"/>
<path d="M64.236 12.7419L65.4679 12.8577L68.2171 5.28733L67.0498 5.17785L64.9964 11.0254L63.9481 4.8867L62.7162 4.77094L60.5232 10.5946L59.5924 4.47804L58.4251 4.36855L59.7184 12.3179L60.9395 12.4326L63.1641 6.503L64.236 12.7419Z" fill="black"/>
<path d="M70.7132 14.4692C72.8806 15.1018 75.0127 13.8803 75.6569 11.6713C76.3017 9.46208 75.1551 7.30698 72.9877 6.67444C70.8204 6.04191 68.6945 7.24244 68.0502 9.45141C67.4054 11.6607 68.5459 13.8366 70.7132 14.4692ZM71.0142 13.4376C69.4306 12.9752 68.7695 11.403 69.2377 9.79827C69.706 8.19351 71.1027 7.24393 72.6868 7.70604C74.2708 8.16815 74.9376 9.71969 74.4694 11.3245C74.0007 12.9295 72.5982 13.8997 71.0142 13.4376Z" fill="black"/>
<path d="M75.9468 16.2903L77.2183 13.6494L78.5093 14.271L78.9886 17.7547L80.2797 18.3763L79.7191 14.6608C80.9078 14.9196 81.9157 14.453 82.4006 13.4456C83.0741 12.0468 82.4872 10.7884 80.8732 10.0116L78.2522 8.74942L74.871 15.7723L75.9468 16.2903ZM78.8948 10.1673L80.3715 10.8785C81.369 11.3589 81.7197 12.0818 81.3147 12.923C80.9054 13.7737 80.1263 13.9407 79.1283 13.4606L77.6516 12.7495L78.8948 10.1673Z" fill="black"/>
<path d="M81.918 19.5865L83.9566 16.6016L84.6158 21.4295L85.8527 22.2745L85.1534 16.9855L90.1771 15.7895L89.0387 15.0119L84.2808 16.1267L86.3139 13.1505L85.3279 12.4769L80.9315 18.9132L81.918 19.5865Z" fill="black"/>
<path d="M90.6231 27.0606L95.5005 22.4389L97.2474 24.2829L98.0278 23.5435L93.7119 18.9893L92.932 19.7283L94.6789 21.5723L89.8014 26.194L90.6231 27.0606Z" fill="black"/>
<path d="M94.544 32.4334C95.8177 34.2977 98.2402 34.7067 100.141 33.4083C102.041 32.1102 102.522 29.7169 101.249 27.8526C99.9743 25.9886 97.5703 25.567 95.6699 26.8655C93.77 28.1636 93.2703 30.569 94.544 32.4334ZM95.4315 31.8271C94.5004 30.4648 94.9877 28.8304 96.368 27.8872C97.7484 26.9441 99.4301 27.0967 100.361 28.459C101.292 29.8215 100.822 31.4437 99.4425 32.3865C98.0621 33.3296 96.362 33.1896 95.4315 31.8271Z" fill="black"/>
<path d="M98.2394 39.3129C99.2207 41.4901 101.403 42.186 103.662 41.1208L102.039 37.5181L101.168 37.9105L102.273 40.365C100.967 40.7155 99.7807 40.2498 99.1877 38.9333C98.4747 37.3496 99.2298 35.8546 100.804 35.1456C102.476 34.3921 103.99 34.9246 104.623 36.3301C105.171 37.5475 104.821 38.6459 104.031 39.3234L104.602 40.5901C105.88 39.4903 106.441 37.7495 105.616 35.9184C104.684 33.8497 102.413 33.0631 100.315 34.0084C98.157 34.9806 97.3168 37.264 98.2394 39.3129Z" fill="black"/>
<path d="M102.243 47.8237L101.255 44.2115L103.621 43.5641L104.503 46.7889L105.508 46.5138L104.626 43.2893L106.762 42.7049L107.73 46.2436L108.735 45.9688L107.452 41.2781L99.934 43.3345L101.237 48.0989L102.243 47.8237Z" fill="black"/>
<path d="M101.76 52.28L108.425 51.424L108.749 53.9435L109.815 53.8061L109.015 47.5832L107.949 47.7197L108.273 50.2392L101.609 51.0961L101.76 52.28Z" fill="black"/>
<path d="M101.986 56.6454L105.48 56.7348L105.379 60.685L101.885 60.5956L101.854 61.789L109.645 61.989L109.676 60.7947L106.421 60.7116L106.522 56.7615L109.778 56.8451L109.808 55.6512L102.016 55.452L101.986 56.6454Z" fill="black"/>
<path d="M101.746 67.8545L102.402 64.1671L104.818 64.597L104.232 67.8888L105.257 68.0718L105.843 64.78L108.024 65.168L107.381 68.78L108.406 68.963L109.259 64.1753L101.586 62.8088L100.72 67.6718L101.746 67.8545Z" fill="black"/>
<path d="M100.001 69.8511L102.782 70.7759L102.329 72.1357L98.9352 73.0544L98.4827 74.4142L102.097 73.3851C101.992 74.597 102.583 75.5371 103.643 75.8899C105.116 76.3799 106.29 75.6378 106.855 73.938L107.773 71.1775L100.377 68.7181L100.001 69.8511ZM106.449 71.9952L105.931 73.551C105.582 74.6013 104.909 75.0415 104.024 74.7466C103.127 74.4488 102.862 73.6969 103.212 72.6466L103.729 71.0907L106.449 71.9952Z" fill="black"/>
<path d="M96.4349 85.2215C97.2226 85.8353 98.22 85.7039 98.8139 84.9419C99.4074 84.1794 99.2912 83.1808 98.5035 82.567C97.7415 81.9731 96.7532 82.1113 96.1594 82.8733C95.5655 83.6353 95.6729 84.6276 96.4349 85.2215Z" fill="black"/>
</svg>
