<svg width="16" height="16" viewBox="0 0 16 16" fill="none" xmlns="http://www.w3.org/2000/svg">
<path d="M8.0013 2.66602C4.66797 2.66602 1.8213 4.73935 0.667969 7.66602C1.8213 10.5927 4.66797 12.666 8.0013 12.666C11.3346 12.666 14.1813 10.5927 15.3346 7.66602C14.1813 4.73935 11.3346 2.66602 8.0013 2.66602ZM8.0013 10.9993C6.1613 10.9993 4.66797 9.50602 4.66797 7.66602C4.66797 5.82602 6.1613 4.33268 8.0013 4.33268C9.8413 4.33268 11.3346 5.82602 11.3346 7.66602C11.3346 9.50602 9.8413 10.9993 8.0013 10.9993ZM8.0013 5.66602C6.89464 5.66602 6.0013 6.55935 6.0013 7.66602C6.0013 8.77268 6.89464 9.66602 8.0013 9.66602C9.10797 9.66602 10.0013 8.77268 10.0013 7.66602C10.0013 6.55935 9.10797 5.66602 8.0013 5.66602Z" fill="#98A1AB"/>
<path d="M15.3652 0.341797L0.5 15.5" stroke="#98A1AB"/>
</svg>
