<svg width="12" height="14" viewBox="0 0 12 14" fill="none" xmlns="http://www.w3.org/2000/svg">
<path d="M6 8.425L7.425 9.85C7.575 9.9875 7.75325 10.0563 7.95975 10.0563C8.16575 10.0563 8.3375 9.9875 8.475 9.85C8.625 9.7 8.7 9.52175 8.7 9.31525C8.7 9.10925 8.625 8.9375 8.475 8.8L7.05 7.375L8.475 5.95C8.625 5.8 8.7 5.62175 8.7 5.41525C8.7 5.20925 8.625 5.0375 8.475 4.9C8.3375 4.75 8.16575 4.675 7.95975 4.675C7.75325 4.675 7.575 4.75 7.425 4.9L6 6.325L4.575 4.9C4.4375 4.75 4.26575 4.675 4.05975 4.675C3.85325 4.675 3.675 4.75 3.525 4.9C3.3875 5.0375 3.31875 5.20925 3.31875 5.41525C3.31875 5.62175 3.3875 5.8 3.525 5.95L4.95 7.375L3.525 8.8C3.3875 8.9375 3.31875 9.10925 3.31875 9.31525C3.31875 9.52175 3.3875 9.7 3.525 9.85C3.675 9.9875 3.85325 10.0563 4.05975 10.0563C4.26575 10.0563 4.4375 9.9875 4.575 9.85L6 8.425ZM2.25 13.75C1.8375 13.75 1.4845 13.6033 1.191 13.3097C0.897 13.0157 0.75 12.6625 0.75 12.25V2.5C0.5375 2.5 0.35925 2.42825 0.21525 2.28475C0.0717501 2.14075 0 1.9625 0 1.75C0 1.5375 0.0717501 1.35925 0.21525 1.21525C0.35925 1.07175 0.5375 1 0.75 1H3.75C3.75 0.7875 3.822 0.60925 3.966 0.46525C4.1095 0.32175 4.2875 0.25 4.5 0.25H7.5C7.7125 0.25 7.89075 0.32175 8.03475 0.46525C8.17825 0.60925 8.25 0.7875 8.25 1H11.25C11.4625 1 11.6405 1.07175 11.784 1.21525C11.928 1.35925 12 1.5375 12 1.75C12 1.9625 11.928 2.14075 11.784 2.28475C11.6405 2.42825 11.4625 2.5 11.25 2.5V12.25C11.25 12.6625 11.1033 13.0157 10.8097 13.3097C10.5157 13.6033 10.1625 13.75 9.75 13.75H2.25Z" fill="#DA322A"/>
</svg>
