<svg width="26" height="36" viewBox="0 0 26 36" fill="none" xmlns="http://www.w3.org/2000/svg">
<path d="M1.2358 21.8437C1.67855 21.3766 2.22239 21.1436 2.86731 21.1446C3.51227 21.1471 4.06826 21.3698 4.53529 21.8125L11.1321 28.0665L10.4554 2.70618C10.4383 2.06175 10.6422 1.51536 11.0672 1.06701C11.4908 0.620219 12.0248 0.388226 12.6692 0.371032C13.3137 0.353838 13.86 0.557006 14.3083 0.980535C14.7552 1.40562 14.9872 1.94038 15.0044 2.58481L15.681 27.9451L21.9903 21.2899C22.433 20.8229 22.9675 20.581 23.5938 20.5643C24.2185 20.5476 24.7644 20.7607 25.2314 21.2034C25.6984 21.6462 25.9403 22.1807 25.957 22.8069C25.9737 23.4316 25.7606 23.9775 25.3179 24.4446L15.1898 35.1279C14.9685 35.3614 14.7264 35.5294 14.4636 35.632C14.2007 35.7331 13.9177 35.7877 13.6144 35.7958C13.3111 35.8039 13.0256 35.7645 12.7577 35.6776C12.4898 35.5891 12.2391 35.4342 12.0056 35.2128L1.2639 25.0294C0.835786 24.6236 0.613393 24.1083 0.596725 23.4836C0.580016 22.8573 0.793042 22.3107 1.2358 21.8437Z" fill="black"/>
</svg>
