<svg width="14" height="14" viewBox="0 0 14 14" fill="none" xmlns="http://www.w3.org/2000/svg">
<path d="M12.475 4.69375L9.2875 1.54375L10.3375 0.49375C10.625 0.20625 10.9783 0.0625 11.3973 0.0625C11.8158 0.0625 12.1687 0.20625 12.4562 0.49375L13.5062 1.54375C13.7937 1.83125 13.9437 2.17825 13.9562 2.58475C13.9688 2.99075 13.8313 3.3375 13.5438 3.625L12.475 4.69375ZM1 13.75C0.7875 13.75 0.6095 13.678 0.466 13.534C0.322 13.3905 0.25 13.2125 0.25 13V10.8812C0.25 10.7812 0.26875 10.6845 0.30625 10.591C0.34375 10.497 0.4 10.4125 0.475 10.3375L8.2 2.6125L11.3875 5.8L3.6625 13.525C3.5875 13.6 3.50325 13.6562 3.40975 13.6937C3.31575 13.7312 3.21875 13.75 3.11875 13.75H1Z" fill="#3D83DF"/>
</svg>
