<svg width="22" height="23" viewBox="0 0 22 23" fill="none" xmlns="http://www.w3.org/2000/svg">
<path d="M11 0.390625C4.92525 0.390625 0 5.31587 0 11.3906C0 17.4654 4.92525 22.3906 11 22.3906C17.0748 22.3906 22 17.4654 22 11.3906C22 5.31587 17.0748 0.390625 11 0.390625ZM14.8326 7.72396H13.2477C12.2613 7.72396 11.9167 8.24463 11.9167 9.29879V10.474H14.8078L14.4155 13.224H11.9167V20.5115C11.6151 20.5408 11.3098 20.5573 11 20.5573C10.3721 20.5573 9.75883 20.4931 9.16667 20.373V13.224H6.41667V10.474H9.16667V8.99721C9.16667 6.20138 10.5288 4.97396 12.8526 4.97396C13.9654 4.97396 14.5539 5.05646 14.8326 5.09404V7.72396Z" fill="#3D83DF"/>
</svg>
