<svg width="20" height="22" viewBox="0 0 20 22" fill="none" xmlns="http://www.w3.org/2000/svg">
<path d="M3.40039 1.1001H16.6004C17.7004 1.1001 18.6004 2.0001 18.6004 3.1001V5.3001C18.6004 6.1001 18.1004 7.1001 17.6004 7.6001L13.3004 11.4001C12.7004 11.9001 12.3004 12.9001 12.3004 13.7001V18.0001C12.3004 18.6001 11.9004 19.4001 11.4004 19.7001L10.0004 20.6001C8.70039 21.4001 6.90039 20.5001 6.90039 18.9001V13.6001C6.90039 12.9001 6.50039 12.0001 6.10039 11.5001L2.30039 7.5001C1.80039 7.0001 1.40039 6.1001 1.40039 5.5001V3.2001C1.40039 2.0001 2.30039 1.1001 3.40039 1.1001Z" stroke="#292D32" stroke-width="1.5" stroke-miterlimit="10" stroke-linecap="round" stroke-linejoin="round"/>
</svg>
