<svg width="451" height="390" viewBox="0 0 451 390" fill="none" xmlns="http://www.w3.org/2000/svg">
<g clip-path="url(#clip0_225_10396)">
<path d="M381.346 254.518C374.381 264.452 366.135 273.932 356.639 282.664C350.876 287.974 344.645 293.019 337.945 297.705C337.102 298.299 336.274 298.877 335.415 299.455C308.053 317.979 273.211 330.881 230.997 333.958C211.803 335.363 191.079 334.739 168.855 331.693C162.827 330.849 156.674 329.85 150.411 328.647C137.48 326.179 125.517 322.837 114.491 318.76C100.217 313.481 87.5197 306.967 76.3376 299.455C-18.1478 236.056 -4.10775 102.588 81.9286 57.5574C84.9584 55.9486 88.0819 54.4803 91.2991 53.1215C99.9512 49.4509 109.244 46.6238 119.129 44.7963C153.222 38.4705 183.176 34.3626 209.523 32.2696C212.693 32.0197 215.817 31.801 218.878 31.598C228.639 30.9732 237.869 30.6452 246.614 30.5983C249.8 30.5671 252.924 30.5983 255.985 30.6296C256.25 30.6296 256.5 30.6452 256.75 30.6452C284.705 31.1762 307.366 34.7375 325.842 40.8759C346.785 47.8577 362.371 58.1353 374.209 71.0525C377.645 74.8011 380.752 78.7528 383.579 82.9388C395.199 99.9327 402.242 120.332 407.458 143.058C415.283 177.108 406.49 218.749 381.346 254.518Z" fill="#E0F0FF"/>
<path d="M335.415 299.455C308.053 317.979 273.211 330.881 230.997 333.958C211.803 335.363 191.079 334.739 168.855 331.693C162.827 330.849 156.674 329.85 150.411 328.647C137.48 326.179 125.517 322.837 114.491 318.76C100.217 313.481 87.5197 306.967 76.3376 299.455H335.415Z" fill="url(#paint0_linear_225_10396)"/>
<path d="M383.58 82.9388V232.479H246.615V30.5983C249.801 30.5671 252.924 30.5983 255.985 30.6296C256.251 30.6296 256.501 30.6452 256.751 30.6452C284.706 31.1762 307.367 34.7375 325.842 40.8759C346.785 47.8577 362.371 58.1353 374.209 71.0525C377.645 74.8011 380.753 78.7528 383.58 82.9388Z" fill="url(#paint1_linear_225_10396)"/>
<path d="M374.21 71.0525V223.107H255.986V30.6296C256.252 30.6296 256.501 30.6452 256.751 30.6452C284.707 31.1763 307.367 34.7375 325.843 40.8759C346.786 47.8577 362.372 58.1353 374.21 71.0525Z" fill="url(#paint2_linear_225_10396)"/>
<path d="M218.879 31.598V232.479H81.9294V57.5573C84.9592 55.9486 88.0827 54.4803 91.2999 53.1214C99.952 49.4509 109.244 46.6238 119.13 44.7963C153.223 38.4705 183.177 34.3626 209.524 32.2696C212.694 32.0197 215.818 31.801 218.879 31.598Z" fill="url(#paint3_linear_225_10396)"/>
<path d="M209.524 32.2696V223.107H91.3005V53.1214C99.9526 49.4509 109.245 46.6238 119.131 44.7963C153.224 38.4705 183.178 34.3626 209.524 32.2696Z" fill="url(#paint4_linear_225_10396)"/>
<path d="M26.8481 26.3573L208.628 5.48285C213.453 4.92874 217.829 8.40387 218.383 13.2298L220.157 28.6851L20.8765 51.5693L19.1022 36.114C18.5481 31.2881 22.0228 26.9114 26.8481 26.3573Z" fill="url(#paint5_linear_225_10396)"/>
<path d="M20.8943 51.5624L220.175 28.6782L235.186 159.428C235.74 164.254 232.265 168.63 227.44 169.185L45.6606 190.059C40.8352 190.613 36.4591 187.138 35.9051 182.312L20.8943 51.5624Z" fill="url(#paint6_linear_225_10396)"/>
<path d="M44.5712 71.1775L41.0885 71.5836L40.6044 73.2705L38.824 73.4735L41.3071 65.5857L43.0251 65.3827L47.2418 72.5051L45.4145 72.7082L44.5712 71.1775ZM43.8684 69.9279L42.3535 67.1945L41.4946 70.2091L43.8684 69.9435V69.9279Z" fill="url(#paint7_linear_225_10396)"/>
<path d="M52.9422 66.0074L53.5982 71.771L52.0208 71.9584L51.9427 71.2712C51.7553 71.5523 51.5054 71.771 51.2087 71.9428C50.912 72.1146 50.5996 72.2083 50.2404 72.2552C49.4752 72.3489 48.8505 72.1927 48.3663 71.8022C47.8822 71.4118 47.5855 70.8026 47.4761 69.9435L47.1013 66.6947L48.7724 66.5073L49.116 69.5218C49.2253 70.4433 49.6626 70.8651 50.4434 70.787C50.8495 70.7401 51.1462 70.5683 51.3649 70.2872C51.5835 70.006 51.6616 69.5999 51.5991 69.0845L51.2712 66.2417L52.9422 66.0543V66.0074Z" fill="url(#paint8_linear_225_10396)"/>
<path d="M60.4377 65.1484L60.9844 69.9435C61.1093 71.0056 60.9219 71.8178 60.4221 72.3958C59.9224 72.9737 59.1571 73.3173 58.0951 73.4423C57.5329 73.5047 57.0019 73.5047 56.4865 73.4266C55.9712 73.3485 55.5339 73.1924 55.1747 72.9737L55.7057 71.6929C55.9712 71.8647 56.2991 71.9897 56.6739 72.0678C57.0644 72.1459 57.4392 72.1615 57.814 72.1146C58.3919 72.0521 58.7979 71.8647 59.0478 71.5836C59.2977 71.2868 59.3914 70.8807 59.3289 70.3496L59.2977 70.0997C58.9229 70.6308 58.345 70.9432 57.5641 71.0213C57.0331 71.0837 56.5334 71.0213 56.0805 70.8338C55.612 70.6464 55.2215 70.3652 54.9248 69.9748C54.6124 69.5843 54.4407 69.1157 54.3782 68.569C54.3157 68.0223 54.3782 67.5225 54.5968 67.0696C54.7999 66.6166 55.1122 66.2574 55.5339 65.9762C55.9399 65.6951 56.4241 65.5232 56.9394 65.4608C57.7672 65.367 58.4387 65.5701 58.9385 66.0699L58.8604 65.3358L60.4534 65.1484H60.4377ZM58.7979 69.1157C59.0478 68.8189 59.1571 68.4597 59.1103 68.038C59.0634 67.6162 58.876 67.2882 58.5637 67.0696C58.2513 66.8353 57.8765 66.7572 57.4236 66.804C56.9707 66.8509 56.6271 67.0227 56.3772 67.3195C56.1273 67.6162 56.018 67.9755 56.0649 68.3972C56.1117 68.8189 56.2991 69.1469 56.6115 69.3656C56.9238 69.5999 57.2986 69.678 57.7515 69.6311C58.1888 69.5843 58.548 69.4125 58.7979 69.1157Z" fill="url(#paint9_linear_225_10396)"/>
<path d="M67.7938 64.3049L68.4497 70.0685L66.8724 70.2559L66.7943 69.5687C66.6069 69.8498 66.357 70.0685 66.0603 70.2403C65.7635 70.4121 65.4512 70.5058 65.092 70.5527C64.3267 70.6464 63.702 70.4902 63.2179 70.0997C62.7338 69.7092 62.437 69.1001 62.3277 68.241L61.9529 64.9922L63.624 64.8048L63.9675 67.8193C64.0769 68.7408 64.5141 69.1626 65.295 69.0845C65.7011 69.0376 65.9978 68.8658 66.2164 68.5846C66.4351 68.3035 66.5132 67.8974 66.4507 67.3819L66.1227 64.5392L67.7938 64.3518V64.3049Z" fill="url(#paint10_linear_225_10396)"/>
<path d="M70.5437 69.7405C70.0752 69.678 69.6848 69.5686 69.4036 69.4281L69.8253 68.1629C70.1064 68.3035 70.4344 68.3972 70.8092 68.4597C71.184 68.5221 71.5432 68.5378 71.9024 68.4909C72.6052 68.4128 72.9488 68.1941 72.902 67.8505C72.8863 67.6787 72.777 67.585 72.574 67.5225C72.371 67.4756 72.0742 67.4444 71.6682 67.4444C71.184 67.4288 70.7936 67.3819 70.4656 67.3351C70.1533 67.2726 69.8566 67.1476 69.6067 66.929C69.3568 66.7259 69.2006 66.3979 69.1538 65.9606C69.1069 65.6013 69.185 65.2577 69.3568 64.9609C69.5286 64.6485 69.8097 64.3986 70.2001 64.1956C70.5906 63.9925 71.0591 63.852 71.6057 63.7895C72.0118 63.7426 72.4178 63.7426 72.8395 63.7895C73.2612 63.8363 73.6047 63.9144 73.8859 64.0394L73.4642 65.2889C72.9332 65.0546 72.3553 64.9766 71.7619 65.0546C71.4027 65.1015 71.1372 65.1796 70.981 65.3046C70.8092 65.4295 70.7468 65.5701 70.7624 65.7263C70.778 65.8981 70.8873 66.023 71.0903 66.0699C71.2934 66.1168 71.6057 66.148 72.0274 66.1636C72.5115 66.1949 72.902 66.2261 73.2143 66.2886C73.5267 66.3511 73.8078 66.476 74.0576 66.6791C74.3075 66.8821 74.4481 67.2101 74.4949 67.6318C74.5418 67.9911 74.4637 68.3191 74.2763 68.6159C74.0889 68.9126 73.8078 69.1782 73.4173 69.3656C73.0269 69.5686 72.5428 69.6936 71.9805 69.7561C71.4964 69.8186 71.0279 69.8029 70.5593 69.7561L70.5437 69.7405Z" fill="url(#paint11_linear_225_10396)"/>
<path d="M79.3821 68.5222C79.2259 68.6627 79.0385 68.7721 78.8042 68.8658C78.57 68.9595 78.3201 69.0064 78.0546 69.0376C77.3674 69.1157 76.8208 69.0064 76.3992 68.694C75.9775 68.3816 75.7432 67.8974 75.6651 67.2101L75.3996 64.836L74.5095 64.9453L74.3689 63.6645L75.2591 63.5552L75.1029 62.1495L76.774 61.962L76.9302 63.3678L78.367 63.196L78.5075 64.4768L77.0707 64.6486L77.3362 66.9915C77.3674 67.2414 77.4455 67.4132 77.5861 67.5382C77.7266 67.6631 77.9141 67.6943 78.1327 67.6787C78.3982 67.6475 78.6168 67.5538 78.7886 67.382L79.3665 68.5066L79.3821 68.5222Z" fill="url(#paint12_linear_225_10396)"/>
<path d="M204.946 49.9719L95.7166 62.5151L95.8662 63.8186L205.095 51.2754L204.946 49.9719Z" fill="url(#paint13_linear_225_10396)"/>
<path d="M55.098 81.5806L40.4669 83.2607C38.8131 83.4507 37.6263 84.9455 37.8162 86.5995L39.2664 99.2307C39.4563 100.885 40.9509 102.072 42.6047 101.882L57.2358 100.202C58.8896 100.012 60.0763 98.5168 59.8864 96.8628L58.4363 84.2316C58.2464 82.5776 56.7518 81.3907 55.098 81.5806Z" fill="url(#paint14_linear_225_10396)"/>
<path d="M80.6332 78.6553L66.0021 80.3355C64.3482 80.5254 63.1615 82.0202 63.3514 83.6742L64.8015 96.3054C64.9914 97.9594 66.486 99.1463 68.1398 98.9564L82.7709 97.2762C84.4248 97.0863 85.6115 95.5915 85.4216 93.9375L83.9715 81.3063C83.7816 79.6523 82.287 78.4654 80.6332 78.6553Z" fill="url(#paint15_linear_225_10396)"/>
<path d="M106.164 75.7145L91.5333 77.3947C89.8795 77.5846 88.6928 79.0794 88.8826 80.7334L90.3328 93.3646C90.5227 95.0186 92.0173 96.2055 93.6711 96.0156L108.302 94.3354C109.956 94.1455 111.143 92.6507 110.953 90.9967L109.503 78.3655C109.313 76.7115 107.818 75.5246 106.164 75.7145Z" fill="url(#paint16_linear_225_10396)"/>
<path d="M131.682 72.7755L117.051 74.4557C115.397 74.6456 114.21 76.1404 114.4 77.7944L115.85 90.4256C116.04 92.0796 117.535 93.2665 119.189 93.0766L133.82 91.3964C135.474 91.2065 136.66 89.7117 136.47 88.0577L135.02 75.4265C134.83 73.7725 133.336 72.5856 131.682 72.7755Z" fill="url(#paint17_linear_225_10396)"/>
<path d="M157.217 69.8659L142.586 71.5461C140.932 71.736 139.745 73.2308 139.935 74.8848L141.386 87.516C141.575 89.17 143.07 90.3569 144.724 90.167L159.355 88.4868C161.009 88.2969 162.195 86.8021 162.006 85.1481L160.555 72.5169C160.366 70.8629 158.871 69.676 157.217 69.8659Z" fill="url(#paint18_linear_225_10396)"/>
<path d="M182.748 66.9251L168.117 68.6053C166.463 68.7952 165.277 70.29 165.467 71.944L166.917 84.5752C167.107 86.2292 168.601 87.4161 170.255 87.2262L184.886 85.546C186.54 85.3561 187.727 83.8613 187.537 82.2073L186.087 69.5761C185.897 67.9221 184.402 66.7352 182.748 66.9251Z" fill="url(#paint19_linear_225_10396)"/>
<path d="M208.282 63.9843L193.65 65.6645C191.997 65.8544 190.81 67.3492 191 69.0032L192.45 81.6344C192.64 83.2884 194.134 84.4753 195.788 84.2854L210.419 82.6052C212.073 82.4153 213.26 80.9205 213.07 79.2665L211.62 66.6353C211.43 64.9813 209.935 63.7944 208.282 63.9843Z" fill="url(#paint20_linear_225_10396)"/>
<path d="M57.6214 103.578L42.9903 105.258C41.3365 105.448 40.1498 106.943 40.3397 108.597L41.7898 121.228C41.9797 122.882 43.4743 124.069 45.1281 123.879L59.7592 122.199C61.413 122.009 62.5998 120.514 62.4099 118.86L60.9598 106.229C60.7699 104.575 59.2753 103.388 57.6214 103.578Z" fill="url(#paint21_linear_225_10396)"/>
<path d="M83.1566 100.653L68.5255 102.333C66.8717 102.523 65.6849 104.017 65.8748 105.671L67.325 118.303C67.5148 119.957 69.0095 121.144 70.6633 120.954L85.2944 119.274C86.9482 119.084 88.1349 117.589 87.945 115.935L86.4949 103.304C86.305 101.65 84.8104 100.463 83.1566 100.653Z" fill="url(#paint22_linear_225_10396)"/>
<path d="M108.672 97.7135L94.0411 99.3937C92.3873 99.5836 91.2006 101.078 91.3905 102.732L92.8406 115.364C93.0305 117.018 94.5251 118.204 96.1789 118.015L110.81 116.334C112.464 116.145 113.651 114.65 113.461 112.996L112.011 100.365C111.821 98.7105 110.326 97.5236 108.672 97.7135Z" fill="url(#paint23_linear_225_10396)"/>
<path d="M134.207 94.7883L119.576 96.4684C117.922 96.6584 116.736 98.1532 116.926 99.8072L118.376 112.438C118.566 114.092 120.06 115.279 121.714 115.089L136.345 113.409C137.999 113.219 139.186 111.724 138.996 110.07L137.546 97.4393C137.356 95.7853 135.861 94.5984 134.207 94.7883Z" fill="url(#paint24_linear_225_10396)"/>
<path d="M159.741 91.8476L145.109 93.5277C143.456 93.7176 142.269 95.2124 142.459 96.8664L143.909 109.498C144.099 111.152 145.593 112.339 147.247 112.149L161.878 110.468C163.532 110.279 164.719 108.784 164.529 107.13L163.079 94.4986C162.889 92.8445 161.394 91.6577 159.741 91.8476Z" fill="url(#paint25_linear_225_10396)"/>
<path d="M185.272 88.9068L170.641 90.5869C168.987 90.7768 167.8 92.2716 167.99 93.9256L169.44 106.557C169.63 108.211 171.125 109.398 172.779 109.208L187.41 107.528C189.063 107.338 190.25 105.843 190.06 104.189L188.61 91.5578C188.42 89.9037 186.926 88.7169 185.272 88.9068Z" fill="url(#paint26_linear_225_10396)"/>
<path d="M210.807 85.9989L196.176 87.6791C194.522 87.869 193.335 89.3638 193.525 91.0178L194.975 103.649C195.165 105.303 196.66 106.49 198.314 106.3L212.945 104.62C214.599 104.43 215.785 102.935 215.595 101.281L214.145 88.6499C213.955 86.9959 212.461 85.809 210.807 85.9989Z" fill="url(#paint27_linear_225_10396)"/>
<path d="M60.1468 125.577L45.5157 127.257C43.8619 127.447 42.6752 128.942 42.8651 130.596L44.3152 143.227C44.5051 144.881 45.9997 146.068 47.6535 145.878L62.2846 144.198C63.9384 144.008 65.1252 142.513 64.9353 140.859L63.4851 128.228C63.2953 126.574 61.8006 125.387 60.1468 125.577Z" fill="url(#paint28_linear_225_10396)"/>
<path d="M85.68 122.636L71.0489 124.316C69.3951 124.506 68.2084 126.001 68.3983 127.655L69.8484 140.286C70.0383 141.94 71.5329 143.127 73.1867 142.937L87.8178 141.257C89.4716 141.067 90.6584 139.572 90.4685 137.918L89.0184 125.287C88.8285 123.633 87.3338 122.446 85.68 122.636Z" fill="url(#paint29_linear_225_10396)"/>
<path d="M111.211 119.711L96.5802 121.391C94.9264 121.581 93.7396 123.076 93.9295 124.73L95.3796 137.361C95.5695 139.015 97.0642 140.202 98.718 140.012L113.349 138.332C115.003 138.142 116.19 136.647 116 134.993L114.55 122.362C114.36 120.708 112.865 119.521 111.211 119.711Z" fill="url(#paint30_linear_225_10396)"/>
<path d="M136.747 116.785L122.116 118.466C120.462 118.656 119.275 120.15 119.465 121.804L120.915 134.436C121.105 136.09 122.6 137.276 124.253 137.087L138.884 135.406C140.538 135.216 141.725 133.722 141.535 132.068L140.085 119.436C139.895 117.782 138.4 116.596 136.747 116.785Z" fill="url(#paint31_linear_225_10396)"/>
<path d="M162.28 113.845L147.649 115.525C145.995 115.715 144.808 117.21 144.998 118.864L146.448 131.495C146.638 133.149 148.133 134.336 149.786 134.146L164.417 132.466C166.071 132.276 167.258 130.781 167.068 129.127L165.618 116.496C165.428 114.842 163.933 113.655 162.28 113.845Z" fill="url(#paint32_linear_225_10396)"/>
<path d="M187.797 110.921L173.166 112.601C171.512 112.791 170.326 114.286 170.515 115.94L171.966 128.571C172.155 130.225 173.65 131.412 175.304 131.222L189.935 129.542C191.589 129.352 192.776 127.857 192.586 126.203L191.136 113.572C190.946 111.918 189.451 110.731 187.797 110.921Z" fill="url(#paint33_linear_225_10396)"/>
<path d="M213.33 107.98L198.699 109.661C197.046 109.851 195.859 111.345 196.049 112.999L197.499 125.631C197.689 127.285 199.183 128.471 200.837 128.282L215.468 126.601C217.122 126.411 218.309 124.917 218.119 123.263L216.669 110.631C216.479 108.977 214.984 107.791 213.33 107.98Z" fill="url(#paint34_linear_225_10396)"/>
<path d="M62.6703 147.574L48.0392 149.254C46.3854 149.444 45.1986 150.939 45.3885 152.593L46.8386 165.224C47.0285 166.878 48.5231 168.065 50.1769 167.875L64.808 166.195C66.4619 166.005 67.6486 164.51 67.4587 162.856L66.0086 150.225C65.8187 148.571 64.3241 147.384 62.6703 147.574Z" fill="url(#paint35_linear_225_10396)"/>
<path d="M88.2035 144.633L73.5724 146.313C71.9186 146.503 70.7318 147.998 70.9217 149.652L72.3718 162.283C72.5617 163.937 74.0563 165.124 75.7101 164.934L90.3412 163.254C91.9951 163.064 93.1818 161.569 92.9919 159.915L91.5418 147.284C91.3519 145.63 89.8573 144.443 88.2035 144.633Z" fill="url(#paint36_linear_225_10396)"/>
<path d="M113.737 141.708L99.1056 143.388C97.4518 143.578 96.265 145.073 96.4549 146.727L97.905 159.358C98.0949 161.012 99.5895 162.199 101.243 162.009L115.874 160.329C117.528 160.139 118.715 158.644 118.525 156.99L117.075 144.359C116.885 142.705 115.39 141.518 113.737 141.708Z" fill="url(#paint37_linear_225_10396)"/>
<path d="M139.254 138.769L124.623 140.449C122.969 140.639 121.783 142.134 121.972 143.788L123.423 156.419C123.613 158.073 125.107 159.26 126.761 159.07L141.392 157.39C143.046 157.2 144.233 155.705 144.043 154.051L142.593 141.42C142.403 139.766 140.908 138.579 139.254 138.769Z" fill="url(#paint38_linear_225_10396)"/>
<path d="M164.787 135.844L150.156 137.524C148.503 137.714 147.316 139.209 147.506 140.863L148.956 153.494C149.146 155.148 150.64 156.335 152.294 156.145L166.925 154.465C168.579 154.275 169.766 152.78 169.576 151.126L168.126 138.495C167.936 136.841 166.441 135.654 164.787 135.844Z" fill="url(#paint39_linear_225_10396)"/>
<path d="M190.321 132.919L175.69 134.599C174.036 134.789 172.849 136.283 173.039 137.937L174.489 150.569C174.679 152.223 176.174 153.41 177.827 153.22L192.458 151.54C194.112 151.35 195.299 149.855 195.109 148.201L193.659 135.57C193.469 133.916 191.974 132.729 190.321 132.919Z" fill="url(#paint40_linear_225_10396)"/>
<path d="M215.854 129.978L201.223 131.658C199.569 131.848 198.382 133.343 198.572 134.997L200.022 147.628C200.212 149.282 201.707 150.469 203.361 150.279L217.992 148.599C219.645 148.409 220.832 146.914 220.642 145.26L219.192 132.629C219.002 130.975 217.508 129.788 215.854 129.978Z" fill="url(#paint41_linear_225_10396)"/>
<path d="M53.8962 35.5028C52.2876 35.6902 50.8196 34.5344 50.6478 32.9256L48.9611 18.259C48.7737 16.6502 49.9294 15.182 51.538 15.0102C53.1466 14.8228 54.6146 15.9786 54.7864 17.5874L56.4731 32.254C56.6605 33.8628 55.5048 35.331 53.8962 35.5028Z" fill="url(#paint42_linear_225_10396)"/>
<path d="M86.5209 31.7698C84.9124 31.9572 83.4443 30.8014 83.2725 29.1926L81.5858 14.526C81.3984 12.9172 82.5541 11.449 84.1627 11.2772C85.7713 11.0897 87.2394 12.2456 87.4111 13.8544L89.0978 28.5209C89.2852 30.1297 88.1295 31.598 86.5209 31.7698Z" fill="url(#paint43_linear_225_10396)"/>
<path d="M119.131 28.0211C117.522 28.2086 116.054 27.0527 115.882 25.444L114.195 10.7774C114.008 9.16857 115.164 7.70035 116.772 7.52853C118.381 7.3411 119.849 8.49693 120.021 10.1057L121.707 24.7723C121.895 26.3811 120.739 27.8493 119.131 28.0211Z" fill="url(#paint44_linear_225_10396)"/>
<path d="M151.756 24.2725C150.147 24.4599 148.679 23.3041 148.507 21.6953L146.82 7.02871C146.633 5.41991 147.789 3.95169 149.397 3.77988C151.006 3.59244 152.474 4.74828 152.646 6.35707L154.332 21.0237C154.52 22.6325 153.364 24.1007 151.756 24.2725Z" fill="url(#paint45_linear_225_10396)"/>
<path d="M184.381 20.5395C182.772 20.7269 181.304 19.5711 181.132 17.9623L179.445 3.29567C179.258 1.68688 180.414 0.218658 182.022 0.0468449C183.631 -0.140588 185.099 1.01525 185.271 2.62404L186.957 17.2906C187.145 18.8994 185.989 20.3676 184.381 20.5395Z" fill="url(#paint46_linear_225_10396)"/>
<path d="M338.618 289.567C338.618 289.567 338.618 289.599 338.618 289.677L337.962 297.705C310.225 317.167 274.539 330.787 231.013 333.958L233.247 286.975L265.903 277.322L279.209 279.571L338.633 289.567H338.618Z" fill="url(#paint47_linear_225_10396)"/>
<path d="M372.071 201.818C365.184 207.519 354.829 213.782 341.523 215.204L338.618 200.865V289.567C338.618 289.567 338.618 293.66 324.141 296.627C315.614 298.377 294.015 300.642 272.713 298.705C257.923 297.362 243.274 293.972 233.232 286.975C233.232 271.511 236.355 186.386 236.543 181.091V180.825C236.543 180.825 230.889 193.227 223.127 206.566C221.285 204.848 219.02 202.724 216.474 200.256C211.508 195.492 205.417 189.51 199.139 182.981C198.233 182.044 197.343 181.107 196.437 180.154C205.027 160.161 218.099 132.312 225.985 127.751C234.372 122.909 255.268 117.317 268.199 114.146C274.602 112.569 279.038 111.6 279.038 111.6L297.06 110.007C297.06 110.007 301.527 111.241 308.024 113.334C322.876 118.129 348.348 127.47 355.313 137.029C360.014 143.464 366.495 172.625 372.071 201.818Z" fill="url(#paint48_linear_225_10396)"/>
<path d="M223.127 206.566C214.038 222.186 202.075 239.101 192.954 238.914C168.544 238.367 121.895 163.097 121.895 163.097C121.895 163.097 111.134 159.567 110.197 157.818C109.276 156.053 110.853 151.32 110.853 151.32C110.853 151.32 98.4218 132.202 101.389 130.437C104.356 128.672 112.243 143.526 112.243 143.526C112.243 143.526 119.302 139.075 122.082 139.075C124.862 139.075 131.172 147.228 132.28 152.242C133.389 157.256 187.863 200.959 187.863 200.959C187.863 200.959 190.159 195.055 193.719 186.573C194.563 184.558 195.468 182.403 196.437 180.154C206.9 191.212 217.208 201.037 223.127 206.566Z" fill="#FFD9D9"/>
<path d="M381.348 254.518C374.382 264.452 366.136 273.932 356.641 282.664L341.523 215.204C354.829 213.782 365.184 207.519 372.071 201.818C375.882 221.811 379.271 241.803 381.348 254.518Z" fill="#FFD9D9"/>
<path d="M338.619 200.865V289.567C338.619 289.567 338.619 293.66 324.141 296.627C315.614 298.377 294.015 300.642 272.713 298.705C267.013 273.604 309.992 268.95 305.213 249.113C300.403 229.074 323.032 235.384 324.141 204.723C325.266 174.078 331.575 174.89 331.575 174.89L338.619 200.865Z" fill="url(#paint49_linear_225_10396)"/>
<mask id="mask0_225_10396" style="mask-type:luminance" maskUnits="userSpaceOnUse" x="196" y="110" width="177" height="190">
<path d="M372.071 201.818C365.184 207.519 354.829 213.782 341.523 215.204L338.618 200.865V289.567C338.618 289.567 338.618 293.66 324.141 296.627C315.614 298.377 294.015 300.642 272.713 298.705C257.923 297.362 243.274 293.972 233.232 286.975C233.232 271.511 236.355 186.386 236.543 181.091V180.825C236.543 180.825 230.889 193.227 223.127 206.566C221.285 204.848 219.02 202.724 216.474 200.256C210.79 194.82 203.653 187.776 196.437 180.154C205.027 160.161 218.099 132.312 225.985 127.751C238.511 120.503 279.038 111.6 279.038 111.6L297.06 110.007C297.06 110.007 345.303 123.299 355.313 137.029C360.014 143.464 366.495 172.625 372.071 201.818Z" fill="white"/>
</mask>
<g mask="url(#mask0_225_10396)">
<g style="mix-blend-mode:overlay" opacity="0.25">
<path d="M249.6 106.43C250.084 108.227 249.022 110.085 247.21 110.57C245.414 111.054 243.556 109.992 243.072 108.18C242.588 106.384 243.65 104.525 245.461 104.041C247.257 103.556 249.116 104.619 249.6 106.43Z" fill="white"/>
</g>
<g style="mix-blend-mode:overlay" opacity="0.25">
<path d="M254.145 123.362C254.629 125.158 253.567 127.017 251.755 127.501C249.959 127.985 248.101 126.923 247.617 125.111C247.133 123.315 248.195 121.456 250.006 120.972C251.802 120.488 253.661 121.55 254.145 123.362Z" fill="white"/>
</g>
<g style="mix-blend-mode:overlay" opacity="0.25">
<path d="M273.135 118.27C273.619 120.066 272.557 121.925 270.746 122.409C268.95 122.893 267.091 121.831 266.607 120.019C266.123 118.223 267.185 116.364 268.996 115.88C270.792 115.396 272.651 116.458 273.135 118.27Z" fill="white"/>
</g>
<g style="mix-blend-mode:overlay" opacity="0.25">
<path d="M292.127 113.162C292.611 114.959 291.549 116.817 289.738 117.302C287.942 117.786 286.083 116.724 285.599 114.912C285.115 113.116 286.177 111.257 287.989 110.773C289.785 110.288 291.643 111.351 292.127 113.162Z" fill="white"/>
</g>
<g style="mix-blend-mode:overlay" opacity="0.25">
<path d="M311.117 108.07C311.602 109.867 310.54 111.725 308.728 112.21C306.932 112.694 305.074 111.632 304.589 109.82C304.105 108.024 305.167 106.165 306.979 105.681C308.775 105.196 310.633 106.259 311.117 108.07Z" fill="white"/>
</g>
<g style="mix-blend-mode:overlay" opacity="0.25">
<path d="M258.705 140.309C259.189 142.105 258.127 143.964 256.316 144.448C254.52 144.932 252.661 143.87 252.177 142.058C251.693 140.262 252.755 138.403 254.567 137.919C256.363 137.435 258.221 138.497 258.705 140.309Z" fill="white"/>
</g>
<g style="mix-blend-mode:overlay" opacity="0.25">
<path d="M277.68 135.201C278.164 136.998 277.102 138.856 275.291 139.34C273.494 139.825 271.636 138.763 271.152 136.951C270.668 135.154 271.73 133.296 273.541 132.812C275.337 132.327 277.196 133.389 277.68 135.201Z" fill="white"/>
</g>
<g style="mix-blend-mode:overlay" opacity="0.25">
<path d="M296.672 130.109C297.156 131.906 296.094 133.764 294.283 134.249C292.487 134.733 290.628 133.671 290.144 131.859C289.66 130.063 290.722 128.204 292.534 127.72C294.33 127.235 296.188 128.298 296.672 130.109Z" fill="white"/>
</g>
<g style="mix-blend-mode:overlay" opacity="0.25">
<path d="M315.662 125.002C316.147 126.798 315.085 128.657 313.273 129.141C311.477 129.625 309.618 128.563 309.134 126.751C308.65 124.955 309.712 123.096 311.524 122.612C313.32 122.128 315.178 123.19 315.662 125.002Z" fill="white"/>
</g>
<g style="mix-blend-mode:overlay" opacity="0.25">
<path d="M334.653 119.894C335.137 121.691 334.075 123.549 332.263 124.033C330.467 124.518 328.609 123.456 328.125 121.644C327.64 119.847 328.702 117.989 330.514 117.505C332.31 117.02 334.168 118.082 334.653 119.894Z" fill="white"/>
</g>
<g style="mix-blend-mode:overlay" opacity="0.25">
<path d="M353.643 114.802C354.127 116.599 353.065 118.457 351.253 118.942C349.457 119.426 347.599 118.364 347.115 116.552C346.631 114.756 347.693 112.897 349.504 112.413C351.3 111.928 353.159 112.991 353.643 114.802Z" fill="white"/>
</g>
<g style="mix-blend-mode:overlay" opacity="0.25">
<path d="M372.635 109.695C373.119 111.491 372.057 113.35 370.246 113.834C368.45 114.318 366.591 113.256 366.107 111.444C365.623 109.648 366.685 107.789 368.496 107.305C370.292 106.821 372.151 107.883 372.635 109.695Z" fill="white"/>
</g>
<g style="mix-blend-mode:overlay" opacity="0.25">
<path d="M263.248 157.24C263.732 159.036 262.67 160.895 260.859 161.379C259.063 161.864 257.204 160.801 256.72 158.99C256.236 157.193 257.298 155.335 259.11 154.85C260.906 154.366 262.764 155.428 263.248 157.24Z" fill="white"/>
</g>
<g style="mix-blend-mode:overlay" opacity="0.25">
<path d="M282.239 152.133C282.723 153.929 281.661 155.788 279.849 156.272C278.053 156.756 276.195 155.694 275.71 153.882C275.226 152.086 276.288 150.227 278.1 149.743C279.896 149.259 281.754 150.321 282.239 152.133Z" fill="white"/>
</g>
<g style="mix-blend-mode:overlay" opacity="0.25">
<path d="M301.231 147.041C301.715 148.837 300.653 150.696 298.841 151.18C297.045 151.664 295.187 150.602 294.703 148.79C294.219 146.994 295.28 145.135 297.092 144.651C298.888 144.167 300.747 145.229 301.231 147.041Z" fill="white"/>
</g>
<g style="mix-blend-mode:overlay" opacity="0.25">
<path d="M320.221 141.933C320.705 143.729 319.643 145.588 317.831 146.072C316.035 146.557 314.177 145.494 313.693 143.683C313.209 141.886 314.271 140.028 316.082 139.543C317.878 139.059 319.737 140.121 320.221 141.933Z" fill="white"/>
</g>
<g style="mix-blend-mode:overlay" opacity="0.25">
<path d="M339.196 136.841C339.68 138.638 338.618 140.496 336.806 140.98C335.01 141.465 333.152 140.403 332.667 138.591C332.183 136.794 333.245 134.936 335.057 134.452C336.853 133.967 338.711 135.029 339.196 136.841Z" fill="white"/>
</g>
<g style="mix-blend-mode:overlay" opacity="0.25">
<path d="M358.186 131.734C358.67 133.53 357.608 135.389 355.796 135.873C354 136.357 352.142 135.295 351.658 133.483C351.174 131.687 352.236 129.828 354.047 129.344C355.843 128.86 357.702 129.922 358.186 131.734Z" fill="white"/>
</g>
<g style="mix-blend-mode:overlay" opacity="0.25">
<path d="M377.178 126.642C377.662 128.438 376.6 130.297 374.789 130.781C372.993 131.265 371.134 130.203 370.65 128.391C370.166 126.595 371.228 124.736 373.039 124.252C374.835 123.768 376.694 124.83 377.178 126.642Z" fill="white"/>
</g>
<g style="mix-blend-mode:overlay" opacity="0.25">
<path d="M212.117 264.514C212.602 266.31 211.54 268.169 209.728 268.653C207.932 269.137 206.074 268.075 205.589 266.263C205.105 264.467 206.167 262.608 207.979 262.124C209.775 261.64 211.633 262.702 212.117 264.514Z" fill="white"/>
</g>
<g style="mix-blend-mode:overlay" opacity="0.25">
<path d="M231.108 259.422C231.592 261.218 230.53 263.077 228.718 263.561C226.922 264.045 225.064 262.983 224.58 261.172C224.095 259.375 225.157 257.517 226.969 257.032C228.765 256.548 230.624 257.61 231.108 259.422Z" fill="white"/>
</g>
<g style="mix-blend-mode:overlay" opacity="0.25">
<path d="M250.098 254.315C250.582 256.111 249.52 257.97 247.708 258.454C245.912 258.938 244.054 257.876 243.57 256.064C243.086 254.268 244.148 252.409 245.959 251.925C247.755 251.441 249.614 252.503 250.098 254.315Z" fill="white"/>
</g>
<g style="mix-blend-mode:overlay" opacity="0.25">
<path d="M269.09 249.207C269.574 251.003 268.512 252.862 266.701 253.346C264.905 253.83 263.046 252.768 262.562 250.956C262.078 249.16 263.14 247.301 264.951 246.817C266.747 246.333 268.606 247.395 269.09 249.207Z" fill="white"/>
</g>
<g style="mix-blend-mode:overlay" opacity="0.25">
<path d="M288.08 244.115C288.564 245.911 287.502 247.77 285.691 248.254C283.895 248.738 282.036 247.676 281.552 245.865C281.068 244.068 282.13 242.21 283.942 241.725C285.738 241.241 287.596 242.303 288.08 244.115Z" fill="white"/>
</g>
<g style="mix-blend-mode:overlay" opacity="0.25">
<path d="M197.672 286.553C198.156 288.349 197.094 290.208 195.283 290.692C193.487 291.176 191.628 290.114 191.144 288.302C190.66 286.506 191.722 284.647 193.534 284.163C195.33 283.679 197.188 284.741 197.672 286.553Z" fill="white"/>
</g>
<g style="mix-blend-mode:overlay" opacity="0.25">
<path d="M216.662 281.445C217.147 283.242 216.085 285.1 214.273 285.585C212.477 286.069 210.618 285.007 210.134 283.195C209.65 281.399 210.712 279.54 212.524 279.056C214.32 278.571 216.178 279.634 216.662 281.445Z" fill="white"/>
</g>
<g style="mix-blend-mode:overlay" opacity="0.25">
<path d="M235.653 276.354C236.137 278.15 235.075 280.008 233.263 280.493C231.467 280.977 229.609 279.915 229.125 278.103C228.64 276.307 229.702 274.448 231.514 273.964C233.31 273.48 235.168 274.542 235.653 276.354Z" fill="white"/>
</g>
<g style="mix-blend-mode:overlay" opacity="0.25">
<path d="M254.643 271.246C255.127 273.042 254.065 274.901 252.253 275.385C250.457 275.869 248.599 274.807 248.115 272.995C247.631 271.199 248.693 269.34 250.504 268.856C252.3 268.372 254.159 269.434 254.643 271.246Z" fill="white"/>
</g>
<g style="mix-blend-mode:overlay" opacity="0.25">
<path d="M273.635 266.154C274.119 267.95 273.057 269.809 271.246 270.293C269.45 270.777 267.591 269.715 267.107 267.903C266.623 266.107 267.685 264.249 269.496 263.764C271.292 263.28 273.151 264.342 273.635 266.154Z" fill="white"/>
</g>
<g style="mix-blend-mode:overlay" opacity="0.25">
<path d="M292.625 261.047C293.109 262.843 292.047 264.701 290.236 265.186C288.44 265.67 286.581 264.608 286.097 262.796C285.613 261 286.675 259.141 288.487 258.657C290.283 258.173 292.141 259.235 292.625 261.047Z" fill="white"/>
</g>
<g style="mix-blend-mode:overlay" opacity="0.25">
<path d="M221.207 298.392C221.691 300.189 220.629 302.047 218.818 302.532C217.022 303.016 215.163 301.954 214.679 300.142C214.195 298.346 215.257 296.487 217.069 296.003C218.865 295.519 220.723 296.581 221.207 298.392Z" fill="white"/>
</g>
<g style="mix-blend-mode:overlay" opacity="0.25">
<path d="M240.198 293.285C240.682 295.081 239.62 296.94 237.808 297.424C236.012 297.908 234.154 296.846 233.669 295.034C233.185 293.238 234.247 291.379 236.059 290.895C237.855 290.411 239.713 291.473 240.198 293.285Z" fill="white"/>
</g>
<g style="mix-blend-mode:overlay" opacity="0.25">
<path d="M259.188 288.193C259.672 289.989 258.61 291.848 256.798 292.332C255.002 292.816 253.144 291.754 252.66 289.942C252.176 288.146 253.238 286.287 255.049 285.803C256.845 285.319 258.704 286.381 259.188 288.193Z" fill="white"/>
</g>
<g style="mix-blend-mode:overlay" opacity="0.25">
<path d="M278.18 283.085C278.664 284.882 277.602 286.74 275.79 287.225C273.994 287.709 272.136 286.647 271.652 284.835C271.168 283.039 272.23 281.18 274.041 280.696C275.837 280.212 277.696 281.274 278.18 283.085Z" fill="white"/>
</g>
<g style="mix-blend-mode:overlay" opacity="0.25">
<path d="M297.17 277.994C297.654 279.79 296.592 281.648 294.781 282.133C292.985 282.617 291.126 281.555 290.642 279.743C290.158 277.947 291.22 276.088 293.032 275.604C294.828 275.12 296.686 276.182 297.17 277.994Z" fill="white"/>
</g>
<g style="mix-blend-mode:overlay" opacity="0.25">
<path d="M282.725 300.017C283.209 301.813 282.147 303.672 280.335 304.156C278.539 304.64 276.681 303.578 276.197 301.766C275.713 299.97 276.775 298.111 278.586 297.627C280.382 297.143 282.241 298.205 282.725 300.017Z" fill="white"/>
</g>
<g style="mix-blend-mode:overlay" opacity="0.25">
<path d="M301.715 294.925C302.199 296.721 301.137 298.58 299.326 299.064C297.53 299.548 295.671 298.486 295.187 296.674C294.703 294.878 295.765 293.019 297.576 292.535C299.372 292.051 301.231 293.113 301.715 294.925Z" fill="white"/>
</g>
<g style="mix-blend-mode:overlay" opacity="0.25">
<path d="M299.778 196.445C300.262 198.241 299.2 200.1 297.388 200.584C295.592 201.068 293.734 200.006 293.25 198.194C292.765 196.398 293.827 194.539 295.639 194.055C297.435 193.571 299.293 194.633 299.778 196.445Z" fill="white"/>
</g>
<g style="mix-blend-mode:overlay" opacity="0.25">
<path d="M318.768 191.353C319.252 193.149 318.19 195.008 316.378 195.492C314.582 195.976 312.724 194.914 312.24 193.102C311.756 191.306 312.818 189.447 314.629 188.963C316.425 188.479 318.284 189.541 318.768 191.353Z" fill="white"/>
</g>
<g style="mix-blend-mode:overlay" opacity="0.25">
<path d="M337.76 186.245C338.244 188.042 337.182 189.9 335.371 190.385C333.575 190.869 331.716 189.807 331.232 187.995C330.748 186.199 331.81 184.34 333.621 183.856C335.417 183.371 337.276 184.434 337.76 186.245Z" fill="white"/>
</g>
<g style="mix-blend-mode:overlay" opacity="0.25">
<path d="M356.735 181.153C357.219 182.95 356.157 184.808 354.345 185.293C352.549 185.777 350.691 184.715 350.207 182.903C349.722 181.107 350.784 179.248 352.596 178.764C354.392 178.279 356.25 179.342 356.735 181.153Z" fill="white"/>
</g>
<g style="mix-blend-mode:overlay" opacity="0.25">
<path d="M375.725 176.046C376.209 177.842 375.147 179.701 373.335 180.185C371.539 180.669 369.681 179.607 369.197 177.795C368.713 175.999 369.775 174.14 371.586 173.656C373.382 173.172 375.241 174.234 375.725 176.046Z" fill="white"/>
</g>
<g style="mix-blend-mode:overlay" opacity="0.25">
<path d="M304.323 213.392C304.807 215.188 303.745 217.047 301.933 217.531C300.137 218.015 298.279 216.953 297.794 215.141C297.31 213.345 298.372 211.486 300.184 211.002C301.98 210.518 303.838 211.58 304.323 213.392Z" fill="white"/>
</g>
<g style="mix-blend-mode:overlay" opacity="0.25">
<path d="M323.313 208.284C323.797 210.081 322.735 211.939 320.923 212.423C319.127 212.908 317.269 211.846 316.785 210.034C316.301 208.237 317.363 206.379 319.174 205.895C320.97 205.41 322.829 206.472 323.313 208.284Z" fill="white"/>
</g>
<g style="mix-blend-mode:overlay" opacity="0.25">
<path d="M342.305 203.177C342.789 204.973 341.727 206.832 339.915 207.316C338.119 207.8 336.261 206.738 335.777 204.926C335.293 203.13 336.355 201.271 338.166 200.787C339.962 200.303 341.821 201.365 342.305 203.177Z" fill="white"/>
</g>
<g style="mix-blend-mode:overlay" opacity="0.25">
<path d="M361.295 198.085C361.779 199.881 360.717 201.74 358.906 202.224C357.11 202.708 355.251 201.646 354.767 199.834C354.283 198.038 355.345 196.179 357.157 195.695C358.953 195.211 360.811 196.273 361.295 198.085Z" fill="white"/>
</g>
<g style="mix-blend-mode:overlay" opacity="0.25">
<path d="M308.867 230.323C309.352 232.119 308.29 233.978 306.478 234.462C304.682 234.947 302.824 233.884 302.339 232.073C301.855 230.276 302.917 228.418 304.729 227.933C306.525 227.449 308.383 228.511 308.867 230.323Z" fill="white"/>
</g>
<g style="mix-blend-mode:overlay" opacity="0.25">
<path d="M327.858 225.216C328.342 227.012 327.28 228.871 325.468 229.355C323.672 229.839 321.814 228.777 321.33 226.965C320.845 225.169 321.907 223.31 323.719 222.826C325.515 222.342 327.374 223.404 327.858 225.216Z" fill="white"/>
</g>
<g style="mix-blend-mode:overlay" opacity="0.25">
<path d="M346.85 220.124C347.334 221.92 346.272 223.779 344.46 224.263C342.664 224.747 340.806 223.685 340.322 221.873C339.838 220.077 340.9 218.218 342.711 217.734C344.507 217.25 346.366 218.312 346.85 220.124Z" fill="white"/>
</g>
<g style="mix-blend-mode:overlay" opacity="0.25">
<path d="M365.84 215.016C366.324 216.812 365.262 218.671 363.451 219.155C361.655 219.64 359.796 218.577 359.312 216.766C358.828 214.969 359.89 213.111 361.701 212.626C363.497 212.142 365.356 213.204 365.84 215.016Z" fill="white"/>
</g>
<g style="mix-blend-mode:overlay" opacity="0.25">
<path d="M313.412 247.255C313.897 249.051 312.835 250.91 311.023 251.394C309.227 251.878 307.368 250.816 306.884 249.004C306.4 247.208 307.462 245.349 309.274 244.865C311.085 244.381 312.928 245.443 313.412 247.255Z" fill="white"/>
</g>
<g style="mix-blend-mode:overlay" opacity="0.25">
<path d="M332.403 242.163C332.887 243.959 331.825 245.818 330.013 246.302C328.217 246.786 326.359 245.724 325.875 243.912C325.39 242.116 326.452 240.257 328.264 239.773C330.06 239.289 331.918 240.351 332.403 242.163Z" fill="white"/>
</g>
<g style="mix-blend-mode:overlay" opacity="0.25">
<path d="M351.395 237.055C351.879 238.851 350.817 240.71 349.005 241.194C347.209 241.679 345.351 240.616 344.867 238.805C344.383 237.008 345.445 235.15 347.256 234.665C349.052 234.181 350.911 235.243 351.395 237.055Z" fill="white"/>
</g>
<g style="mix-blend-mode:overlay" opacity="0.25">
<path d="M370.385 231.963C370.869 233.76 369.807 235.618 367.996 236.102C366.2 236.587 364.341 235.525 363.857 233.713C363.373 231.916 364.435 230.058 366.246 229.574C368.042 229.089 369.901 230.151 370.385 231.963Z" fill="white"/>
</g>
<g style="mix-blend-mode:overlay" opacity="0.25">
<path d="M317.971 264.202C318.455 265.998 317.393 267.857 315.582 268.341C313.786 268.825 311.927 267.763 311.443 265.951C310.959 264.139 312.021 262.296 313.832 261.812C315.644 261.328 317.487 262.39 317.971 264.202Z" fill="white"/>
</g>
<g style="mix-blend-mode:overlay" opacity="0.25">
<path d="M336.946 259.094C337.43 260.89 336.368 262.749 334.556 263.233C332.76 263.717 330.902 262.655 330.417 260.843C329.933 259.047 330.995 257.189 332.807 256.704C334.603 256.22 336.461 257.282 336.946 259.094Z" fill="white"/>
</g>
<g style="mix-blend-mode:overlay" opacity="0.25">
<path d="M355.938 254.002C356.422 255.798 355.36 257.657 353.548 258.141C351.752 258.626 349.894 257.563 349.41 255.752C348.926 253.955 349.988 252.097 351.799 251.612C353.611 251.128 355.454 252.19 355.938 254.002Z" fill="white"/>
</g>
<g style="mix-blend-mode:overlay" opacity="0.25">
<path d="M374.928 248.895C375.412 250.691 374.35 252.55 372.539 253.034C370.743 253.518 368.884 252.456 368.4 250.644C367.916 248.848 368.978 246.989 370.789 246.505C372.585 246.021 374.444 247.083 374.928 248.895Z" fill="white"/>
</g>
<g style="mix-blend-mode:overlay" opacity="0.25">
<path d="M202.512 173.594C202.996 175.39 201.934 177.249 200.123 177.733C198.327 178.217 196.468 177.155 195.984 175.343C195.5 173.547 196.562 171.688 198.373 171.204C200.169 170.72 202.028 171.782 202.512 173.594Z" fill="white"/>
</g>
<g style="mix-blend-mode:overlay" opacity="0.25">
<path d="M221.504 168.486C221.988 170.282 220.926 172.141 219.115 172.625C217.319 173.109 215.46 172.047 214.976 170.236C214.492 168.439 215.554 166.581 217.366 166.096C219.162 165.612 221.02 166.674 221.504 168.486Z" fill="white"/>
</g>
<g style="mix-blend-mode:overlay" opacity="0.25">
<path d="M240.494 163.394C240.979 165.19 239.917 167.049 238.105 167.533C236.309 168.018 234.45 166.955 233.966 165.144C233.482 163.347 234.544 161.489 236.356 161.004C238.152 160.52 240.01 161.582 240.494 163.394Z" fill="white"/>
</g>
<g style="mix-blend-mode:overlay" opacity="0.25">
<path d="M207.057 190.525C207.541 192.321 206.479 194.18 204.667 194.664C202.871 195.148 201.013 194.086 200.529 192.274C200.045 190.478 201.107 188.62 202.918 188.135C204.714 187.651 206.573 188.713 207.057 190.525Z" fill="white"/>
</g>
<g style="mix-blend-mode:overlay" opacity="0.25">
<path d="M226.049 185.433C226.533 187.229 225.471 189.088 223.66 189.572C221.864 190.056 220.005 188.994 219.521 187.183C219.037 185.386 220.099 183.528 221.91 183.043C223.706 182.559 225.565 183.621 226.049 185.433Z" fill="white"/>
</g>
<g style="mix-blend-mode:overlay" opacity="0.25">
<path d="M245.039 180.326C245.523 182.122 244.461 183.981 242.65 184.465C240.854 184.949 238.995 183.887 238.511 182.075C238.027 180.279 239.089 178.42 240.901 177.936C242.697 177.452 244.555 178.514 245.039 180.326Z" fill="white"/>
</g>
<g style="mix-blend-mode:overlay" opacity="0.25">
<path d="M211.617 207.472C212.102 209.268 211.04 211.127 209.228 211.611C207.432 212.095 205.574 211.033 205.089 209.221C204.605 207.425 205.667 205.567 207.479 205.082C209.275 204.598 211.133 205.66 211.617 207.472Z" fill="white"/>
</g>
<g style="mix-blend-mode:overlay" opacity="0.25">
<path d="M230.61 202.365C231.094 204.161 230.032 206.019 228.22 206.504C226.424 206.988 224.566 205.926 224.082 204.114C223.597 202.318 224.659 200.459 226.471 199.975C228.267 199.491 230.126 200.553 230.61 202.365Z" fill="white"/>
</g>
<g style="mix-blend-mode:overlay" opacity="0.25">
<path d="M249.584 197.273C250.068 199.069 249.006 200.928 247.195 201.412C245.399 201.896 243.54 200.834 243.056 199.022C242.572 197.226 243.634 195.367 245.446 194.883C247.242 194.399 249.1 195.461 249.584 197.273Z" fill="white"/>
</g>
<g style="mix-blend-mode:overlay" opacity="0.25">
<path d="M197.172 229.511C197.656 231.307 196.594 233.166 194.783 233.65C192.987 234.134 191.128 233.072 190.644 231.26C190.16 229.464 191.222 227.605 193.034 227.121C194.83 226.637 196.688 227.699 197.172 229.511Z" fill="white"/>
</g>
<g style="mix-blend-mode:overlay" opacity="0.25">
<path d="M216.162 224.403C216.647 226.2 215.585 228.058 213.773 228.543C211.977 229.027 210.118 227.965 209.634 226.153C209.15 224.357 210.212 222.498 212.024 222.014C213.82 221.53 215.678 222.592 216.162 224.403Z" fill="white"/>
</g>
<g style="mix-blend-mode:overlay" opacity="0.25">
<path d="M235.155 219.296C235.639 221.092 234.577 222.951 232.765 223.435C230.969 223.919 229.111 222.857 228.626 221.045C228.142 219.249 229.204 217.39 231.016 216.906C232.812 216.422 234.67 217.484 235.155 219.296Z" fill="white"/>
</g>
<g style="mix-blend-mode:overlay" opacity="0.25">
<path d="M254.145 214.204C254.629 216 253.567 217.859 251.755 218.343C249.959 218.827 248.101 217.765 247.617 215.953C247.133 214.157 248.195 212.298 250.006 211.814C251.802 211.33 253.661 212.392 254.145 214.204Z" fill="white"/>
</g>
<g style="mix-blend-mode:overlay" opacity="0.25">
<path d="M201.715 246.442C202.199 248.239 201.137 250.097 199.326 250.582C197.53 251.066 195.671 250.004 195.187 248.192C194.703 246.396 195.765 244.537 197.576 244.053C199.372 243.568 201.231 244.631 201.715 246.442Z" fill="white"/>
</g>
<g style="mix-blend-mode:overlay" opacity="0.25">
<path d="M220.705 241.335C221.189 243.131 220.127 244.99 218.316 245.474C216.52 245.958 214.661 244.896 214.177 243.084C213.693 241.288 214.755 239.429 216.567 238.945C218.363 238.461 220.221 239.523 220.705 241.335Z" fill="white"/>
</g>
<g style="mix-blend-mode:overlay" opacity="0.25">
<path d="M239.698 236.243C240.182 238.039 239.12 239.898 237.308 240.382C235.512 240.866 233.654 239.804 233.169 237.992C232.685 236.196 233.747 234.337 235.559 233.853C237.355 233.369 239.213 234.431 239.698 236.243Z" fill="white"/>
</g>
<g style="mix-blend-mode:overlay" opacity="0.25">
<path d="M258.688 231.135C259.172 232.932 258.11 234.79 256.298 235.275C254.502 235.759 252.644 234.697 252.16 232.885C251.676 231.089 252.738 229.23 254.549 228.746C256.345 228.261 258.204 229.324 258.688 231.135Z" fill="white"/>
</g>
</g>
<path d="M237.886 164.816L236.574 180.841C236.574 180.841 230.905 193.243 223.143 206.582C221.3 204.864 219.036 202.739 216.49 200.272C225.439 190.556 232.717 173.531 236.199 164.425C236.558 163.472 237.964 163.816 237.886 164.816Z" fill="url(#paint50_linear_225_10396)"/>
<path d="M308.023 113.334C303.603 123.971 295.701 135.545 282.395 133.686C267.434 131.593 266.668 121.456 268.199 114.146C274.602 112.569 279.037 111.6 279.037 111.6L297.06 110.007C297.06 110.007 301.526 111.241 308.023 113.334Z" fill="white"/>
<path d="M201.778 210.424L187.863 200.959C187.863 200.959 190.159 195.055 193.72 186.573L201.778 210.424Z" fill="url(#paint51_linear_225_10396)"/>
<path d="M258.094 66.5229C248.162 49.529 257.532 32.0041 257.532 32.0041C257.532 32.0041 251.598 23.6477 259.203 17.3375C266.809 11.0273 274.508 17.9935 274.508 17.9935C274.508 17.9935 271.073 9.27789 279.428 7.23176C287.783 5.18562 293.905 17.2594 304.947 22.0702C315.988 26.8965 326.093 36.4556 326.28 43.3125C326.468 50.185 324.796 51.6689 324.796 51.6689C324.796 51.6689 331.668 54.5428 327.202 63.6333C322.751 72.7238 319.221 76.6286 309.851 84.2352C300.48 91.8419 289.345 84.0478 289.251 83.1263L258.079 66.5229H258.094Z" fill="url(#paint52_linear_225_10396)"/>
<path d="M299.466 93.6224C299.466 102.213 300.028 112.444 300.028 112.444C300.028 112.444 294.046 129 282.771 129C271.495 129 274.275 113.272 274.275 113.272C274.275 113.272 274.275 112.069 274.165 109.992C274.025 107.18 273.681 102.807 272.885 97.6835L300.028 83.7666C299.622 85.8284 299.481 89.5301 299.466 93.6224Z" fill="#FFD9D9"/>
<path d="M300.028 83.7666C299.622 85.8284 299.481 89.5301 299.466 93.6224C294.577 102.354 284.567 110.491 274.165 109.992C274.025 107.18 273.681 102.807 272.885 97.6835L300.028 83.7666Z" fill="url(#paint53_linear_225_10396)"/>
<path d="M260.922 36.5806C257.299 47.1549 257.236 51.4658 256.955 59.338C256.674 67.1945 252.254 97.0275 272.932 99.9171C293.625 102.791 306.431 79.7837 306.431 79.7837C306.431 79.7837 311.163 85.3442 317.285 79.7837C323.407 74.2232 318.394 65.6794 313.209 65.8669C308.008 66.0543 306.165 72.6457 306.165 72.6457L305.51 58.6351C305.51 58.6351 298.372 51.95 290.298 51.2159C282.224 50.4662 267.575 49.7321 260.937 36.5962L260.922 36.5806Z" fill="#FFD9D9"/>
<path d="M315.098 71.6616C311.709 69.5218 309.07 74.9105 311.428 77.5501" stroke="#E16D90" stroke-width="0.45" stroke-linecap="round" stroke-linejoin="round"/>
<path d="M275.539 62.8055L271.01 76.0819C270.557 77.4252 271.354 78.8778 272.728 79.2058L275.539 79.8775" stroke="#E16D90" stroke-width="0.45" stroke-linecap="round" stroke-linejoin="round"/>
<path d="M287.689 67.3507C287.689 68.3816 286.862 69.2094 285.831 69.2094C284.8 69.2094 283.972 68.3816 283.972 67.3507C283.972 66.3198 284.8 65.492 285.831 65.492C286.862 65.492 287.689 66.3198 287.689 67.3507Z" fill="#2A3249"/>
<path d="M266.903 66.5229C266.903 67.5538 266.075 68.3816 265.044 68.3816C264.014 68.3816 263.186 67.5538 263.186 66.5229C263.186 65.492 264.014 64.6642 265.044 64.6642C266.075 64.6642 266.903 65.492 266.903 66.5229Z" fill="#2A3249"/>
<path d="M282.395 60.4782C282.395 60.4782 286.939 56.667 291.296 61.962" stroke="#2A3249" stroke-width="0.47" stroke-miterlimit="10" stroke-linecap="round"/>
<path d="M261.125 59.5567C261.125 59.5567 265.295 54.6522 269.746 59.1662" stroke="#2A3249" stroke-width="0.47" stroke-miterlimit="10" stroke-linecap="round"/>
<path d="M284.739 83.8135C285.067 86.9686 282.771 89.7957 279.616 90.1237C276.461 90.4517 273.635 88.1557 273.307 85.0005L284.739 83.8135Z" fill="white"/>
<path d="M31.2283 154.686C42.7097 149.88 48.1218 136.676 43.3167 125.193C38.5116 113.71 25.3089 108.297 13.8276 113.103C2.34626 117.909 -3.06589 131.113 1.7392 142.596C6.54429 154.078 19.747 159.491 31.2283 154.686Z" fill="url(#paint54_linear_225_10396)"/>
<path d="M13.2908 131.546L21.0214 139.262L31.7662 128.516" stroke="white" stroke-width="3" stroke-linecap="round" stroke-linejoin="round"/>
<path d="M134.466 300.407C100.279 266.779 106.198 215.001 106.198 215.001C106.198 215.001 149.162 253.174 134.466 300.407Z" fill="url(#paint55_linear_225_10396)"/>
<g style="mix-blend-mode:overlay">
<path d="M111.492 226.59C127.437 266.185 134.465 300.392 134.465 300.392" stroke="#161515" stroke-linecap="round" stroke-linejoin="round"/>
</g>
<path d="M137.823 311.7C178.288 285.959 183.301 234.087 183.301 234.087C183.301 234.087 133.31 262.437 137.823 311.7Z" fill="url(#paint56_linear_225_10396)"/>
<g style="mix-blend-mode:overlay">
<path d="M175.712 244.334C151.848 279.727 137.824 311.716 137.824 311.716" stroke="#161515" stroke-linecap="round" stroke-linejoin="round"/>
</g>
<path d="M140.978 290.083C167.372 250.05 150.739 200.646 150.739 200.646C150.739 200.646 116.709 246.973 140.978 290.083Z" fill="url(#paint57_linear_225_10396)"/>
<g style="mix-blend-mode:overlay">
<path d="M148.006 213.095C140.697 255.158 140.978 290.083 140.978 290.083" stroke="#161515" stroke-linecap="round" stroke-linejoin="round"/>
</g>
<path d="M176.461 292.551H108.541C104.34 292.551 100.935 289.146 100.935 284.944C100.935 280.742 104.34 277.337 108.541 277.337H176.461C180.662 277.337 184.067 280.742 184.067 284.944C184.067 289.146 180.662 292.551 176.461 292.551Z" fill="url(#paint58_linear_225_10396)"/>
<path d="M173.852 292.535L171.4 311.7L168.855 331.693C162.826 330.849 156.673 329.85 150.41 328.647C137.479 326.179 125.516 322.837 114.49 318.76L111.773 297.377L111.148 292.535H173.852Z" fill="url(#paint59_linear_225_10396)"/>
<path d="M173.852 292.535L171.4 311.7L111.773 297.377L111.148 292.535H173.852Z" fill="url(#paint60_linear_225_10396)"/>
<path d="M98.6231 174.921H46.7888V234.54H98.6231V174.921Z" fill="url(#paint61_linear_225_10396)"/>
<path d="M89.7369 198.1H55.6596C55.0662 198.1 54.582 197.616 54.582 197.023C54.582 196.429 55.0662 195.945 55.6596 195.945H89.7369C90.3303 195.945 90.8145 196.429 90.8145 197.023C90.8145 197.616 90.3303 198.1 89.7369 198.1Z" fill="white"/>
<path d="M89.7369 205.957H55.6596C55.0662 205.957 54.582 205.473 54.582 204.879C54.582 204.286 55.0662 203.801 55.6596 203.801H89.7369C90.3303 203.801 90.8145 204.286 90.8145 204.879C90.8145 205.473 90.3303 205.957 89.7369 205.957Z" fill="white"/>
<path d="M89.7369 213.814H55.6596C55.0662 213.814 54.582 213.329 54.582 212.736C54.582 212.142 55.0662 211.658 55.6596 211.658H89.7369C90.3303 211.658 90.8145 212.142 90.8145 212.736C90.8145 213.329 90.3303 213.814 89.7369 213.814Z" fill="white"/>
<path d="M55.3941 219.515H74.8691C75.322 219.515 75.6968 219.889 75.6968 220.342V220.858C75.6968 221.311 75.322 221.686 74.8691 221.686H55.3941C54.9412 221.686 54.5664 221.311 54.5664 220.858V220.342C54.5664 219.889 54.9412 219.515 55.3941 219.515Z" fill="white"/>
<path d="M214.552 390C243.559 390 267.074 366.482 267.074 337.472C267.074 308.462 243.559 284.944 214.552 284.944C185.546 284.944 162.031 308.462 162.031 337.472C162.031 366.482 185.546 390 214.552 390Z" fill="url(#paint62_linear_225_10396)"/>
<g style="mix-blend-mode:overlay" opacity="0.25">
<path d="M258.245 347.981C264.036 323.857 249.176 299.605 225.055 293.814C200.934 288.022 176.686 302.883 170.895 327.007C165.104 351.131 179.964 375.382 204.085 381.174C228.205 386.966 252.454 372.104 258.245 347.981Z" stroke="white" stroke-linecap="round" stroke-linejoin="round"/>
</g>
<path d="M249.243 344.177C252.964 325.014 240.447 306.462 221.286 302.74C202.125 299.019 183.576 311.537 179.855 330.7C176.134 349.864 188.65 368.416 207.811 372.137C226.972 375.859 245.522 363.34 249.243 344.177Z" fill="url(#paint63_linear_225_10396)"/>
<path d="M211.865 332.958C214.364 331.474 217.581 332.302 219.065 334.785C220.549 337.285 219.721 340.502 217.238 341.986C214.739 343.47 211.522 342.642 210.038 340.159C208.554 337.659 209.382 334.442 211.865 332.958Z" fill="white"/>
<path d="M179.681 357.389L180.416 358.624C180.773 359.224 181.549 359.422 182.15 359.065L206.19 344.766C206.791 344.408 206.988 343.632 206.631 343.032L205.897 341.796C205.539 341.196 204.763 340.999 204.163 341.356L180.122 355.655C179.521 356.012 179.324 356.788 179.681 357.389Z" fill="white"/>
<path d="M222.391 309.415L220.601 308.974C220.032 308.834 219.456 309.182 219.316 309.752L215.172 326.587C215.032 327.156 215.38 327.732 215.95 327.872L217.739 328.313C218.309 328.453 218.884 328.105 219.024 327.535L223.168 310.7C223.308 310.131 222.96 309.555 222.391 309.415Z" fill="white"/>
<path d="M419.453 133.597C433.658 119.39 433.658 96.3573 419.453 82.151C405.249 67.9447 382.219 67.9447 368.014 82.151C353.81 96.3573 353.81 119.39 368.014 133.597C382.219 147.803 405.249 147.803 419.453 133.597Z" fill="url(#paint64_linear_225_10396)"/>
<path d="M404.226 94.3097C401.321 91.4045 397.526 89.9519 393.731 89.9519C389.936 89.9519 386.141 91.4045 383.236 94.3097C377.426 100.104 377.426 109.492 383.236 115.302L393.731 125.798L404.226 115.302C407.115 112.397 408.567 108.601 408.567 104.806C408.567 101.01 407.115 97.1993 404.226 94.3097ZM393.731 109.257C391.263 109.257 389.264 107.258 389.264 104.79C389.264 102.322 391.263 100.323 393.731 100.323C396.198 100.323 398.197 102.322 398.197 104.79C398.197 107.258 396.198 109.257 393.731 109.257Z" fill="white"/>
</g>
<defs>
<linearGradient id="paint0_linear_225_10396" x1="204.978" y1="250.16" x2="210.555" y2="555.253" gradientUnits="userSpaceOnUse">
<stop stop-color="#E0F0FF"/>
<stop offset="1" stop-color="#9CB1EC"/>
</linearGradient>
<linearGradient id="paint1_linear_225_10396" x1="315.988" y1="-18.6183" x2="313.519" y2="399.731" gradientUnits="userSpaceOnUse">
<stop stop-color="#E0F0FF"/>
<stop offset="1" stop-color="#9CB1EC"/>
</linearGradient>
<linearGradient id="paint2_linear_225_10396" x1="425.904" y1="137.31" x2="1179.85" y2="184.422" gradientUnits="userSpaceOnUse">
<stop stop-color="#E0F0FF"/>
<stop offset="1" stop-color="#9CB1EC"/>
</linearGradient>
<linearGradient id="paint3_linear_225_10396" x1="151.365" y1="-18.3372" x2="148.912" y2="399.543" gradientUnits="userSpaceOnUse">
<stop stop-color="#E0F0FF"/>
<stop offset="1" stop-color="#9CB1EC"/>
</linearGradient>
<linearGradient id="paint4_linear_225_10396" x1="260.89" y1="134.592" x2="1006.7" y2="181.204" gradientUnits="userSpaceOnUse">
<stop stop-color="#E0F0FF"/>
<stop offset="1" stop-color="#9CB1EC"/>
</linearGradient>
<linearGradient id="paint5_linear_225_10396" x1="198.326" y1="-186.668" x2="-9.28984" y2="387.563" gradientUnits="userSpaceOnUse">
<stop offset="0.01" stop-color="#FFBAC0"/>
<stop offset="1" stop-color="#F54A8F"/>
</linearGradient>
<linearGradient id="paint6_linear_225_10396" x1="4.33059" y1="-88.3322" x2="155.714" y2="149.799" gradientUnits="userSpaceOnUse">
<stop stop-color="#E0F0FF"/>
<stop offset="1" stop-color="white"/>
</linearGradient>
<linearGradient id="paint7_linear_225_10396" x1="17.8605" y1="18.6418" x2="54.3554" y2="97.3819" gradientUnits="userSpaceOnUse">
<stop stop-color="#E0F0FF"/>
<stop offset="1" stop-color="#9CB1EC"/>
</linearGradient>
<linearGradient id="paint8_linear_225_10396" x1="25.5912" y1="15.0499" x2="62.0861" y2="93.7899" gradientUnits="userSpaceOnUse">
<stop stop-color="#E0F0FF"/>
<stop offset="1" stop-color="#9CB1EC"/>
</linearGradient>
<linearGradient id="paint9_linear_225_10396" x1="31.5149" y1="12.2942" x2="68.027" y2="91.048" gradientUnits="userSpaceOnUse">
<stop stop-color="#E0F0FF"/>
<stop offset="1" stop-color="#9CB1EC"/>
</linearGradient>
<linearGradient id="paint10_linear_225_10396" x1="38.4554" y1="9.07606" x2="74.9658" y2="87.8143" gradientUnits="userSpaceOnUse">
<stop stop-color="#E0F0FF"/>
<stop offset="1" stop-color="#9CB1EC"/>
</linearGradient>
<linearGradient id="paint11_linear_225_10396" x1="43.7855" y1="6.60893" x2="80.2821" y2="85.3645" gradientUnits="userSpaceOnUse">
<stop stop-color="#E0F0FF"/>
<stop offset="1" stop-color="#9CB1EC"/>
</linearGradient>
<linearGradient id="paint12_linear_225_10396" x1="48.7259" y1="4.32777" x2="85.2207" y2="83.0679" gradientUnits="userSpaceOnUse">
<stop stop-color="#E0F0FF"/>
<stop offset="1" stop-color="#9CB1EC"/>
</linearGradient>
<linearGradient id="paint13_linear_225_10396" x1="136.437" y1="-1.65301" x2="175.867" y2="163.568" gradientUnits="userSpaceOnUse">
<stop stop-color="#E0F0FF"/>
<stop offset="1" stop-color="#9CB1EC"/>
</linearGradient>
<linearGradient id="paint14_linear_225_10396" x1="96.1991" y1="156.147" x2="399.049" y2="568.142" gradientUnits="userSpaceOnUse">
<stop stop-color="#E0F0FF"/>
<stop offset="1" stop-color="#9CB1EC"/>
</linearGradient>
<linearGradient id="paint15_linear_225_10396" x1="114.168" y1="142.912" x2="417.02" y2="554.923" gradientUnits="userSpaceOnUse">
<stop stop-color="#E0F0FF"/>
<stop offset="1" stop-color="#9CB1EC"/>
</linearGradient>
<linearGradient id="paint16_linear_225_10396" x1="132.123" y1="129.71" x2="434.974" y2="541.705" gradientUnits="userSpaceOnUse">
<stop stop-color="#E0F0FF"/>
<stop offset="1" stop-color="#9CB1EC"/>
</linearGradient>
<linearGradient id="paint17_linear_225_10396" x1="150.11" y1="116.489" x2="452.96" y2="528.484" gradientUnits="userSpaceOnUse">
<stop stop-color="#E0F0FF"/>
<stop offset="1" stop-color="#9CB1EC"/>
</linearGradient>
<linearGradient id="paint18_linear_225_10396" x1="168.083" y1="103.301" x2="470.933" y2="515.296" gradientUnits="userSpaceOnUse">
<stop stop-color="#E0F0FF"/>
<stop offset="1" stop-color="#9CB1EC"/>
</linearGradient>
<linearGradient id="paint19_linear_225_10396" x1="186.051" y1="90.0817" x2="488.901" y2="502.077" gradientUnits="userSpaceOnUse">
<stop stop-color="#E0F0FF"/>
<stop offset="1" stop-color="#9CB1EC"/>
</linearGradient>
<linearGradient id="paint20_linear_225_10396" x1="204.038" y1="76.8606" x2="506.888" y2="488.856" gradientUnits="userSpaceOnUse">
<stop stop-color="#E0F0FF"/>
<stop offset="1" stop-color="#9CB1EC"/>
</linearGradient>
<linearGradient id="paint21_linear_225_10396" x1="87.3399" y1="162.66" x2="390.19" y2="574.655" gradientUnits="userSpaceOnUse">
<stop stop-color="#E0F0FF"/>
<stop offset="1" stop-color="#9CB1EC"/>
</linearGradient>
<linearGradient id="paint22_linear_225_10396" x1="105.311" y1="149.441" x2="408.161" y2="561.436" gradientUnits="userSpaceOnUse">
<stop stop-color="#E0F0FF"/>
<stop offset="1" stop-color="#9CB1EC"/>
</linearGradient>
<linearGradient id="paint23_linear_225_10396" x1="123.282" y1="136.237" x2="426.131" y2="548.232" gradientUnits="userSpaceOnUse">
<stop stop-color="#E0F0FF"/>
<stop offset="1" stop-color="#9CB1EC"/>
</linearGradient>
<linearGradient id="paint24_linear_225_10396" x1="141.251" y1="123.002" x2="444.103" y2="535.013" gradientUnits="userSpaceOnUse">
<stop stop-color="#E0F0FF"/>
<stop offset="1" stop-color="#9CB1EC"/>
</linearGradient>
<linearGradient id="paint25_linear_225_10396" x1="159.237" y1="109.781" x2="462.087" y2="521.777" gradientUnits="userSpaceOnUse">
<stop stop-color="#E0F0FF"/>
<stop offset="1" stop-color="#9CB1EC"/>
</linearGradient>
<linearGradient id="paint26_linear_225_10396" x1="177.192" y1="96.5793" x2="480.058" y2="508.573" gradientUnits="userSpaceOnUse">
<stop stop-color="#E0F0FF"/>
<stop offset="1" stop-color="#9CB1EC"/>
</linearGradient>
<linearGradient id="paint27_linear_225_10396" x1="195.179" y1="83.3757" x2="498.029" y2="495.371" gradientUnits="userSpaceOnUse">
<stop stop-color="#E0F0FF"/>
<stop offset="1" stop-color="#9CB1EC"/>
</linearGradient>
<linearGradient id="paint28_linear_225_10396" x1="78.4809" y1="169.159" x2="381.331" y2="581.155" gradientUnits="userSpaceOnUse">
<stop stop-color="#E0F0FF"/>
<stop offset="1" stop-color="#9CB1EC"/>
</linearGradient>
<linearGradient id="paint29_linear_225_10396" x1="96.4518" y1="155.94" x2="399.302" y2="567.936" gradientUnits="userSpaceOnUse">
<stop stop-color="#E0F0FF"/>
<stop offset="1" stop-color="#9CB1EC"/>
</linearGradient>
<linearGradient id="paint30_linear_225_10396" x1="91.4758" y1="92.0993" x2="124.873" y2="185.625" gradientUnits="userSpaceOnUse">
<stop stop-color="#D4B6FF"/>
<stop offset="1" stop-color="#7D35F0"/>
</linearGradient>
<linearGradient id="paint31_linear_225_10396" x1="132.409" y1="129.531" x2="435.259" y2="541.526" gradientUnits="userSpaceOnUse">
<stop stop-color="#E0F0FF"/>
<stop offset="1" stop-color="#9CB1EC"/>
</linearGradient>
<linearGradient id="paint32_linear_225_10396" x1="150.38" y1="116.312" x2="453.23" y2="528.307" gradientUnits="userSpaceOnUse">
<stop stop-color="#E0F0FF"/>
<stop offset="1" stop-color="#9CB1EC"/>
</linearGradient>
<linearGradient id="paint33_linear_225_10396" x1="168.363" y1="103.075" x2="471.214" y2="515.086" gradientUnits="userSpaceOnUse">
<stop stop-color="#E0F0FF"/>
<stop offset="1" stop-color="#9CB1EC"/>
</linearGradient>
<linearGradient id="paint34_linear_225_10396" x1="186.335" y1="89.8715" x2="489.185" y2="501.867" gradientUnits="userSpaceOnUse">
<stop stop-color="#E0F0FF"/>
<stop offset="1" stop-color="#9CB1EC"/>
</linearGradient>
<linearGradient id="paint35_linear_225_10396" x1="69.6218" y1="175.673" x2="372.472" y2="587.668" gradientUnits="userSpaceOnUse">
<stop stop-color="#E0F0FF"/>
<stop offset="1" stop-color="#9CB1EC"/>
</linearGradient>
<linearGradient id="paint36_linear_225_10396" x1="87.5926" y1="162.453" x2="390.445" y2="574.464" gradientUnits="userSpaceOnUse">
<stop stop-color="#E0F0FF"/>
<stop offset="1" stop-color="#9CB1EC"/>
</linearGradient>
<linearGradient id="paint37_linear_225_10396" x1="105.562" y1="149.234" x2="408.412" y2="561.23" gradientUnits="userSpaceOnUse">
<stop stop-color="#E0F0FF"/>
<stop offset="1" stop-color="#9CB1EC"/>
</linearGradient>
<linearGradient id="paint38_linear_225_10396" x1="123.548" y1="136.013" x2="426.398" y2="548.009" gradientUnits="userSpaceOnUse">
<stop stop-color="#E0F0FF"/>
<stop offset="1" stop-color="#9CB1EC"/>
</linearGradient>
<linearGradient id="paint39_linear_225_10396" x1="141.521" y1="122.825" x2="444.371" y2="534.821" gradientUnits="userSpaceOnUse">
<stop stop-color="#E0F0FF"/>
<stop offset="1" stop-color="#9CB1EC"/>
</linearGradient>
<linearGradient id="paint40_linear_225_10396" x1="159.49" y1="109.606" x2="462.34" y2="521.601" gradientUnits="userSpaceOnUse">
<stop stop-color="#E0F0FF"/>
<stop offset="1" stop-color="#9CB1EC"/>
</linearGradient>
<linearGradient id="paint41_linear_225_10396" x1="177.478" y1="96.4004" x2="480.328" y2="508.396" gradientUnits="userSpaceOnUse">
<stop stop-color="#E0F0FF"/>
<stop offset="1" stop-color="#9CB1EC"/>
</linearGradient>
<linearGradient id="paint42_linear_225_10396" x1="50.9618" y1="11.602" x2="53.531" y2="31.5098" gradientUnits="userSpaceOnUse">
<stop stop-color="#2A3264"/>
<stop offset="1" stop-color="#4F61A5"/>
</linearGradient>
<linearGradient id="paint43_linear_225_10396" x1="83.5909" y1="7.85512" x2="86.1445" y2="27.7646" gradientUnits="userSpaceOnUse">
<stop stop-color="#2A3264"/>
<stop offset="1" stop-color="#4F61A5"/>
</linearGradient>
<linearGradient id="paint44_linear_225_10396" x1="116.205" y1="4.11" x2="118.772" y2="24.0022" gradientUnits="userSpaceOnUse">
<stop stop-color="#2A3264"/>
<stop offset="1" stop-color="#4F61A5"/>
</linearGradient>
<linearGradient id="paint45_linear_225_10396" x1="148.834" y1="0.363065" x2="151.386" y2="20.2571" gradientUnits="userSpaceOnUse">
<stop stop-color="#2A3264"/>
<stop offset="1" stop-color="#4F61A5"/>
</linearGradient>
<linearGradient id="paint46_linear_225_10396" x1="181.448" y1="-3.38208" x2="184.015" y2="16.5101" gradientUnits="userSpaceOnUse">
<stop stop-color="#2A3264"/>
<stop offset="1" stop-color="#4F61A5"/>
</linearGradient>
<linearGradient id="paint47_linear_225_10396" x1="305.118" y1="127.938" x2="277.062" y2="364.118" gradientUnits="userSpaceOnUse">
<stop stop-color="#2A3264"/>
<stop offset="1" stop-color="#4F61A5"/>
</linearGradient>
<linearGradient id="paint48_linear_225_10396" x1="274.446" y1="136.357" x2="323.45" y2="409.147" gradientUnits="userSpaceOnUse">
<stop stop-color="#79D0FF"/>
<stop offset="1" stop-color="#0E3BF0"/>
</linearGradient>
<linearGradient id="paint49_linear_225_10396" x1="256.596" y1="144.667" x2="353.849" y2="341.367" gradientUnits="userSpaceOnUse">
<stop stop-color="#79D0FF"/>
<stop offset="1" stop-color="#0E3BF0"/>
</linearGradient>
<linearGradient id="paint50_linear_225_10396" x1="204.73" y1="130.656" x2="276.741" y2="296.543" gradientUnits="userSpaceOnUse">
<stop stop-color="#79D0FF"/>
<stop offset="1" stop-color="#0E3BF0"/>
</linearGradient>
<linearGradient id="paint51_linear_225_10396" x1="197.28" y1="198.928" x2="305.568" y2="100.961" gradientUnits="userSpaceOnUse">
<stop stop-color="#FFBFCD"/>
<stop offset="1" stop-color="#E16D90"/>
</linearGradient>
<linearGradient id="paint52_linear_225_10396" x1="290.516" y1="113.865" x2="292.188" y2="-51.4814" gradientUnits="userSpaceOnUse">
<stop stop-color="#2A3264"/>
<stop offset="1" stop-color="#4F61A5"/>
</linearGradient>
<linearGradient id="paint53_linear_225_10396" x1="289.236" y1="111.335" x2="281.16" y2="56.5111" gradientUnits="userSpaceOnUse">
<stop stop-color="#FFBFCD"/>
<stop offset="1" stop-color="#E16D90"/>
</linearGradient>
<linearGradient id="paint54_linear_225_10396" x1="8.54997" y1="107.85" x2="79.4355" y2="239.967" gradientUnits="userSpaceOnUse">
<stop stop-color="#7BFFB9"/>
<stop offset="1" stop-color="#0E9DFB"/>
</linearGradient>
<linearGradient id="paint55_linear_225_10396" x1="97.224" y1="211.575" x2="179.449" y2="368.963" gradientUnits="userSpaceOnUse">
<stop stop-color="#7BFFB9"/>
<stop offset="1" stop-color="#0E9DFB"/>
</linearGradient>
<linearGradient id="paint56_linear_225_10396" x1="192.8" y1="232.583" x2="79.5068" y2="369.314" gradientUnits="userSpaceOnUse">
<stop stop-color="#7BFFB9"/>
<stop offset="1" stop-color="#0E9DFB"/>
</linearGradient>
<linearGradient id="paint57_linear_225_10396" x1="147.428" y1="173.922" x2="141.305" y2="307.53" gradientUnits="userSpaceOnUse">
<stop stop-color="#7BFFB9"/>
<stop offset="1" stop-color="#0E9DFB"/>
</linearGradient>
<linearGradient id="paint58_linear_225_10396" x1="118.161" y1="327.679" x2="190.905" y2="200.014" gradientUnits="userSpaceOnUse">
<stop stop-color="#E0F0FF"/>
<stop offset="1" stop-color="#9CB1EC"/>
</linearGradient>
<linearGradient id="paint59_linear_225_10396" x1="108.556" y1="386.486" x2="198.75" y2="173.258" gradientUnits="userSpaceOnUse">
<stop stop-color="#E0F0FF"/>
<stop offset="1" stop-color="#9CB1EC"/>
</linearGradient>
<linearGradient id="paint60_linear_225_10396" x1="133.575" y1="348.062" x2="143.229" y2="290.536" gradientUnits="userSpaceOnUse">
<stop stop-color="#E0F0FF"/>
<stop offset="1" stop-color="#9CB1EC"/>
</linearGradient>
<linearGradient id="paint61_linear_225_10396" x1="51.0836" y1="248.301" x2="146.853" y2="55.302" gradientUnits="userSpaceOnUse">
<stop offset="0.01" stop-color="#FFB8A4"/>
<stop offset="0.99" stop-color="#F54F6E"/>
</linearGradient>
<linearGradient id="paint62_linear_225_10396" x1="347.074" y1="295.21" x2="46.5499" y2="391.024" gradientUnits="userSpaceOnUse">
<stop stop-color="#D4B6FF"/>
<stop offset="1" stop-color="#7D35F0"/>
</linearGradient>
<linearGradient id="paint63_linear_225_10396" x1="215.93" y1="344.174" x2="177.685" y2="160.058" gradientUnits="userSpaceOnUse">
<stop stop-color="#D4B6FF"/>
<stop offset="1" stop-color="#7D35F0"/>
</linearGradient>
<linearGradient id="paint64_linear_225_10396" x1="399.271" y1="248.599" x2="391.101" y2="40.7526" gradientUnits="userSpaceOnUse">
<stop offset="0.01" stop-color="#FFBAC0"/>
<stop offset="1" stop-color="#F54A8F"/>
</linearGradient>
<clipPath id="clip0_225_10396">
<rect width="451" height="390" fill="white"/>
</clipPath>
</defs>
</svg>
