<svg width="18" height="19" viewBox="0 0 18 19" fill="none" xmlns="http://www.w3.org/2000/svg">
<path fill-rule="evenodd" clip-rule="evenodd" d="M17.64 9.5953C17.64 8.95712 17.5827 8.34349 17.4764 7.75439H9V11.2358H13.8436C13.635 12.3608 13.0009 13.3139 12.0477 13.9521V16.2103H14.9564C16.6582 14.6435 17.64 12.3362 17.64 9.5953Z" fill="#4285F4"/>
<path fill-rule="evenodd" clip-rule="evenodd" d="M8.99976 18.3906C11.4298 18.3906 13.467 17.5847 14.9561 16.2101L12.0475 13.9519C11.2416 14.4919 10.2107 14.811 8.99976 14.811C6.65567 14.811 4.67158 13.2279 3.96385 11.1006H0.957031V13.4324C2.43794 16.3738 5.48158 18.3906 8.99976 18.3906Z" fill="#34A853"/>
<path fill-rule="evenodd" clip-rule="evenodd" d="M3.96409 11.1005C3.78409 10.5605 3.68182 9.98363 3.68182 9.39045C3.68182 8.79727 3.78409 8.22045 3.96409 7.68045V5.34863H0.957273C0.347727 6.56363 0 7.93818 0 9.39045C0 10.8427 0.347727 12.2173 0.957273 13.4323L3.96409 11.1005Z" fill="#FBBC05"/>
<path fill-rule="evenodd" clip-rule="evenodd" d="M8.99976 3.97017C10.3211 3.97017 11.5075 4.42426 12.4402 5.31608L15.0216 2.73472C13.4629 1.28244 11.4257 0.390625 8.99976 0.390625C5.48158 0.390625 2.43794 2.40744 0.957031 5.34881L3.96385 7.68062C4.67158 5.55335 6.65567 3.97017 8.99976 3.97017Z" fill="#EA4335"/>
</svg>
