<svg width="60" height="60" viewBox="0 0 60 60" fill="none" xmlns="http://www.w3.org/2000/svg">
<rect width="60" height="60" rx="4" fill="#3D83DF" fill-opacity="0.3"/>
<path d="M21.0692 29.0298V30.3042H13.7597V29.0298H21.0692ZM18.0956 25.917V33.6807H16.7406V25.917H18.0956ZM27.0385 24.0273V34.75H25.6835V25.7192L22.9516 26.7153V25.4922L26.8261 24.0273H27.0385ZM33.0004 28.7515H33.9672C34.4408 28.7515 34.8314 28.6733 35.1391 28.5171C35.4516 28.356 35.6835 28.1387 35.8349 27.8652C35.9911 27.5869 36.0692 27.2744 36.0692 26.9277C36.0692 26.5176 36.0009 26.1733 35.8642 25.895C35.7274 25.6167 35.5224 25.4067 35.2489 25.2651C34.9755 25.1235 34.6288 25.0527 34.2089 25.0527C33.828 25.0527 33.4911 25.1284 33.1981 25.2798C32.9101 25.4263 32.683 25.6362 32.517 25.9097C32.3559 26.1831 32.2753 26.5054 32.2753 26.8765H30.9203C30.9203 26.3345 31.057 25.8413 31.3305 25.397C31.6039 24.9526 31.9872 24.5986 32.4804 24.335C32.9784 24.0713 33.5546 23.9395 34.2089 23.9395C34.8534 23.9395 35.4174 24.0542 35.9008 24.2837C36.3842 24.5083 36.7602 24.8452 37.0287 25.2944C37.2973 25.7388 37.4315 26.293 37.4315 26.957C37.4315 27.2256 37.3681 27.5137 37.2411 27.8213C37.119 28.124 36.9262 28.4072 36.6625 28.6709C36.4037 28.9346 36.0668 29.1519 35.6518 29.3228C35.2367 29.4888 34.7387 29.5718 34.1576 29.5718H33.0004V28.7515ZM33.0004 29.8647V29.0518H34.1576C34.8363 29.0518 35.3979 29.1323 35.8422 29.2935C36.2865 29.4546 36.6356 29.6694 36.8896 29.938C37.1483 30.2065 37.329 30.502 37.4315 30.8242C37.539 31.1416 37.5927 31.459 37.5927 31.7764C37.5927 32.2744 37.5072 32.7163 37.3363 33.1021C37.1703 33.4878 36.9335 33.8149 36.6259 34.0835C36.3231 34.3521 35.9667 34.5547 35.5565 34.6914C35.1464 34.8281 34.6996 34.8965 34.2162 34.8965C33.7523 34.8965 33.3153 34.8306 32.9052 34.6987C32.4999 34.5669 32.141 34.3765 31.8285 34.1274C31.516 33.8735 31.2719 33.5635 31.0961 33.1973C30.9203 32.8262 30.8324 32.4038 30.8324 31.9302H32.1874C32.1874 32.3013 32.268 32.626 32.4291 32.9043C32.5951 33.1826 32.8295 33.3999 33.1322 33.5562C33.4398 33.7075 33.8012 33.7832 34.2162 33.7832C34.6313 33.7832 34.9877 33.7124 35.2855 33.5708C35.5883 33.4243 35.8202 33.2046 35.9813 32.9116C36.1474 32.6187 36.2304 32.25 36.2304 31.8057C36.2304 31.3613 36.1376 30.9976 35.9521 30.7144C35.7665 30.4263 35.5028 30.2139 35.161 30.0771C34.8241 29.9355 34.4262 29.8647 33.9672 29.8647H33.0004ZM46.3524 24.0859V24.8477L41.9359 34.75H40.5077L44.9169 25.1992H39.1454V24.0859H46.3524Z" fill="white"/>
</svg>
