<svg xmlns="http://www.w3.org/2000/svg" viewBox="0 0 916.96 415.19"><defs><style>.cls-1,.cls-3{fill:#4c7fc1;}.cls-1,.cls-2{fill-rule:evenodd;}.cls-2{fill:#31baa1;}</style></defs><g id="Layer_2" data-name="Layer 2"><g id="Layer_1-2" data-name="Layer 1"><path class="cls-1" d="M85.14,106.48c10.46-22,33.67-45.41,55.68-55.68,38.3-17.89,52.38-12.37,94.42-8.25l-2-32.85-37.8-7.86c-5.39,9.64-3.93,16.68-8.12,28.79l-18.07-1.08L157.75,0c-13.19,1.08-28.16,1.9-39,7.48l4.94,30.82-18.2,6c-5.51-8.56-11-14.78-19.15-22.83C76.7,23.84,60.47,36.21,55.65,43c4.06,10,11.1,18.26,14.9,29-4.31,4.69-6,8-11.1,12L31.17,70.46a174.5,174.5,0,0,0-17.25,32.72c9.38,11.16,14.39,12.3,24,22.38l-7.67,16.37c-7.61,1,3.23.19-3.61.38-5.58.12-12.43-2.35-22.77-1.4C-1.17,152.07.16,167.67.16,180.8,32.5,194.18,29.39,185.87,31,212.32c-9.2,1.65-18.84,4.56-26,8.94,1,13.44,6.78,27.21,10.65,40.4L44,260.52l10.09,18.64c-5.84,8.37-13.64,13.76-18.9,17.76C37.7,308,54.44,329.45,61.86,334.33c7-3.36,17.31-9.32,24.61-12.62l14.27,12.88L91,363.82c5.46,6.22,27.34,21,35.58,24.16,4.38-6.91,11.42-14.9,14.78-23.08l19.28,7.42,1.71,31.58c10.14,5.26,28.47,8.56,40.33,10.15l5.64-28.86,18-.44,13.76,30.44c12.75-.95,26.83-2.79,37.61-6.85l-5.2-31.77,17-5.84A117.73,117.73,0,0,0,311.34,394c10.34-5.9,18.9-10.09,28.92-21.31-1.84-7.42-10.53-20.23-14.52-28.41l36.78-.89,2.28,1.14,1-1.2L917,331.8H302a119.85,119.85,0,0,1-39.83,13.88c-120.87,20-230.83-125.94-177-239.2Zm170-56.76c7.61,4.18,14,7.29,22,12,7.23,4.32,13.82,10.4,20.8,12.81l7.67-22.57C296.69,43.19,284,33.67,271.26,28c-6,4.31-13.06,13.82-16.17,21.69Zm100,57.07c-4.19-12.36-12.5-19.47-18.77-25.43-7.61,1.78-15.73,5.52-20.42,10.66l11.6,14.77Z"/><path class="cls-2" d="M118.3,93.48c68.81-51.56,140-19.22,176.75,32.59v1.27H917L321.49,114.78c-22.58-30.18-54.73-53.39-91.26-61.7-42-9.58-94.17,7.67-111.93,40.4Z"/><path class="cls-3" d="M203.88,260.11h-37a12.78,12.78,0,0,1-3.06-.41,13.62,13.62,0,0,1-3.23-1.27,14.84,14.84,0,0,1-3.06-2.22,14.42,14.42,0,0,1-2.58-3.3,18,18,0,0,1-1.79-4.5,22.69,22.69,0,0,1-.67-5.77V209a22.64,22.64,0,0,1,.33-3.7,22,22,0,0,1,1-3.93,18.62,18.62,0,0,1,1.85-3.71,14.37,14.37,0,0,1,2.74-3.13,12.55,12.55,0,0,1,8.42-3h37v12.44h-37a3.77,3.77,0,0,0-3.08,1.29,5.91,5.91,0,0,0-1.06,3.83v33.59a5.7,5.7,0,0,0,1.08,3.71,3.74,3.74,0,0,0,3.06,1.32h37Z"/><path class="cls-3" d="M264.68,260.11h-37a13.94,13.94,0,0,1-4.65-.91,13.12,13.12,0,0,1-4.68-3,16.64,16.64,0,0,1-3.59-5.41,20.74,20.74,0,0,1-1.43-8.16V197.76a7.52,7.52,0,0,1,.39-2.44,6.45,6.45,0,0,1,1.08-2,4.9,4.9,0,0,1,1.64-1.34,4.45,4.45,0,0,1,2-.48h46.17v12.44H223.6v38.71a5.72,5.72,0,0,0,1.06,3.73,3.79,3.79,0,0,0,3.12,1.3h36.9Zm-4.61-28H227.7V219.53h32.37Z"/><path class="cls-3" d="M331.08,254.8a7.13,7.13,0,0,1-.42,2.48,6.48,6.48,0,0,1-1.1,2,5,5,0,0,1-1.64,1.32,4.5,4.5,0,0,1-2,.47,4.63,4.63,0,0,1-1.91-.43,4.36,4.36,0,0,1-1.71-1.38l-37.46-47.47v48.33H274.58V196.8a6.79,6.79,0,0,1,.89-3.47,5.88,5.88,0,0,1,2.26-2.32,4.35,4.35,0,0,1,3-.36,4.71,4.71,0,0,1,2.64,1.75l37.46,47.42V191.49h10.25Z"/><path class="cls-3" d="M394.08,203.93H371.49v56.18H361.24V203.93H338.61V191.49h55.47Z"/><path class="cls-3" d="M458.12,214.55a30.33,30.33,0,0,1-.87,7.61,23.6,23.6,0,0,1-2.35,5.91,18.7,18.7,0,0,1-3.41,4.38,20.26,20.26,0,0,1-4,3,17.31,17.31,0,0,1-4.26,1.7,17.07,17.07,0,0,1-4,.53l21.41,22.44H444.71l-21.37-22.44H416V225.22h23.18a9.88,9.88,0,0,0,3.53-1,8.67,8.67,0,0,0,2.76-2.13,9.45,9.45,0,0,0,1.79-3.23,13.65,13.65,0,0,0,.64-4.33v-7.84a4.7,4.7,0,0,0-.22-1.61,2,2,0,0,0-.55-.81,1.4,1.4,0,0,0-.71-.31,5.89,5.89,0,0,0-.69,0H411.87v56.18H401.62V197.76a7.52,7.52,0,0,1,.39-2.44,6.45,6.45,0,0,1,1.08-2,4.9,4.9,0,0,1,1.64-1.34,4.45,4.45,0,0,1,2-.48H445.7a10.53,10.53,0,0,1,5.79,1.51,12.52,12.52,0,0,1,3.85,3.78,16.21,16.21,0,0,1,2.13,4.9,20.84,20.84,0,0,1,.65,4.93Z"/><path class="cls-3" d="M527.75,232.35A35.76,35.76,0,0,1,526,243.89,28.17,28.17,0,0,1,521,253a22.48,22.48,0,0,1-7.47,6,21.08,21.08,0,0,1-9.4,2.12H490.29a21.2,21.2,0,0,1-9.42-2.12,22.35,22.35,0,0,1-7.49-6,28.4,28.4,0,0,1-4.95-9.09,35.49,35.49,0,0,1-1.8-11.54V219.24a35.56,35.56,0,0,1,1.8-11.51,28.19,28.19,0,0,1,4.95-9.09,22.86,22.86,0,0,1,7.49-6,21,21,0,0,1,9.42-2.15h13.88a20.84,20.84,0,0,1,9.4,2.15,23,23,0,0,1,7.47,6,28,28,0,0,1,4.93,9.09,35.84,35.84,0,0,1,1.78,11.51ZM517.5,219.24a21.74,21.74,0,0,0-1-6.67,15.26,15.26,0,0,0-2.72-5.12,12.16,12.16,0,0,0-9.64-4.48H490.29a12.24,12.24,0,0,0-9.7,4.48,15.12,15.12,0,0,0-2.74,5.12,21.74,21.74,0,0,0-1,6.67v13.11a21.76,21.76,0,0,0,1,6.68,15.21,15.21,0,0,0,2.74,5.12,12.37,12.37,0,0,0,4.24,3.3,12.55,12.55,0,0,0,5.46,1.17h13.8a12.55,12.55,0,0,0,5.46-1.17,12.37,12.37,0,0,0,4.24-3.3,15.21,15.21,0,0,0,2.74-5.12,21.76,21.76,0,0,0,1-6.68Z"/><path class="cls-3" d="M602.5,203.93H579.91v56.18H569.65V203.93H547V191.49H602.5Z"/><path class="cls-3" d="M663.53,260.11H653.28V243.26h-36v16.85H607V225.8A43,43,0,0,1,609.12,212,33.39,33.39,0,0,1,615,201.11a27.13,27.13,0,0,1,9-7.09,25.22,25.22,0,0,1,11.27-2.53h23.11a4.38,4.38,0,0,1,2,.48,5,5,0,0,1,1.65,1.34,6.13,6.13,0,0,1,1.11,2,7.52,7.52,0,0,1,.39,2.44Zm-46.29-29.29h36V203.93h-18c-.31,0-1,.06-2,.17a17.45,17.45,0,0,0-3.51.83,20.5,20.5,0,0,0-4.2,2.06,15.67,15.67,0,0,0-4.06,3.83,20.83,20.83,0,0,0-3,6.1,28.4,28.4,0,0,0-1.21,8.88Z"/><path class="cls-3" d="M727.37,260.11H680.61a4.52,4.52,0,0,1-2.06-.48,5.05,5.05,0,0,1-1.63-1.32,6.4,6.4,0,0,1-1.09-2,7.73,7.73,0,0,1-.39-2.49V191.49h10.25v56.18h41.68Z"/><path class="cls-3" d="M786.83,260.11H740.06a4.48,4.48,0,0,1-2-.48,5.05,5.05,0,0,1-1.63-1.32,6.21,6.21,0,0,1-1.09-2,7.73,7.73,0,0,1-.39-2.49V191.49h10.25v56.18h41.68Z"/><path class="cls-3" d="M845.22,260.11h-37a14,14,0,0,1-4.66-.91,13.08,13.08,0,0,1-4.67-3,16.64,16.64,0,0,1-3.59-5.41,20.55,20.55,0,0,1-1.44-8.16V197.76a7.26,7.26,0,0,1,.4-2.44,6.45,6.45,0,0,1,1.08-2A4.9,4.9,0,0,1,797,192a4.45,4.45,0,0,1,2-.48h46.17v12.44H804.14v38.71a5.72,5.72,0,0,0,1.06,3.73,3.78,3.78,0,0,0,3.11,1.3h36.91Zm-4.61-28H808.24V219.53h32.37Z"/><path class="cls-3" d="M911.62,214.55a30.33,30.33,0,0,1-.87,7.61,23.6,23.6,0,0,1-2.35,5.91,18.7,18.7,0,0,1-3.41,4.38,20.26,20.26,0,0,1-4,3,17.31,17.31,0,0,1-4.26,1.7,17.07,17.07,0,0,1-4,.53l21.41,22.44H898.21l-21.37-22.44h-7.37V225.22h23.18a9.88,9.88,0,0,0,3.53-1,8.67,8.67,0,0,0,2.76-2.13,9.45,9.45,0,0,0,1.79-3.23,13.66,13.66,0,0,0,.63-4.33v-7.84a4.74,4.74,0,0,0-.21-1.61,2,2,0,0,0-.55-.81,1.4,1.4,0,0,0-.71-.31,5.89,5.89,0,0,0-.69,0H865.37v56.18H855.12V197.76a7.52,7.52,0,0,1,.39-2.44,6.45,6.45,0,0,1,1.08-2,4.9,4.9,0,0,1,1.64-1.34,4.45,4.45,0,0,1,2-.48H899.2A10.53,10.53,0,0,1,905,193a12.52,12.52,0,0,1,3.85,3.78,16.21,16.21,0,0,1,2.13,4.9,20.84,20.84,0,0,1,.65,4.93Z"/></g></g></svg>