<svg width="358" height="345" viewBox="0 0 358 345" fill="none" xmlns="http://www.w3.org/2000/svg">
<path d="M52.3876 317.579C122.238 354.084 235.497 354.084 305.347 317.579C375.198 281.074 375.198 221.847 305.347 185.368C235.497 148.888 122.238 148.854 52.3876 185.368C-17.4625 221.881 -17.4625 281.065 52.3876 317.579Z" fill="#F5F5F5"/>
<path d="M174.661 279.04L177.881 280.895C178.449 281.183 179.077 281.333 179.715 281.333C180.352 281.333 180.98 281.183 181.549 280.895L267.351 231.352C267.573 231.277 267.765 231.134 267.901 230.944C268.037 230.754 268.11 230.527 268.11 230.293C268.11 230.059 268.037 229.831 267.901 229.641C267.765 229.452 267.573 229.309 267.351 229.234L264.141 227.379C263.572 227.091 262.944 226.94 262.307 226.94C261.669 226.94 261.041 227.091 260.472 227.379L174.661 276.922C174.44 276.997 174.248 277.139 174.112 277.329C173.976 277.519 173.902 277.747 173.902 277.981C173.902 278.214 173.976 278.442 174.112 278.632C174.248 278.822 174.44 278.965 174.661 279.04Z" fill="#E0E0E0"/>
<path d="M314.463 272.067C303.84 277.752 286.608 277.752 275.984 272.067C265.361 266.382 265.361 257.174 275.984 251.489C286.608 245.804 303.84 245.804 314.463 251.489C325.087 257.174 325.087 266.425 314.463 272.067Z" fill="#E0E0E0"/>
<path d="M307.881 238.045C307.881 238.045 308.863 229.429 313.15 222.745C317.437 216.061 323.316 211.893 328.806 211.461C334.296 211.029 338.735 216.078 332.864 219.543C326.993 223.008 316.547 226.557 311.744 239.536L307.881 238.045Z" fill="#3D83DF"/>
<path opacity="0.1" d="M307.881 238.045C307.881 238.045 308.863 229.429 313.15 222.745C317.437 216.061 323.316 211.893 328.806 211.461C334.296 211.029 338.735 216.078 332.864 219.543C326.993 223.008 316.547 226.557 311.744 239.536L307.881 238.045Z" fill="black"/>
<path d="M309.482 235.809H309.422C309.386 235.795 309.354 235.774 309.326 235.747C309.298 235.72 309.276 235.688 309.261 235.652C309.246 235.617 309.238 235.579 309.238 235.54C309.239 235.501 309.246 235.463 309.261 235.428C315.056 221.153 326.086 215.188 331.11 214.036C331.148 214.027 331.186 214.026 331.224 214.032C331.262 214.038 331.298 214.051 331.331 214.071C331.363 214.092 331.392 214.118 331.414 214.149C331.437 214.18 331.453 214.215 331.462 214.252C331.471 214.29 331.472 214.328 331.466 214.366C331.46 214.404 331.447 214.44 331.427 214.473C331.407 214.506 331.38 214.534 331.349 214.556C331.318 214.579 331.283 214.595 331.246 214.604C326.324 215.739 315.505 221.593 309.804 235.648C309.775 235.706 309.728 235.754 309.67 235.783C309.612 235.812 309.546 235.821 309.482 235.809Z" fill="white"/>
<path d="M338.837 235.978C338.337 237.096 337.142 237.673 335.973 238.138C334.804 238.604 333.601 239.087 332.983 240.155C331.746 242.29 333.779 245.306 332.449 247.39C332.137 247.806 331.744 248.154 331.295 248.415C330.845 248.675 330.347 248.843 329.831 248.906C328.984 249.067 328.137 249.059 327.29 249.135C326.882 249.126 326.474 249.094 326.07 249.042C324.88 248.775 323.636 248.906 322.528 249.414C320.834 250.372 320.3 252.524 319.267 254.176C318.629 255.156 317.786 255.985 316.795 256.607C315.805 257.229 314.691 257.628 313.531 257.776C312.543 257.978 311.519 257.91 310.566 257.581L310.405 257.48C310.297 257.367 310.195 257.248 310.1 257.124V257.073C309.795 255.963 310.287 254.803 310.312 253.684C310.316 253.617 310.316 253.549 310.312 253.481C310.27 252.142 310.227 250.821 310.202 249.491C310.134 247.042 310.109 244.586 310.126 242.137C310.126 240.553 309.948 238.808 310.625 237.308C311.371 235.665 313.226 235.614 313.921 234.013C314.201 233.36 314.353 232.674 314.624 232.022C315.045 231.066 315.72 230.245 316.576 229.647C317.432 229.049 318.436 228.698 319.479 228.633C322.715 228.472 325.612 231.09 328.848 230.853C329.68 230.736 330.506 230.578 331.322 230.378C333.94 229.887 336.973 230.632 338.447 232.852C338.76 233.303 338.959 233.823 339.027 234.367C339.095 234.912 339.03 235.464 338.837 235.978Z" fill="#3D83DF"/>
<path d="M309.761 251.955C309.726 251.947 309.693 251.931 309.663 251.909C309.634 251.887 309.61 251.859 309.592 251.828C309.574 251.796 309.562 251.761 309.558 251.725C309.553 251.688 309.556 251.652 309.566 251.617C314.031 234.842 331.703 232.419 335.829 232.716C335.865 232.718 335.901 232.728 335.934 232.744C335.966 232.76 335.996 232.783 336.019 232.81C336.043 232.838 336.061 232.87 336.072 232.905C336.083 232.94 336.087 232.976 336.083 233.013C336.082 233.049 336.074 233.084 336.059 233.117C336.043 233.149 336.022 233.178 335.994 233.202C335.967 233.226 335.936 233.244 335.902 233.255C335.867 233.266 335.831 233.27 335.795 233.267C331.746 232.979 314.463 235.351 310.092 251.761C310.072 251.829 310.027 251.887 309.965 251.924C309.904 251.96 309.831 251.971 309.761 251.955Z" fill="white"/>
<path d="M329.399 243.459C329.344 243.449 329.294 243.423 329.255 243.383C327.622 241.969 325.697 240.933 323.618 240.347C321.539 239.761 319.356 239.641 317.225 239.994C317.189 240 317.153 239.999 317.118 239.991C317.082 239.983 317.049 239.967 317.02 239.946C316.991 239.925 316.966 239.898 316.947 239.867C316.929 239.836 316.917 239.801 316.911 239.766C316.902 239.693 316.921 239.619 316.966 239.56C317.01 239.501 317.076 239.463 317.149 239.452C319.364 239.086 321.632 239.214 323.793 239.826C325.953 240.438 327.951 241.52 329.645 242.993C329.684 243.036 329.709 243.089 329.716 243.147C329.723 243.204 329.713 243.262 329.686 243.313C329.659 243.364 329.617 243.405 329.566 243.432C329.514 243.458 329.456 243.467 329.399 243.459Z" fill="white"/>
<path d="M191.995 158.317V166.789L45.7966 251.176L41.298 253.718C40.2767 253.024 39.4331 252.1 38.8356 251.02C38.238 249.939 37.9033 248.733 37.8585 247.5V105.385C37.8683 105.131 37.9411 104.884 38.0703 104.665C38.1974 104.441 38.3778 104.252 38.5955 104.114L71.9152 84.8746C72.3218 84.6459 74.6939 85.6371 75.0836 85.8743L75.3378 86.0183C75.558 86.1595 75.7552 86.3338 75.9223 86.5351C76.1089 86.739 76.2529 86.978 76.3459 87.2383L79.3619 95.9473L187.801 31.3413C188.024 31.238 188.267 31.1846 188.513 31.1846C188.758 31.1846 189.001 31.238 189.224 31.3413L191.241 32.5104C191.456 32.645 191.633 32.8315 191.757 33.0526C191.89 33.2728 191.963 33.524 191.969 33.7811V158.317H191.995Z" fill="#263238"/>
<path d="M191.995 166.755L41.298 253.718V106.52L75.9223 86.5353C76.1089 86.7392 76.2529 86.9782 76.3459 87.2385L79.3618 95.9475L79.9379 97.5995L191.766 33.0273C191.899 33.2476 191.972 33.4987 191.978 33.7559L191.995 166.755Z" fill="#37474F"/>
<path d="M75.9223 86.535L41.298 106.52L38.0703 104.665C38.1974 104.441 38.3778 104.252 38.5955 104.114L71.9151 84.8745C72.1392 84.7593 72.3875 84.6992 72.6395 84.6992C72.8914 84.6992 73.1398 84.7593 73.3638 84.8745L75.3378 86.0097C75.5587 86.1534 75.7559 86.3307 75.9223 86.535Z" fill="#455A64"/>
<path d="M191.774 33.0271L79.9464 97.5993L79.3703 95.9473L187.81 31.3413C188.033 31.238 188.275 31.1846 188.521 31.1846C188.767 31.1846 189.01 31.238 189.233 31.3413L191.249 32.5104C191.464 32.6368 191.644 32.8143 191.774 33.0271Z" fill="#455A64"/>
<path d="M87.5964 193.882C87.1313 193.568 86.7469 193.149 86.4746 192.659C86.2022 192.169 86.0496 191.621 86.0291 191.061V51.0555C86.0626 50.4753 86.2337 49.9115 86.5284 49.4106C86.823 48.9097 87.2327 48.4862 87.7235 48.1751L170.425 0.478771C170.907 0.17652 171.461 0.0111855 172.029 0.000547827C172.598 -0.0100898 173.158 0.134371 173.65 0.418396C174.142 0.702421 174.548 1.11526 174.823 1.61252C175.098 2.10978 175.233 2.67265 175.212 3.24058V143.246C175.177 143.826 175.005 144.389 174.711 144.89C174.416 145.39 174.007 145.814 173.518 146.126L90.8242 193.822C90.3289 194.086 89.7784 194.229 89.2174 194.239C88.6565 194.25 88.101 194.127 87.5964 193.882Z" fill="#FAFAFA"/>
<path d="M90.8242 193.822L173.526 146.126C174.016 145.814 174.425 145.39 174.719 144.889C175.014 144.388 175.186 143.825 175.22 143.245V3.24007C175.22 2.18109 174.475 1.74903 173.526 2.27428L90.8157 49.9791C90.3259 50.2912 89.9169 50.715 89.6224 51.2156C89.3279 51.7163 89.1562 52.2797 89.1214 52.8595V192.865C89.1553 193.924 89.9008 194.356 90.8242 193.822Z" fill="#F0F0F0"/>
<path d="M99.8805 55.5377L162.335 19.4816C163.14 19.0157 163.8 19.3884 163.8 20.3288V20.9134C163.772 21.422 163.624 21.9169 163.369 22.3582C163.115 22.7996 162.761 23.1752 162.335 23.4549L99.8805 59.511C99.0334 59.9769 98.4149 59.5957 98.4149 58.6638V58.0792C98.4424 57.5702 98.5894 57.0749 98.8441 56.6333C99.0987 56.1918 99.4538 55.8164 99.8805 55.5377Z" fill="#E0E0E0"/>
<path d="M99.8805 65.458L162.335 29.402C163.14 28.936 163.8 29.3173 163.8 30.2492V30.8337C163.773 31.3427 163.626 31.838 163.371 32.2796C163.117 32.7212 162.762 33.0965 162.335 33.3753L99.8805 69.4313C99.0334 69.8973 98.4149 69.516 98.4149 68.5841V67.9996C98.4437 67.4909 98.5913 66.9961 98.8458 66.5547C99.1004 66.1134 99.4547 65.7378 99.8805 65.458Z" fill="#E0E0E0"/>
<path d="M99.8805 75.378L162.335 39.3219C163.14 38.856 163.8 39.2372 163.8 40.1691V40.7536C163.773 41.2626 163.626 41.758 163.371 42.1995C163.117 42.6411 162.762 43.0165 162.335 43.2952L99.8805 79.3512C99.0334 79.8256 98.4149 79.4444 98.4149 78.504V77.9195C98.4437 77.4108 98.5913 76.916 98.8458 76.4746C99.1004 76.0333 99.4547 75.6577 99.8805 75.378Z" fill="#E0E0E0"/>
<path d="M99.8805 85.2985L162.335 49.251C163.14 48.7766 163.8 49.1578 163.8 50.0982V50.6827C163.771 51.1912 163.623 51.6858 163.369 52.1271C163.114 52.5683 162.76 52.944 162.335 53.2243L99.8805 89.2803C99.0334 89.7462 98.4149 89.365 98.4149 88.4331V87.8401C98.4444 87.3316 98.5923 86.837 98.8467 86.3957C99.1012 85.9545 99.4552 85.5788 99.8805 85.2985Z" fill="#E0E0E0"/>
<path d="M99.8805 95.2271L162.335 59.1711C163.14 58.7051 163.8 59.0779 163.8 60.0183V60.6028C163.772 61.1115 163.624 61.6063 163.369 62.0477C163.115 62.489 162.761 62.8646 162.335 63.1444L99.8805 99.2004C99.0334 99.6664 98.4149 99.2851 98.4149 98.3532V97.7687C98.4424 97.2597 98.5894 96.7644 98.8441 96.3228C99.0987 95.8812 99.4538 95.5059 99.8805 95.2271Z" fill="#E0E0E0"/>
<path d="M99.8805 105.224L162.335 69.168C163.14 68.6936 163.8 69.0748 163.8 70.0152V70.5997C163.771 71.1082 163.623 71.6028 163.369 72.0441C163.114 72.4853 162.76 72.861 162.335 73.1413L99.8805 109.197C99.0334 109.663 98.4149 109.282 98.4149 108.35V107.766C98.4424 107.257 98.5894 106.761 98.8441 106.32C99.0987 105.878 99.4538 105.503 99.8805 105.224Z" fill="#E0E0E0"/>
<path d="M99.8805 115.144L162.335 79.0881C163.14 78.6221 163.8 78.9949 163.8 79.9353V80.5198C163.772 81.0285 163.624 81.5233 163.369 81.9647C163.115 82.406 162.761 82.7816 162.335 83.0614L99.8805 119.117C99.0334 119.583 98.4149 119.202 98.4149 118.27V117.686C98.4424 117.177 98.5894 116.681 98.8441 116.24C99.0987 115.798 99.4538 115.423 99.8805 115.144Z" fill="#E0E0E0"/>
<path d="M99.8805 125.065L162.335 89.0094C163.14 88.5435 163.8 88.9247 163.8 89.8566V90.4411C163.773 90.9501 163.626 91.4455 163.371 91.887C163.117 92.3286 162.762 92.704 162.335 92.9827L99.8805 129.039C99.0334 129.505 98.4149 129.132 98.4149 128.192V127.607C98.4437 127.098 98.5913 126.603 98.8458 126.162C99.1004 125.721 99.4547 125.345 99.8805 125.065Z" fill="#E0E0E0"/>
<path d="M99.8805 134.985L162.335 98.9293C163.14 98.4634 163.8 98.8446 163.8 99.7765V100.378C163.773 100.887 163.626 101.382 163.371 101.824C163.117 102.265 162.762 102.641 162.335 102.92L99.8805 138.976C99.0334 139.45 98.4149 139.069 98.4149 138.128V137.544C98.4418 137.032 98.5884 136.534 98.843 136.09C99.0976 135.646 99.453 135.267 99.8805 134.985Z" fill="#E0E0E0"/>
<path d="M99.8805 144.915L162.335 108.851C163.14 108.376 163.8 108.757 163.8 109.698V110.282C163.771 110.791 163.623 111.285 163.369 111.727C163.114 112.168 162.76 112.544 162.335 112.824L99.8805 148.88C99.0334 149.346 98.4149 148.965 98.4149 148.033V147.448C98.4437 146.941 98.5914 146.447 98.8459 146.007C99.1005 145.567 99.4549 145.193 99.8805 144.915Z" fill="#E0E0E0"/>
<path d="M99.8805 154.878L162.335 118.822C163.14 118.356 163.8 118.737 163.8 119.669V120.254C163.772 120.762 163.624 121.257 163.369 121.699C163.115 122.14 162.761 122.515 162.335 122.795L99.8805 158.834C99.0334 159.3 98.4149 158.919 98.4149 157.987V157.403C98.445 156.896 98.5933 156.405 98.8478 155.966C99.1023 155.528 99.456 155.155 99.8805 154.878Z" fill="#E0E0E0"/>
<path d="M99.8805 164.765L162.335 128.709C163.14 128.243 163.8 128.624 163.8 129.556V130.14C163.773 130.649 163.626 131.145 163.371 131.586C163.117 132.028 162.762 132.403 162.335 132.682L99.8805 168.738C99.0334 169.204 98.4149 168.831 98.4149 167.891V167.306C98.4437 166.798 98.5913 166.303 98.8458 165.861C99.1004 165.42 99.4547 165.044 99.8805 164.765Z" fill="#E0E0E0"/>
<path d="M99.8805 174.719L162.335 138.663C163.14 138.197 163.8 138.578 163.8 139.51V140.103C163.771 140.611 163.623 141.106 163.369 141.547C163.114 141.989 162.76 142.364 162.335 142.644L99.8805 178.692C99.0334 179.166 98.4149 178.785 98.4149 177.845V177.26C98.4444 176.752 98.5923 176.257 98.8467 175.816C99.1012 175.375 99.4552 174.999 99.8805 174.719Z" fill="#E0E0E0"/>
<path d="M90.6039 193.932C90.1207 194.189 89.5781 194.314 89.0312 194.294C88.4842 194.274 87.9522 194.11 87.4889 193.819C87.0256 193.527 86.6474 193.119 86.3926 192.634C86.1377 192.15 86.0153 191.607 86.0376 191.06V51.0635C86.0581 50.4838 86.2242 49.9186 86.5205 49.4199L89.6466 51.2244C89.346 51.7186 89.1768 52.2815 89.1552 52.8595V192.865C89.1552 193.839 89.7906 194.279 90.6039 193.932Z" fill="#E0E0E0"/>
<path d="M99.3045 200.523C98.8394 200.21 98.455 199.791 98.1826 199.301C97.9102 198.81 97.7576 198.263 97.7372 197.702V57.6971C97.7706 57.1169 97.9418 56.5531 98.2364 56.0522C98.531 55.5513 98.9407 55.1278 99.4315 54.8167L182.133 7.12037C182.615 6.81812 183.169 6.65279 183.737 6.64215C184.306 6.63151 184.866 6.77598 185.358 7.06C185.851 7.34403 186.256 7.75686 186.531 8.25412C186.806 8.75138 186.941 9.31425 186.92 9.88218V149.887C186.885 150.467 186.713 151.031 186.419 151.531C186.124 152.032 185.715 152.456 185.226 152.768L102.524 200.464C102.03 200.726 101.481 200.868 100.921 200.879C100.362 200.889 99.808 200.767 99.3045 200.523Z" fill="#FAFAFA"/>
<path d="M102.532 200.464L185.234 152.767C185.724 152.455 186.133 152.031 186.427 151.531C186.722 151.03 186.894 150.467 186.928 149.887V9.88167C186.928 8.82269 186.183 8.39063 185.234 8.91588L102.524 56.6207C102.034 56.9328 101.625 57.3566 101.33 57.8572C101.036 58.3579 100.864 58.9213 100.829 59.5011V199.498C100.863 200.565 101.609 200.997 102.532 200.464Z" fill="#F0F0F0"/>
<path d="M111.589 62.1793L174.043 26.1232C174.89 25.6573 175.508 26.03 175.508 26.9704V27.5211C175.48 28.0298 175.332 28.5246 175.077 28.966C174.823 29.4073 174.469 29.7829 174.043 30.0626L111.589 66.1526C110.741 66.6185 110.123 66.2373 110.123 65.3054V64.7208C110.15 64.2118 110.297 63.7165 110.552 63.2749C110.807 62.8334 111.162 62.458 111.589 62.1793Z" fill="#E0E0E0"/>
<path d="M111.589 72.0996L174.043 36.0436C174.89 35.5776 175.508 35.9589 175.508 36.8908V37.4753C175.481 37.9843 175.334 38.4796 175.079 38.9212C174.825 39.3628 174.47 39.7381 174.043 40.0169L111.589 76.0729C110.741 76.5389 110.123 76.1661 110.123 75.2257V74.6412C110.152 74.1325 110.299 73.6377 110.554 73.1963C110.808 72.755 111.163 72.3794 111.589 72.0996Z" fill="#E0E0E0"/>
<path d="M111.589 82.0196L174.043 45.9635C174.89 45.4976 175.508 45.8788 175.508 46.8107V47.3953C175.481 47.9042 175.334 48.3996 175.079 48.8411C174.825 49.2827 174.47 49.6581 174.043 49.9368L111.589 85.9759C110.741 86.4503 110.123 86.0691 110.123 85.1287V84.5442C110.154 84.0384 110.303 83.5469 110.558 83.1087C110.812 82.6705 111.165 82.2976 111.589 82.0196Z" fill="#E0E0E0"/>
<path d="M111.589 91.9486L174.043 55.8926C174.89 55.4182 175.508 55.7994 175.508 56.7398V57.3243C175.479 57.8328 175.331 58.3274 175.077 58.7687C174.822 59.2099 174.468 59.5856 174.043 59.8659L111.589 95.9219C110.741 96.3879 110.123 96.0066 110.123 95.0747V94.4902C110.15 93.9812 110.297 93.4859 110.552 93.0443C110.807 92.6027 111.162 92.2274 111.589 91.9486Z" fill="#E0E0E0"/>
<path d="M111.589 101.869L174.043 65.8127C174.89 65.3467 175.508 65.7195 175.508 66.6599V67.2444C175.48 67.7531 175.332 68.2479 175.077 68.6893C174.823 69.1306 174.469 69.5062 174.043 69.786L111.589 105.842C110.741 106.308 110.123 105.927 110.123 104.995V104.41C110.15 103.901 110.297 103.406 110.552 102.964C110.807 102.523 111.162 102.147 111.589 101.869Z" fill="#E0E0E0"/>
<path d="M111.589 111.866L174.043 75.8096C174.89 75.3352 175.508 75.7164 175.508 76.6568V77.2413C175.479 77.7498 175.331 78.2444 175.077 78.6857C174.822 79.1269 174.468 79.5026 174.043 79.7829L111.589 115.839C110.741 116.305 110.123 115.924 110.123 114.992V114.407C110.15 113.898 110.297 113.403 110.552 112.961C110.807 112.52 111.162 112.144 111.589 111.866Z" fill="#E0E0E0"/>
<path d="M111.589 121.786L174.043 85.7297C174.89 85.2637 175.508 85.6365 175.508 86.5769V87.1614C175.48 87.6701 175.332 88.1649 175.077 88.6063C174.823 89.0476 174.469 89.4232 174.043 89.703L111.589 125.793C110.741 126.259 110.123 125.878 110.123 124.946V124.361C110.145 123.846 110.29 123.344 110.545 122.896C110.799 122.448 111.157 122.068 111.589 121.786Z" fill="#E0E0E0"/>
<path d="M111.589 131.724L174.043 95.6676C174.89 95.2017 175.508 95.5829 175.508 96.5148V97.0994C175.481 97.6083 175.334 98.1037 175.079 98.5452C174.825 98.9868 174.47 99.3622 174.043 99.6409L111.589 135.697C110.741 136.163 110.123 135.79 110.123 134.85V134.265C110.152 133.757 110.299 133.262 110.554 132.82C110.808 132.379 111.163 132.003 111.589 131.724Z" fill="#E0E0E0"/>
<path d="M111.589 141.627L174.043 105.571C174.89 105.105 175.508 105.486 175.508 106.418V107.003C175.481 107.512 175.334 108.007 175.079 108.449C174.825 108.89 174.47 109.265 174.043 109.544L111.589 145.6C110.741 146.075 110.123 145.693 110.123 144.753V144.169C110.152 143.66 110.3 143.165 110.555 142.724C110.809 142.283 111.163 141.907 111.589 141.627Z" fill="#E0E0E0"/>
<path d="M111.589 151.556L174.043 115.5C174.89 115.026 175.508 115.407 175.508 116.347V116.932C175.479 117.44 175.331 117.935 175.077 118.376C174.822 118.817 174.468 119.193 174.043 119.473L111.589 155.529C110.741 155.995 110.123 155.614 110.123 154.682V154.098C110.15 153.589 110.297 153.093 110.552 152.652C110.807 152.21 111.162 151.835 111.589 151.556Z" fill="#E0E0E0"/>
<path d="M111.589 161.52L174.043 125.464C174.89 124.998 175.508 125.379 175.508 126.311V126.895C175.481 127.404 175.334 127.9 175.079 128.341C174.825 128.783 174.47 129.158 174.043 129.437L111.589 165.493C110.741 165.959 110.123 165.578 110.123 164.646V164.061C110.15 163.552 110.297 163.057 110.552 162.615C110.807 162.174 111.162 161.798 111.589 161.52Z" fill="#E0E0E0"/>
<path d="M111.589 171.439L174.043 135.383C174.89 134.917 175.508 135.299 175.508 136.231V136.807C175.481 137.316 175.334 137.811 175.079 138.253C174.825 138.694 174.47 139.069 174.043 139.348L111.589 175.404C110.741 175.87 110.123 175.497 110.123 174.557V173.973C110.153 173.465 110.301 172.972 110.556 172.532C110.81 172.093 111.164 171.718 111.589 171.439Z" fill="#E0E0E0"/>
<path d="M111.589 181.36L174.043 145.279C174.89 144.813 175.508 145.194 175.508 146.126V146.719C175.479 147.228 175.331 147.722 175.077 148.164C174.822 148.605 174.468 148.98 174.043 149.261L111.589 185.308C110.741 185.783 110.123 185.401 110.123 184.461V183.877C110.156 183.372 110.306 182.883 110.56 182.446C110.815 182.01 111.167 181.638 111.589 181.36Z" fill="#E0E0E0"/>
<path d="M102.312 200.574C101.829 200.831 101.286 200.956 100.739 200.936C100.192 200.916 99.6602 200.752 99.1969 200.46C98.7336 200.169 98.3554 199.76 98.1006 199.276C97.8458 198.792 97.7233 198.249 97.7457 197.702V57.7051C97.7662 57.1254 97.9322 56.5602 98.2285 56.0615L101.355 57.866C101.054 58.3602 100.885 58.9231 100.863 59.5011V199.498C100.863 200.481 101.499 200.921 102.312 200.574Z" fill="#E0E0E0"/>
<path d="M222.773 50.3945L198.611 155.021L196.383 164.645C195.644 167.214 194.005 169.43 191.766 170.889L48.4058 253.625C47.3636 254.19 46.2024 254.501 45.0171 254.531C43.7291 254.621 42.4415 254.351 41.298 253.752L42.035 250.558L42.1113 250.245L42.9161 246.746L46.4234 231.564L68.6365 135.375C68.6667 135.251 68.7123 135.132 68.7721 135.019C68.8314 134.909 68.8991 134.799 68.9669 134.698V134.647C69.1203 134.44 69.3097 134.262 69.5261 134.121L191.986 63.4411L218.782 47.9716C219.011 47.8548 219.263 47.7939 219.52 47.7939C219.776 47.7939 220.028 47.8548 220.257 47.9716L222.231 49.1068C222.439 49.2426 222.603 49.4379 222.699 49.6674C222.796 49.897 222.821 50.1502 222.773 50.3945Z" fill="#37474F"/>
<path d="M222.798 50.1488C222.798 49.8523 222.561 49.7591 222.231 49.954L72.9995 136.112C72.7796 136.248 72.5894 136.427 72.4404 136.638L69.0008 134.647C69.1542 134.44 69.3436 134.262 69.56 134.121L218.783 47.9716C219.011 47.8548 219.263 47.7939 219.52 47.7939C219.776 47.7939 220.028 47.8548 220.257 47.9716L222.231 49.1068C222.403 49.2206 222.545 49.3752 222.644 49.5569C222.743 49.7387 222.796 49.9419 222.798 50.1488Z" fill="#455A64"/>
<path d="M72.4404 136.638C72.3435 136.768 72.2584 136.907 72.1862 137.053C72.141 137.151 72.1042 137.253 72.0761 137.358L50.8372 229.345L46.3641 248.728L45.7965 251.177L45.0171 254.565C43.7291 254.655 42.4415 254.385 41.298 253.786L42.035 250.592L42.1113 250.279L42.9161 246.78L46.4234 231.598L68.6365 135.409C68.6667 135.285 68.7123 135.166 68.7721 135.053C68.8314 134.943 68.8991 134.833 68.9669 134.731V134.681L72.4404 136.638Z" fill="#263238"/>
<path d="M46.5505 244.874C46.7282 244.976 46.8686 245.132 46.9509 245.319C47.0332 245.507 47.0533 245.716 47.008 245.916L45.7965 251.177L45.1611 253.795C45.1098 254.013 44.9832 254.207 44.8036 254.342C44.6239 254.476 44.4026 254.544 44.1784 254.532C43.1613 254.509 42.1647 254.241 41.2726 253.752C40.2513 253.059 39.4077 252.134 38.8101 251.054C38.2126 249.974 37.8778 248.768 37.833 247.534V241.502C37.8275 241.332 37.8678 241.164 37.9496 241.015C38.0314 240.866 38.1518 240.741 38.2982 240.655C38.4445 240.568 38.6114 240.522 38.7815 240.522C38.9515 240.522 39.1184 240.568 39.2648 240.655L40.7982 241.502C40.9444 241.589 41.0652 241.714 41.1484 241.862C41.2317 242.011 41.2745 242.179 41.2726 242.349V245.348C41.2632 245.588 41.3448 245.822 41.501 246.004C41.6572 246.185 41.8763 246.301 42.1145 246.328C42.3527 246.355 42.5922 246.291 42.7849 246.148C42.9776 246.006 43.1092 245.796 43.1533 245.56L43.4075 244.45C43.4419 244.305 43.5095 244.171 43.6051 244.057C43.7006 243.943 43.8214 243.852 43.9579 243.793C44.0944 243.734 44.2429 243.707 44.3914 243.716C44.54 243.724 44.6846 243.766 44.8138 243.84L46.5505 244.874Z" fill="#263238"/>
<path d="M78.2012 222.516L70.0429 217.806L69.9581 217.755C65.9001 215.459 60.3342 215.798 54.1752 219.356C48.4059 222.677 43.1618 228.226 39.1885 234.606C34.6053 241.993 31.7249 250.549 31.7249 258.216C31.7249 265.367 34.2664 270.39 38.2736 272.737L46.559 277.464C50.6509 280.074 56.4287 279.845 62.8334 276.143C75.2361 268.984 85.2921 251.575 85.2921 237.249C85.2921 229.861 82.5642 224.727 78.2012 222.516Z" fill="#3D83DF"/>
<path opacity="0.1" d="M46.398 277.439L38.2736 272.796C34.224 270.449 31.7249 265.426 31.7249 258.275C31.7249 250.608 34.6053 242.06 39.1885 234.673L47.8552 239.671C43.2719 247.059 40.4 255.598 40.4 263.257C40.3746 270.085 42.662 274.973 46.398 277.439Z" fill="black"/>
<path opacity="0.4" d="M78.0318 222.423C74.0331 220.483 68.7128 220.974 62.8334 224.355C56.954 227.735 51.82 233.242 47.8298 239.663L39.1631 234.665C43.128 228.243 48.389 222.703 54.1498 219.416C60.3088 215.857 65.8748 215.519 69.9328 217.806L70.0175 217.857L78.0318 222.423Z" fill="white"/>
<path d="M65.9341 252.591V260.496C65.9341 260.898 65.8414 261.295 65.663 261.656C65.5395 262 65.3114 262.296 65.0106 262.503L60.6815 265.003C60.5848 265.074 60.4657 265.108 60.3459 265.099C60.2261 265.089 60.1137 265.037 60.0292 264.952C59.9301 264.836 59.8551 264.701 59.8086 264.555C59.7621 264.41 59.7449 264.257 59.7581 264.105V256.234L54.4293 259.301C54.3343 259.375 54.2154 259.412 54.0951 259.404C53.9748 259.396 53.8616 259.345 53.777 259.259C53.6779 259.143 53.6029 259.008 53.5564 258.862C53.5099 258.717 53.4927 258.564 53.5059 258.412V253.074C53.5108 252.67 53.6033 252.271 53.777 251.905C53.9133 251.583 54.1398 251.306 54.4293 251.109L59.7581 248.034V240.163C59.763 239.759 59.8555 239.36 60.0292 238.994C60.1625 238.67 60.3897 238.392 60.6815 238.198L65.0106 235.656C65.107 235.585 65.2252 235.551 65.3445 235.559C65.4638 235.566 65.5766 235.616 65.663 235.699C65.7628 235.814 65.8384 235.949 65.8849 236.095C65.9315 236.24 65.9482 236.394 65.9341 236.546V244.399L71.2289 241.349C71.3239 241.275 71.4429 241.238 71.5632 241.246C71.6834 241.254 71.7967 241.306 71.8813 241.392C71.9803 241.508 72.0553 241.643 72.1019 241.788C72.1484 241.933 72.1656 242.087 72.1524 242.239V247.576C72.1474 247.981 72.0549 248.38 71.8813 248.745C71.7449 249.068 71.5184 249.344 71.2289 249.542L65.9341 252.591Z" fill="white"/>
<path d="M283.694 130.19L273.79 129.91C273.129 129.343 262.734 117.609 262.734 117.609C262.734 117.609 258.99 123.54 258.93 123.887C258.871 124.234 269.097 135.231 270.139 136.341C270.425 136.709 270.791 137.007 271.209 137.212C271.627 137.418 272.087 137.525 272.553 137.527C275.239 137.688 285.261 138.374 285.261 138.374L283.694 130.19Z" fill="#B16668"/>
<path d="M177.991 278.887C177.528 278.572 177.145 278.153 176.875 277.663C176.604 277.173 176.452 276.626 176.432 276.066V144.431C176.467 143.851 176.638 143.288 176.933 142.787C177.227 142.287 177.636 141.863 178.126 141.551L260.828 93.8459C261.325 93.5861 261.875 93.4455 262.435 93.4352C262.995 93.4249 263.55 93.5452 264.056 93.7866C264.52 94.1023 264.903 94.5231 265.174 95.0147C265.445 95.5064 265.596 96.0551 265.615 96.6161V228.243C265.581 228.824 265.41 229.389 265.116 229.891C264.821 230.394 264.411 230.819 263.92 231.132L181.219 278.828C180.723 279.09 180.172 279.231 179.612 279.242C179.051 279.252 178.496 279.131 177.991 278.887Z" fill="#3D83DF"/>
<path opacity="0.15" d="M180.753 279.014L180.922 278.963C180.887 278.988 180.846 279.006 180.803 279.014C180.704 279.054 180.602 279.088 180.498 279.116H180.329C180.203 279.144 180.076 279.163 179.948 279.175C179.801 279.183 179.654 279.183 179.507 279.175C178.98 279.187 178.458 279.064 177.991 278.819C177.651 278.601 177.362 278.312 177.144 277.972C176.721 277.395 176.482 276.704 176.457 275.989V144.431C176.456 144.143 176.499 143.858 176.584 143.583C176.626 143.442 176.677 143.303 176.737 143.168C176.796 143.029 176.864 142.893 176.94 142.762L180.058 144.566L179.982 144.693C179.728 145.157 179.585 145.673 179.567 146.201V277.87C179.565 278.039 179.588 278.207 179.634 278.37C179.689 278.568 179.801 278.745 179.956 278.878C180.058 278.954 180.173 279.008 180.295 279.039H180.49C180.566 279.052 180.643 279.052 180.719 279.039C180.733 279.035 180.745 279.026 180.753 279.014Z" fill="black"/>
<path opacity="0.3" d="M265.555 96.2604C265.42 95.4132 264.708 95.1336 263.92 95.608L181.21 143.304C180.722 143.617 180.317 144.045 180.032 144.55L176.915 142.737C177.193 142.229 177.599 141.802 178.092 141.5L260.794 93.7951C261.291 93.5353 261.841 93.3947 262.401 93.3844C262.961 93.3741 263.516 93.4944 264.022 93.7358C264.444 94.0218 264.799 94.3954 265.064 94.831C265.328 95.2666 265.496 95.7541 265.555 96.2604Z" fill="white"/>
<path d="M190.283 148.87L252.721 112.813C253.568 112.339 254.186 112.72 254.186 113.661V114.245C254.158 114.754 254.011 115.249 253.756 115.691C253.502 116.132 253.147 116.508 252.721 116.787L190.266 152.843C189.419 153.309 188.801 152.928 188.801 151.996V151.411C188.829 150.9 188.979 150.404 189.237 149.962C189.494 149.52 189.853 149.146 190.283 148.87Z" fill="#FAFAFA"/>
<path d="M190.283 161.011L252.721 124.946C253.568 124.472 254.186 124.853 254.186 125.793V126.378C254.159 126.887 254.013 127.383 253.758 127.824C253.503 128.266 253.148 128.641 252.721 128.92L190.266 164.976C189.419 165.442 188.801 165.06 188.801 164.128V163.544C188.831 163.035 188.981 162.54 189.238 162.1C189.496 161.659 189.854 161.286 190.283 161.011Z" fill="#FAFAFA"/>
<path d="M190.283 173.151L252.721 137.095C253.568 136.629 254.186 137.002 254.186 137.942V138.501C254.159 139.01 254.013 139.506 253.758 139.948C253.503 140.389 253.148 140.765 252.721 141.043L190.266 177.099C189.419 177.565 188.801 177.184 188.801 176.252V175.667C188.833 175.161 188.985 174.669 189.242 174.232C189.5 173.795 189.856 173.425 190.283 173.151Z" fill="#FAFAFA"/>
<path d="M190.283 185.29L252.721 149.234C253.568 148.768 254.186 149.14 254.186 150.081V150.665C254.159 151.174 254.013 151.67 253.758 152.112C253.503 152.553 253.148 152.929 252.721 153.207L190.266 189.263C189.419 189.729 188.801 189.348 188.801 188.416V187.831C188.829 187.321 188.979 186.824 189.237 186.382C189.494 185.94 189.853 185.566 190.283 185.29Z" fill="#FAFAFA"/>
<path d="M190.283 197.43L252.721 161.374C253.568 160.908 254.186 161.281 254.186 162.221V162.806C254.159 163.315 254.013 163.811 253.758 164.252C253.503 164.694 253.148 165.069 252.721 165.347L190.266 201.404C189.419 201.869 188.801 201.488 188.801 200.556V199.972C188.829 199.461 188.979 198.965 189.237 198.523C189.494 198.081 189.853 197.707 190.283 197.43Z" fill="#FAFAFA"/>
<path d="M190.283 209.571L252.721 173.515C253.568 173.049 254.186 173.422 254.186 174.362V174.93C254.159 175.439 254.013 175.934 253.758 176.376C253.503 176.818 253.148 177.193 252.721 177.471L190.266 213.527C189.419 213.993 188.801 213.612 188.801 212.68V212.095C188.832 211.588 188.983 211.095 189.24 210.656C189.498 210.217 189.855 209.846 190.283 209.571Z" fill="#FAFAFA"/>
<path d="M190.283 221.711L252.721 185.654C253.568 185.189 254.186 185.561 254.186 186.502V187.086C254.159 187.595 254.013 188.091 253.758 188.533C253.503 188.974 253.148 189.35 252.721 189.628L190.266 225.684C189.419 226.15 188.801 225.769 188.801 224.837V224.252C188.829 223.741 188.979 223.245 189.237 222.803C189.494 222.361 189.853 221.987 190.283 221.711Z" fill="#FAFAFA"/>
<path d="M190.283 233.851L252.721 197.803C253.568 197.337 254.186 197.719 254.186 198.651V199.235C254.159 199.744 254.013 200.24 253.758 200.681C253.503 201.123 253.148 201.498 252.721 201.777L190.266 237.833C189.419 238.299 188.801 237.917 188.801 236.985V236.401C188.828 235.889 188.977 235.391 189.235 234.947C189.492 234.504 189.852 234.128 190.283 233.851Z" fill="#FAFAFA"/>
<path d="M190.283 245.991L252.721 209.935C253.568 209.469 254.186 209.85 254.186 210.782V211.358C254.16 211.868 254.014 212.364 253.759 212.805C253.504 213.247 253.148 213.622 252.721 213.9L190.266 249.956C189.419 250.422 188.801 250.041 188.801 249.109V248.524C188.831 248.015 188.981 247.52 189.238 247.08C189.496 246.64 189.854 246.267 190.283 245.991Z" fill="#FAFAFA"/>
<path d="M190.283 258.131L252.721 222.075C253.568 221.609 254.186 221.99 254.186 222.922V223.507C254.16 224.016 254.014 224.512 253.759 224.953C253.504 225.395 253.148 225.77 252.721 226.048L190.275 262.104C189.428 262.57 188.809 262.189 188.809 261.257V260.672C188.838 260.163 188.986 259.667 189.242 259.225C189.498 258.784 189.855 258.409 190.283 258.131Z" fill="#FAFAFA"/>
<path d="M285.532 128.47H297.291C301.322 128.47 305.188 126.869 308.038 124.019C310.888 121.168 312.489 117.303 312.489 113.272C312.489 109.697 311.069 106.269 308.541 103.741C306.014 101.213 302.585 99.793 299.011 99.793C295.436 99.793 292.008 101.213 289.48 103.741C286.952 106.269 285.532 109.697 285.532 113.272V128.47Z" fill="#263238"/>
<path d="M309.482 105.105L312.743 103.351C312.642 103.129 312.497 102.93 312.316 102.766C312.136 102.602 311.924 102.477 311.693 102.397C311.462 102.318 311.218 102.287 310.975 102.305C310.731 102.323 310.494 102.391 310.278 102.504C309.831 102.746 309.497 103.155 309.348 103.641C309.199 104.128 309.247 104.653 309.482 105.105Z" fill="#263238"/>
<path d="M309.253 105.461L312.726 106.757C312.822 106.533 312.872 106.293 312.872 106.049C312.873 105.806 312.824 105.565 312.729 105.341C312.634 105.117 312.495 104.915 312.32 104.746C312.145 104.577 311.937 104.446 311.71 104.359C311.237 104.194 310.719 104.215 310.262 104.42C309.805 104.625 309.444 104.997 309.253 105.461Z" fill="#263238"/>
<path d="M297.621 139.679L281.245 138.976C279.83 136.985 279.83 131.724 281.321 130.029L299.443 130.521L297.621 139.679Z" fill="#3D83DF"/>
<path d="M287.667 241.272C287.768 242.368 287.813 243.468 287.802 244.568V251.015H293.385V247.237C293.388 245.534 293.529 243.834 293.809 242.154L287.667 241.272Z" fill="#B16668"/>
<path d="M287.794 248.253V247.448C287.641 248.668 284.151 253.26 281.931 255.284C280.161 256.902 277.746 258.766 277.128 260.571C276.509 262.375 279.983 263.18 282.27 262.951C284.492 262.676 286.539 261.604 288.031 259.935C288.956 258.773 289.786 257.537 290.513 256.242C291.191 255.327 294.241 253.446 294.614 252.379C294.719 251.387 294.61 250.384 294.292 249.439C294.029 248.448 293.75 247.355 293.445 247.448V248.058C292.645 248.685 291.656 249.019 290.64 249.007C289.785 249.041 287.794 248.88 287.794 248.253Z" fill="#263238"/>
<path d="M293.385 248.058C292.586 248.685 291.597 249.02 290.581 249.007C289.734 249.007 287.768 248.88 287.768 248.253V247.448C287.616 248.668 284.126 253.26 281.906 255.285C281.482 255.674 281.016 256.073 280.551 256.488C279.61 257.538 279.881 258.453 282.092 258.64C284.304 258.826 286.252 257.496 287.929 255.437C289.607 253.379 293.385 248.058 293.385 248.058Z" fill="#B16668"/>
<path d="M304.805 250.777C304.915 252.133 304.915 253.548 304.941 254.166V260.613H310.549V256.835C310.549 255.132 310.688 253.432 310.964 251.752L304.805 250.777Z" fill="#B16668"/>
<path d="M304.932 257.844V257.039C304.771 258.259 301.29 262.85 299.061 264.875C297.291 266.493 294.876 268.357 294.266 270.153C293.656 271.949 297.113 272.771 299.409 272.542C301.628 272.267 303.672 271.195 305.161 269.526C306.088 268.363 306.921 267.128 307.652 265.832C308.33 264.918 311.38 263.037 311.744 261.969C311.858 260.978 311.748 259.973 311.422 259.03C311.168 258.038 310.88 256.946 310.575 257.039V257.649C309.775 258.275 308.786 258.61 307.771 258.598C306.94 258.631 304.924 258.47 304.932 257.844Z" fill="#263238"/>
<path d="M310.541 257.648C309.741 258.275 308.752 258.609 307.737 258.597C306.889 258.597 304.924 258.47 304.932 257.843V257.038C304.771 258.258 301.29 262.85 299.061 264.875C298.638 265.264 298.214 265.662 297.714 266.077C296.774 267.128 297.045 268.043 299.256 268.229C301.467 268.416 303.408 267.086 305.085 265.027C306.762 262.968 310.541 257.648 310.541 257.648Z" fill="#B16668"/>
<path d="M287.667 243.932C286.464 234.046 284.498 216.95 283.922 213.214C283.389 209.757 284.727 180.173 285.549 170.753L314.777 169.186C316.996 178.708 314.828 191.551 314.074 199.574C313.328 207.376 312.379 216.518 312.379 216.518C312.379 216.518 314.658 224.473 314.074 230.801C313.684 234.791 311.896 246.83 311.049 251.981C310.053 252.486 308.949 252.742 307.832 252.727C306.715 252.712 305.619 252.427 304.636 251.896C304.729 252.989 303.594 238.561 302.942 232.733C302.01 224.642 301.654 218.746 300.824 214.018C299.782 208.088 299.426 185.028 299.426 185.028L296.037 211.231C296.404 214.04 296.582 216.87 296.571 219.703C296.571 225.557 294.41 238.858 293.733 243.831C292.267 244.873 289.285 245.186 287.667 243.932Z" fill="#455A64"/>
<path d="M299.417 185.011C299.417 185.011 294.072 183.138 291.03 180.343C292.56 182.722 294.73 184.622 297.291 185.824L297.342 201.158L299.417 185.011Z" fill="#37474F"/>
<path d="M303.67 130.656C303.67 130.656 311.608 131.57 312.557 131.994C307.72 137.289 312.871 141.677 312.871 141.677L309.185 157.892C312.362 161.95 314.175 165.085 314.938 169.922C311.549 175.92 292.428 176.751 285.422 172.286C286.032 163.924 287.396 157.935 286.938 155.419C283.609 145.151 284.642 142.999 284.956 140.652C285.566 136.069 290.115 132.079 292.716 130.401H295.139L303.67 130.656Z" fill="#F0F0F0"/>
<path d="M289.997 106.393C288.573 107.24 286.811 110.815 286.989 118.321C287.133 124.683 289.2 126.251 290.234 126.708C291.267 127.165 293.267 126.886 295.207 126.555V130.376C295.207 130.376 292.521 133.494 292.665 135.248C292.809 137.001 296.537 137.408 299.053 135.697C300.868 134.289 302.432 132.585 303.679 130.656L303.636 121.879C303.636 121.879 304.771 122.989 306.711 121.294C308.313 119.897 308.846 117.533 307.559 116.271C307.238 115.97 306.85 115.749 306.428 115.626C306.005 115.503 305.56 115.482 305.127 115.565C304.695 115.648 304.289 115.831 303.941 116.101C303.594 116.371 303.315 116.72 303.128 117.118C303.128 117.118 302.052 114.127 297.579 112.662C293.572 111.391 291.378 109.858 289.997 106.393Z" fill="#B16668"/>
<path d="M294.487 116.72C294.485 116.929 294.562 117.132 294.701 117.288C294.84 117.444 295.033 117.544 295.241 117.567C295.457 117.567 295.665 117.485 295.822 117.337C295.98 117.189 296.075 116.986 296.088 116.77C296.103 116.66 296.096 116.547 296.065 116.439C296.034 116.332 295.982 116.232 295.91 116.146C295.839 116.059 295.75 115.989 295.65 115.939C295.55 115.889 295.441 115.861 295.329 115.855C295.217 115.85 295.106 115.868 295.001 115.908C294.897 115.949 294.802 116.01 294.723 116.089C294.644 116.168 294.582 116.263 294.541 116.367C294.5 116.471 294.482 116.582 294.487 116.694V116.72Z" fill="#263238"/>
<path d="M294.275 122.116L292.42 122.709C292.453 122.833 292.51 122.949 292.589 123.05C292.669 123.151 292.767 123.235 292.88 123.297C292.992 123.359 293.116 123.397 293.244 123.41C293.371 123.422 293.5 123.409 293.623 123.37C293.873 123.286 294.081 123.109 294.202 122.875C294.324 122.641 294.35 122.369 294.275 122.116Z" fill="#9A4A4D"/>
<path d="M287.93 114.263L289.548 113.145C289.48 113.036 289.39 112.941 289.285 112.867C289.179 112.794 289.06 112.742 288.934 112.716C288.808 112.69 288.678 112.69 288.552 112.715C288.426 112.741 288.306 112.792 288.201 112.865C287.987 113.021 287.839 113.251 287.789 113.511C287.739 113.77 287.789 114.039 287.93 114.263Z" fill="#263238"/>
<path d="M296.816 114.856L295.198 113.738C295.266 113.628 295.356 113.534 295.461 113.46C295.566 113.387 295.686 113.335 295.812 113.309C295.938 113.283 296.068 113.282 296.194 113.308C296.32 113.334 296.44 113.385 296.545 113.458C296.759 113.613 296.907 113.844 296.957 114.104C297.007 114.363 296.957 114.632 296.816 114.856Z" fill="#263238"/>
<path d="M288.302 116.144C288.301 116.353 288.377 116.556 288.517 116.712C288.656 116.869 288.848 116.968 289.056 116.991C289.271 116.992 289.478 116.91 289.635 116.764C289.792 116.618 289.888 116.417 289.903 116.203C289.919 116.092 289.911 115.98 289.88 115.872C289.85 115.764 289.797 115.664 289.726 115.578C289.654 115.492 289.566 115.422 289.466 115.372C289.366 115.322 289.256 115.293 289.145 115.288C289.033 115.283 288.921 115.301 288.817 115.341C288.712 115.381 288.618 115.443 288.538 115.522C288.459 115.601 288.397 115.695 288.357 115.799C288.316 115.904 288.297 116.015 288.302 116.127V116.144Z" fill="#263238"/>
<path d="M292.072 115.678L291.945 120.498L289.412 119.71L292.072 115.678Z" fill="#9A4A4D"/>
<path d="M295.173 126.555C297.215 126.293 301.425 125.081 302.086 123.421C301.82 124.262 301.303 125.001 300.603 125.539C299.35 126.615 295.173 127.835 295.173 127.835V126.555Z" fill="#9A4A4D"/>
<path d="M310.829 150.649L304.06 160.528L309.185 157.884L310.829 150.649Z" fill="#E0E0E0"/>
<path d="M307.694 134.155L291.81 150.582C291.81 150.582 276.213 149.048 270.918 147.532C269.224 147.049 267.902 144.761 267.529 142.838C267.482 142.334 267.278 141.857 266.945 141.476C266.612 141.094 266.167 140.827 265.674 140.712V144.567C265.539 145.541 265.064 146.041 263.675 146.075C258.321 146.193 255.838 144.567 255.203 147.472C254.788 149.328 255.593 151.437 259.125 152.411C264.09 153.767 266.835 153.089 269.851 153.843C272.18 154.419 288.438 157.511 291.632 158.206C293.326 158.579 294.605 158.46 296.444 156.647C298.282 154.834 312.023 141.957 312.023 141.957C316.259 137.721 315.005 133.375 312.65 132.079C311.176 131.274 309.567 132.223 307.694 134.155Z" fill="#B16668"/>
<path d="M312.557 131.995C313.582 132.41 314.836 133.503 314.938 136.332C315.039 139.162 312.947 141.737 310.481 144.685C308.016 147.634 307.271 148.413 307.271 148.413C307.271 148.413 301.035 146.143 299.976 141.508C299.976 141.508 304.678 136.527 306.085 134.934C307.491 133.342 310.083 130.876 312.557 131.995Z" fill="#3D83DF"/>
<path d="M280.364 24.792L286.252 28.1807C286.218 27.9222 286.202 27.6619 286.201 27.4013V25.7069C286.201 22.674 288.336 21.471 290.962 22.9621C292.092 23.6589 293.059 24.589 293.8 25.69C294.232 21.8692 297.189 20.4544 300.866 22.5469C304.797 24.8259 307.991 30.3495 307.991 34.8904V37.4319C308.017 38.4512 307.808 39.4628 307.381 40.3886L312.277 43.2097C313.045 43.7122 313.685 44.3879 314.144 45.1824C314.603 45.977 314.869 46.8683 314.921 47.7845C314.921 49.4788 313.735 50.1566 312.277 49.3094L280.364 30.9086C279.595 30.4077 278.955 29.7323 278.495 28.9374C278.036 28.1425 277.771 27.2505 277.721 26.3338C277.721 24.631 278.907 23.9448 280.364 24.792Z" fill="#EBEBEB"/>
<path d="M255.16 41.9215L259.6 44.463C259.6 44.2597 259.6 44.0649 259.6 43.87V42.5823C259.6 40.2949 261.209 39.363 263.192 40.5152C264.048 41.0364 264.78 41.7391 265.335 42.5738C265.657 39.6934 267.877 38.6175 270.664 40.2017C272.232 41.221 273.536 42.5965 274.471 44.216C275.406 45.8356 275.945 47.6533 276.044 49.5207V51.4438C276.063 52.2144 275.906 52.9792 275.586 53.6804L279.28 55.8068C279.86 56.1862 280.342 56.6968 280.688 57.2973C281.034 57.8978 281.233 58.5713 281.271 59.2633C281.271 60.5341 280.381 61.0509 279.28 60.4155L255.194 46.5048C254.614 46.1276 254.13 45.6189 253.782 45.0198C253.435 44.4207 253.234 43.7481 253.195 43.0567C253.161 41.8283 254.059 41.3115 255.16 41.9215Z" fill="#EBEBEB"/>
</svg>
