<svg width="56" height="57" viewBox="0 0 56 57" fill="none" xmlns="http://www.w3.org/2000/svg">
<path d="M29.9368 46.522H29.6614C29.8386 46.0426 29.9318 45.5362 29.9368 45.0251V37.5408C29.9318 34.8889 29.0474 32.3135 27.4223 30.2178C25.7971 28.1222 23.5229 26.6246 20.9556 25.9596V25.566C20.9556 24.772 20.6402 24.0105 20.0788 23.4491C19.5174 22.8877 18.7559 22.5723 17.9619 22.5723C17.168 22.5723 16.4065 22.8877 15.8451 23.4491C15.2836 24.0105 14.9682 24.772 14.9682 25.566V25.9596C12.401 26.6246 10.1268 28.1222 8.50159 30.2178C6.87643 32.3135 5.99211 34.8889 5.98709 37.5408V45.0251C5.99205 45.5362 6.08523 46.0426 6.26251 46.522H5.98709C5.5901 46.522 5.20937 46.6797 4.92865 46.9604C4.64794 47.2411 4.49023 47.6218 4.49023 48.0188C4.49023 48.4158 4.64794 48.7965 4.92865 49.0772C5.20937 49.358 5.5901 49.5157 5.98709 49.5157H29.9368C30.3338 49.5157 30.7145 49.358 30.9952 49.0772C31.2759 48.7965 31.4336 48.4158 31.4336 48.0188C31.4336 47.6218 31.2759 47.2411 30.9952 46.9604C30.7145 46.6797 30.3338 46.522 29.9368 46.522Z" fill="#717579"/>
<path d="M12.8066 52.5095C13.3255 53.419 14.0756 54.175 14.981 54.7008C15.8864 55.2267 16.9148 55.5037 17.9618 55.5037C19.0088 55.5037 20.0372 55.2267 20.9426 54.7008C21.848 54.175 22.5981 53.419 23.117 52.5095H12.8066Z" fill="#717579"/>
<rect x="15.9609" y="2.16992" width="35.6981" height="35.6981" rx="17.8491" fill="#3D83DF" stroke="#FBFBFB" stroke-width="4"/>
<path d="M31.3574 12.4792V22.4529H29.3887V14.7488L27.0234 15.5007V13.949L31.1455 12.4792H31.3574ZM41.4062 20.9148V22.4529H34.5977V21.1404L37.8174 17.6882C38.141 17.3282 38.3962 17.0115 38.583 16.738C38.7699 16.46 38.9043 16.2117 38.9863 15.9929C39.0729 15.7696 39.1162 15.5577 39.1162 15.3572C39.1162 15.0564 39.0661 14.7989 38.9658 14.5847C38.8656 14.366 38.7174 14.1973 38.5215 14.0789C38.3301 13.9604 38.0931 13.9011 37.8105 13.9011C37.5098 13.9011 37.25 13.974 37.0312 14.1199C36.8171 14.2657 36.653 14.4685 36.5391 14.7283C36.4297 14.988 36.375 15.282 36.375 15.6101H34.3994C34.3994 15.0177 34.5407 14.4753 34.8232 13.9832C35.1058 13.4864 35.5046 13.0922 36.0195 12.8005C36.5345 12.5043 37.1452 12.3562 37.8516 12.3562C38.5488 12.3562 39.1367 12.4701 39.6152 12.698C40.0983 12.9213 40.4629 13.2449 40.709 13.6687C40.9596 14.088 41.085 14.5893 41.085 15.1726C41.085 15.5007 41.0326 15.822 40.9277 16.1365C40.8229 16.4464 40.6725 16.7563 40.4766 17.0662C40.2852 17.3715 40.0527 17.6814 39.7793 17.9958C39.5059 18.3103 39.2028 18.6361 38.8701 18.9734L37.1406 20.9148H41.4062Z" fill="#FBFBFB"/>
</svg>
