<svg width="13" height="13" viewBox="0 0 13 13" fill="none" xmlns="http://www.w3.org/2000/svg">
<path d="M11.5368 8.87651L9.84349 8.68317C9.64438 8.65979 9.44256 8.68183 9.2532 8.74765C9.06383 8.81346 8.89184 8.92134 8.75016 9.06317L7.52349 10.2898C5.63095 9.32732 4.09268 7.78905 3.13016 5.89651L4.36349 4.66317C4.65016 4.37651 4.79016 3.97651 4.74349 3.56984L4.55016 1.88984C4.51236 1.56462 4.35629 1.26466 4.11165 1.04707C3.86701 0.829479 3.5509 0.709451 3.22349 0.70984H2.07016C1.31682 0.70984 0.690157 1.33651 0.736824 2.08984C1.09016 7.78317 5.64349 12.3298 11.3302 12.6832C12.0835 12.7298 12.7102 12.1032 12.7102 11.3498V10.1965C12.7168 9.52317 12.2102 8.95651 11.5368 8.87651Z" fill="#98A1AB"/>
</svg>
