<svg width="16" height="17" viewBox="0 0 16 17" fill="none" xmlns="http://www.w3.org/2000/svg">
<path d="M7.276 1.74748L6.33333 2.69014H4.33333C3.97971 2.69014 3.64057 2.83062 3.39052 3.08067C3.14048 3.33072 3 3.66986 3 4.02348V12.0235C3 12.3771 3.14048 12.7162 3.39052 12.9663C3.64057 13.2163 3.97971 13.3568 4.33333 13.3568H15C15.3536 13.3568 15.6928 13.2163 15.9428 12.9663C16.1929 12.7162 16.3333 12.3771 16.3333 12.0235V4.02348C16.3333 3.66986 16.1929 3.33072 15.9428 3.08067C15.6928 2.83062 15.3536 2.69014 15 2.69014H13L12.0573 1.74748C11.8073 1.49741 11.4683 1.35689 11.1147 1.35681H8.21867C7.86507 1.35689 7.52599 1.49741 7.276 1.74748ZM9.66667 11.3568C8.78261 11.3568 7.93477 11.0056 7.30964 10.3805C6.68452 9.75538 6.33333 8.90753 6.33333 8.02348C6.33333 7.13942 6.68452 6.29158 7.30964 5.66646C7.93477 5.04133 8.78261 4.69015 9.66667 4.69015C10.5507 4.69015 11.3986 5.04133 12.0237 5.66646C12.6488 6.29158 13 7.13942 13 8.02348C13 8.90753 12.6488 9.75538 12.0237 10.3805C11.3986 11.0056 10.5507 11.3568 9.66667 11.3568ZM9.66667 10.0235C10.1971 10.0235 10.7058 9.81277 11.0809 9.43769C11.456 9.06262 11.6667 8.55391 11.6667 8.02348C11.6667 7.49305 11.456 6.98434 11.0809 6.60926C10.7058 6.23419 10.1971 6.02348 9.66667 6.02348C9.13623 6.02348 8.62753 6.23419 8.25245 6.60926C7.87738 6.98434 7.66667 7.49305 7.66667 8.02348C7.66667 8.55391 7.87738 9.06262 8.25245 9.43769C8.62753 9.81277 9.13623 10.0235 9.66667 10.0235Z" fill="#98A1AB"/>
</svg>
