<svg width="274" height="292" viewBox="0 0 274 292" fill="none" xmlns="http://www.w3.org/2000/svg">
<path d="M178.106 111.112C204.042 102.788 231.813 117.065 240.134 143.001C248.458 168.937 234.181 196.709 208.245 205.029C182.309 213.354 154.538 199.076 146.217 173.14C137.892 147.204 152.17 119.433 178.106 111.112ZM204.361 195.159C226.235 188.139 238.428 165.18 231.594 143.882C224.76 122.58 201.485 111.004 179.611 118.024C157.737 125.044 145.544 148.003 152.378 169.301C159.213 190.603 182.488 202.179 204.361 195.159Z" fill="#E3F4F5"/>
<path d="M182.181 112.186L163.982 121.016L161.66 103.215L171.236 98.5698L182.181 112.186Z" fill="#E3F4F5"/>
<path d="M218.481 194.743L199.327 204.033L210.573 219.084L222.383 213.354L218.481 194.743Z" fill="#E3F4F5"/>
<path d="M158.202 124.584L147.774 141.913L136.109 128.267L141.598 119.147L158.202 124.584Z" fill="#E3F4F5"/>
<path d="M233.684 173.943L222.707 192.182L240.344 198.656L247.111 187.411L233.684 173.943Z" fill="#E3F4F5"/>
<path d="M143.839 154.659L147.392 174.567L129.632 171.973L127.759 161.493L143.839 154.659Z" fill="#E3F4F5"/>
<path d="M233.149 142.131L236.892 163.091L254.429 156.353L252.121 143.428L233.149 142.131Z" fill="#E3F4F5"/>
<path d="M152.818 186.756L168.601 199.403L153.52 209.143L145.214 202.484L152.818 186.756Z" fill="#E3F4F5"/>
<path d="M211.806 118.537L228.418 131.852L237.188 115.233L226.943 107.024L211.806 118.537Z" fill="#E3F4F5"/>
<path d="M172.421 202.332L192.444 205.174L184.428 221.236L173.889 219.742L172.421 202.332Z" fill="#E3F4F5"/>
<path d="M188.432 113.58L209.507 116.571L208.589 97.8079L195.593 95.9609L188.432 113.58Z" fill="#E3F4F5"/>
<path d="M180.564 160.587C182.411 166.343 188.725 169.461 194.668 167.555C200.61 165.648 203.932 159.435 202.085 153.682C200.238 147.925 193.924 144.807 187.982 146.714C182.04 148.62 178.717 154.834 180.564 160.587Z" fill="#E3F4F5"/>
<path d="M94.6084 114.61C107.507 110.47 121.321 117.571 125.461 130.471C129.601 143.37 122.499 157.183 109.6 161.323C96.7006 165.463 82.8873 158.361 78.7474 145.462C74.6075 132.563 81.7092 118.75 94.6084 114.61ZM107.667 156.414C118.548 152.92 124.613 141.504 121.213 130.909C117.813 120.314 106.237 114.558 95.3553 118.047C84.4741 121.54 78.4092 132.957 81.8096 143.552C85.21 154.147 96.7861 159.903 107.667 156.414Z" fill="#E3F4F5"/>
<path d="M96.6309 115.145L87.5818 119.534L86.426 110.678L91.1866 108.37L96.6309 115.145Z" fill="#E3F4F5"/>
<path d="M114.687 156.206L105.162 160.825L110.755 168.314L116.627 165.463L114.687 156.206Z" fill="#E3F4F5"/>
<path d="M84.7061 121.31L79.5182 129.928L73.7171 123.139L76.4448 118.605L84.7061 121.31Z" fill="#E3F4F5"/>
<path d="M122.249 145.86L116.786 154.932L125.56 158.154L128.927 152.557L122.249 145.86Z" fill="#E3F4F5"/>
<path d="M77.5592 136.268L79.3281 146.168L70.4909 144.879L69.5618 139.668L77.5592 136.268Z" fill="#E3F4F5"/>
<path d="M121.982 130.036L123.843 140.46L132.565 137.111L131.421 130.682L121.982 130.036Z" fill="#E3F4F5"/>
<path d="M82.0312 152.233L89.8799 158.521L82.3805 163.367L78.248 160.056L82.0312 152.233Z" fill="#E3F4F5"/>
<path d="M111.367 118.3L119.628 124.922L123.991 116.657L118.896 112.577L111.367 118.3Z" fill="#E3F4F5"/>
<path d="M91.7699 159.978L101.729 161.394L97.7419 169.384L92.502 168.641L91.7699 159.978Z" fill="#E3F4F5"/>
<path d="M99.7401 115.836L110.224 117.323L109.767 107.991L103.3 107.073L99.7401 115.836Z" fill="#E3F4F5"/>
<path d="M75.1875 182.063C88.0866 177.923 101.9 185.025 106.04 197.924C110.18 210.823 103.078 224.636 90.1788 228.776C77.2797 232.916 63.4664 225.814 59.3265 212.915C55.1866 200.016 62.2884 186.203 75.1875 182.063Z" fill="#E3F4F5"/>
<path d="M77.21 182.598L68.1609 186.987L67.0051 178.131L71.7656 175.823L77.21 182.598Z" fill="#E3F4F5"/>
<path d="M95.2662 223.659L85.7414 228.278L91.3344 235.767L97.2061 232.916L95.2662 223.659Z" fill="#E3F4F5"/>
<path d="M65.2852 188.764L60.0973 197.382L54.2962 190.592L57.0239 186.058L65.2852 188.764Z" fill="#E3F4F5"/>
<path d="M102.828 213.313L97.3649 222.385L106.139 225.607L109.506 220.01L102.828 213.313Z" fill="#E3F4F5"/>
<path d="M58.1383 203.721L59.9072 213.621L51.07 212.332L50.1409 207.122L58.1383 203.721Z" fill="#E3F4F5"/>
<path d="M102.561 197.489L104.422 207.913L113.145 204.565L112 198.135L102.561 197.489Z" fill="#E3F4F5"/>
<path d="M62.6102 219.687L70.459 225.974L62.9596 230.82L58.8271 227.509L62.6102 219.687Z" fill="#E3F4F5"/>
<path d="M91.9462 185.753L100.207 192.375L104.57 184.11L99.4753 180.03L91.9462 185.753Z" fill="#E3F4F5"/>
<path d="M72.349 227.431L82.3086 228.847L78.3211 236.837L73.0811 236.094L72.349 227.431Z" fill="#E3F4F5"/>
<path d="M80.3192 183.289L90.8027 184.776L90.3456 175.444L83.8794 174.526L80.3192 183.289Z" fill="#E3F4F5"/>
<path d="M243.087 101.536C243.087 101.536 223.157 79.3461 189.09 78.9559C189.09 78.9559 212.194 71.0663 244.931 92.6317L243.087 101.536Z" fill="#E3F4F5"/>
<path d="M206.687 87.0241L185.222 79.9112C185.222 79.9112 198.247 70.6689 204.524 68.8813C204.524 68.8813 201.298 79.1642 206.69 87.0204L206.687 87.0241Z" fill="#E3F4F5"/>
<path d="M124.176 37.5167C140.903 32.1505 158.811 41.3556 164.178 58.0825C169.544 74.8093 160.339 92.718 143.612 98.0842C126.885 103.451 108.976 94.2454 103.61 77.5185C98.2438 60.7916 107.449 42.883 124.176 37.5167ZM141.107 91.7183C155.214 87.1919 163.078 72.3864 158.67 58.6511C154.263 44.9158 139.253 37.4499 125.146 41.9762C111.039 46.5026 103.175 61.3082 107.583 75.0435C111.99 88.7787 127 96.2447 141.107 91.7183Z" fill="#E3F4F5"/>
<path d="M126.801 38.2115L115.069 43.9048L113.567 32.4253L119.744 29.4263L126.801 38.2115Z" fill="#E3F4F5"/>
<path d="M150.209 91.4502L137.856 97.4408L145.11 107.148L152.725 103.454L150.209 91.4502Z" fill="#E3F4F5"/>
<path d="M111.338 46.2054L104.615 57.3802L97.0898 48.5801L100.631 42.6973L111.338 46.2054Z" fill="#E3F4F5"/>
<path d="M160.014 78.0347L152.935 89.8003L164.31 93.9737L168.673 86.7196L160.014 78.0347Z" fill="#E3F4F5"/>
<path d="M102.075 65.6006L104.368 78.4402L92.9147 76.7642L91.7069 70.0081L102.075 65.6006Z" fill="#E3F4F5"/>
<path d="M159.669 57.521L162.085 71.037L173.394 66.6927L171.907 58.3572L159.669 57.521Z" fill="#E3F4F5"/>
<path d="M107.867 86.2993L118.042 94.4528L108.317 100.733L102.961 96.441L107.867 86.2993Z" fill="#E3F4F5"/>
<path d="M145.906 42.3064L156.62 50.891L162.272 40.177L155.669 34.8813L145.906 42.3064Z" fill="#E3F4F5"/>
<path d="M120.51 96.3413L133.424 98.1771L128.255 108.534L121.457 107.572L120.51 96.3413Z" fill="#E3F4F5"/>
<path d="M130.832 39.1072L144.426 41.0396L143.831 28.9358L135.451 27.7466L130.832 39.1072Z" fill="#E3F4F5"/>
<path d="M125.759 69.4245C126.952 73.137 131.021 75.1475 134.856 73.9174C138.688 72.6874 140.828 68.6812 139.639 64.9687C138.446 61.2562 134.377 59.2457 130.542 60.4758C126.71 61.7058 124.57 65.712 125.759 69.4245Z" fill="#E3F4F5"/>
<path d="M70.3243 39.7716C78.6449 37.1033 87.5528 41.6817 90.2211 49.9987C92.8894 58.3157 88.3109 67.2273 79.994 69.8955C71.6733 72.5638 62.7654 67.9854 60.0971 59.6684C57.4289 51.3477 62.0073 42.4399 70.3243 39.7716ZM78.7453 66.7293C85.7616 64.4772 89.6711 57.1153 87.4785 50.2812C85.2859 43.4507 77.82 39.7344 70.8037 41.9865C63.7874 44.2385 59.8779 51.6004 62.0705 58.4346C64.2631 65.2651 71.729 68.9813 78.7453 66.7293Z" fill="#E3F4F5"/>
<path d="M71.6338 40.1169L65.7956 42.945L65.0486 37.2368L68.1219 35.7466L71.6338 40.1169Z" fill="#E3F4F5"/>
<path d="M83.273 66.5957L77.13 69.5761L80.7348 74.4036L84.5254 72.5677L83.273 66.5957Z" fill="#E3F4F5"/>
<path d="M63.9375 44.0933L60.5929 49.6491L56.8506 45.2714L58.6121 42.3467L63.9375 44.0933Z" fill="#E3F4F5"/>
<path d="M88.1479 59.9243L84.6249 65.7737L90.2848 67.8511L92.4551 64.2426L88.1479 59.9243Z" fill="#E3F4F5"/>
<path d="M59.3308 53.7373L60.4717 60.1255L54.7747 59.2931L54.1726 55.9299L59.3308 53.7373Z" fill="#E3F4F5"/>
<path d="M87.9779 49.7197L89.1783 56.4424L94.8047 54.2833L94.0614 50.136L87.9779 49.7197Z" fill="#E3F4F5"/>
<path d="M62.2101 64.0352L67.2754 68.0896L62.4368 71.215L59.7723 69.0781L62.2101 64.0352Z" fill="#E3F4F5"/>
<path d="M81.1311 42.1534L86.4602 46.4234L89.2734 41.0943L85.9846 38.4595L81.1311 42.1534Z" fill="#E3F4F5"/>
<path d="M68.4963 69.0293L74.918 69.9435L72.35 75.0942L68.9682 74.6148L68.4963 69.0293Z" fill="#E3F4F5"/>
<path d="M73.6327 40.5631L80.3926 41.5219L80.099 35.5015L75.9294 34.9106L73.6327 40.5631Z" fill="#E3F4F5"/>
<path d="M11.3068 89.7988C18.0778 75.0081 35.5553 68.5084 50.3423 75.2794C65.133 82.0504 71.6327 99.528 64.8617 114.315C58.0907 129.106 40.6132 135.605 25.8262 128.834C11.0355 122.063 4.53576 104.586 11.3068 89.7988ZM58.9454 112.052C64.6536 99.5763 59.436 84.9565 47.2913 79.397C35.1465 73.8375 20.668 79.4416 14.9599 91.9171C9.24797 104.393 14.4693 119.012 26.614 124.572C38.7625 130.131 53.2373 124.527 58.9454 112.052Z" fill="#E3F4F5"/>
<path d="M13.4219 88.4346L9.99178 100.011L1.20283 93.8715L3.00893 87.7769L13.4219 88.4346Z" fill="#E3F4F5"/>
<path d="M64.4454 105.656L60.8332 117.845L71.9968 118.941L74.2266 111.427L64.4454 105.656Z" fill="#E3F4F5"/>
<path d="M9.23862 103.999L12.6836 115.571L1.96591 115.225L0.156094 109.131L9.23862 103.999Z" fill="#E3F4F5"/>
<path d="M61.3946 90.5791L65.0217 102.761L74.9775 97.588L72.7403 90.0737L61.3946 90.5791Z" fill="#E3F4F5"/>
<path d="M16.7213 122.442L26.9336 128.886L18.6389 135.68L13.2615 132.287L16.7213 122.442Z" fill="#E3F4F5"/>
<path d="M47.1532 78.0071L57.9006 84.793L61.9922 74.3466L55.3624 70.1621L47.1532 78.0071Z" fill="#E3F4F5"/>
<path d="M34.4929 131.402L46.4258 129.533L44.6494 140.106L38.3689 141.087L34.4929 131.402Z" fill="#E3F4F5"/>
<path d="M28.1527 77.9217L40.71 75.9558L36.912 65.3979L29.1673 66.6095L28.1527 77.9217Z" fill="#E3F4F5"/>
<path d="M49.2526 129.028L58.5656 121.339L62.4268 131.343L57.5213 135.386L49.2526 129.028Z" fill="#E3F4F5"/>
<path d="M16.5539 86.235L26.3574 78.1447L17.7097 70.9946L11.6634 75.9856L16.5539 86.235Z" fill="#E3F4F5"/>
<path d="M34.1169 108.63C37.3984 110.131 41.319 108.604 42.8687 105.214C44.4184 101.825 43.0173 97.86 39.7359 96.3586C36.4544 94.8572 32.5338 96.3846 30.9841 99.7738C29.4344 103.163 30.8355 107.128 34.1169 108.63Z" fill="#E3F4F5"/>
<path d="M38.954 153.931C42.3209 146.577 51.0132 143.34 58.3714 146.711C65.7259 150.078 68.9627 158.77 65.5958 166.128C62.2289 173.483 53.5366 176.719 46.1784 173.352C38.8239 169.986 35.587 161.293 38.9577 153.935L38.954 153.931ZM62.6488 164.998C65.488 158.792 62.8941 151.523 56.8514 148.758C50.8088 145.993 43.6104 148.781 40.7712 154.987C37.932 161.193 40.5259 168.462 46.5686 171.227C52.6112 173.992 59.8096 171.204 62.6488 164.998Z" fill="#E3F4F5"/>
<path d="M40.0059 153.251L38.3001 159.012L33.9298 155.957L34.8291 152.924L40.0059 153.251Z" fill="#E3F4F5"/>
<path d="M65.3884 161.817L63.5897 167.879L69.1455 168.425L70.2529 164.686L65.3884 161.817Z" fill="#E3F4F5"/>
<path d="M37.9235 160.992L39.6367 166.749L34.3076 166.578L33.4083 163.545L37.9235 160.992Z" fill="#E3F4F5"/>
<path d="M63.8659 154.317L65.6683 160.379L70.6221 157.803L69.5109 154.068L63.8659 154.317Z" fill="#E3F4F5"/>
<path d="M41.6484 170.167L46.7285 173.371L42.5998 176.749L39.9278 175.062L41.6484 170.167Z" fill="#E3F4F5"/>
<path d="M56.7808 148.067L62.1285 151.441L64.165 146.246L60.865 144.161L56.7808 148.067Z" fill="#E3F4F5"/>
<path d="M50.4821 174.623L56.417 173.694L55.5362 178.952L52.4109 179.439L50.4821 174.623Z" fill="#E3F4F5"/>
<path d="M47.3321 148.022L53.5791 147.045L51.6875 141.794L47.8375 142.396L47.3321 148.022Z" fill="#E3F4F5"/>
<path d="M57.8262 173.442L62.4604 169.618L64.3779 174.594L61.9401 176.604L57.8262 173.442Z" fill="#E3F4F5"/>
<path d="M41.561 152.158L46.4404 148.134L42.137 144.577L39.1306 147.06L41.561 152.158Z" fill="#E3F4F5"/>
<path d="M69.897 207.922C68.8927 201.735 73.0942 195.905 79.2813 194.901C85.4685 193.897 91.2983 198.098 92.3026 204.285C93.3069 210.473 89.1054 216.302 82.9183 217.307C76.7312 218.311 70.9013 214.11 69.897 207.922Z" fill="#B8E4E7"/>
<path d="M13.5799 50.4374C14.613 49.0141 16.2816 48.1891 18.0431 48.23L113.889 50.5229C116.115 50.5749 118.218 51.5486 119.701 53.2097C121.184 54.8709 121.912 57.0709 121.715 59.2895L116.431 118.556C116.059 122.711 112.581 125.892 108.411 125.892H43.4028C39.9876 125.892 36.944 123.737 35.8068 120.515L12.8589 55.3689C12.2755 53.7077 12.543 51.8645 13.5762 50.4411L13.5799 50.4374Z" fill="#2A878E"/>
<path d="M139.3 102.453C139.3 102.453 124.598 108.258 112.903 93.2148V112.38C112.903 112.38 126.999 116.843 139.3 102.453Z" fill="#2A878E"/>
<path d="M70.617 92.4946L51.8239 70.3791L50.8949 71.2116C50.7871 71.3082 50.6385 71.3528 50.4972 71.3305C50.3523 71.3082 50.226 71.2264 50.1479 71.1038L45.6624 63.9203L47.5057 62.1699L54.0425 67.3244C54.2023 67.4507 54.2952 67.6403 54.3027 67.8409C54.3101 68.0416 54.2246 68.2386 54.076 68.3724L53.5037 68.8815L73.1738 90.2128L70.6208 92.4946H70.617Z" fill="white"/>
<path d="M69.4612 93.5652C69.2011 93.2456 69.2382 92.7811 69.5467 92.5061L73.4822 88.9905C73.6085 88.879 73.7721 88.8233 73.9356 88.8307C74.1028 88.8419 74.2589 88.9162 74.3704 89.0388L75.8271 90.6703L70.7767 95.1818L69.4612 93.5615V93.5652Z" fill="white"/>
<path d="M70.8186 93.2605L73.97 90.4473L97.0628 111.098C97.2969 111.307 97.4381 111.6 97.4567 111.916L97.5905 114.224C97.6239 114.778 97.4009 115.32 96.9847 115.692L94.2867 118.104C93.8631 118.483 93.2387 118.535 92.7593 118.23L89.5485 116.208L70.8186 93.2642V93.2605Z" fill="white"/>
<path d="M46.9723 63.4482L47.5261 62.9502L53.6133 67.785L52.0747 69.1601L46.9723 63.4482Z" fill="#B8E4E7"/>
<path d="M52.7199 69.8814L53.4928 69.1938L72.2822 90.068L71.4275 90.8299L52.7199 69.8814Z" fill="#B8E4E7"/>
<path d="M69.8884 94.0928L75.2993 90.083L75.827 90.6739L75.0243 91.3911L76.875 93.0449L72.226 94.9847L71.7057 94.3493L70.7766 95.1854L69.8884 94.0928Z" fill="#B8E4E7"/>
<path d="M74.2268 96.1964L90.2587 115.603L92.9753 117.189L93.7334 116.513L74.9849 95.52L74.2268 96.1964Z" fill="#B8E4E7"/>
<path d="M75.498 95.2001L94.3691 115.803L95.6289 114.681L75.8324 94.9028L75.498 95.2001Z" fill="#B8E4E7"/>
<path d="M76.3256 94.5978L95.9288 114.116L96.4082 112.272L76.7269 94.2373L76.3256 94.5978Z" fill="#B8E4E7"/>
<path d="M104.521 68.3842C104.469 67.9531 104.157 67.6001 103.737 67.4997C103.317 67.3994 102.875 67.5666 102.633 67.9234L96.3046 77.2289L89.6005 76.2069L87.6531 70.0268L96.2303 61.7432C96.5276 61.4534 96.6279 61.0186 96.4792 60.6284C96.3306 60.2382 95.9701 59.978 95.5539 59.9594L93.1681 59.8517C92.1275 59.8034 91.113 60.1936 90.3734 60.9257L84.0893 67.1392C83.2828 67.9345 82.8852 69.0531 83.0004 70.1791L83.3609 73.6501C83.6953 76.8461 82.5693 80.0198 80.3024 82.2941L52.4119 110.259L51.5051 112.563C51.2153 113.299 51.4159 114.135 52.0031 114.659L55.4035 117.695C55.9535 118.186 56.7636 118.26 57.3917 117.874L60.8961 115.718L83.7028 85.7465C85.7541 83.0485 88.965 81.4877 92.3542 81.5397L96.6613 81.6029C97.9211 81.6215 99.1066 81.0009 99.8127 79.9566L104.283 73.3231C104.733 72.6542 104.93 71.8477 104.833 71.0487L104.514 68.3879L104.521 68.3842Z" fill="white"/>
<path d="M93.4162 61.4575L85.7533 68.9792L87.2101 77.8351L55.3878 113.47L57.1827 115.072L60.4976 114.886L56.4766 117.276L52.2735 113.522L53.2658 110.475L83.3749 79.3959C84.683 78.0469 85.2516 76.1479 84.9023 74.3009L83.9435 69.2505L90.982 61.3721L93.4199 61.4613L93.4162 61.4575Z" fill="#B8E4E7"/>
<path d="M97.2069 77.4746L103.038 68.8306L103.428 69.7782C103.681 70.3877 103.595 71.0826 103.205 71.614L98.8048 77.6269C97.9724 78.7641 96.4971 79.2249 95.1666 78.7604L90.198 77.0361L97.2069 77.4709V77.4746Z" fill="#B8E4E7"/>
<mask id="mask0_362_1523" style="mask-type:luminance" maskUnits="userSpaceOnUse" x="0" y="0" width="274" height="292">
<path d="M-0.000213623 0H273.888V291.726H-0.000213623V0Z" fill="white"/>
</mask>
<g mask="url(#mask0_362_1523)">
<path d="M150.112 165.911L144.125 131.871C144.125 131.871 141.082 132.781 136.132 133.588C136.132 133.588 119.464 146.572 114.518 200.38C114.518 200.38 114.537 200.495 114.577 200.71C119.888 214.877 135.745 204.319 135.693 204.267C135.693 204.267 144.597 187.477 150.109 165.915L150.112 165.911Z" fill="url(#paint0_linear_362_1523)"/>
<path d="M114.587 199.641C114.491 201.725 115.23 210.288 122.967 223.443L139.501 217.17C139.501 217.17 137.832 209.563 135.272 205.274C128.687 197.091 116.022 191.431 114.587 199.641Z" fill="url(#paint1_linear_362_1523)"/>
<path d="M149.059 242.6C144.826 226.427 139.371 217.887 139.371 217.887L123.814 224.996C128.095 233.967 138.542 242.987 143.024 248.23C143.024 248.23 145.38 250.051 148.059 248.048C150.828 245.978 149.769 244.633 149.471 243.448C149.182 242.92 149.055 242.6 149.055 242.6H149.059Z" fill="url(#paint2_linear_362_1523)"/>
<path d="M149.477 243.448L143.029 248.231C143.605 248.903 144.088 249.516 144.441 250.059C145.972 252.404 149.414 260.431 149.414 260.431C152.335 257.978 157.965 251.631 157.965 251.631C153.386 248.55 150.369 245.064 149.481 243.448H149.477Z" fill="url(#paint3_linear_362_1523)"/>
<path d="M139.498 214.889C139.338 214.565 138.981 214.391 138.624 214.458C129.873 216.108 123.752 220.366 121.894 221.79C121.507 222.083 121.318 222.57 121.4 223.049C122.161 227.602 126.138 229.051 126.138 229.051C129.523 224.588 140.899 220.608 140.899 220.608C141.59 219.341 140.137 216.163 139.502 214.889H139.498Z" fill="#92B25F"/>
<path d="M134.58 228.036C134.58 228.036 128.708 230.979 127.367 233.722L128.482 234.019C128.708 234.079 128.95 233.986 129.073 233.785C129.771 232.674 132.138 229.125 134.58 228.036Z" fill="#AF7338"/>
<path d="M133.044 234.971C133.219 234.77 133.219 234.473 133.048 234.272C132.877 234.072 132.584 234.023 132.357 234.164C131.599 234.633 130.904 235.134 130.45 235.625C130.328 235.759 130.279 235.945 130.324 236.119C130.369 236.294 130.499 236.439 130.67 236.495L131.391 236.74C131.654 236.829 131.944 236.703 132.052 236.443C132.193 236.112 132.479 235.61 133.037 234.971H133.044Z" fill="#AF7338"/>
<path d="M135.035 238.599C135.224 238.409 135.243 238.108 135.079 237.896C134.916 237.684 134.618 237.624 134.388 237.758C134.194 237.87 134.009 237.985 133.837 238.097C133.655 238.219 133.566 238.439 133.611 238.651C133.655 238.866 133.826 239.03 134.038 239.071L134.224 239.104C134.41 239.138 134.6 239.071 134.722 238.929C134.8 238.84 134.901 238.732 135.035 238.599Z" fill="#AF7338"/>
<path d="M147.845 240.876L177.713 243.574L176.055 268.67L164.453 321.088C162.532 321.783 159.436 322.686 156.159 322.779C153.145 322.861 151.015 322.073 149.722 321.359C149.722 320.951 149.718 320.731 149.718 320.731C148.89 305.799 147.853 240.88 147.853 240.88L147.845 240.876Z" fill="url(#paint4_linear_362_1523)"/>
<path d="M184.714 117.158C184.714 117.158 188.604 118.188 188.604 119.904C188.604 121.621 178.132 125.646 171.153 125.706C164.17 125.765 155.745 122.491 155.671 121.432C155.597 120.373 162.476 116.846 184.717 117.158H184.714Z" fill="#059393"/>
<path d="M182.85 94.7598L187.05 125.973C187.05 125.973 180.067 136.549 169.093 137.381C158.119 138.21 156.525 133.442 156.525 133.442L159.118 115.192L182.854 94.7635L182.85 94.7598Z" fill="url(#paint5_linear_362_1523)"/>
<g style="mix-blend-mode:multiply">
<path d="M157.615 125.705L159.109 115.188L182.844 94.7598L186.468 121.108C180.968 120.655 168.28 120.361 157.615 125.705Z" fill="#FBE7D8"/>
</g>
<path d="M147.851 240.876L164.488 242.377L199.841 238.813C199.841 238.813 204.278 248.134 202.814 265.143C202.773 265.608 202.736 266.076 202.695 266.552L174.964 273.612L148.345 268.584C148.051 253.333 147.854 240.88 147.854 240.88L147.851 240.876Z" fill="url(#paint6_linear_362_1523)"/>
<path d="M199.837 238.813C199.837 238.813 204.274 248.133 202.81 265.143C201.182 284.062 200.766 317.694 200.736 320.277C199.317 321.894 196.682 324.19 192.951 324.506C189.067 324.837 186.499 323.715 184.634 321.693C182.308 306.371 179.175 289.934 174.96 273.612L167.55 263.485L164.484 242.381L199.837 238.817V238.813Z" fill="url(#paint7_linear_362_1523)"/>
<g style="mix-blend-mode:multiply">
<path d="M200.028 240.876L190.351 243.158C190.351 243.158 197.861 255.786 202.689 261.315C202.689 261.315 203.763 244.815 200.032 240.876H200.028Z" fill="#FBE7D8"/>
</g>
<path d="M164.438 137.445C164.438 137.445 164.438 129.355 161.867 124.304L152.825 131.369C152.825 131.369 160.499 136.3 164.438 137.449V137.445Z" fill="#02A4A8"/>
<path d="M164.44 137.445L171.181 125.706H192.646L200.736 129.5C200.736 129.5 187.254 137.029 164.44 137.445Z" fill="#02A4A8"/>
<path d="M217.744 133.856C217.123 133.856 200.738 128.463 200.738 128.463C200.738 128.463 183.692 134.569 165.894 134.476C148.097 134.383 149.509 128.463 149.509 128.463L142.493 132.611C142.493 132.611 136.235 146.922 136.135 162.27C136.031 177.618 144.139 199.042 145.585 212.046C147.031 225.049 147.852 240.044 147.852 240.044C147.852 240.044 159.053 245.852 199.497 237.97C199.497 237.97 193.484 220.34 198.668 206.029C198.668 206.029 210.906 178.651 212.151 168.696C213.396 158.74 217.751 133.852 217.751 133.852L217.744 133.856Z" fill="url(#paint8_linear_362_1523)"/>
<path d="M198.466 234.343C198.466 234.343 165.889 239.735 147.847 235.692C147.847 235.692 147.133 239.427 147.847 243.262C147.847 243.262 173.069 249.52 201.524 242.76L198.47 234.343H198.466Z" fill="#92B25F"/>
<path d="M198.454 127.322C198.454 127.322 182.794 135.309 165.892 133.855C148.991 132.402 149.507 128.463 149.507 128.463C149.507 128.463 144.565 129.727 143.613 131.945C143.613 131.945 145.048 138.003 167.137 139.66C189.227 141.318 208.176 130.89 208.176 130.89C208.176 130.89 203.43 127.839 198.454 127.322Z" fill="#9EC46C"/>
<path d="M183.835 142.358C183.835 142.358 173.567 127.512 171.185 125.705C171.185 125.705 188.402 121.186 187.228 118.225C187.228 118.225 188.41 118.225 189.896 120.265C190.926 121.673 194.188 126.426 194.188 126.426L183.835 142.358Z" fill="url(#paint9_linear_362_1523)"/>
<path d="M161.867 124.304C161.867 124.304 157.185 131.989 156.586 140.492C156.586 140.492 149.704 132.402 149.507 128.463C149.507 128.463 152.996 121.279 156.586 120.514C156.586 120.514 153.58 121.595 161.867 124.304Z" fill="url(#paint10_linear_362_1523)"/>
<path d="M186.15 76.3053C186.15 76.3053 187.328 73.1353 189.32 73.3917C191.312 73.6481 194.393 76.9073 191.948 82.7009C189.502 88.4946 187.239 90.6983 185.608 89.825C183.976 88.9517 183.434 78.0593 186.15 76.3053Z" fill="url(#paint11_linear_362_1523)"/>
<g style="mix-blend-mode:multiply">
<path d="M184.699 84.6033C184.699 84.6033 187.958 78.6871 188.954 79.1553C189.95 79.6236 190.404 82.7489 188.954 84.0385C187.505 85.328 185.134 86.6919 184.699 84.6033Z" fill="#FBE7D8"/>
</g>
<path d="M152.618 70.5599C152.525 70.7903 152.536 71.0504 152.655 71.2697C153.685 73.2059 158.345 82.9796 151.109 88.5874C151.109 88.5874 153.915 95.745 163.607 96.1946C173.295 96.6443 182.895 91.0848 183.53 79.9657V65.4761C183.53 65.4761 189.052 59.5189 183.53 57.4378C178.008 55.3567 171.757 60.2436 166.235 60.4257C160.712 60.6078 156.182 61.7858 156.182 61.7858L152.618 70.5599Z" fill="url(#paint12_linear_362_1523)"/>
<g style="mix-blend-mode:multiply">
<path d="M161.884 77.0634C161.884 77.0634 157.967 74.3431 154.273 75.2239C154.868 77.186 155.303 79.6016 154.957 82.0023H161.884C161.884 82.0023 162.698 79.9398 161.884 77.0634Z" fill="#FBE7D8"/>
</g>
<path d="M151.104 88.5876C151.104 88.5876 153.327 102.397 150.194 110.993C149.807 112.052 150.231 113.238 151.205 113.81C153.78 115.322 159.109 117.827 166.408 118.017C173.577 118.202 180.076 116.656 183.48 115.661C185.008 115.211 186.123 113.903 186.327 112.323C186.922 107.678 188.007 97.5587 187.29 90.0109C187.29 90.0109 184.175 85.57 185.978 79.1558H182.979C182.979 79.1558 179.72 96.3769 163.327 95.1096C163.327 95.1096 154.817 94.5671 151.104 88.5913V88.5876Z" fill="#BF8F60"/>
<path d="M166.864 107.243C166.864 107.243 160.075 105.522 158.804 107.243C157.536 108.963 158.443 111.227 160.071 111.951C160.071 111.951 158.172 109.454 159.8 107.967C161.427 106.481 166.864 107.243 166.864 107.243Z" fill="#AF7338"/>
<g style="mix-blend-mode:multiply">
<path d="M166.591 82.0022H178C178 82.0022 179.494 78.8992 178.884 76.3052C178.884 76.3052 174.674 74.7332 170.872 74.462C167.07 74.1907 165.576 76.5728 165.576 76.5728C165.576 76.5728 164.829 81.1215 166.594 82.0022H166.591Z" fill="#FBE7D8"/>
</g>
<path d="M155.64 63.1123C155.64 63.1123 166.254 63.2535 171.55 61.8302C176.845 60.4032 180.038 57.0102 182.62 59.0467C185.2 61.0832 182.687 63.5954 181.807 64.4799C180.926 65.3644 181.74 67.5124 182.215 70.4779C182.691 73.4435 182.713 80.2628 182.713 80.2628L185.984 79.776C185.984 79.776 186.467 71.4702 187.533 69.6752C188.6 67.8803 193.762 59.7974 190.231 55.7913C186.701 51.7852 180.249 50.7669 172.847 52.3946C165.444 54.0261 155.325 51.7852 151.794 55.52C151.794 55.52 155.696 58.6305 155.648 63.1198L155.64 63.1123Z" fill="#AF7338"/>
<path d="M182.532 73.9486C182.573 74.6547 182.602 75.3794 182.625 76.0706C183.576 76.1709 185.107 76.2527 186.293 75.9554C186.374 75.1527 186.475 74.3017 186.594 73.4878C185.23 73.9449 183.624 73.9895 182.532 73.9486Z" fill="#BF8F60"/>
<path d="M187.711 69.3667C185.619 69.8758 183.4 69.8535 182.088 69.7755C182.129 70.0059 182.17 70.2363 182.211 70.4779C182.3 71.0241 182.371 71.7005 182.43 72.44C183.526 72.4735 185.236 72.4177 186.852 71.916C187.042 70.9275 187.269 70.1062 187.525 69.6714C187.577 69.586 187.64 69.4819 187.707 69.3667H187.711Z" fill="#BF8F60"/>
<path d="M179.03 76.5731C179.03 76.5731 176.44 71.3369 169.985 72.017C169.985 72.017 166.86 71.9575 165.57 76.5731C165.57 76.5731 170.141 74.7447 179.027 76.5731H179.03Z" fill="#AF7338"/>
<path d="M161.354 76.7323C161.354 76.7323 157.363 76.2789 154.71 76.9293C154.71 76.9293 153.506 75.0265 153.666 73.4843C153.666 73.4843 158.396 71.5481 161.068 76.5688L161.354 76.7323Z" fill="#AF7338"/>
<path d="M166.321 82.0021C166.321 82.0021 167.815 78.3119 171.007 78.2227C174.199 78.1298 176.507 80.2406 178.001 82.0021C178.001 82.0021 168.086 82.6153 166.321 82.0021Z" fill="white"/>
<path d="M161.884 82.0024C161.884 82.0024 160.141 77.974 157.9 78.223C155.659 78.472 154.957 82.0024 154.957 82.0024C154.957 82.0024 158.398 82.5487 161.884 82.0024Z" fill="white"/>
<mask id="mask1_362_1523" style="mask-type:luminance" maskUnits="userSpaceOnUse" x="166" y="78" width="13" height="5">
<path d="M166.321 82.0026C166.321 82.0026 167.815 78.3124 171.007 78.2232C174.199 78.1303 176.507 80.2411 178.001 82.0026C178.001 82.0026 168.086 82.6158 166.321 82.0026Z" fill="white"/>
</mask>
<g mask="url(#mask1_362_1523)">
<path d="M174.781 80.1392C174.781 81.5105 173.67 82.6217 172.299 82.6217C170.927 82.6217 169.816 81.5105 169.816 80.1392C169.816 78.7679 170.927 77.6567 172.299 77.6567C173.67 77.6567 174.781 78.7679 174.781 80.1392Z" fill="url(#paint13_linear_362_1523)"/>
<path style="mix-blend-mode:screen" d="M171.48 81.3026C171.48 80.2101 172.369 79.3219 173.461 79.3219C173.706 79.3219 173.937 79.3665 174.152 79.4482C173.87 78.6975 173.149 78.1587 172.298 78.1587C171.205 78.1587 170.317 79.0469 170.317 80.1394C170.317 80.9905 170.852 81.7114 171.607 81.9939C171.525 81.7783 171.48 81.5442 171.48 81.3026Z" fill="url(#paint14_linear_362_1523)"/>
<path d="M173.461 80.1397C173.461 80.7829 172.94 81.3034 172.297 81.3034C171.654 81.3034 171.134 80.7829 171.134 80.1397C171.134 79.4966 171.654 78.9761 172.297 78.9761C172.94 78.9761 173.461 79.4966 173.461 80.1397Z" fill="#231F20"/>
<path d="M171.665 79.1325C171.665 79.3742 171.468 79.5712 171.226 79.5712C170.985 79.5712 170.788 79.3742 170.788 79.1325C170.788 78.8909 170.985 78.6938 171.226 78.6938C171.468 78.6938 171.665 78.8909 171.665 79.1325Z" fill="white"/>
<path d="M172.169 79.8348C172.169 79.9537 172.072 80.0504 171.953 80.0504C171.834 80.0504 171.738 79.9537 171.738 79.8348C171.738 79.7158 171.834 79.6191 171.953 79.6191C172.072 79.6191 172.169 79.7158 172.169 79.8348Z" fill="white"/>
</g>
<mask id="mask2_362_1523" style="mask-type:luminance" maskUnits="userSpaceOnUse" x="154" y="78" width="8" height="5">
<path d="M161.881 82.0029C161.881 82.0029 160.138 77.9745 157.897 78.2235C155.656 78.4725 154.954 82.0029 154.954 82.0029C154.954 82.0029 158.395 82.5492 161.881 82.0029Z" fill="white"/>
</mask>
<g mask="url(#mask2_362_1523)">
<path d="M161.442 80.2256C161.442 81.5969 160.331 82.7081 158.96 82.7081C157.589 82.7081 156.477 81.5969 156.477 80.2256C156.477 78.8543 157.589 77.7432 158.96 77.7432C160.331 77.7432 161.442 78.8543 161.442 80.2256Z" fill="url(#paint15_linear_362_1523)"/>
<path style="mix-blend-mode:screen" d="M158.141 81.3891C158.141 80.2965 159.03 79.4083 160.122 79.4083C160.368 79.4083 160.598 79.4529 160.813 79.5347C160.531 78.784 159.81 78.2451 158.959 78.2451C157.866 78.2451 156.978 79.1333 156.978 80.2259C156.978 81.0769 157.513 81.7979 158.268 82.0803C158.186 81.8647 158.141 81.6306 158.141 81.3891Z" fill="url(#paint16_linear_362_1523)"/>
<path d="M160.122 80.2262C160.122 80.8693 159.602 81.3898 158.958 81.3898C158.315 81.3898 157.795 80.8693 157.795 80.2262C157.795 79.583 158.315 79.0625 158.958 79.0625C159.602 79.0625 160.122 79.583 160.122 80.2262Z" fill="#231F20"/>
<path d="M158.326 79.219C158.326 79.4606 158.129 79.6577 157.887 79.6577C157.646 79.6577 157.449 79.4606 157.449 79.219C157.449 78.9773 157.646 78.7803 157.887 78.7803C158.129 78.7803 158.326 78.9773 158.326 79.219Z" fill="white"/>
<path d="M158.827 79.9251C158.827 80.0441 158.73 80.1407 158.612 80.1407C158.493 80.1407 158.396 80.0441 158.396 79.9251C158.396 79.8061 158.493 79.7095 158.612 79.7095C158.73 79.7095 158.827 79.8061 158.827 79.9251Z" fill="white"/>
</g>
<path d="M161.883 77.063C161.883 77.063 164.147 83.0462 159.256 89.8246C159.256 89.8246 160.546 91.9169 162.244 93.0689C162.244 93.0689 158.821 91.9131 158.256 89.6053C158.256 89.6053 162.742 83.7411 161.88 77.063H161.883Z" fill="#E0A57E"/>
<path d="M159.229 98.6212C159.229 98.6212 166.067 99.1824 171.776 97.7145C172.169 97.6141 172.556 97.4989 172.924 97.3726C172.924 97.3726 166.595 104.872 163.332 104.872C161.355 104.872 159.731 102.219 158.795 100.23C158.233 99.0374 159.229 98.6249 159.229 98.6249V98.6212Z" fill="#B94600"/>
<path d="M171.775 97.7144C166.067 99.186 157.914 98.0786 157.914 98.0786C157.914 98.0786 158.23 99.0299 158.791 100.223C160.322 100.49 166.316 101.237 171.775 97.7144Z" fill="white"/>
<path d="M244.123 199.558C243.8 201.621 241.629 212.967 231.417 224.312L216.474 214.858C216.474 214.858 219.629 207.738 222.996 204.048C231.082 197.347 244.361 191.227 244.123 199.558Z" fill="url(#paint17_linear_362_1523)"/>
<path d="M206.466 168.215C206.466 168.215 206.339 154.666 217.744 133.855C217.744 133.855 235.787 146.921 244.223 200.294C244.223 200.294 244.212 200.409 244.185 200.629C239.808 215.107 223.296 205.605 223.345 205.549C223.345 205.549 213.37 189.372 206.466 168.215Z" fill="url(#paint18_linear_362_1523)"/>
<path d="M202.019 237.862C209.403 222.864 216.453 215.583 216.453 215.583L230.273 225.662C224.283 233.596 212.242 240.341 206.802 244.585C206.802 244.585 204.13 245.897 201.904 243.4C199.603 240.817 200.911 239.713 201.439 238.609C201.829 238.149 202.019 237.862 202.019 237.862Z" fill="url(#paint19_linear_362_1523)"/>
<path d="M201.436 238.609L206.799 244.585C206.1 245.131 205.506 245.637 205.052 246.094C203.083 248.086 198.107 255.262 198.107 255.262C195.736 252.274 191.488 244.927 191.488 244.927C196.59 242.823 200.243 240.014 201.436 238.605V238.609Z" fill="url(#paint20_linear_362_1523)"/>
<path d="M218.061 226.974C218.061 226.974 214.27 221.607 211.356 220.697L211.23 221.845C211.204 222.079 211.334 222.302 211.55 222.395C212.754 222.919 216.615 224.729 218.061 226.977V226.974Z" fill="#AF7338"/>
<path d="M210.972 226.491C211.195 226.632 211.489 226.591 211.663 226.39C211.838 226.19 211.838 225.892 211.667 225.692C211.087 225.012 210.489 224.402 209.939 224.027C209.79 223.923 209.597 223.904 209.43 223.975C209.263 224.045 209.14 224.194 209.11 224.376L208.977 225.127C208.928 225.402 209.099 225.666 209.367 225.736C209.716 225.829 210.255 226.034 210.969 226.491H210.972Z" fill="#AF7338"/>
<path d="M207.689 229.007C207.904 229.167 208.205 229.141 208.391 228.944C208.577 228.747 208.592 228.449 208.425 228.237C208.283 228.063 208.146 227.895 208.008 227.743C207.86 227.579 207.629 227.524 207.425 227.602C207.22 227.68 207.083 227.869 207.075 228.089V228.278C207.064 228.468 207.157 228.643 207.317 228.743C207.413 228.806 207.54 228.892 207.692 229L207.689 229.007Z" fill="#AF7338"/>
<path d="M216.925 212.625C217.148 212.342 217.535 212.238 217.866 212.376C226.112 215.743 231.255 221.139 232.79 222.908C233.106 223.275 233.199 223.788 233.024 224.238C231.367 228.545 227.182 229.173 227.182 229.173C224.759 224.123 214.409 217.95 214.409 217.95C213.986 216.571 216.045 213.747 216.925 212.628V212.625Z" fill="#92B25F"/>
<path d="M190.441 79.4414C190.441 79.4414 184.756 81.3144 184.882 86.7327C185.287 103.801 183.555 110.926 172.838 111.26L190.441 79.4414Z" stroke="#3D3D3D" stroke-width="3" stroke-miterlimit="10"/>
<path d="M167.663 110.773C167.686 110.632 167.712 110.491 167.741 110.354C168.117 108.663 169.718 107.533 171.439 107.745L177.069 108.443C177.586 108.507 177.98 108.941 177.991 109.465L178.047 112.193C178.058 112.695 177.712 113.133 177.222 113.241L171.632 114.475C170.573 114.709 169.466 114.408 168.674 113.668C167.883 112.929 167.504 111.847 167.663 110.773Z" fill="#515151"/>
<path d="M176.293 108.347L177.069 108.443C177.586 108.506 177.98 108.941 177.991 109.465L178.047 112.193C178.058 112.695 177.712 113.133 177.222 113.241L171.632 114.475C170.573 114.709 169.466 114.408 168.674 113.668C168.592 113.594 168.518 113.512 168.448 113.427C171.855 113.174 176.709 112.152 176.293 108.347Z" fill="#3D3D3D"/>
<path d="M171.18 52.6883C171.18 52.6883 188.011 51.187 185.982 74.4396L188.55 73.098C188.55 73.098 192.445 47.9129 171.18 52.6883Z" fill="#63554D"/>
<path d="M180.506 81.0697C179.447 86.2539 181.514 91.0553 185.126 91.7948C188.738 92.5344 192.525 88.9296 193.584 83.7417C194.643 78.5575 192.577 73.7561 188.965 73.0166C185.352 72.2771 181.566 75.8818 180.506 81.0697Z" fill="#63554D"/>
<path d="M189.157 90.858C185.817 90.858 183.11 87.0978 183.11 82.4593C183.11 77.8208 185.817 74.0605 189.157 74.0605C192.496 74.0605 195.203 77.8208 195.203 82.4593C195.203 87.0978 192.496 90.858 189.157 90.858Z" fill="#E8384C"/>
<path d="M189.158 75.6108C189.158 75.6108 194.149 77.194 193.64 83.0025C193.566 83.8535 192.852 84.5038 191.998 84.5038H191.325C191.009 84.5038 190.712 84.3626 190.511 84.1211C190.311 83.8795 190.229 83.5599 190.288 83.2477C190.671 81.2447 191.091 77.3761 189.158 75.6108Z" fill="#E7F6F7"/>
</g>
<defs>
<linearGradient id="paint0_linear_362_1523" x1="252.835" y1="2.89911" x2="246.667" y2="11.6247" gradientUnits="userSpaceOnUse">
<stop stop-color="#B7E688"/>
<stop offset="1" stop-color="#9EC46C"/>
</linearGradient>
<linearGradient id="paint1_linear_362_1523" x1="324.701" y1="35.1661" x2="316.647" y2="42.1918" gradientUnits="userSpaceOnUse">
<stop stop-color="#B7E688"/>
<stop offset="1" stop-color="#9EC46C"/>
</linearGradient>
<linearGradient id="paint2_linear_362_1523" x1="122.943" y1="230.117" x2="161.514" y2="236.849" gradientUnits="userSpaceOnUse">
<stop stop-color="#F6B98A"/>
<stop offset="1" stop-color="#F4C6A6"/>
</linearGradient>
<linearGradient id="paint3_linear_362_1523" x1="119.845" y1="246.82" x2="157.673" y2="253.422" gradientUnits="userSpaceOnUse">
<stop stop-color="#F6B98A"/>
<stop offset="1" stop-color="#F4C6A6"/>
</linearGradient>
<linearGradient id="paint4_linear_362_1523" x1="151.636" y1="395.004" x2="159.548" y2="287.393" gradientUnits="userSpaceOnUse">
<stop stop-color="#436280"/>
<stop offset="1" stop-color="#294A66"/>
</linearGradient>
<linearGradient id="paint5_linear_362_1523" x1="266.436" y1="315.539" x2="233.823" y2="247.635" gradientUnits="userSpaceOnUse">
<stop stop-color="#F6B98A"/>
<stop offset="1" stop-color="#F4C6A6"/>
</linearGradient>
<linearGradient id="paint6_linear_362_1523" x1="164.823" y1="395.974" x2="172.735" y2="288.362" gradientUnits="userSpaceOnUse">
<stop stop-color="#436280"/>
<stop offset="1" stop-color="#294A66"/>
</linearGradient>
<linearGradient id="paint7_linear_362_1523" x1="200.963" y1="308.593" x2="184.095" y2="253.288" gradientUnits="userSpaceOnUse">
<stop stop-color="#436280"/>
<stop offset="1" stop-color="#294A66"/>
</linearGradient>
<linearGradient id="paint8_linear_362_1523" x1="163.159" y1="161.285" x2="229.803" y2="248.394" gradientUnits="userSpaceOnUse">
<stop stop-color="#B7E688"/>
<stop offset="1" stop-color="#9EC46C"/>
</linearGradient>
<linearGradient id="paint9_linear_362_1523" x1="181.401" y1="143.313" x2="183.705" y2="112.353" gradientUnits="userSpaceOnUse">
<stop stop-color="#00B6C2"/>
<stop offset="1" stop-color="#02A4A8"/>
</linearGradient>
<linearGradient id="paint10_linear_362_1523" x1="154.587" y1="141.217" x2="156.869" y2="110.521" gradientUnits="userSpaceOnUse">
<stop stop-color="#00B6C2"/>
<stop offset="1" stop-color="#02A4A8"/>
</linearGradient>
<linearGradient id="paint11_linear_362_1523" x1="184.248" y1="81.6938" x2="192.851" y2="81.6938" gradientUnits="userSpaceOnUse">
<stop stop-color="#F6B98A"/>
<stop offset="1" stop-color="#F4C6A6"/>
</linearGradient>
<linearGradient id="paint12_linear_362_1523" x1="168.951" y1="63.4358" x2="167.728" y2="96.9825" gradientUnits="userSpaceOnUse">
<stop stop-color="#F6B98A"/>
<stop offset="1" stop-color="#F4C6A6"/>
</linearGradient>
<linearGradient id="paint13_linear_362_1523" x1="169.783" y1="84.4463" x2="175.881" y2="74.0185" gradientUnits="userSpaceOnUse">
<stop stop-color="#944A00"/>
<stop offset="1" stop-color="#3C2415"/>
</linearGradient>
<linearGradient id="paint14_linear_362_1523" x1="169.734" y1="77.6644" x2="171.952" y2="79.805" gradientUnits="userSpaceOnUse">
<stop stop-color="#6D6E71"/>
<stop offset="1" stop-color="#231F20"/>
</linearGradient>
<linearGradient id="paint15_linear_362_1523" x1="156.44" y1="84.5328" x2="162.542" y2="74.1049" gradientUnits="userSpaceOnUse">
<stop stop-color="#944A00"/>
<stop offset="1" stop-color="#3C2415"/>
</linearGradient>
<linearGradient id="paint16_linear_362_1523" x1="156.395" y1="77.7546" x2="158.61" y2="79.8914" gradientUnits="userSpaceOnUse">
<stop stop-color="#6D6E71"/>
<stop offset="1" stop-color="#231F20"/>
</linearGradient>
<linearGradient id="paint17_linear_362_1523" x1="184.491" y1="142.753" x2="248.936" y2="232.174" gradientUnits="userSpaceOnUse">
<stop stop-color="#B7E688"/>
<stop offset="1" stop-color="#9EC46C"/>
</linearGradient>
<linearGradient id="paint18_linear_362_1523" x1="195.324" y1="136.159" x2="264.365" y2="226.401" gradientUnits="userSpaceOnUse">
<stop stop-color="#B7E688"/>
<stop offset="1" stop-color="#9EC46C"/>
</linearGradient>
<linearGradient id="paint19_linear_362_1523" x1="230.123" y1="230.807" x2="190.985" y2="229.686" gradientUnits="userSpaceOnUse">
<stop stop-color="#F6B98A"/>
<stop offset="1" stop-color="#F4C6A6"/>
</linearGradient>
<linearGradient id="paint20_linear_362_1523" x1="229.813" y1="247.792" x2="191.432" y2="246.693" gradientUnits="userSpaceOnUse">
<stop stop-color="#F6B98A"/>
<stop offset="1" stop-color="#F4C6A6"/>
</linearGradient>
</defs>
</svg>
