<svg width="24" height="24" viewBox="0 0 24 24" fill="none" xmlns="http://www.w3.org/2000/svg">
<path fill-rule="evenodd" clip-rule="evenodd" d="M11.7203 23.4406C5.24735 23.4406 0 18.1932 0 11.7203C0 5.24735 5.24735 0 11.7203 0C18.1932 0 23.4406 5.24735 23.4406 11.7203C23.4406 18.1932 18.1932 23.4406 11.7203 23.4406ZM11.7203 1.30225C5.96661 1.30225 1.30225 5.96661 1.30225 11.7203C1.30225 17.4739 5.96661 22.1383 11.7203 22.1383C17.4739 22.1383 22.1383 17.4739 22.1383 11.7203C22.1383 5.96661 17.4739 1.30225 11.7203 1.30225Z" fill="#3D83DF"/>
<path d="M16.3764 14.4307C16.885 14.9392 16.885 15.7638 16.3764 16.2723C15.8679 16.7809 15.0433 16.7809 14.5348 16.2723C14.0262 15.7638 14.0262 14.9392 14.5348 14.4307C15.0433 13.9221 15.8679 13.9221 16.3764 14.4307ZM12.6931 10.7473C13.2017 11.2559 13.2017 12.0804 12.6931 12.589C12.1845 13.0975 11.36 13.0975 10.8514 12.589C10.3429 12.0804 10.3429 11.2559 10.8514 10.7473C11.36 10.2388 12.1845 10.2388 12.6931 10.7473ZM9.00967 7.06399C9.51828 7.5726 9.51828 8.39708 9.00967 8.90569C8.50117 9.4142 7.67658 9.4142 7.16808 8.90569C6.65947 8.39708 6.65947 7.5726 7.16808 7.06399C7.67658 6.55549 8.50117 6.55549 9.00967 7.06399Z" fill="#3D83DF"/>
</svg>
