<svg width="15" height="15" viewBox="0 0 15 15" fill="none" xmlns="http://www.w3.org/2000/svg">
<path d="M3.4187 5.625C4.62682 5.625 5.6062 4.64562 5.6062 3.4375C5.6062 2.22938 4.62682 1.25 3.4187 1.25C2.21058 1.25 1.2312 2.22938 1.2312 3.4375C1.2312 4.64562 2.21058 5.625 3.4187 5.625Z" stroke="#98A1AB" stroke-width="1.5"/>
<path d="M10.6062 9.375H12.4812C13.1687 9.375 13.7312 9.9375 13.7312 10.625V12.5C13.7312 13.1875 13.1687 13.75 12.4812 13.75H10.6062C9.9187 13.75 9.3562 13.1875 9.3562 12.5V10.625C9.3562 9.9375 9.9187 9.375 10.6062 9.375Z" stroke="#98A1AB" stroke-width="1.5"/>
<path d="M7.49957 3.125H9.17457C10.3308 3.125 10.8683 4.55625 9.99957 5.31875L5.00582 9.6875C4.13707 10.4438 4.67457 11.875 5.82457 11.875H7.49957" stroke="#98A1AB" stroke-width="1.5" stroke-linecap="round" stroke-linejoin="round"/>
<path d="M3.42882 3.4375H3.43605" stroke="#98A1AB" stroke-width="2" stroke-linecap="round" stroke-linejoin="round"/>
<path d="M11.5538 11.5625H11.561" stroke="#98A1AB" stroke-width="2" stroke-linecap="round" stroke-linejoin="round"/>
</svg>
