<svg width="12" height="38" viewBox="0 0 12 38" fill="none" xmlns="http://www.w3.org/2000/svg">
<path d="M6.53033 0.46967C6.23744 0.176777 5.76256 0.176777 5.46967 0.46967L0.696699 5.24264C0.403806 5.53553 0.403806 6.01041 0.696699 6.3033C0.989592 6.59619 1.46447 6.59619 1.75736 6.3033L6 2.06066L10.2426 6.3033C10.5355 6.59619 11.0104 6.59619 11.3033 6.3033C11.5962 6.01041 11.5962 5.53553 11.3033 5.24264L6.53033 0.46967ZM5.46967 37.5303C5.76256 37.8232 6.23744 37.8232 6.53033 37.5303L11.3033 32.7574C11.5962 32.4645 11.5962 31.9896 11.3033 31.6967C11.0104 31.4038 10.5355 31.4038 10.2426 31.6967L6 35.9393L1.75736 31.6967C1.46446 31.4038 0.989591 31.4038 0.696698 31.6967C0.403805 31.9896 0.403805 32.4645 0.696698 32.7574L5.46967 37.5303ZM5.25 1L5.25 37L6.75 37L6.75 1L5.25 1Z" fill="#3D83DF"/>
</svg>
