<svg width="79" height="86" viewBox="0 0 79 86" fill="none" xmlns="http://www.w3.org/2000/svg">
<path d="M77.7762 64.8923C74.3855 57.6487 70.9903 50.4051 67.5974 43.1638C66.6464 41.1329 65.7043 39.0998 64.7377 37.0778C64.3556 36.2757 63.6557 36.0046 62.978 36.3424C62.3447 36.6601 62.1603 37.3334 62.498 38.1355C62.5935 38.3643 62.7024 38.5888 62.8091 38.8132C67.0819 47.9365 71.357 57.0577 75.6298 66.181C76.4608 67.9586 75.9764 69.3118 74.21 70.1384C65.9154 74.0246 57.6186 77.9063 49.3218 81.7881C47.462 82.6569 46.1533 82.168 45.2734 80.2905C43.8647 77.2819 42.4737 74.2668 41.0383 71.2716C40.7739 70.7183 40.7695 70.2783 41.0028 69.714C45.0023 60.1107 48.9618 50.4896 52.9747 40.8907C53.7124 39.1265 53.6813 37.4911 52.8703 35.7735C50.7772 31.3452 48.7419 26.8901 46.6866 22.444C46.5777 22.2085 46.4866 21.9618 46.3422 21.6085C46.7043 21.7041 46.9399 21.7552 47.1687 21.8263C49.7017 22.6307 52.2237 23.4617 54.7656 24.2282C55.7766 24.5349 56.4276 25.1348 56.8587 26.0791C57.8208 28.1944 58.8184 30.2964 59.8094 32.3984C60.2383 33.3049 60.8626 33.6182 61.5648 33.3072C62.3047 32.9783 62.4913 32.2717 62.0581 31.3363C61.0449 29.1521 60.0205 26.9724 59.0006 24.7926C58.3296 23.3595 57.2497 22.4018 55.7299 21.9285C53.4857 21.2264 51.2482 20.5087 49.0063 19.7954C47.7575 19.3999 46.511 19 45.2067 18.5845C45.4534 18.2067 45.6489 17.9401 45.8111 17.6512C47.3243 14.9493 48.9085 12.2808 50.3061 9.51887C50.8816 8.38345 51.2327 7.06583 51.3749 5.79487C51.7171 2.72412 50.7127 1.2443 47.7464 0H46.0822C43.6091 0.786573 42.2182 2.64635 41.2472 4.90831C40.9983 5.49046 40.7384 6.08595 40.6117 6.70365C40.0296 9.49221 39.4541 12.283 38.963 15.0893C38.8253 15.8781 38.6386 16.3492 37.7432 16.3536C37.3454 16.3536 36.941 16.5558 36.5544 16.7025C31.2795 18.7156 26.0134 20.7398 20.7363 22.7462C19.2231 23.3217 18.1877 24.3393 17.5678 25.8347C11.864 39.6153 6.14468 53.3892 0.44536 67.1698C-0.714502 69.9784 0.452025 72.7803 3.23614 73.9712C4.76263 74.6223 6.30244 75.2444 7.83781 75.871C8.77326 76.2532 9.45541 76.0754 9.76648 75.3911C10.1042 74.6534 9.75981 73.9757 8.82215 73.5824C7.39343 72.9825 5.95582 72.4025 4.52488 71.807C2.59844 71.0071 2.06739 69.7495 2.86508 67.8253C8.51774 54.1736 14.1793 40.5263 19.8297 26.8724C20.203 25.9703 20.8029 25.3792 21.7228 25.0304C26.9511 23.0528 32.1683 21.0486 37.3899 19.0555C37.6876 18.9422 37.9987 18.8622 38.4209 18.7289C38.312 19.571 38.1853 20.2754 38.1431 20.9842C38.112 21.5086 37.9387 21.7108 37.3876 21.8241C35.0857 22.3018 33.6414 24.6237 34.1858 26.8613C34.6191 28.6388 36.1145 29.9564 37.8654 30.1031C39.7718 30.2653 41.4761 29.2454 42.1871 27.5167C42.8826 25.828 42.4048 23.9238 40.9961 22.684C40.8073 22.5196 40.5517 22.2618 40.5651 22.0618C40.6317 21.0753 40.7806 20.0932 40.9072 19.0311C42.2426 19.5421 43.0181 20.4576 43.558 21.6263C45.8911 26.6768 48.2108 31.7318 50.5794 36.7645C51.106 37.88 51.1149 38.8732 50.6372 40.0175C45.0067 53.527 39.4119 67.052 33.8081 80.5749C32.9682 82.5991 31.7572 83.0924 29.713 82.2436C24.8558 80.2283 20.0008 78.213 15.1436 76.2043C14.2193 75.8199 13.5283 76.011 13.215 76.7042C12.8817 77.4419 13.235 78.1107 14.1793 78.504C19.1631 80.5705 24.1426 82.6458 29.1353 84.6944C32.0016 85.8698 34.7613 84.7166 35.9723 81.8592C36.8788 79.7194 37.7543 77.5664 38.6475 75.4199C38.8719 74.88 39.1052 74.3423 39.3896 73.6802C39.5696 74.0401 39.6874 74.2534 39.7896 74.4734C40.8717 76.7776 41.9538 79.0817 43.0359 81.3881C44.4979 84.5033 47.262 85.4988 50.3994 84.03C58.5962 80.1949 66.7931 76.3598 74.9854 72.5203C78.3961 70.9205 79.3605 68.2786 77.7762 64.8923ZM38.2653 27.6212C37.2943 27.6078 36.5589 26.8279 36.5922 25.8547C36.6233 24.9193 37.3721 24.2127 38.3164 24.2216C39.2496 24.2305 39.9851 24.9704 39.9918 25.908C39.9985 26.8813 39.2385 27.6345 38.2653 27.6212ZM43.087 17.2668C42.4448 16.9713 41.8938 16.718 41.225 16.4114C41.6205 14.1917 41.9982 11.9408 42.4293 9.69885C42.787 7.85018 43.2403 6.01929 44.3179 4.43281C44.6846 3.89287 45.1201 3.35516 45.6356 2.96632C47.0287 1.91755 48.8374 2.70412 48.8952 4.4417C48.9307 5.49046 48.7663 6.61477 48.3952 7.59243C47.0865 11.0431 45.1201 14.1494 43.087 17.2668Z" fill="#3D83DF"/>
<path d="M27.7984 38.1887C35.3509 38.2643 41.5013 44.2725 41.7124 51.8249C41.739 52.8048 41.3124 53.3758 40.5258 53.4092C39.7326 53.4425 39.286 52.9403 39.2238 51.9427C38.8482 46.0145 35.1442 41.8239 29.4094 40.8418C22.9835 39.7397 16.5909 44.9191 16.3131 51.4516C16.0798 56.9399 19.4528 61.7615 24.5144 63.1769C29.8915 64.6789 35.2531 62.3703 37.9528 57.3776C38.2772 56.7777 38.6483 56.2933 39.4171 56.3888C40.3303 56.5021 40.7347 57.4265 40.2547 58.3775C38.6261 61.606 36.1463 63.9568 32.7445 65.1878C27.4074 67.1187 22.4569 66.2499 18.304 62.3948C14.1023 58.4952 12.7558 53.558 14.4667 48.0609C16.1754 42.5704 20.0816 39.3953 25.7365 38.3887C26.4142 38.2687 27.1119 38.251 27.8007 38.1865L27.7984 38.1887Z" fill="#3D83DF"/>
<path d="M27.3894 58.075C26.9205 58.9638 27.0094 60.5658 25.4407 60.1237C23.8609 59.677 24.7452 58.3861 24.8963 57.4018C24.4742 57.1951 24.0453 57.0551 23.6965 56.8018C22.8832 56.2108 22.5833 55.3887 22.7744 54.3955C22.901 53.7355 23.2943 53.3667 23.9675 53.3467C24.603 53.3289 25.0763 53.6489 25.1674 54.2644C25.2452 54.7843 25.5251 54.9376 25.954 55.0487C26.5161 55.1954 27.0605 55.3998 27.6249 55.5375C28.1382 55.662 28.5914 55.5198 28.7559 54.9709C28.927 54.4021 28.6714 53.9999 28.1093 53.8133C27.6649 53.6644 27.2116 53.5378 26.765 53.3933C24.983 52.8201 24.0164 51.3536 24.2608 49.6049C24.503 47.8784 25.8584 46.7586 27.7538 46.7186C27.8871 46.7164 28.0226 46.703 28.1359 46.6986C28.9314 44.7588 29.3158 44.37 30.1379 44.6455C30.9712 44.9255 31.0712 45.4387 30.6468 47.4252C30.8823 47.5229 31.1311 47.6185 31.3756 47.7274C32.4376 48.2029 32.9887 49.2427 32.7709 50.3693C32.6465 51.0159 32.2666 51.4158 31.5911 51.4469C30.9178 51.478 30.5423 51.1003 30.2979 50.4915C30.1868 50.2182 29.9402 49.9249 29.6802 49.8027C29.2114 49.5827 28.6803 49.4894 28.1804 49.3294C27.5627 49.1316 26.985 49.1139 26.7717 49.8627C26.5783 50.547 27.0183 50.8759 27.6182 51.0492C28.0693 51.1803 28.5226 51.3047 28.967 51.4602C30.629 52.0468 31.5578 53.6178 31.2622 55.3198C30.9867 56.9107 29.6069 58.035 27.8915 58.0706C27.7271 58.075 27.5627 58.0706 27.3871 58.0706L27.3894 58.075Z" fill="#3D83DF"/>
<path d="M70.0147 66.1086C69.7303 66.4263 69.4703 66.9707 69.0993 67.0618C68.6838 67.164 68.1461 66.904 67.7039 66.7041C67.5239 66.6241 67.4506 66.293 67.3462 66.0686C64.8242 60.7181 62.3045 55.3676 59.787 50.0171C59.6804 49.7927 59.5715 49.5661 59.5049 49.3283C59.3271 48.6729 59.5737 48.184 60.1626 47.8863C60.7403 47.593 61.2447 47.7663 61.6446 48.2351C61.8024 48.4196 61.9046 48.6573 62.0112 48.8817C64.542 54.2566 67.0706 59.6338 69.5948 65.0131C69.7325 65.3087 69.8303 65.6242 70.0147 66.1108V66.1086Z" fill="#3D83DF"/>
<path d="M64.4629 69.1228C64.1496 69.4449 63.8718 69.9582 63.483 70.0626C63.0941 70.1671 62.572 69.9115 62.1543 69.7182C61.9721 69.6338 61.8854 69.3161 61.781 69.0917C59.2368 63.6901 56.6927 58.2907 54.1641 52.8825C54.0063 52.5447 53.8153 52.0781 53.933 51.7937C54.0997 51.3893 54.5085 50.8671 54.8685 50.8205C55.2795 50.7672 55.8639 51.076 56.1661 51.416C56.5371 51.8315 56.6949 52.4381 56.9415 52.9624C59.2857 57.9374 61.6299 62.9124 63.9674 67.8918C64.1296 68.2384 64.2518 68.6028 64.4607 69.1272L64.4629 69.1228Z" fill="#3D83DF"/>
</svg>
