<svg width="84" height="84" viewBox="0 0 84 84" fill="none" xmlns="http://www.w3.org/2000/svg">
<g clip-path="url(#clip0_748_4858)">
<path d="M65.1768 44.8222C71.1421 44.5965 76.659 49.0344 77.7527 54.9391C78.0043 56.2931 78.444 56.7665 79.3102 56.6095C80.1546 56.4546 80.4368 55.7511 80.1699 54.4591C79.5071 51.249 77.9802 48.5367 75.6155 46.2867C75.3684 46.05 75.1737 45.5832 75.2021 45.2469C75.5565 41.1807 75.213 37.1852 74.1521 33.2517C73.8874 32.2672 73.2924 31.8225 72.5334 32.0349C71.8224 32.2318 71.5534 32.9176 71.759 33.8623C72.0587 35.2361 72.4349 36.6078 72.5815 37.9993C72.7937 40.0148 72.8309 42.0479 72.9577 44.32C70.3109 42.8687 67.7318 42.3067 64.9887 42.3001C64.9887 41.3665 64.993 40.5413 64.9887 39.7139C64.9755 38.0745 64.2055 37.267 62.5846 37.2339C61.4646 37.2095 60.3424 37.2095 59.2224 37.2361C58.7499 37.2471 58.4896 37.1277 58.3321 36.6233C58.1046 35.8888 57.7896 35.1786 57.4484 34.4884C57.2537 34.0946 57.3062 33.8601 57.6102 33.5658C58.4809 32.7251 59.3296 31.8623 60.1652 30.9862C61.1474 29.9509 61.1584 28.7717 60.1762 27.7518C58.9752 26.5018 57.7568 25.2718 56.5209 24.0572C55.5102 23.0617 54.3465 23.0749 53.3227 24.0705C52.5921 24.7784 51.833 25.4687 51.1899 26.2519C50.6168 26.9487 50.1027 27.0461 49.3459 26.5638C48.8471 26.2474 48.2499 26.0638 47.679 25.8912C47.2634 25.7651 47.119 25.5594 47.1277 25.1258C47.1518 23.9378 47.1496 22.7475 47.1277 21.5595C47.1059 20.0087 46.3184 19.2078 44.7959 19.1945C43.1574 19.179 41.5168 19.1812 39.8762 19.1923C38.2705 19.2056 37.4677 20.0153 37.448 21.6502C37.4327 22.8117 37.4655 23.9732 37.4262 25.1346C37.4174 25.3736 37.2424 25.7297 37.0455 25.8204C36.1334 26.2452 35.1862 26.5948 34.1712 27.004C33.4405 26.2563 32.6749 25.4709 31.9049 24.6899C30.0652 22.8294 29.2952 22.825 27.4796 24.6612C26.5521 25.5992 25.6224 26.5372 24.6971 27.4775C23.3715 28.8248 23.3693 29.9044 24.6949 31.2473C25.5984 32.161 26.5062 33.068 27.3505 33.9154C26.948 34.9131 26.563 35.7693 26.2634 36.6542C26.108 37.1078 25.8849 37.2471 25.4343 37.2361C24.288 37.2117 23.1374 37.2095 21.9912 37.2339C20.4096 37.2693 19.633 38.0568 19.6112 39.6608C19.5871 41.2913 19.5915 42.924 19.609 44.5545C19.6265 46.2403 20.414 47.0146 22.1027 47.0367C23.1965 47.0522 24.2902 47.0588 25.384 47.0323C25.8565 47.0212 26.1146 47.1473 26.2721 47.6451C26.5018 48.3774 26.808 49.0942 27.1537 49.7822C27.3505 50.176 27.3024 50.4061 26.9984 50.7025C26.1277 51.5432 25.2768 52.4038 24.4434 53.2799C23.4677 54.3042 23.459 55.5033 24.4324 56.5165C25.6355 57.7643 26.8518 58.9966 28.0877 60.2111C29.1005 61.2089 30.2621 61.1934 31.2859 60.1978C32.0143 59.4877 32.7559 58.7842 33.423 58.0209C33.9568 57.4103 34.4249 57.136 35.1905 57.6714C35.6499 57.9922 36.2252 58.1913 36.7765 58.324C37.3671 58.4656 37.4721 58.7908 37.4546 59.3328C37.4196 60.4368 37.4305 61.5452 37.448 62.6513C37.4721 64.2354 38.2815 65.0606 39.8259 65.0738C41.4949 65.0893 43.1618 65.0915 44.8309 65.0738C46.3074 65.0583 47.1015 64.2575 47.1277 62.7575C47.1496 61.5429 47.1059 60.324 47.1562 59.1094C47.1671 58.866 47.4165 58.5364 47.6418 58.4213C48.298 58.0873 49.0068 57.8661 49.6784 57.5585C50.5818 57.1448 50.6737 57.178 50.748 58.1979C51.0718 62.6204 52.9137 66.2486 56.289 69.0781C56.4027 69.1733 56.488 69.306 56.593 69.4277C47.5849 74.3966 36.0984 74.2815 27.0684 68.9122C26.8212 68.7662 26.6221 68.3746 26.5762 68.0693C25.7427 62.658 21.6368 58.1293 16.3802 56.9701C15.5862 56.7953 15.1705 56.4479 14.8402 55.7422C11.2287 48.0345 10.7474 40.1364 13.4118 32.0482C14.2321 29.5504 15.3915 27.2186 16.868 25.0196C19.5149 26.493 22.0568 26.4465 24.2487 24.3581C26.6155 22.1037 26.703 19.3958 25.2046 16.553C25.3577 16.4357 25.4802 16.3296 25.6159 16.2411C32.373 11.8429 39.7274 10.3585 47.6352 11.6969C48.9762 11.9248 50.2887 12.3319 51.6099 12.6726C52.4762 12.8938 53.1324 12.6106 53.3315 11.896C53.5393 11.1571 53.1762 10.5819 52.3165 10.2833C52.1874 10.239 52.0584 10.1925 51.9271 10.1549C41.9696 7.31873 32.629 8.6594 23.9424 14.3893C23.5093 14.6747 23.1965 14.7389 22.6955 14.5C20.3965 13.3982 17.7518 13.9071 15.9712 15.7256C14.2234 17.5131 13.7246 20.1967 14.8009 22.4666C15.0655 23.0307 14.9824 23.378 14.674 23.8692C9.37148 32.2694 7.96492 41.309 10.4652 50.9415C10.9596 52.8485 11.7209 54.6847 12.3749 56.5918C12.1824 56.6271 11.9484 56.6847 11.7099 56.7134C6.21711 57.3749 1.58398 61.5673 0.350234 66.9986C0.223359 67.5583 0.113984 68.1246 -0.00195312 68.6888V71.6754C0.0505469 71.8259 0.127109 71.9741 0.151172 72.1289C1.09398 78.3213 6.00273 82.976 12.2437 83.5866C18.1893 84.1684 23.9621 80.3743 25.9571 74.5448C26.2743 73.6179 26.4624 72.6466 26.714 71.6909C26.7643 71.6909 26.8234 71.6754 26.8693 71.6931C26.9962 71.7418 27.1209 71.8037 27.2434 71.8635C37.8068 77.0447 48.2565 76.8125 58.6055 71.2064C58.8987 71.0471 59.3952 71.0538 59.7124 71.1887C65.4349 73.5957 71.853 72.317 76.1996 67.8459C77.8949 66.1026 79.1068 64.0562 79.8024 61.7067C80.0255 60.9523 79.7302 60.2996 79.1024 60.0695C78.4155 59.8173 77.779 60.1448 77.4727 60.9124C77.4115 61.0651 77.3655 61.2244 77.3109 61.3814C75.2459 67.4189 69.0443 70.9874 62.9784 69.6312C56.7199 68.2308 52.5921 62.3903 53.2899 55.9192C53.9484 49.8065 59.0365 45.0544 65.1746 44.8222H65.1768ZM20.2237 16.418C22.1377 16.4247 23.7171 18.0242 23.7215 19.96C23.7259 21.9201 22.083 23.5617 20.1537 23.5241C18.2287 23.4864 16.704 21.8913 16.7171 19.9312C16.7302 17.9777 18.2965 16.4114 20.2237 16.418ZM13.2959 81.1354C7.30211 81.1088 2.4393 76.1311 2.46117 70.0471C2.48523 63.9876 7.42242 59.0474 13.4205 59.0762C19.4055 59.1072 24.2946 64.1092 24.2662 70.1732C24.2377 76.2284 19.3027 81.1597 13.2959 81.1354ZM50.9734 54.5741C50.969 54.5984 50.9405 54.6161 50.8684 54.4922C50.1662 54.7445 49.4596 54.9856 48.7618 55.2511C47.9984 55.5431 47.2502 55.8838 46.4802 56.1559C45.1634 56.6249 44.6909 57.251 44.6777 58.6713C44.6668 59.939 44.6755 61.2067 44.6755 62.5296H39.9068C39.9068 61.2155 39.9134 59.9501 39.9068 58.6868C39.898 57.2068 39.443 56.6227 38.0649 56.125C37.1418 55.7909 36.2405 55.3949 35.3502 54.979C34.2215 54.4524 33.4143 54.5542 32.5218 55.4458C31.5899 56.3749 30.6755 57.3218 29.8071 58.2045C28.6674 57.0519 27.578 55.948 26.4099 54.7666C27.2324 53.9458 28.1293 53.0653 29.013 52.1715C30.063 51.1096 30.1527 50.3264 29.5074 48.9659C29.1071 48.123 28.7549 47.2513 28.4443 46.3686C27.974 45.0301 27.3877 44.5655 25.9637 44.5545C24.8721 44.5434 23.7784 44.57 22.6846 44.5345C22.479 44.5279 22.1093 44.3111 22.1049 44.1828C22.0634 42.7271 22.0787 41.2669 22.0787 39.7161C23.3977 39.7161 24.6227 39.7205 25.8477 39.7161C27.414 39.7095 27.9784 39.2604 28.4924 37.7759C28.8096 36.8688 29.1968 35.9839 29.5971 35.1078C30.1177 33.9729 30.0215 33.1278 29.1509 32.2406C28.2321 31.3004 27.2849 30.3867 26.4143 29.5239C27.5715 28.3491 28.6609 27.2452 29.8574 26.0328C30.6646 26.8802 31.5396 27.8226 32.4409 28.7385C33.4296 29.7473 34.193 29.8314 35.4705 29.2274C36.3827 28.796 37.3212 28.4177 38.264 28.0638C39.4059 27.6346 39.8893 27.0151 39.9024 25.7806C39.9199 24.4577 39.9068 23.1347 39.9068 21.7475H44.6755C44.6755 23.0108 44.6712 24.2475 44.6777 25.4842C44.6843 27.0483 45.1502 27.6456 46.6049 28.1655C47.5018 28.4841 48.379 28.8735 49.243 29.2805C50.3609 29.8093 51.1965 29.7141 52.078 28.8359C53.0121 27.9045 53.9243 26.9532 54.784 26.0704C55.9149 27.2209 57.0043 28.3292 58.2118 29.5571C57.4024 30.3447 56.4727 31.2274 55.5671 32.1367C54.5193 33.1853 54.4449 33.9043 55.088 35.2605C55.4862 36.1056 55.8318 36.9794 56.1402 37.8622C56.6149 39.2316 57.2187 39.7028 58.6843 39.7161C59.8852 39.7272 61.0884 39.7316 62.2893 39.7426C62.3396 39.7426 62.3877 39.7847 62.5255 39.8466C62.5255 40.6276 62.5496 41.4506 62.508 42.2691C62.4993 42.4439 62.274 42.7094 62.1012 42.758C56.0593 44.4549 52.404 48.4393 50.9734 54.5741Z" fill="#3D83DF"/>
<path d="M83.9998 11.9292C82.8294 13.1172 81.9041 12.8716 81.4426 11.2478C79.8566 5.66829 74.6985 2.37192 69.0132 3.30553C63.7238 4.17276 59.8454 9.1151 60.0554 14.7189C60.2457 19.7697 64.2357 24.2983 69.1401 25.0306C74.5301 25.8359 79.5263 22.8249 81.2435 17.7343C81.296 17.5773 81.3419 17.418 81.3901 17.2609C81.7073 16.241 82.241 15.8494 83.0241 16.0618C83.7876 16.2698 84.0522 16.9423 83.7526 17.9578C82.8097 21.159 80.9832 23.7386 78.181 25.4886C73.5807 28.3624 68.7923 28.5438 64.1373 25.7363C59.5173 22.951 57.3363 18.6436 57.6273 13.2123C57.9751 6.67269 62.9997 1.44496 69.6629 0.721523C75.8032 0.0556118 81.6941 3.84312 83.6804 10.1062C83.7701 10.3872 83.8926 10.6571 83.9998 10.9336V11.9292Z" fill="#3D83DF"/>
<path d="M78.7283 14.1815C78.7283 13.1594 78.7086 12.1373 78.7348 11.1152C78.7567 10.3343 78.4505 9.81218 77.7592 9.45821C75.7642 8.4339 73.7801 7.38968 71.8005 6.33882C71.2186 6.03131 70.6783 6.0291 70.092 6.34325C68.1145 7.39853 66.1305 8.44275 64.1355 9.46263C63.4398 9.81661 63.1489 10.3254 63.1598 11.1108C63.1883 13.1263 63.1905 15.1439 63.1576 17.1615C63.1445 17.9801 63.442 18.5066 64.1683 18.8739C66.1655 19.8893 68.1255 20.9844 70.1445 21.9534C70.5886 22.168 71.3017 22.1769 71.7436 21.9645C73.8086 20.9668 75.8211 19.8539 77.8576 18.7942C78.4592 18.4823 78.737 18.0067 78.7305 17.3297C78.7217 16.281 78.7283 15.2302 78.7283 14.1815ZM69.718 18.9624C68.3573 18.2456 67.1061 17.5974 65.8636 16.9248C65.752 16.8651 65.6426 16.6748 65.6426 16.5421C65.6251 15.3364 65.6317 14.1307 65.6317 12.7833C66.9967 13.4935 68.2523 14.1373 69.4926 14.8098C69.6173 14.8784 69.707 15.1262 69.7092 15.2921C69.7267 16.4669 69.718 17.6438 69.718 18.9624ZM71.0939 12.6595C70.9823 12.7148 70.7767 12.6572 70.6476 12.5909C69.5101 12.0046 68.3792 11.4073 67.0908 10.7303C68.342 10.0754 69.4467 9.48033 70.5711 8.92725C70.7767 8.82769 71.1114 8.81663 71.3126 8.91619C72.437 9.46927 73.5395 10.0688 74.8105 10.7369C73.4936 11.4228 72.2992 12.0533 71.0939 12.6595ZM76.2476 16.4757C76.2433 16.666 76.0486 16.927 75.8714 17.0244C74.7011 17.6615 73.5111 18.2655 72.1876 18.9535C72.1876 17.604 72.1811 16.3607 72.1964 15.1151C72.1986 15.0067 72.3123 14.8541 72.4151 14.801C73.6576 14.1395 74.9067 13.4957 76.2651 12.79C76.2651 14.1196 76.2826 15.2988 76.2476 16.4757Z" fill="#3D83DF"/>
<path d="M66.808 56.1052C68.5601 56.1052 70.1964 56.0986 71.8326 56.1096C72.1564 56.1118 72.583 56.0654 72.7777 56.2468C73.1211 56.5676 73.4908 57.0233 73.5455 57.4592C73.6198 58.0498 73.1823 58.5498 72.5567 58.5587C70.1811 58.5963 67.8033 58.5985 65.4276 58.5631C64.7561 58.5543 64.3776 58.0344 64.3711 57.3972C64.3405 54.4968 64.3383 51.5943 64.3667 48.6939C64.3755 47.9152 64.9442 47.4262 65.6311 47.4506C66.3136 47.4727 66.7948 47.9837 66.8014 48.778C66.8189 50.8775 66.808 52.9792 66.8102 55.0787C66.8102 55.3774 66.8102 55.676 66.8102 56.1052H66.808Z" fill="#3D83DF"/>
<path d="M43.9884 53.1186C38.8412 53.9018 33.8931 51.0125 32.0468 46.1431C31.675 45.1653 31.8565 44.4529 32.5543 44.1565C33.3112 43.8357 33.9237 44.2051 34.3328 45.2316C35.7809 48.8643 39.1978 51.039 43.004 50.747C46.6134 50.4704 49.6737 47.8223 50.5815 44.1874C51.684 39.7827 49.0897 35.1633 44.7847 33.8647C40.4337 32.555 35.8115 34.8979 34.2847 39.1876C34.219 39.369 34.1709 39.557 34.1031 39.7362C33.81 40.5238 33.2062 40.8645 32.5084 40.6433C31.8368 40.4309 31.5393 39.765 31.7734 38.9641C32.4537 36.6323 33.7684 34.7386 35.6759 33.274C37.6315 31.774 39.854 31.0351 41.4575 31.0152C48.0659 30.9931 52.8675 35.5372 53.2897 41.4043C53.6987 47.0878 49.5884 52.2646 43.9884 53.1186Z" fill="#3D83DF"/>
<path d="M42.3548 35.982C38.9598 35.9643 36.2407 38.6789 36.2276 42.1035C36.2145 45.4973 38.8854 48.256 42.2126 48.2848C45.6098 48.3158 48.366 45.6057 48.3967 42.2053C48.4273 38.7895 45.7213 36.0019 42.3548 35.982ZM42.311 45.7981C40.281 45.7981 38.682 44.1765 38.6885 42.119C38.6951 40.0638 40.3029 38.4576 42.3395 38.4731C44.352 38.4864 45.962 40.1523 45.9357 42.1898C45.9117 44.1876 44.2951 45.7937 42.311 45.7981Z" fill="#3D83DF"/>
<path d="M21.1491 66.9786C21.1535 66.2663 20.8691 65.7773 20.2391 65.4521C18.2004 64.3946 16.1857 63.2885 14.1251 62.2796C13.7204 62.0827 13.0663 62.0606 12.6682 62.2553C10.5573 63.2863 8.49444 64.419 6.40975 65.503C5.83444 65.8017 5.57413 66.2552 5.58069 66.9012C5.59163 67.9498 5.58507 69.0007 5.58288 70.0493C5.58288 71.1002 5.60475 72.1488 5.57632 73.1975C5.55444 73.9497 5.85194 74.4475 6.51475 74.7859C8.53163 75.8235 10.5179 76.9253 12.561 77.9075C13.0051 78.1221 13.7204 78.1244 14.1623 77.912C16.2076 76.9319 18.196 75.8324 20.2107 74.7904C20.8669 74.4519 21.1579 73.943 21.1513 73.1953C21.1316 71.1223 21.136 69.0516 21.1491 66.9786ZM12.1323 74.912C10.7738 74.1975 9.52476 73.5493 8.28663 72.8811C8.17288 72.8192 8.05913 72.6311 8.05694 72.5028C8.03944 71.2993 8.04819 70.098 8.04819 68.7352C9.41975 69.4498 10.6688 70.0936 11.9069 70.7617C12.0185 70.8214 12.1213 71.0183 12.1213 71.1555C12.1388 72.359 12.1323 73.5625 12.1323 74.912ZM13.5016 68.6268C13.4229 68.6666 13.2829 68.6489 13.1976 68.6069C12.0163 67.9963 10.8394 67.3769 9.516 66.6844C10.8132 66.003 11.9573 65.388 13.1166 64.8017C13.2566 64.7309 13.4973 64.7464 13.6438 64.8216C14.7879 65.399 15.9188 66.0008 17.2269 66.6844C15.8991 67.3813 14.7026 68.0096 13.5016 68.6268ZM18.6576 72.609C18.6554 72.7241 18.4804 72.8745 18.3513 72.9431C17.1526 73.5802 15.9473 74.2041 14.5976 74.9098C14.5976 73.578 14.5844 72.3988 14.6107 71.2175C14.6151 71.0449 14.7616 70.7971 14.9126 70.7153C16.1048 70.067 17.3123 69.4498 18.6707 68.7419C18.6707 70.1179 18.6794 71.3635 18.6576 72.609Z" fill="#3D83DF"/>
</g>
<defs>
<clipPath id="clip0_748_4858">
<rect width="84" height="83" fill="white" transform="translate(0 0.646484)"/>
</clipPath>
</defs>
</svg>
