<svg width="93" height="79" viewBox="0 0 93 79" fill="none" xmlns="http://www.w3.org/2000/svg">
<path d="M92.9528 39.0018C92.7902 38.3443 92.356 37.9464 91.6621 37.9392C90.9246 37.9294 90.466 38.3273 90.3059 39.0309C90.2404 39.322 90.272 39.635 90.272 39.9358C90.2696 46.7482 90.2695 53.5607 90.2695 60.3731V61.3921H85.6285C85.6139 61.0621 85.5872 60.7661 85.5872 60.4701C85.5872 57.8985 85.5459 55.322 85.6042 52.7504C85.6284 51.695 85.3373 50.9551 84.3742 50.4529C83.707 50.1059 83.0932 49.6498 82.4746 49.218C80.7278 47.9952 79.4953 46.3504 79.3619 44.2203C79.1751 41.2968 79.2624 38.3564 79.2381 35.4233C79.2381 35.3772 79.3109 35.3311 79.3958 35.2268C80.2547 35.2268 81.162 35.2365 82.067 35.2244C83.5808 35.205 84.8764 34.6979 85.7061 33.3781C86.2495 32.512 86.7056 31.5828 87.1399 30.6512C87.4771 29.9258 87.2005 29.198 86.5576 28.8632C85.8711 28.5041 85.136 28.7298 84.709 29.477C84.3645 30.0787 84.0345 30.6949 83.7604 31.3329C83.3819 32.2039 82.739 32.5241 81.8195 32.512C79.9126 32.4853 78.0057 32.5047 76.0988 32.4999C75.8708 32.4999 75.6427 32.4514 75.4244 32.4271V29.7439C77.0692 29.7439 78.668 29.739 80.2644 29.7463C80.9752 29.7487 81.5745 29.5765 81.9214 28.8753C82.3921 27.9291 82.9016 27 83.3552 26.0441C83.7264 25.2653 83.4887 24.5423 82.8094 24.1784C82.1252 23.8121 81.4046 24.0329 80.9679 24.7898C80.6356 25.3648 80.3808 25.9834 80.0388 26.5536C79.9078 26.7719 79.6287 26.9029 79.2673 27.1916C79.0004 24.1784 79.67 21.8154 81.9942 20.1366C82.3557 19.877 82.8676 19.7217 83.3188 19.7047C84.6799 19.6489 86.0433 19.6829 87.4043 19.6829C88.8479 19.6829 89.4131 20.0201 89.9177 21.3763C90.1361 21.9586 90.2477 22.6088 90.255 23.2298C90.2865 26.3789 90.2647 29.5279 90.2744 32.677C90.2768 33.662 90.813 34.2564 91.6379 34.2515C92.4603 34.2491 92.9867 33.6547 92.9892 32.6624C92.9989 29.3945 93.0086 26.1241 92.9843 22.8538C92.9698 21.1895 92.5185 19.5398 91.2448 18.5111C89.845 17.3806 89.6485 15.9273 89.384 14.3989C89.2773 13.773 89.1633 13.1471 89.0565 12.5211C88.7702 10.8641 88.4888 9.20468 88.1952 7.49186C89.1924 7.30263 90.0827 7.15949 90.9634 6.96055C91.8562 6.76161 92.2735 6.11628 92.0964 5.30839C91.9362 4.57572 91.2909 4.18754 90.4175 4.3234C89.4956 4.46412 88.5786 4.62909 87.6397 4.78436C87.5281 4.53447 87.4456 4.34524 87.3558 4.15843C85.8322 0.934173 82.3387 -0.681596 78.9616 0.271853C75.5724 1.23015 73.4228 4.49808 73.9056 8.0814C74.1676 10.0271 74.5146 11.9656 74.9027 13.8919C75.354 16.1287 77.045 17.679 79.2891 18.0453C79.4759 18.0768 79.6579 18.1496 79.9539 18.237C77.1808 20.5684 76.2783 23.5671 76.4918 27.1019C75.3225 26.9369 74.3205 26.6603 73.3258 26.6821C70.6207 26.7428 67.9157 26.8859 65.2179 27.0824C62.9252 27.2474 61.0644 29.1664 60.8194 31.4567C60.7903 31.7478 60.7611 32.0365 60.7272 32.3786C57.5539 32.1505 54.4752 31.9443 51.4037 31.6823C51.1708 31.6629 50.8433 31.2796 50.7778 31.0103C50.2295 28.7492 49.754 26.4687 49.2057 24.2075C49.0723 23.6641 49.2615 23.3875 49.6376 23.0649C52.0709 20.9736 54.4873 18.8605 56.9085 16.7571C59.6743 14.3504 62.7627 14.3213 65.6012 16.6721C66.3872 17.3223 67.0301 17.3223 67.7628 16.6042C68.9758 15.4203 70.1767 14.2218 71.3582 13.0063C72.0958 12.247 72.0885 11.5313 71.3097 10.7986C68.0879 7.76116 64.2547 6.45108 59.8489 6.8344C55.9357 7.17405 52.8473 9.15373 50.1155 11.8103C49.492 12.4168 49.4556 13.1737 49.9772 13.756C50.4843 14.3213 51.2436 14.3674 51.9254 13.8215C52.6823 13.215 53.3883 12.5478 54.1477 11.9486C58.3254 8.65153 64.6914 8.66851 68.4251 11.9728C67.7871 12.5915 67.1466 13.2126 66.5061 13.8336C62.047 11.3299 58.6335 11.6623 54.7299 15.0394C48.9631 20.0323 43.2133 25.0445 37.449 30.0423C37.1797 30.2752 36.8691 30.6391 36.578 30.6367C35.4207 30.6294 34.2659 30.5008 32.9049 30.4038C33.2737 30.0592 33.4605 29.8749 33.6618 29.7002C37.5217 26.3473 41.3865 22.9921 45.2488 19.6392C45.8213 19.1419 46.4133 18.6688 46.9519 18.1399C47.5317 17.5722 47.5536 16.825 47.0708 16.2646C46.5977 15.7138 45.8359 15.6411 45.193 16.0947C44.9965 16.2355 44.817 16.4004 44.635 16.5605C41.2069 19.5373 37.7813 22.5166 34.3533 25.4958C32.9267 26.7355 31.4954 27.9704 30.0057 29.2586C29.8383 28.885 29.7146 28.6133 29.5982 28.3392C27.6597 23.7757 25.8353 19.1613 23.7586 14.6634C21.6891 10.1751 18.0524 7.51855 13.1105 7.13038C9.40833 6.83925 5.66974 7.02848 1.94813 6.96783C1.12812 6.9557 0.473085 7.15949 0 7.84365V63.6119C0.41486 64.2936 1.00197 64.5508 1.8147 64.5411C5.26459 64.5071 8.71689 64.529 12.1668 64.5266C13.2949 64.5266 13.9402 64.0122 13.9257 63.151C13.9136 62.2994 13.2634 61.8069 12.1255 61.8045C10.5826 61.7996 9.03956 61.8021 7.49415 61.8021H2.78028V32.905H3.82107C9.96633 32.905 16.1116 32.9075 22.2568 32.905C23.6033 32.9026 24.0521 32.4586 24.0691 31.1146C24.0788 30.2364 24.0934 29.3581 24.0594 28.4799C23.9745 26.2382 22.7736 24.7607 20.6386 24.1032C20.3038 24.0013 19.9448 23.6593 19.7919 23.3366C19.166 21.9974 18.6396 20.6097 18.0306 19.2608C16.5264 15.9249 13.9184 14.1975 10.2696 14.1078C8.09096 14.0568 5.91234 14.1005 3.7313 14.0956C3.41348 14.0956 3.09567 14.0641 2.76815 14.0471V9.70445H10.9586C16.313 9.70445 19.7216 11.968 21.8032 16.905C23.8726 21.8057 25.9469 26.704 28.0067 31.6095C28.3075 32.3228 28.6908 32.8614 29.5569 32.9196C32.8467 33.1379 36.1364 33.3878 39.4262 33.6183C47.4274 34.1787 55.4262 34.7222 63.425 35.2971C66.4018 35.5106 68.8715 37.8858 69.0632 40.717H68.0806C63.6021 40.717 59.1211 40.7146 54.6402 40.7194C53.3034 40.7194 52.8642 41.1707 52.857 42.5244C52.8521 43.342 52.8545 44.1596 52.857 44.9772C52.8618 48.7182 55.1739 51.0448 58.9076 51.0545C61.996 51.0618 65.0844 51.0545 68.1728 51.0545H69.1311V55.4312C65.0699 55.4312 61.0765 55.4288 57.0832 55.4336C55.6882 55.4336 55.2491 55.8751 55.2418 57.2823C55.237 58.7573 55.2418 60.2324 55.2418 61.7535H50.5668C48.8758 54.0265 42.5389 50.2927 37.2233 50.1108C34.2295 50.0089 31.4687 50.6906 28.9407 52.304C25.4423 54.5384 23.3704 57.7554 22.4849 61.8021C21.4029 61.8021 20.3742 61.7972 19.348 61.8045C18.1907 61.8093 17.5891 62.28 17.5866 63.1655C17.5818 64.0535 18.181 64.5217 19.3383 64.5266C20.3233 64.5314 21.3058 64.5266 22.2787 64.5266C22.5649 72.0717 28.1085 77.7268 35.0617 78.4619C38.3223 78.8064 41.3938 78.1077 44.1522 76.3003C48.3687 73.5394 50.5037 69.5558 50.7851 64.5872H55.186C55.3631 66.2612 55.6664 66.5329 57.3137 66.5329C62.0664 66.5329 66.8191 66.5353 71.5717 66.5305C72.9206 66.5305 73.3671 66.0865 73.3695 64.74C73.3768 62.2897 73.3743 59.8369 73.3719 57.3842C73.3695 56.0547 73.1924 55.7951 71.9235 55.2977V54.32C71.9235 50.1108 71.9211 45.904 71.9235 41.6947C71.926 39.4627 71.2442 37.4758 69.8177 35.7508C69.7109 35.6247 69.6309 35.4767 69.5144 35.3044H76.4821C76.4821 37.9489 76.4506 40.5205 76.4918 43.0897C76.5428 46.263 77.7801 48.905 80.2353 50.9332C80.8855 51.4694 81.6521 51.8648 82.3096 52.3937C82.5716 52.6048 82.8312 53.0002 82.8385 53.3156C82.8797 55.8582 82.87 58.4031 82.8482 60.9457C82.8457 61.2077 82.6614 61.4721 82.5546 61.7317C82.3775 62.1635 82.0573 62.5833 82.0403 63.02C81.9748 64.4999 81.9796 65.9871 82.0378 67.4694C82.0524 67.8794 82.3702 68.2724 82.4915 68.6921C82.6274 69.1749 82.8554 69.7184 82.7439 70.1599C82.6662 70.4607 82.0985 70.7373 81.703 70.8295C81.031 70.9896 80.3226 70.9896 79.6336 71.0721C78.0397 71.2613 76.8727 72.5108 76.8 74.1168C76.7733 74.7209 76.7854 75.3274 76.7927 75.9315C76.8121 77.6929 77.6539 78.5202 79.4371 78.5202C83.28 78.525 87.1254 78.5202 90.9707 78.5202C92.6398 78.5202 92.994 78.1684 92.994 76.5065V39.9043C92.994 39.6034 93.0231 39.2881 92.9528 39.0018ZM80.1164 2.79255C82.0597 2.43592 84.0515 3.48398 84.7914 5.29869C82.0864 5.77905 79.3959 6.25699 76.6253 6.74706C76.7248 4.76495 78.1974 3.14433 80.1164 2.79255ZM77.4768 12.8292C77.2682 11.7618 77.0984 10.687 76.8849 9.46912C79.7865 8.95722 82.5983 8.46229 85.4877 7.95282C86.0215 10.9806 86.5382 13.9088 87.0768 16.9536C85.9778 16.9536 84.9855 16.973 83.9957 16.9342C83.8332 16.9269 83.6245 16.6964 83.5299 16.5169C82.9404 15.3936 82.2465 15.0297 81.0334 15.248C78.9325 15.6241 77.8844 14.9205 77.4768 12.8292ZM19.7361 26.7501C20.5804 26.8034 21.1603 27.2935 21.2743 28.1402C21.3592 28.7831 21.2913 29.4454 21.2913 30.1611C19.8308 30.1611 18.4188 30.2121 17.0165 30.1417C16.1261 30.0981 15.4857 29.2611 15.5148 28.3974C15.5439 27.5216 16.2111 26.7937 17.1184 26.7477C17.9894 26.7016 18.8676 26.6943 19.7361 26.7501ZM2.89915 16.8735C5.58967 16.8711 8.28505 16.7837 10.9707 16.9075C12.9577 16.9997 14.4352 18.1278 15.3183 19.9061C15.9612 21.1992 16.4755 22.5602 17.0723 23.9504C15.5463 24.1614 14.3066 24.768 13.489 26.0538C12.6908 27.3105 12.618 28.6618 13.0766 30.1223H2.74631V16.9997C2.81181 16.9439 2.85548 16.8735 2.89915 16.8735ZM40.5665 30.9545C42.6941 29.1034 44.6423 27.41 46.7408 25.5856C47.1994 27.638 47.6191 29.5061 48.0606 31.4809C45.5618 31.3038 43.189 31.1389 40.5665 30.9545ZM68.0297 32.4635H63.6627C63.1436 30.4183 64.9849 29.3047 67.9593 29.8555C67.9811 30.0495 68.0224 30.2533 68.0272 30.4595C68.0345 31.0903 68.0297 31.7211 68.0297 32.4635ZM36.544 75.7981C30.1877 75.803 25.0468 70.6742 25.042 64.33C25.0396 57.9713 30.1537 52.8353 36.5052 52.8207C42.847 52.8062 47.9903 57.9349 48.0072 64.2912C48.0242 70.6354 42.8858 75.7933 36.544 75.7981ZM59.8853 48.2864C56.3869 48.5144 55.3849 47.3887 55.6251 43.4415H59.8853V48.2864ZM62.736 48.2767V43.507H69.1311V48.2767H62.736ZM70.6037 58.2042V63.7599H58.0245V58.2042H70.6037ZM72.5786 32.4635H70.8439V29.4527H72.5786V32.4635ZM84.8036 64.1966H90.1992V66.266H84.8036V64.1966ZM90.2137 75.7375H79.5147C79.5147 75.3663 79.5341 74.9878 79.5099 74.6118C79.4759 74.0586 79.6724 73.7699 80.2692 73.7457C80.8709 73.7214 81.4701 73.6365 82.0694 73.554C84.2965 73.2507 85.4902 71.9285 85.5872 69.6747C85.5945 69.5 85.609 69.3253 85.626 69.0754H90.2137V75.7375Z" fill="#3D83DF"/>
<path d="M36.4636 57.4288C32.7008 57.4482 29.6148 60.5584 29.6221 64.3285C29.6294 68.0841 32.7347 71.1992 36.4927 71.2186C40.292 71.238 43.4192 68.1108 43.4119 64.2994C43.4046 60.4759 40.3041 57.4118 36.4636 57.4288ZM36.5267 68.4941C34.268 68.4966 32.3635 66.6018 32.3466 64.3383C32.332 62.0214 34.2316 60.1387 36.5655 60.1557C38.8533 60.1702 40.6947 62.0359 40.6874 64.3334C40.6801 66.6115 38.7999 68.4893 36.5267 68.4941Z" fill="#3D83DF"/>
</svg>
