<svg width="89" height="77" viewBox="0 0 89 77" fill="none" xmlns="http://www.w3.org/2000/svg">
<path d="M88.1615 42.2502C87.6545 36.9682 85.8777 32.1449 82.9072 27.7525C82.7367 27.5013 82.573 27.2432 82.3933 26.9666C83.2367 26.167 84.0433 25.4341 84.8153 24.6644C86.311 23.1665 86.3755 21.0602 84.9766 19.4678C84.389 18.7971 83.7622 18.1611 83.1423 17.5227C81.4139 15.7344 79.3559 15.6861 77.5169 17.3914C76.6781 18.168 75.8508 18.9585 75.0027 19.7581C71.539 17.3499 67.7942 15.7368 63.7336 14.8265V11.5011C64.0332 11.4803 64.2867 11.4573 64.5379 11.4481C67.3609 11.3213 69.6309 9.00527 69.6839 6.19145C69.7392 3.30851 67.5753 0.782761 64.7061 0.722844C59.7077 0.616836 54.7022 0.626054 49.7038 0.720539C47.0305 0.771238 44.9979 2.93979 44.7306 5.67524C44.491 8.14338 46.2147 10.6 48.6875 11.2522C49.3143 11.4181 49.978 11.4457 50.667 11.5448V14.8403C46.5051 15.7598 42.6727 17.4421 39.1814 19.9125C38.1443 18.9423 37.1833 17.9929 36.167 17.1056C34.6438 15.7736 32.549 15.8566 31.1086 17.2808C30.4956 17.8869 29.9126 18.5229 29.3226 19.152C27.5113 21.0924 27.5781 23.1296 29.5093 24.9663C30.2928 25.7107 31.0833 26.4481 31.8 27.121C30.9058 28.7019 29.9863 30.1331 29.265 31.6586C28.5345 33.2096 27.9353 34.832 27.403 36.4635C27.1587 37.2171 26.8729 37.4752 26.0548 37.4706C18.8394 37.4338 11.624 37.4314 4.41084 37.4683C1.92427 37.4798 0 39.5009 0 41.946C0 44.3911 1.9404 46.3822 4.40854 46.4467C5.55849 46.4744 6.70844 46.4628 7.85839 46.4536C8.80785 46.4444 9.37015 45.9651 9.38398 45.1861C9.40011 44.3796 8.81477 43.8795 7.81922 43.8703C6.72688 43.861 5.63223 43.8887 4.5422 43.8587C3.41068 43.8288 2.6041 43.0222 2.59027 41.9713C2.57875 40.9182 3.37381 40.1116 4.49841 40.0448C4.66895 40.0355 4.84178 40.0355 5.01462 40.0355H26.4881C26.3498 41.3583 26.2208 42.5774 26.0848 43.868H25.11C21.5726 43.868 18.0374 43.868 14.5023 43.8703C13.4722 43.8726 12.9122 44.3289 12.903 45.147C12.8915 45.9697 13.4514 46.449 14.4677 46.4536C16.0486 46.4628 17.6295 46.4559 19.2104 46.4559H26.0894C26.1885 47.546 26.283 48.5876 26.3844 49.7145H25.375C21.2061 49.7145 17.0396 49.7053 12.8707 49.7191C10.9511 49.726 9.32176 50.8575 8.65345 52.5905C7.52193 55.5288 9.649 58.6791 12.8338 58.6998C18.0075 58.7321 23.1811 58.7067 28.3547 58.7182C28.6497 58.7205 29.0991 58.739 29.2097 58.9164C29.8043 59.8774 30.3159 60.8914 30.9012 61.9676C30.468 61.9676 30.1569 61.9676 29.8435 61.9699C26.5088 61.9699 23.1742 61.9423 19.8396 61.9814C17.0534 62.0137 15.0277 64.491 15.4863 67.2242C15.8666 69.4895 17.6664 70.9644 20.1438 70.9713C26.412 70.9852 32.678 70.969 38.944 70.9898C39.3749 70.9921 39.8704 71.1004 40.2276 71.3285C47.0098 75.6633 54.3773 77.1659 62.3141 75.9445C74.3966 74.0847 84.7831 64.3989 87.4494 52.4753C87.8158 50.8299 88.0324 49.1499 88.3182 47.4837V42.9991C88.2652 42.7503 88.1868 42.5037 88.1615 42.2502ZM27.4445 56.1211C22.6488 56.1211 17.8531 56.128 13.0574 56.1187C11.8636 56.1187 11.0709 55.4458 10.9672 54.395C10.8589 53.298 11.6447 52.3255 12.7762 52.3186C17.4544 52.291 22.1326 52.3071 26.8545 52.3071C27.2394 53.5976 27.6012 54.8006 27.9791 56.0611C27.7648 56.0865 27.6035 56.1211 27.4445 56.1211ZM79.515 19.0806C80.0127 18.6312 80.575 18.6243 81.0544 19.0944C81.748 19.7766 82.414 20.4887 83.0593 21.2169C83.534 21.7515 83.4925 22.33 82.9902 22.8254C82.2827 23.5283 81.5406 24.1989 80.794 24.9018C79.5795 23.6136 78.4434 22.4083 77.2796 21.1754C77.9271 20.5647 78.7084 19.8065 79.515 19.0806ZM50.3306 8.86239C48.5838 8.85547 47.3462 7.72626 47.3025 6.12232C47.2564 4.51377 48.5192 3.26472 50.296 3.25781C54.8889 3.23707 59.4841 3.23707 64.077 3.25551C65.8699 3.26472 67.1121 4.46307 67.0982 6.09006C67.0844 7.71935 65.8307 8.85778 64.024 8.86469C61.7564 8.87161 59.4887 8.86469 57.2211 8.86469C54.9534 8.86469 52.6259 8.87391 50.3306 8.86239ZM61.0304 11.4895V14.2573H53.3426V11.4895H61.0304ZM30.9565 22.7494C30.4611 22.2401 30.5348 21.6547 31.0165 21.1362C31.6225 20.4864 32.2309 19.8365 32.8485 19.1981C33.4062 18.6197 33.9962 18.6082 34.5838 19.152C35.4019 19.9102 36.2131 20.6822 36.9575 21.3828C35.7292 22.595 34.5516 23.7588 33.3094 24.9848C32.6066 24.3211 31.7493 23.5675 30.9565 22.7494ZM25.3658 68.388C23.6167 68.388 21.8652 68.3995 20.1138 68.3834C18.8463 68.3695 18.0098 67.6021 17.9983 66.4914C17.9867 65.3575 18.8601 64.5625 20.1668 64.5602C24.1859 64.551 28.2026 64.5533 32.2194 64.5671C32.4821 64.5671 32.8278 64.6247 32.9891 64.7952C34.0653 65.9314 35.1047 67.1067 36.2638 68.388H25.3658ZM57.2188 73.7759C41.5089 73.7921 28.6981 61.002 28.6682 45.2737C28.6405 29.5869 41.4559 16.7692 57.1888 16.7507C72.9148 16.7323 85.7187 29.5154 85.7302 45.2437C85.7394 60.9628 72.9517 73.7598 57.2188 73.7759Z" fill="#3D83DF"/>
<path d="M73.3044 43.3862C73.2813 42.5335 72.9449 41.667 72.1821 41.379C70.9975 40.9319 70.7072 39.9525 70.3454 38.9823C70.2186 38.6481 70.1956 38.2033 70.3062 37.8669C70.6795 36.7515 70.5182 35.7559 69.7278 34.9079C68.9465 34.0667 68.1238 33.2602 67.285 32.4766C66.4577 31.7 65.4713 31.5295 64.4043 31.8936C63.4641 32.2116 61.5583 31.4603 61.1319 30.5777C60.6687 29.6236 59.9267 29.0152 58.862 28.9715C57.5714 28.9208 56.2625 28.8585 54.9927 29.0268C54.3267 29.1166 53.4325 29.5384 53.156 30.0776C52.6237 31.11 51.8309 31.594 50.8354 31.8844C50.4344 32.0019 49.9481 32.0457 49.554 31.9328C48.4986 31.6286 47.5422 31.73 46.7356 32.472C45.8507 33.2878 44.998 34.1474 44.1822 35.0346C43.4194 35.8666 43.2696 36.8552 43.6591 37.9245C43.9794 38.8025 43.1775 40.7153 42.334 41.1278C41.2901 41.6394 40.707 42.4667 40.6955 43.6489C40.684 44.7389 40.6909 45.8313 40.7001 46.9236C40.7116 48.1381 41.2993 48.9885 42.3824 49.507C43.2235 49.908 44.014 51.8092 43.6983 52.7033C43.3203 53.7749 43.4978 54.7613 44.2629 55.5863C45.0625 56.4482 45.8507 57.3562 46.7886 58.0452C47.3832 58.4808 48.3649 58.9094 48.9641 58.7112C50.1509 58.3148 51.075 58.6905 52.0475 59.126C52.3494 59.262 52.6628 59.5431 52.8057 59.8381C53.345 60.965 54.2138 61.5619 55.4444 61.5965C56.5068 61.6264 57.5714 61.6264 58.6338 61.5849C59.8506 61.5388 60.754 60.9835 61.2725 59.8335C61.3877 59.5731 61.6205 59.285 61.8717 59.1836C62.8672 58.778 63.8305 58.036 65.0012 58.6997C65.1141 58.7642 65.2847 58.7296 65.4275 58.7412C65.4575 58.8011 65.4875 58.8587 65.5174 58.9186C66.1396 58.6052 66.8402 58.3886 67.3633 57.9553C68.2206 57.2432 68.9788 56.4067 69.7462 55.5886C70.5643 54.7175 70.7671 53.6989 70.3431 52.5605C70.0412 51.747 70.8524 49.772 71.6359 49.4102C72.666 48.9309 73.2721 48.145 73.309 47.0066C73.3481 45.8013 73.3343 44.5915 73.3044 43.3862ZM70.6772 47.0135C69.2853 47.0734 68.7714 48.0275 68.458 49.2327C68.3082 49.8089 68.057 50.3804 67.7413 50.8851C67.1214 51.8783 66.9047 52.7932 68.0362 53.6113C67.1283 54.464 66.2963 55.2452 65.3722 56.1117C64.4182 55.16 63.3604 55.5863 62.2634 56.1785C61.6643 56.5035 60.996 56.7132 60.3438 56.9321C59.6017 57.1833 59.0878 57.6396 58.9519 58.4208C58.8712 58.8794 58.6638 59.0338 58.2029 59.02C57.2603 58.9877 56.3155 59.0108 55.2577 59.0108C55.2255 57.5198 54.2138 57.022 52.997 56.6994C52.5038 56.568 52.013 56.3583 51.5751 56.0979C50.5611 55.4941 49.5886 55.3535 48.6668 56.2108C47.8441 55.3351 47.0629 54.5032 46.2033 53.586C47.0606 52.6757 46.7287 51.6133 46.0857 50.521C45.8115 50.0578 45.6272 49.5277 45.482 49.0069C45.1732 47.9053 44.5809 47.1541 43.3019 47.1126V43.5337C44.7192 43.4484 45.2607 42.4805 45.5626 41.2476C45.6779 40.7798 45.8783 40.3166 46.1272 39.9018C46.7448 38.867 46.89 37.8692 46.0281 36.8736C46.8946 36.0601 47.7266 35.2789 48.6368 34.4239C49.5909 35.3181 50.651 34.954 51.7502 34.3433C52.3448 34.0137 53.02 33.8202 53.6676 33.592C54.4004 33.3339 54.9305 32.8845 55.0618 32.0987C55.1402 31.624 55.3706 31.4834 55.8177 31.511C56.2763 31.541 56.7395 31.5387 57.1981 31.5133C58.0646 31.4626 58.8758 31.3635 59.0809 32.5988C59.1408 32.9537 59.7239 33.3016 60.1387 33.5021C61.0651 33.9492 62.0491 34.2741 62.9871 34.7005C63.8881 35.113 64.6555 34.848 65.3745 34.3248C66.1926 35.1844 66.9785 36.0141 67.8473 36.9266C66.7642 37.8047 67.2504 38.8209 67.868 39.8787C68.1676 40.3926 68.3773 40.9757 68.5455 41.5495C68.8567 42.6188 69.4305 43.3493 70.6772 43.3931V47.0135Z" fill="#3D83DF"/>
<path d="M72.7089 64.8091C70.5818 66.5075 68.2473 67.8557 65.6617 68.7129C64.2513 69.1831 62.8041 69.5817 61.343 69.856C59.9649 70.1141 58.5476 70.1648 57.1488 70.3077C42.817 70.1533 31.4903 58.1398 32.2877 43.8173C32.5758 38.6598 34.3456 34.0162 37.5167 29.9234C38.1573 29.0983 38.9478 28.9416 39.5746 29.4901C40.1622 30.0017 40.1784 30.7023 39.5769 31.4789C37.5927 34.0346 36.21 36.8738 35.4403 40.0171C32.2186 53.1943 41.7339 66.4315 55.2084 67.5307C61.0527 68.0055 66.2931 66.4776 70.9367 62.9079C71.4483 62.5161 71.9714 62.2626 72.6029 62.5461C73.5085 62.954 73.5754 64.12 72.7089 64.8091Z" fill="#3D83DF"/>
<path d="M77.7041 59.4967C77.5566 59.7087 77.4183 59.9323 77.2432 60.119C76.7454 60.6444 76.1624 60.7642 75.5379 60.3609C74.9617 59.9876 74.8258 59.2571 75.1876 58.6049C75.3005 58.4044 75.4434 58.2223 75.5747 58.0334C85.0578 44.3791 76.8169 25.4637 60.3465 23.1292C54.5483 22.3065 49.2226 23.5993 44.3947 26.9201C44.2518 27.0192 44.1158 27.1275 43.9706 27.2174C43.277 27.6553 42.5487 27.5723 42.1201 27.0146C41.6684 26.4247 41.7537 25.5651 42.4704 25.141C44.2909 24.0602 46.1069 22.9379 48.0335 22.0737C50.9233 20.7786 54.0275 20.3177 57.9959 20.29C69.5576 20.3269 80.0824 29.3399 81.8822 41.5561C82.8386 48.0502 81.4374 54.0627 77.7041 59.4967Z" fill="#3D83DF"/>
<path d="M57.0846 37.2286C52.6576 37.2494 49.0948 40.826 49.0879 45.2506C49.081 49.6592 52.6576 53.2703 57.0661 53.3118C61.4724 53.351 65.1596 49.6891 65.1665 45.2691C65.1757 40.8421 61.5208 37.2056 57.0846 37.2286ZM57.0892 50.7239C54.1117 50.7031 51.6874 48.2649 51.6759 45.276C51.662 42.2778 54.0541 39.8535 57.0592 39.8166C60.0689 39.7774 62.5716 42.2363 62.5808 45.246C62.59 48.2373 60.0781 50.7446 57.0892 50.7239Z" fill="#3D83DF"/>
</svg>
