<svg width="16" height="11" viewBox="0 0 16 11" fill="none" xmlns="http://www.w3.org/2000/svg">
<path d="M8.0013 0.916016C4.66797 0.916016 1.8213 2.98935 0.667969 5.91602C1.8213 8.84268 4.66797 10.916 8.0013 10.916C11.3346 10.916 14.1813 8.84268 15.3346 5.91602C14.1813 2.98935 11.3346 0.916016 8.0013 0.916016ZM8.0013 9.24935C6.1613 9.24935 4.66797 7.75602 4.66797 5.91602C4.66797 4.07602 6.1613 2.58268 8.0013 2.58268C9.8413 2.58268 11.3346 4.07602 11.3346 5.91602C11.3346 7.75602 9.8413 9.24935 8.0013 9.24935ZM8.0013 3.91602C6.89464 3.91602 6.0013 4.80935 6.0013 5.91602C6.0013 7.02268 6.89464 7.91602 8.0013 7.91602C9.10797 7.91602 10.0013 7.02268 10.0013 5.91602C10.0013 4.80935 9.10797 3.91602 8.0013 3.91602Z" fill="#98A1AB"/>
</svg>
