<svg width="15" height="15" viewBox="0 0 15 15" fill="none" xmlns="http://www.w3.org/2000/svg">
<path d="M7.5 11.375C8.88071 11.375 10 10.2557 10 8.875C10 7.49429 8.88071 6.375 7.5 6.375C6.11929 6.375 5 7.49429 5 8.875C5 10.2557 6.11929 11.375 7.5 11.375Z" stroke="#98A1AB" stroke-width="1.5" stroke-miterlimit="10" stroke-linecap="round" stroke-linejoin="round"/>
<path d="M7.65625 8.09375V8.675C7.65625 8.89375 7.54375 9.1 7.35 9.2125L6.875 9.5" stroke="#98A1AB" stroke-width="1.5" stroke-miterlimit="10" stroke-linecap="round" stroke-linejoin="round"/>
<path d="M4.99953 13.75H9.99953C12.512 13.75 12.962 12.7438 13.0933 11.5188L13.562 6.51875C13.7308 4.99375 13.2933 3.75 10.6245 3.75H4.37453C1.70578 3.75 1.26828 4.99375 1.43703 6.51875L1.90578 11.5188C2.03703 12.7438 2.48703 13.75 4.99953 13.75Z" stroke="#98A1AB" stroke-width="1.5" stroke-miterlimit="10" stroke-linecap="round" stroke-linejoin="round"/>
<path d="M5 3.75V3.25C5 2.14375 5 1.25 7 1.25H8C10 1.25 10 2.14375 10 3.25V3.75" stroke="#98A1AB" stroke-width="1.5" stroke-miterlimit="10" stroke-linecap="round" stroke-linejoin="round"/>
<path d="M13.5309 6.875C12.4496 7.6625 11.2496 8.2125 10.0059 8.525" stroke="#98A1AB" stroke-width="1.5" stroke-miterlimit="10" stroke-linecap="round" stroke-linejoin="round"/>
<path d="M1.63745 7.0437C2.6812 7.7562 3.8187 8.26245 4.99995 8.54995" stroke="#98A1AB" stroke-width="1.5" stroke-miterlimit="10" stroke-linecap="round" stroke-linejoin="round"/>
</svg>
