<svg width="14" height="14" viewBox="0 0 14 14" fill="none" xmlns="http://www.w3.org/2000/svg">
<path d="M13.3333 6.66667C13.3333 10.3487 10.3487 13.3333 6.66667 13.3333C2.98467 13.3333 0 10.3487 0 6.66667C0 2.98467 2.98467 0 6.66667 0C10.3487 0 13.3333 2.98467 13.3333 6.66667ZM2.66667 5.33333V8C2.66667 8.35362 2.80714 8.69276 3.05719 8.94281C3.30724 9.19286 3.64638 9.33333 4 9.33333H9.33333C9.68696 9.33333 10.0261 9.19286 10.2761 8.94281C10.5262 8.69276 10.6667 8.35362 10.6667 8V5.33333C10.6667 4.97971 10.5262 4.64057 10.2761 4.39052C10.0261 4.14048 9.68696 4 9.33333 4H4C3.64638 4 3.30724 4.14048 3.05719 4.39052C2.80714 4.64057 2.66667 4.97971 2.66667 5.33333ZM5.99867 7.96533C5.96612 7.98631 5.92852 7.99813 5.88982 7.99953C5.85112 8.00094 5.81276 7.99189 5.77878 7.97333C5.7448 7.95476 5.71645 7.92738 5.69672 7.89406C5.67699 7.86075 5.6666 7.82272 5.66667 7.784V5.54933C5.66667 5.37867 5.854 5.276 5.99867 5.368L7.75467 6.48333C7.888 6.57 7.888 6.76333 7.75467 6.848L5.99867 7.96533Z" fill="#98A1AB"/>
</svg>
