<svg width="24" height="24" viewBox="0 0 24 24" fill="none" xmlns="http://www.w3.org/2000/svg">
<path d="M11.8 22.6C13.936 22.6 16.0241 21.9666 17.8002 20.7799C19.5762 19.5931 20.9605 17.9064 21.7779 15.933C22.5953 13.9596 22.8092 11.7881 22.3925 9.69306C21.9758 7.59807 20.9472 5.67369 19.4368 4.16328C17.9263 2.65287 16.002 1.62425 13.907 1.20753C11.812 0.790808 9.64046 1.00467 7.66702 1.82209C5.69358 2.63952 4.00685 4.02382 2.82013 5.79987C1.63341 7.57593 1 9.66396 1 11.8C1 14.6643 2.13785 17.4114 4.16325 19.4368C6.18864 21.4622 8.93566 22.6 11.8 22.6V22.6Z" stroke="#707070" stroke-width="1.5" stroke-linecap="round" stroke-linejoin="round"/>
<path d="M11.799 18.3333C12.064 18.3331 12.323 18.2543 12.5432 18.107C12.7634 17.9596 12.935 17.7503 13.0363 17.5054C13.1376 17.2605 13.164 16.9911 13.1121 16.7312C13.0603 16.4714 12.9326 16.2328 12.7452 16.0455C12.5577 15.8581 12.319 15.7306 12.0591 15.679C11.7992 15.6274 11.5298 15.654 11.285 15.7554C11.0402 15.8569 10.831 16.0286 10.6838 16.2489C10.5366 16.4693 10.458 16.7283 10.458 16.9933C10.458 17.1694 10.4927 17.3437 10.5601 17.5063C10.6275 17.669 10.7263 17.8168 10.8508 17.9412C10.9754 18.0656 11.1232 18.1643 11.2859 18.2316C11.4486 18.2989 11.623 18.3334 11.799 18.3333Z" fill="#707070"/>
<path d="M9.1416 7.74032C9.37928 7.14235 9.81878 6.64641 10.3839 6.33859C10.9489 6.03076 11.6039 5.93048 12.2352 6.05508C12.8665 6.17968 13.4343 6.52128 13.8401 7.02072C14.2458 7.52015 14.4639 8.1459 14.4566 8.78933C14.4566 11.3733 11.7016 11.6893 11.7016 12.6653V13.4333" stroke="#707070" stroke-width="1.5" stroke-linecap="round" stroke-linejoin="round"/>
</svg>
