<svg width="24" height="24" viewBox="0 0 24 24" fill="none" xmlns="http://www.w3.org/2000/svg">
<path d="M15.39 5.1475L16.7999 7.96749C16.9899 8.35749 17.4999 8.72749 17.9299 8.80749L20.48 9.22749C22.11 9.49749 22.49 10.6775 21.32 11.8575L19.3299 13.8475C18.9999 14.1775 18.81 14.8275 18.92 15.2975L19.4899 17.7575C19.9399 19.6975 18.9 20.4575 17.19 19.4375L14.7999 18.0175C14.3699 17.7575 13.65 17.7575 13.22 18.0175L10.8299 19.4375C9.11994 20.4475 8.07995 19.6975 8.52995 17.7575L9.09996 15.2975C9.20996 14.8375 9.01995 14.1875 8.68995 13.8475L6.69996 11.8575C5.52996 10.6875 5.90996 9.50749 7.53996 9.22749L10.0899 8.80749C10.5199 8.73749 11.03 8.35749 11.22 7.96749L12.63 5.1475C13.38 3.6175 14.62 3.6175 15.39 5.1475Z" stroke="#707070" stroke-width="1.5" stroke-linecap="round" stroke-linejoin="round"/>
<path d="M8 4.9375H2" stroke="#707070" stroke-width="1.5" stroke-linecap="round" stroke-linejoin="round"/>
<path d="M5 18.9375H2" stroke="#707070" stroke-width="1.5" stroke-linecap="round" stroke-linejoin="round"/>
<path d="M3 11.9375H2" stroke="#707070" stroke-width="1.5" stroke-linecap="round" stroke-linejoin="round"/>
</svg>
