<svg width="388" height="377" viewBox="0 0 388 377" fill="none" xmlns="http://www.w3.org/2000/svg">
<g clip-path="url(#clip0_601_9863)">
<path d="M139.302 65.8207C138.797 66.719 138.246 67.6007 137.666 68.4445C137.508 68.674 137.192 68.7335 136.963 68.5749C136.731 68.4164 136.675 68.1027 136.832 67.8715C137.969 66.2203 138.973 64.4271 139.79 62.6008C139.905 62.3466 140.203 62.231 140.459 62.3449C140.713 62.4588 140.829 62.7577 140.715 63.0136C140.29 63.9631 139.816 64.9076 139.302 65.8207ZM133.761 73.1174C133.737 73.1571 133.709 73.195 133.676 73.2281C132.206 74.691 130.587 76.0252 128.868 77.1943C128.637 77.3511 128.322 77.2917 128.165 77.0605C128.008 76.8293 128.069 76.5156 128.298 76.3571C129.965 75.2244 131.535 73.9298 132.961 72.5114C133.159 72.3149 133.48 72.3149 133.676 72.5131C133.84 72.6765 133.868 72.9259 133.759 73.1174H133.761ZM142.669 57.2476C142.562 57.4392 142.336 57.5448 142.111 57.492C141.838 57.4276 141.671 57.1535 141.736 56.8827C142.203 54.926 142.491 52.9148 142.59 50.902C142.603 50.6229 142.841 50.4083 143.12 50.4215C143.4 50.4347 143.614 50.6725 143.601 50.9515C143.5 53.0271 143.205 55.101 142.721 57.1188C142.709 57.1651 142.692 57.2096 142.669 57.2493V57.2476ZM123.651 79.9898C123.599 80.0822 123.517 80.1599 123.413 80.2044C121.511 81.035 119.52 81.6955 117.498 82.1661C117.225 82.2288 116.954 82.0604 116.89 81.7879C116.825 81.5155 116.996 81.243 117.268 81.1803C119.231 80.7246 121.162 80.0839 123.008 79.2764C123.264 79.1642 123.563 79.2814 123.675 79.5373C123.742 79.6893 123.728 79.8544 123.652 79.9881L123.651 79.9898ZM143.269 45.0435C143.195 45.1772 143.059 45.2747 142.896 45.2978C142.618 45.3358 142.364 45.1426 142.326 44.8652C142.053 42.8705 141.594 40.8907 140.959 38.9786C140.872 38.7144 141.015 38.4271 141.281 38.3396C141.547 38.2521 141.833 38.3957 141.921 38.6616C142.573 40.6331 143.048 42.674 143.329 44.7298C143.343 44.8437 143.32 44.9527 143.269 45.0451V45.0435ZM111.742 82.7572C111.659 82.9042 111.504 83.0065 111.322 83.0148C109.245 83.1073 107.15 83.0065 105.098 82.7159C104.82 82.6763 104.629 82.4204 104.668 82.1446C104.706 81.8672 104.964 81.6757 105.24 81.7153C107.231 81.9977 109.263 82.0951 111.277 82.0059C111.557 81.9943 111.793 82.209 111.806 82.4881C111.811 82.5855 111.786 82.6779 111.742 82.7572ZM139.424 33.4437C139.38 33.523 139.314 33.5907 139.228 33.6386C138.983 33.774 138.674 33.6848 138.54 33.4404C137.567 31.6753 136.424 29.9927 135.145 28.4406C134.968 28.2259 134.998 27.9072 135.215 27.7289C135.431 27.5505 135.75 27.5819 135.927 27.7982C137.245 29.3983 138.423 31.132 139.428 32.9533C139.515 33.1118 139.509 33.2984 139.426 33.4454L139.424 33.4437ZM99.6392 81.0416C99.5218 81.2496 99.2707 81.352 99.0361 81.2728C97.0782 80.609 95.1633 79.757 93.3442 78.7382C93.0997 78.6011 93.0138 78.294 93.1493 78.0496C93.2864 77.8052 93.5937 77.7194 93.8382 77.8548C95.6028 78.8422 97.4615 79.6694 99.3599 80.3134C99.6243 80.4026 99.7664 80.6899 99.6771 80.9557C99.6672 80.9855 99.654 81.0152 99.6392 81.0416ZM131.649 24.0136C131.634 24.0401 131.616 24.0665 131.596 24.0913C131.416 24.3059 131.097 24.334 130.882 24.1557C129.343 22.871 127.669 21.7185 125.904 20.7277C125.661 20.5907 125.531 20.2588 125.668 20.0161C125.805 19.7717 126.07 19.6611 126.312 19.7965L126.357 19.8212C128.217 20.8664 129.944 22.0553 131.532 23.3796C131.722 23.5381 131.766 23.8072 131.649 24.0153V24.0136ZM88.9725 75.0708C88.9576 75.0972 88.9394 75.1236 88.9196 75.1468C88.7412 75.3614 88.4223 75.3911 88.2075 75.2112C86.6098 73.8836 85.1294 72.3991 83.8077 70.7991C83.6292 70.5845 83.6606 70.2658 83.8754 70.0874C84.0902 69.9091 84.4107 69.9405 84.5875 70.1551C85.8696 71.7056 87.3054 73.1455 88.8552 74.4334C89.0452 74.592 89.0898 74.8611 88.9725 75.0692V75.0708ZM120.896 17.9983C120.779 18.2063 120.528 18.3087 120.293 18.2294C118.383 17.5855 116.406 17.1165 114.412 16.8375C114.134 16.7978 113.942 16.5436 113.98 16.2662C114.02 15.9888 114.274 15.7972 114.552 15.8352C116.607 16.1242 118.648 16.6063 120.617 17.2701C120.882 17.3593 121.025 17.6466 120.934 17.9108C120.925 17.9421 120.911 17.9702 120.896 17.9983ZM81.1807 65.6539C81.1361 65.7332 81.07 65.8009 80.984 65.8488C80.7395 65.9842 80.4306 65.895 80.2967 65.6506C79.2922 63.836 78.4512 61.9172 77.7953 59.9457C77.7077 59.6815 77.8515 59.3942 78.1158 59.3067C78.3802 59.2192 78.6676 59.3612 78.7552 59.627C79.3913 61.5391 80.2075 63.4017 81.1823 65.1619C81.2699 65.3204 81.2633 65.507 81.1807 65.6556V65.6539ZM108.792 16.2975C108.71 16.4445 108.556 16.5469 108.374 16.5551C106.364 16.6476 104.35 16.9266 102.385 17.3873C102.113 17.4517 101.84 17.2817 101.777 17.0109C101.714 16.7384 101.883 16.466 102.154 16.4032C104.178 15.9293 106.255 15.6403 108.326 15.5462C108.606 15.533 108.842 15.7493 108.855 16.0284C108.86 16.1258 108.835 16.2199 108.791 16.2992L108.792 16.2975ZM77.3211 54.0575C77.2467 54.1912 77.1113 54.2886 76.9493 54.3118C76.6718 54.3497 76.4173 54.1565 76.3793 53.8808C76.0952 51.8217 75.9993 49.7296 76.0985 47.659C76.1117 47.38 76.3496 47.1637 76.6288 47.1769C76.908 47.1901 77.1245 47.4279 77.1113 47.7069C77.0171 49.7148 77.108 51.7458 77.3839 53.7421C77.3987 53.856 77.3756 53.9667 77.3244 54.0591L77.3211 54.0575ZM77.901 41.855C77.7936 42.0465 77.5673 42.1522 77.3426 42.0994C77.07 42.035 76.9031 41.7625 76.9675 41.4901C77.4467 39.4756 78.1175 37.4892 78.9634 35.5903C79.0757 35.3344 79.3764 35.2204 79.6309 35.3344C79.887 35.4483 80.001 35.7472 79.887 36.0015C79.0675 37.8442 78.4149 39.7695 77.9506 41.7246C77.939 41.7708 77.9225 41.8154 77.8994 41.855H77.901Z" fill="#B5C2E6"/>
<path d="M351.063 122.117H328.889V118.562L339.975 112.77L351.061 118.562V122.117H351.063ZM329.09 121.916H350.863V118.683L339.977 112.996L329.09 118.683V121.916Z" fill="#B5C2E6"/>
<path d="M349.786 120.841H330.164V119.333L339.975 114.208L349.786 119.333V120.841ZM330.366 120.639H349.586V119.454L339.977 114.434L330.367 119.454V120.639H330.366Z" fill="#B5C2E6"/>
<path d="M334.517 124.118H330.287V121.955H334.517V124.118ZM330.489 123.917H334.317V122.155H330.489V123.917Z" fill="#B5C2E6"/>
<path d="M333.666 133.23H331.135V123.918H333.666V133.23ZM331.335 133.028H333.464V124.118H331.335V133.028Z" fill="#B5C2E6"/>
<path d="M350.263 135.325H329.453V133.028H350.263V135.325ZM329.655 135.124H350.063V133.228H329.655V135.124Z" fill="#B5C2E6"/>
<path d="M349.575 124.118H345.346V121.955H349.575V124.118ZM345.547 123.917H349.375V122.155H345.547V123.917Z" fill="#B5C2E6"/>
<path d="M348.726 133.23H346.195V123.918H348.726V133.23ZM346.397 133.028H348.527V124.118H346.397V133.028Z" fill="#B5C2E6"/>
<path d="M340.254 131.874H339.412V130.842C338.843 130.816 338.257 130.637 337.895 130.378L337.834 130.334L338.148 129.458L338.255 129.529C338.657 129.797 339.172 129.951 339.666 129.951C340.321 129.951 340.778 129.581 340.778 129.052C340.778 128.572 340.463 128.246 339.689 127.933C338.784 127.578 337.946 127.107 337.946 126.078C337.946 125.208 338.548 124.539 339.485 124.355V123.309H340.317V124.302C340.803 124.33 341.221 124.45 341.593 124.667L341.665 124.71L341.338 125.571L341.236 125.514C341.061 125.415 340.653 125.18 340.002 125.18C339.278 125.18 339.022 125.598 339.022 125.956C339.022 126.399 339.291 126.64 340.223 127.025C341.373 127.493 341.864 128.078 341.864 128.981C341.864 129.734 341.365 130.576 340.254 130.796V131.871V131.874ZM339.613 131.673H340.055V130.629L340.139 130.616C341.193 130.443 341.665 129.671 341.665 128.985C341.665 128.166 341.226 127.654 340.149 127.214C339.25 126.843 338.824 126.561 338.824 125.961C338.824 125.476 339.189 124.985 340.003 124.985C340.601 124.985 341.01 125.167 341.234 125.287L341.418 124.805C341.071 124.619 340.676 124.52 340.215 124.505L340.117 124.501V123.517H339.686V124.531L339.602 124.544C338.718 124.688 338.148 125.292 338.148 126.085C338.148 126.83 338.601 127.297 339.765 127.753C340.618 128.098 340.98 128.488 340.98 129.057C340.98 129.704 340.44 130.155 339.666 130.155C339.176 130.155 338.667 130.015 338.252 129.769L338.075 130.261C338.429 130.485 338.995 130.639 339.514 130.647H339.613V131.676V131.673Z" fill="#B5C2E6"/>
<path d="M198.177 7.23391L198.125 7.11667C197.432 5.5282 196.012 4.33107 194.327 3.91497L194.203 3.8836L195.201 -0.00170898L195.323 0.0280129C198.19 0.746291 200.61 2.78884 201.798 5.49188L201.85 5.60746L198.178 7.23225L198.177 7.23391ZM194.512 3.70196C196.178 4.15274 197.582 5.33666 198.306 6.90036L201.514 5.48032C200.358 2.94405 198.081 1.02204 195.383 0.307068L194.51 3.70196H194.512Z" fill="#B5C2E6"/>
<path d="M190.864 20.9356C185.553 20.9356 181.23 16.6161 181.23 11.3074C181.23 5.99877 185.553 1.6792 190.864 1.6792C191.628 1.6792 192.418 1.77992 193.211 1.97807L193.335 2.00944L192.337 5.89309L192.214 5.86337C191.757 5.75109 191.302 5.6933 190.864 5.6933C187.767 5.6933 185.247 8.2114 185.247 11.3074C185.247 14.4034 187.767 16.9215 190.864 16.9215C191.732 16.9215 192.573 16.7234 193.359 16.3321L193.472 16.2759L195.311 19.8409L195.197 19.8987C193.834 20.5872 192.376 20.9356 190.864 20.9356ZM190.864 1.93183C185.691 1.93183 181.483 6.13748 181.483 11.3074C181.483 16.4774 185.691 20.683 190.864 20.683C192.294 20.683 193.675 20.3627 194.969 19.7303L193.359 16.6128C192.57 16.9859 191.73 17.1742 190.863 17.1742C187.626 17.1742 184.993 14.5421 184.993 11.3074C184.993 8.0727 187.626 5.44066 190.863 5.44066C191.283 5.44066 191.715 5.4902 192.152 5.58927L193.024 2.19438C192.292 2.021 191.567 1.93349 190.863 1.93349L190.864 1.93183Z" fill="#B5C2E6"/>
<path d="M195.946 19.4792L193.75 16.119L193.859 16.0497C195.501 15.011 196.483 13.2376 196.483 11.3057C196.483 10.5313 196.326 9.7767 196.014 9.06338L195.964 8.94779L199.635 7.323L199.686 7.43858C200.227 8.66709 200.499 9.96824 200.499 11.3041C200.499 14.5949 198.837 17.6266 196.052 19.4099L195.946 19.4776V19.4792ZM194.102 16.195L196.02 19.1308C198.669 17.3855 200.246 14.4694 200.246 11.3074C200.246 10.0492 199.997 8.8223 199.505 7.65985L196.296 9.07989C196.588 9.78991 196.737 10.5396 196.737 11.3074C196.737 13.2855 195.756 15.1035 194.104 16.1966L194.102 16.195Z" fill="#B5C2E6"/>
<path d="M62.0488 171.242H64.8328V180.101H62.0488V171.242ZM64.5651 171.51H62.3165V179.834H64.5651V171.51Z" fill="#B5C2E6"/>
<path d="M66.3379 173.407H69.1219V180.101H66.3379V173.407ZM68.8542 173.674H66.6055V179.833H68.8542V173.674Z" fill="#B5C2E6"/>
<path d="M57.7617 168.064H60.5457V180.101H57.7617V168.064ZM60.278 168.331H58.0294V179.834H60.278V168.331Z" fill="#B5C2E6"/>
<path d="M53.4766 165.479H56.2605V180.101H53.4766V165.479ZM55.9929 165.747H53.7442V179.833H55.9929V165.747Z" fill="#B5C2E6"/>
<path d="M52.3727 161.492C52.3479 161.451 52.3463 161.398 52.3727 161.355C52.4107 161.292 52.4933 161.271 52.5561 161.309L72.0539 172.999C72.1166 173.037 72.1381 173.12 72.1001 173.182C72.0621 173.245 71.9795 173.267 71.9167 173.229L52.419 161.538C52.3992 161.527 52.3843 161.51 52.3727 161.492Z" fill="#B5C2E6"/>
<path d="M70.0705 173.81C70.0622 173.795 70.0556 173.779 70.054 173.76C70.044 173.688 70.0953 173.62 70.168 173.609L72.3852 173.295L71.2155 171.318C71.1775 171.254 71.1989 171.173 71.2634 171.135C71.3278 171.097 71.4088 171.118 71.4468 171.183L72.7173 173.333C72.7405 173.371 72.7421 173.419 72.7223 173.458C72.7025 173.498 72.6645 173.526 72.6198 173.533L70.2043 173.874C70.1498 173.883 70.0969 173.855 70.0705 173.81Z" fill="#B5C2E6"/>
<path d="M85.616 28.784C81.1765 28.784 77.5664 25.1744 77.5664 20.7393C77.5664 16.3041 81.1781 12.6946 85.616 12.6946C90.0538 12.6946 93.6655 16.3041 93.6655 20.7393C93.6655 25.1744 90.0538 28.784 85.616 28.784ZM85.616 12.9472C81.3169 12.9472 77.8192 16.4428 77.8192 20.7393C77.8192 25.0357 81.3169 28.5314 85.616 28.5314C89.915 28.5314 93.4128 25.0357 93.4128 20.7393C93.4128 16.4428 89.915 12.9472 85.616 12.9472Z" fill="#B5C2E6"/>
<path d="M85.6156 25.4848C82.9969 25.4848 80.8672 23.3564 80.8672 20.7392C80.8672 18.1221 82.9969 15.9937 85.6156 15.9937C88.2344 15.9937 90.3641 18.1221 90.3641 20.7392C90.3641 23.3564 88.2344 25.4848 85.6156 25.4848ZM85.6156 16.2463C83.1373 16.2463 81.12 18.2624 81.12 20.7392C81.12 23.2161 83.1373 25.2322 85.6156 25.2322C88.094 25.2322 90.1113 23.2161 90.1113 20.7392C90.1113 18.2624 88.094 16.2463 85.6156 16.2463Z" fill="#B5C2E6"/>
<path d="M85.6169 22.927C84.4091 22.927 83.4277 21.9445 83.4277 20.7391C83.4277 19.5337 84.4108 18.5513 85.6169 18.5513C86.823 18.5513 87.8061 19.5337 87.8061 20.7391C87.8061 21.9445 86.823 22.927 85.6169 22.927ZM85.6169 18.8023C84.5496 18.8023 83.6805 19.6708 83.6805 20.7375C83.6805 21.8042 84.5496 22.6727 85.6169 22.6727C86.6842 22.6727 87.5533 21.8042 87.5533 20.7375C87.5533 19.6708 86.6842 18.8023 85.6169 18.8023Z" fill="#B5C2E6"/>
<path d="M85.6156 20.7326C85.5958 20.7326 85.576 20.7277 85.5562 20.7178L73.0109 14.0535C72.9498 14.0204 72.925 13.9445 72.9581 13.8817C72.9911 13.8207 73.0671 13.7959 73.1299 13.8289L85.6751 20.4932C85.7363 20.5262 85.761 20.6022 85.728 20.6649C85.7049 20.7079 85.6619 20.7326 85.6156 20.7326Z" fill="#B5C2E6"/>
<path d="M75.9189 15.1234C75.8726 15.1234 75.828 15.097 75.8049 15.0524L74.9441 13.3071L72.9168 11.8243L73.6339 13.6638C73.6587 13.7282 73.6273 13.8025 73.5612 13.8272C73.4968 13.852 73.4224 13.8206 73.3976 13.7546L72.522 11.5106C72.5021 11.4577 72.5187 11.3983 72.5633 11.3636C72.6079 11.3289 72.669 11.3289 72.7153 11.362L75.1176 13.1189C75.1341 13.1304 75.1473 13.1469 75.1556 13.1651L76.0313 14.9385C76.0626 15.0012 76.0362 15.0772 75.9734 15.1069C75.9552 15.1152 75.9371 15.1201 75.9172 15.1201L75.9189 15.1234Z" fill="#B5C2E6"/>
<path d="M73.8725 16.0861C73.8609 16.0861 73.8477 16.0845 73.8361 16.0812L70.9877 15.2176C70.9332 15.2011 70.8968 15.1499 70.8985 15.0937C70.8985 15.0359 70.9398 14.9881 70.9943 14.9748L73.1405 14.4531C73.2083 14.4382 73.2777 14.4778 73.2942 14.5455C73.3107 14.6132 73.2694 14.6826 73.2017 14.6991L71.5065 15.1102L73.884 15.8302L75.6271 15.5941C75.6965 15.5808 75.7593 15.6337 75.7692 15.703C75.7791 15.7724 75.7296 15.8368 75.6602 15.845L73.8906 16.0845C73.8906 16.0845 73.8791 16.0845 73.8741 16.0845L73.8725 16.0861Z" fill="#B5C2E6"/>
<path d="M278.348 85.6732C277.392 85.6732 276.427 85.6303 275.48 85.5444C275.222 85.5213 275.031 85.2918 275.054 85.0342C275.077 84.7749 275.305 84.5867 275.564 84.6082C277.418 84.7766 279.328 84.7733 281.177 84.6049C281.435 84.5817 281.664 84.7716 281.687 85.0292C281.711 85.2868 281.521 85.5163 281.263 85.5394C280.301 85.6286 279.321 85.6732 278.348 85.6732ZM269.919 84.5107C269.876 84.5107 269.833 84.5041 269.79 84.4926C267.936 83.9675 266.12 83.2657 264.392 82.4071C264.159 82.2915 264.065 82.0091 264.181 81.778C264.296 81.5452 264.579 81.4527 264.81 81.5666C266.485 82.4005 268.247 83.0808 270.046 83.5894C270.295 83.6604 270.441 83.9196 270.37 84.1689C270.312 84.3753 270.124 84.5107 269.917 84.5107H269.919ZM286.821 84.4975C286.616 84.4975 286.428 84.3621 286.37 84.1557C286.299 83.9064 286.444 83.6471 286.694 83.5761C288.491 83.0659 290.251 82.3823 291.924 81.5468C292.156 81.4312 292.438 81.5253 292.554 81.7565C292.67 81.9893 292.575 82.27 292.344 82.3856C290.618 83.2476 288.803 83.951 286.95 84.4794C286.907 84.4909 286.864 84.4975 286.821 84.4975ZM259.754 79.458C259.655 79.458 259.556 79.4267 259.472 79.3639C257.934 78.2031 256.495 76.8937 255.193 75.472C255.017 75.2805 255.031 74.9832 255.222 74.8082C255.414 74.6332 255.711 74.6464 255.886 74.8379C257.149 76.2183 258.545 77.4881 260.038 78.6143C260.245 78.7711 260.286 79.065 260.131 79.2714C260.038 79.3936 259.898 79.458 259.756 79.458H259.754ZM296.974 79.4316C296.832 79.4316 296.691 79.3672 296.599 79.245C296.442 79.0386 296.483 78.743 296.689 78.5878C298.18 77.4601 299.574 76.1886 300.835 74.8066C301.01 74.615 301.307 74.6018 301.499 74.7752C301.691 74.9502 301.704 75.2474 301.53 75.439C300.232 76.864 298.793 78.175 297.258 79.3375C297.174 79.4019 297.073 79.4333 296.975 79.4333L296.974 79.4316ZM252.096 71.0847C251.939 71.0847 251.786 71.0071 251.696 70.8635C250.677 69.2255 249.806 67.4851 249.107 65.6935C249.013 65.4508 249.134 65.18 249.375 65.0859C249.616 64.9917 249.889 65.1123 249.983 65.3534C250.661 67.0921 251.505 68.7796 252.494 70.3681C252.632 70.5877 252.564 70.8783 252.344 71.0154C252.266 71.0633 252.181 71.0864 252.096 71.0864V71.0847ZM304.618 71.0467C304.534 71.0467 304.448 71.0236 304.371 70.9757C304.151 70.8387 304.081 70.5497 304.219 70.3285C305.205 68.7383 306.048 67.0492 306.723 65.3088C306.817 65.0677 307.088 64.9472 307.331 65.0413C307.573 65.1354 307.693 65.4078 307.599 65.6489C306.903 67.4438 306.034 69.1842 305.017 70.8238C304.927 70.9675 304.774 71.0467 304.617 71.0467H304.618ZM247.982 60.5153C247.761 60.5153 247.563 60.3584 247.521 60.1322C247.168 58.2465 246.988 56.3097 246.984 54.3761C246.984 54.1169 247.194 53.9055 247.454 53.9055C247.713 53.9055 247.923 54.1152 247.923 54.3744C247.926 56.2519 248.101 58.131 248.443 59.9588C248.491 60.2131 248.323 60.4592 248.068 60.507C248.038 60.512 248.01 60.5153 247.981 60.5153H247.982ZM308.719 60.4707C308.691 60.4707 308.661 60.4674 308.633 60.4625C308.379 60.4146 308.21 60.1702 308.257 59.9143C308.597 58.0847 308.769 56.2056 308.769 54.3299C308.769 54.0706 308.979 53.8147 309.238 53.8147C309.497 53.8147 309.707 53.9782 309.707 54.2374V54.2836C309.707 56.2634 309.53 58.2003 309.18 60.086C309.139 60.3122 308.941 60.4691 308.719 60.4691V60.4707ZM247.967 49.1731C247.939 49.1731 247.911 49.1698 247.882 49.1649C247.627 49.1186 247.457 48.8726 247.505 48.6183C247.853 46.7227 248.382 44.8502 249.076 43.0537C249.17 42.811 249.441 42.6921 249.684 42.7846C249.927 42.8787 250.048 43.1495 249.953 43.3922C249.281 45.1343 248.769 46.9506 248.43 48.7884C248.389 49.0146 248.19 49.1731 247.969 49.1731H247.967ZM308.701 49.0394C308.48 49.0394 308.283 48.8825 308.24 48.6563C307.893 46.8185 307.373 45.0055 306.692 43.2667C306.598 43.0257 306.717 42.7532 306.958 42.6591C307.199 42.565 307.472 42.6839 307.566 42.9249C308.268 44.7181 308.805 46.589 309.162 48.4829C309.21 48.7372 309.043 48.9832 308.787 49.0311C308.757 49.0361 308.727 49.0394 308.699 49.0394H308.701ZM252.048 38.5905C251.964 38.5905 251.878 38.5674 251.802 38.5195C251.581 38.3841 251.513 38.0935 251.65 37.8739C252.663 36.2359 253.834 34.6821 255.131 33.2554C255.307 33.0639 255.602 33.049 255.796 33.2241C255.987 33.3991 256.002 33.6963 255.827 33.8878C254.568 35.2716 253.431 36.7791 252.448 38.3676C252.359 38.5112 252.205 38.5905 252.048 38.5905ZM304.572 38.4766C304.415 38.4766 304.262 38.399 304.172 38.2553C303.183 36.6718 302.041 35.1692 300.775 33.7904C300.6 33.5989 300.613 33.3017 300.803 33.1266C300.995 32.9516 301.293 32.9648 301.468 33.1564C302.771 34.5781 303.949 36.1269 304.969 37.7599C305.106 37.9795 305.04 38.2702 304.818 38.4072C304.741 38.4551 304.655 38.4782 304.57 38.4782L304.572 38.4766ZM259.683 30.1957C259.541 30.1957 259.401 30.1313 259.308 30.0108C259.151 29.8044 259.191 29.5105 259.399 29.3536C260.936 28.1879 262.588 27.1592 264.309 26.2956C264.541 26.18 264.823 26.2725 264.941 26.5053C265.056 26.7364 264.964 27.0188 264.731 27.136C263.062 27.9732 261.459 28.9705 259.967 30.1016C259.883 30.166 259.782 30.1974 259.683 30.1974V30.1957ZM269.829 25.115C269.625 25.115 269.436 24.9812 269.378 24.7748C269.307 24.5255 269.451 24.2646 269.701 24.1936C271.551 23.6652 273.463 23.3052 275.386 23.1252C275.645 23.0988 275.873 23.2904 275.898 23.5496C275.923 23.8072 275.733 24.0367 275.473 24.0615C273.608 24.2365 271.753 24.5849 269.958 25.0984C269.915 25.11 269.872 25.1166 269.829 25.1166V25.115Z" fill="#B5C2E6"/>
<path d="M304.95 30.5937H302.508V22.8247H304.95V30.5937ZM302.742 30.3592H304.714V23.0592H302.742V30.3592Z" fill="#B5C2E6"/>
<path d="M301.192 30.5937H298.75V20.0986H301.192V30.5937ZM298.986 30.3593H300.957V20.3331H298.986V30.3593Z" fill="#B5C2E6"/>
<path d="M287.471 22.8247H289.913V30.5937H287.471V22.8247ZM289.676 23.0592H287.705V30.3592H289.676V23.0592Z" fill="#B5C2E6"/>
<path d="M291.23 20.0986H293.672V30.5937H291.23V20.0986ZM293.436 20.3331H291.465V30.3593H293.436V20.3331Z" fill="#B5C2E6"/>
<path d="M297.43 30.5937H294.988V17.2502H297.43V30.5937ZM295.225 30.3592H297.196V17.4847H295.225V30.3592Z" fill="#B5C2E6"/>
<path d="M296.183 15.4835C296.193 15.4835 296.205 15.4868 296.215 15.4917L304.354 18.7909C304.413 18.8156 304.443 18.8833 304.418 18.9444C304.393 19.0055 304.326 19.0336 304.264 19.0088L296.17 15.7279L287.397 19.3259C287.338 19.3506 287.268 19.3226 287.243 19.2615C287.219 19.202 287.247 19.1327 287.308 19.1079L296.126 15.4917C296.144 15.4835 296.164 15.4818 296.183 15.4835Z" fill="#B5C2E6"/>
<path d="M302.666 19.3985C302.662 19.3853 302.658 19.3688 302.658 19.3539C302.658 19.2896 302.711 19.2367 302.776 19.2367L304.74 19.2417L303.972 17.3791C303.947 17.3197 303.975 17.2503 304.036 17.2255C304.096 17.2008 304.165 17.2288 304.19 17.2899L305.024 19.3143C305.039 19.3506 305.036 19.3919 305.013 19.4249C304.991 19.458 304.955 19.4761 304.915 19.4761L302.776 19.4712C302.726 19.4712 302.685 19.4415 302.666 19.3985Z" fill="#B5C2E6"/>
<g style="mix-blend-mode:multiply">
<path d="M77.8293 342.965C77.5732 342.939 77.3584 342.744 77.3187 342.478C65.1254 261.233 41.3733 235.109 33.5666 226.525L32.9057 225.797C32.6925 225.561 32.7124 225.197 32.9486 224.986C33.1849 224.773 33.5484 224.793 33.7599 225.029L34.4158 225.754C42.2787 234.401 66.2076 260.72 78.4538 342.31C78.5001 342.623 78.2853 342.916 77.9714 342.963C77.9234 342.97 77.8755 342.972 77.8276 342.967L77.8293 342.965Z" fill="#DEDEDE"/>
</g>
<g style="mix-blend-mode:multiply">
<path d="M67.289 351.129C67.1353 351.186 66.9585 351.139 66.8627 351.003C37.4203 309.432 16.619 301.638 9.78382 299.076L9.20554 298.858C9.01884 298.787 8.92962 298.58 9.00562 298.397C9.08163 298.214 9.29476 298.121 9.48146 298.192L10.0564 298.409C16.9428 300.99 37.8978 308.841 67.4641 350.589C67.5781 350.749 67.5352 350.972 67.3683 351.086C67.3418 351.104 67.3154 351.117 67.2873 351.129H67.289Z" fill="#DEDEDE"/>
</g>
<path d="M26.7131 367.093H356.245C357.794 367.093 359.053 368.351 359.053 369.9V377H23.9043V369.9C23.9043 368.351 25.1633 367.093 26.7131 367.093Z" fill="#C1CFF5"/>
<path d="M336.928 366.46H266.692C264.44 366.46 262.616 364.636 262.616 362.387L257.732 292.618C257.732 290.367 259.558 288.544 261.808 288.544H341.81C344.062 288.544 345.886 290.369 345.886 292.618L341.002 362.387C341.002 364.637 339.176 366.46 336.926 366.46H336.928Z" fill="#C982CC"/>
<path d="M331.436 284.19C322.513 289.309 310.047 284.35 310.047 284.35C310.047 284.35 312.049 271.091 320.973 265.971C329.897 260.852 342.362 265.811 342.362 265.811C342.362 265.811 340.36 279.07 331.436 284.19Z" fill="#96B3FF"/>
<path d="M335.702 190.424C328.413 197.682 315.086 196.124 315.086 196.124C315.086 196.124 313.579 182.799 320.869 175.542C328.158 168.285 341.485 169.842 341.485 169.842C341.485 169.842 342.992 183.167 335.702 190.424Z" fill="#96B3FF"/>
<path d="M259.229 212.007C251.201 205.576 251.266 192.166 251.266 192.166C251.266 192.166 264.348 189.184 272.376 195.616C280.404 202.047 280.34 215.457 280.34 215.457C280.34 215.457 267.257 218.439 259.229 212.007Z" fill="#96B3FF"/>
<path d="M301.173 296.119C300.363 296.119 299.707 295.463 299.707 294.654V170.522C299.707 169.713 300.363 169.058 301.173 169.058C301.982 169.058 302.638 169.713 302.638 170.522V294.654C302.638 295.463 301.982 296.119 301.173 296.119Z" fill="#404CA1"/>
<path d="M301.557 264.227C301.106 264.227 300.66 264.019 300.372 263.626C299.895 262.974 300.037 262.057 300.691 261.58L367.381 212.883C368.034 212.405 368.951 212.547 369.428 213.201C369.906 213.854 369.763 214.77 369.109 215.247L302.419 263.945C302.158 264.135 301.856 264.227 301.557 264.227Z" fill="#404CA1"/>
<path d="M301.171 280.842C300.89 280.842 300.606 280.761 300.356 280.594L239.973 240.108C239.301 239.657 239.122 238.747 239.573 238.077C240.024 237.405 240.935 237.227 241.605 237.677L301.989 278.163C302.661 278.614 302.84 279.524 302.389 280.194C302.106 280.615 301.643 280.843 301.171 280.843V280.842Z" fill="#404CA1"/>
<path d="M301.364 212.473C301.005 212.473 300.645 212.343 300.363 212.078C299.771 211.525 299.741 210.599 300.293 210.009L325.326 183.273C325.879 182.683 326.806 182.652 327.396 183.204C327.988 183.757 328.017 184.683 327.466 185.273L302.433 212.009C302.144 212.318 301.754 212.473 301.362 212.473H301.364Z" fill="#404CA1"/>
<path d="M300.982 232.525C300.671 232.525 300.357 232.426 300.091 232.223L266.46 206.443C265.818 205.951 265.697 205.031 266.189 204.39C266.682 203.748 267.602 203.627 268.243 204.119L301.874 229.9C302.517 230.392 302.637 231.312 302.145 231.952C301.856 232.329 301.421 232.525 300.982 232.525Z" fill="#404CA1"/>
<path d="M301.364 290.391C300.837 290.391 300.327 290.105 300.066 289.605C299.691 288.888 299.968 288.003 300.684 287.628L321.13 276.933C321.847 276.558 322.732 276.836 323.107 277.551C323.482 278.266 323.205 279.152 322.489 279.527L302.043 290.222C301.827 290.336 301.594 290.389 301.366 290.389L301.364 290.391Z" fill="#404CA1"/>
<path d="M288 238.949C291.179 248.729 283.761 259.902 283.761 259.902C283.761 259.902 271.188 255.22 268.009 245.439C264.83 235.659 272.248 224.486 272.248 224.486C272.248 224.486 284.822 229.168 288 238.949Z" fill="#96B3FF"/>
<path d="M286.458 270.801C285.818 270.801 285.23 270.38 285.048 269.734L278.778 247.538C278.558 246.761 279.011 245.952 279.789 245.732C280.567 245.512 281.377 245.965 281.597 246.743L287.867 268.938C288.087 269.716 287.634 270.525 286.856 270.745C286.722 270.783 286.588 270.801 286.458 270.801Z" fill="#404CA1"/>
<path d="M359.094 257.487C349.281 254.393 344.488 241.868 344.488 241.868C344.488 241.868 355.606 234.36 365.418 237.454C375.231 240.549 380.024 253.073 380.024 253.073C380.024 253.073 368.906 260.581 359.094 257.487Z" fill="#96B3FF"/>
<path d="M356.959 247.839C356.796 247.839 356.627 247.811 356.464 247.753L334.744 239.962C333.982 239.69 333.587 238.851 333.86 238.09C334.134 237.329 334.972 236.934 335.733 237.207L357.453 244.997C358.215 245.269 358.61 246.108 358.337 246.869C358.122 247.467 357.559 247.839 356.958 247.839H356.959Z" fill="#404CA1"/>
<path d="M334.815 228.384C331.525 238.128 318.901 242.67 318.901 242.67C318.901 242.67 311.608 231.414 314.897 221.67C318.187 211.927 330.811 207.384 330.811 207.384C330.811 207.384 338.104 218.64 334.815 228.384Z" fill="#96B3FF"/>
<path d="M315.431 253.311C315.257 253.311 315.08 253.28 314.909 253.215C314.152 252.928 313.774 252.081 314.061 251.326L322.282 229.776C322.572 229.02 323.418 228.642 324.173 228.929C324.929 229.216 325.308 230.064 325.02 230.818L316.799 252.368C316.576 252.953 316.019 253.311 315.429 253.311H315.431Z" fill="#404CA1"/>
<path d="M301.255 182.966C313.523 182.966 323.468 173.027 323.468 160.767C323.468 148.507 313.523 138.568 301.255 138.568C288.988 138.568 279.043 148.507 279.043 160.767C279.043 173.027 288.988 182.966 301.255 182.966Z" fill="#96B3FF"/>
<path d="M301.255 177.869C310.705 177.869 318.366 170.212 318.366 160.767C318.366 151.322 310.705 143.666 301.255 143.666C291.804 143.666 284.143 151.322 284.143 160.767C284.143 170.212 291.804 177.869 301.255 177.869Z" fill="#BFD1FF"/>
<path d="M306.85 161.954C306.399 161.247 305.834 160.734 305.155 160.414C304.478 160.093 303.637 159.824 302.631 159.603C302.588 159.595 302.548 159.586 302.508 159.576C302.47 159.568 302.431 159.56 302.386 159.552C302.343 159.543 302.305 159.535 302.272 159.527C302.237 159.519 302.204 159.51 302.17 159.502C301.317 159.314 300.646 159.136 300.156 158.965C299.665 158.795 299.258 158.53 298.935 158.166C298.611 157.805 298.449 157.304 298.449 156.665V156.652C298.449 155.724 298.73 155.027 299.293 154.563C299.855 154.099 300.699 153.867 301.824 153.867C302.412 153.867 303.007 153.971 303.609 154.18C304.21 154.388 304.826 154.705 305.456 155.131L307.029 152.972C306.467 152.597 305.9 152.283 305.329 152.032C304.757 151.781 304.18 151.593 303.595 151.469C303.318 151.411 303.039 151.368 302.758 151.337V149.213H300.149V151.414C299.513 151.517 298.939 151.675 298.442 151.905C297.543 152.318 296.868 152.935 296.415 153.758C295.964 154.58 295.737 155.612 295.737 156.857V156.87C295.737 158.148 295.989 159.134 296.493 159.829C296.995 160.523 297.601 161.003 298.308 161.267C299.015 161.531 299.941 161.769 301.082 161.982C301.125 161.99 301.17 161.999 301.216 162.009C301.262 162.017 301.307 162.025 301.35 162.033C301.375 162.042 301.4 162.047 301.421 162.047C301.443 162.047 301.466 162.052 301.49 162.06C302.206 162.195 302.796 162.354 303.255 162.532C303.716 162.71 304.091 162.98 304.38 163.336C304.671 163.695 304.815 164.18 304.815 164.793V164.806C304.815 165.768 304.516 166.487 303.919 166.959C303.323 167.431 302.419 167.667 301.208 167.667C300.331 167.667 299.518 167.482 298.773 167.111C298.026 166.741 297.347 166.185 296.734 165.443L294.982 167.565C295.544 168.161 296.147 168.658 296.792 169.053C297.436 169.449 298.127 169.748 298.863 169.948C299.277 170.06 299.708 170.133 300.149 170.182V172.319H302.758V170.147C303.495 170.053 304.156 169.895 304.721 169.655C305.654 169.259 306.355 168.663 306.824 167.867C307.293 167.071 307.528 166.072 307.528 164.87V164.845C307.528 163.627 307.301 162.664 306.85 161.957V161.954Z" fill="#96B3FF"/>
<path d="M237.099 262.913C249.367 262.913 259.311 252.974 259.311 240.714C259.311 228.454 249.367 218.515 237.099 218.515C224.832 218.515 214.887 228.454 214.887 240.714C214.887 252.974 224.832 262.913 237.099 262.913Z" fill="#96B3FF"/>
<path d="M237.098 257.816C246.549 257.816 254.21 250.159 254.21 240.714C254.21 231.269 246.549 223.612 237.098 223.612C227.648 223.612 219.986 231.269 219.986 240.714C219.986 250.159 227.648 257.816 237.098 257.816Z" fill="#BFD1FF"/>
<path d="M242.694 241.903C242.243 241.196 241.678 240.682 240.999 240.362C240.321 240.042 239.48 239.773 238.474 239.551C238.431 239.543 238.392 239.535 238.352 239.525C238.314 239.517 238.274 239.508 238.23 239.5C238.187 239.492 238.149 239.484 238.116 239.475C238.081 239.467 238.048 239.459 238.013 239.451C237.161 239.262 236.49 239.084 235.999 238.914C235.509 238.744 235.102 238.478 234.778 238.115C234.454 237.753 234.293 237.253 234.293 236.614V236.601C234.293 235.673 234.573 234.976 235.137 234.512C235.699 234.048 236.543 233.815 237.668 233.815C238.256 233.815 238.851 233.919 239.452 234.129C240.054 234.337 240.67 234.654 241.3 235.08L242.872 232.92C242.311 232.545 241.744 232.231 241.172 231.98C240.601 231.73 240.024 231.541 239.439 231.417C239.162 231.36 238.882 231.317 238.601 231.285V229.162H235.993V231.363C235.357 231.465 234.783 231.624 234.286 231.853C233.387 232.266 232.711 232.884 232.259 233.706C231.808 234.528 231.581 235.56 231.581 236.805V236.819C231.581 238.097 231.832 239.082 232.336 239.778C232.839 240.471 233.445 240.952 234.152 241.216C234.859 241.48 235.784 241.718 236.926 241.931C236.969 241.939 237.014 241.947 237.06 241.957C237.106 241.965 237.151 241.974 237.194 241.982C237.219 241.99 237.243 241.995 237.265 241.995C237.286 241.995 237.309 242 237.334 242.008C238.05 242.144 238.639 242.302 239.099 242.481C239.56 242.659 239.935 242.928 240.224 243.285C240.515 243.643 240.658 244.128 240.658 244.741V244.754C240.658 245.717 240.359 246.435 239.763 246.907C239.167 247.38 238.263 247.616 237.052 247.616C236.174 247.616 235.361 247.431 234.616 247.059C233.87 246.689 233.191 246.133 232.578 245.392L230.826 247.513C231.388 248.11 231.991 248.607 232.635 249.001C233.28 249.397 233.97 249.696 234.707 249.896C235.12 250.008 235.551 250.081 235.993 250.131V252.267H238.601V250.096C239.338 250.002 239.999 249.843 240.564 249.604C241.498 249.208 242.198 248.612 242.668 247.816C243.137 247.02 243.371 246.021 243.371 244.819V244.794C243.371 243.575 243.145 242.613 242.694 241.906V241.903Z" fill="#96B3FF"/>
<path d="M365.788 226.261C378.056 226.261 388.001 216.322 388.001 204.062C388.001 191.802 378.056 181.863 365.788 181.863C353.521 181.863 343.576 191.802 343.576 204.062C343.576 216.322 353.521 226.261 365.788 226.261Z" fill="#96B3FF"/>
<path d="M365.788 221.164C375.238 221.164 382.9 213.507 382.9 204.062C382.9 194.617 375.238 186.96 365.788 186.96C356.337 186.96 348.676 194.617 348.676 204.062C348.676 213.507 356.337 221.164 365.788 221.164Z" fill="#BFD1FF"/>
<path d="M371.383 205.251C370.932 204.544 370.367 204.031 369.688 203.71C369.011 203.39 368.17 203.121 367.164 202.899C367.121 202.891 367.081 202.883 367.041 202.873C367.003 202.865 366.962 202.857 366.919 202.848C366.876 202.84 366.838 202.832 366.805 202.823C366.77 202.815 366.737 202.807 366.703 202.799C365.85 202.61 365.179 202.432 364.689 202.262C364.198 202.092 363.792 201.826 363.468 201.463C363.144 201.101 362.982 200.601 362.982 199.962V199.949C362.982 199.021 363.263 198.324 363.826 197.86C364.388 197.396 365.232 197.163 366.357 197.163C366.946 197.163 367.54 197.267 368.142 197.477C368.743 197.685 369.36 198.002 369.989 198.428L371.562 196.268C371 195.893 370.433 195.58 369.862 195.329C369.29 195.078 368.713 194.889 368.129 194.766C367.851 194.708 367.572 194.665 367.291 194.633V192.51H364.682V194.711C364.046 194.813 363.473 194.972 362.975 195.201C362.077 195.614 361.401 196.232 360.948 197.054C360.497 197.876 360.271 198.908 360.271 200.153V200.167C360.271 201.445 360.522 202.431 361.026 203.126C361.528 203.819 362.134 204.3 362.842 204.564C363.549 204.828 364.474 205.066 365.616 205.279C365.659 205.287 365.703 205.295 365.749 205.305C365.796 205.314 365.84 205.322 365.883 205.33C365.908 205.338 365.933 205.343 365.954 205.343C365.976 205.343 365.999 205.348 366.024 205.356C366.739 205.492 367.329 205.65 367.788 205.829C368.249 206.007 368.624 206.276 368.913 206.633C369.204 206.991 369.348 207.477 369.348 208.089V208.102C369.348 209.065 369.049 209.783 368.452 210.256C367.856 210.728 366.952 210.964 365.741 210.964C364.864 210.964 364.051 210.779 363.306 210.408C362.559 210.038 361.88 209.481 361.267 208.74L359.516 210.862C360.077 211.458 360.68 211.955 361.325 212.349C361.969 212.744 362.66 213.044 363.397 213.244C363.81 213.357 364.241 213.429 364.682 213.479V215.615H367.291V213.444C368.028 213.35 368.689 213.191 369.254 212.952C370.187 212.556 370.888 211.96 371.357 211.164C371.826 210.368 372.061 209.369 372.061 208.167V208.142C372.061 206.923 371.835 205.961 371.383 205.254V205.251Z" fill="#96B3FF"/>
<path d="M351.405 288.544H252.216C250.479 288.544 249.07 289.952 249.07 291.688V300.933C249.07 302.67 250.479 304.077 252.216 304.077H351.405C353.142 304.077 354.551 302.67 354.551 300.933V291.688C354.551 289.952 353.142 288.544 351.405 288.544Z" fill="#DD98E0"/>
<path d="M284.219 37.3042H98.7421C95.6204 37.3042 93.0898 39.8333 93.0898 42.953V361.356C93.0898 364.476 95.6204 367.005 98.7421 367.005H284.219C287.341 367.005 289.871 364.476 289.871 361.356V42.953C289.871 39.8333 287.341 37.3042 284.219 37.3042Z" fill="#404040"/>
<path d="M284.321 41.2292H98.6377C97.8055 41.2292 97.1309 41.9035 97.1309 42.7352V350.87C97.1309 351.701 97.8055 352.376 98.6377 352.376H284.321C285.153 352.376 285.828 351.701 285.828 350.87V42.7352C285.828 41.9035 285.153 41.2292 284.321 41.2292Z" fill="#737373"/>
<path d="M283.641 43.8496H99.3203V349.755H283.641V43.8496Z" fill="#ECEFFE"/>
<path d="M268.209 334.768V58.8359L114.752 58.8359L114.752 334.768H268.209Z" fill="white"/>
<g style="mix-blend-mode:multiply">
<path d="M164.244 96.6025H131.909C130.443 96.6025 129.254 97.7906 129.254 99.256V131.275C129.254 132.74 130.443 133.928 131.909 133.928H164.244C165.711 133.928 166.9 132.74 166.9 131.275V99.256C166.9 97.7906 165.711 96.6025 164.244 96.6025Z" fill="#CFD6FA"/>
</g>
<path d="M168.098 91.8635H135.763C134.296 91.8635 133.107 93.0515 133.107 94.517V126.536C133.107 128.001 134.296 129.189 135.763 129.189H168.098C169.564 129.189 170.753 128.001 170.753 126.536V94.517C170.753 93.0515 169.564 91.8635 168.098 91.8635Z" fill="white"/>
<path d="M139.629 106.379L151.189 120.895L176.386 88.9014L150.991 112.748L139.629 106.379Z" fill="#5B65B5"/>
<path d="M221.748 96.6025H185.865C184.521 96.6025 183.432 97.6915 183.432 99.0348V103.945C183.432 105.289 184.521 106.378 185.865 106.378H221.748C223.092 106.378 224.182 105.289 224.182 103.945V99.0348C224.182 97.6915 223.092 96.6025 221.748 96.6025Z" fill="#C6CEFA"/>
<path d="M249.603 114.015H185.865C184.521 114.015 183.432 115.104 183.432 116.447V121.358C183.432 122.701 184.521 123.79 185.865 123.79H249.603C250.947 123.79 252.036 122.701 252.036 121.358V116.447C252.036 115.104 250.947 114.015 249.603 114.015Z" fill="#C6CEFA"/>
<g style="mix-blend-mode:multiply">
<path d="M164.244 168.539H131.909C130.443 168.539 129.254 169.727 129.254 171.193V203.211C129.254 204.677 130.443 205.865 131.909 205.865H164.244C165.711 205.865 166.9 204.677 166.9 203.211V171.193C166.9 169.727 165.711 168.539 164.244 168.539Z" fill="#CFD6FA"/>
</g>
<path d="M168.098 163.8H135.763C134.296 163.8 133.107 164.988 133.107 166.454V198.472C133.107 199.938 134.296 201.126 135.763 201.126H168.098C169.564 201.126 170.753 199.938 170.753 198.472V166.454C170.753 164.988 169.564 163.8 168.098 163.8Z" fill="white"/>
<path d="M139.629 178.316L151.189 192.83L176.386 160.838L150.991 184.685L139.629 178.316Z" fill="#5B65B5"/>
<path d="M221.748 168.539H185.865C184.521 168.539 183.432 169.628 183.432 170.971V175.882C183.432 177.225 184.521 178.314 185.865 178.314H221.748C223.092 178.314 224.182 177.225 224.182 175.882V170.971C224.182 169.628 223.092 168.539 221.748 168.539Z" fill="#C6CEFA"/>
<path d="M249.603 185.951H185.865C184.521 185.951 183.432 187.04 183.432 188.383V193.294C183.432 194.637 184.521 195.726 185.865 195.726H249.603C250.947 195.726 252.036 194.637 252.036 193.294V188.383C252.036 187.04 250.947 185.951 249.603 185.951Z" fill="#C6CEFA"/>
<g style="mix-blend-mode:multiply">
<path d="M164.244 248.009H131.909C130.443 248.009 129.254 249.197 129.254 250.662V282.681C129.254 284.146 130.443 285.334 131.909 285.334H164.244C165.711 285.334 166.9 284.146 166.9 282.681V250.662C166.9 249.197 165.711 248.009 164.244 248.009Z" fill="#CFD6FA"/>
</g>
<path d="M168.098 243.268H135.763C134.296 243.268 133.107 244.456 133.107 245.922V277.94C133.107 279.406 134.296 280.594 135.763 280.594H168.098C169.564 280.594 170.753 279.406 170.753 277.94V245.922C170.753 244.456 169.564 243.268 168.098 243.268Z" fill="white"/>
<path d="M139.629 257.784L151.189 272.3L176.386 240.306L150.991 264.154L139.629 257.784Z" fill="#5B65B5"/>
<path d="M221.748 248.009H185.865C184.521 248.009 183.432 249.098 183.432 250.441V255.352C183.432 256.695 184.521 257.784 185.865 257.784H221.748C223.092 257.784 224.182 256.695 224.182 255.352V250.441C224.182 249.098 223.092 248.009 221.748 248.009Z" fill="#C6CEFA"/>
<path d="M249.603 265.421H185.865C184.521 265.421 183.432 266.51 183.432 267.853V272.764C183.432 274.107 184.521 275.196 185.865 275.196H249.603C250.947 275.196 252.036 274.107 252.036 272.764V267.853C252.036 266.51 250.947 265.421 249.603 265.421Z" fill="#C6CEFA"/>
<path d="M114.45 58.9583H268.76C272.748 58.9583 275.985 62.1946 275.985 66.179C275.985 70.165 272.746 73.3998 268.76 73.3998H114.45C110.461 73.3998 107.225 70.1634 107.225 66.179C107.225 62.193 110.463 58.9583 114.45 58.9583Z" fill="#5B65B5"/>
<path d="M268.226 61.7983H134.381V70.563H268.226V61.7983Z" fill="white"/>
<path d="M121.162 62.9112C119.987 61.79 118.077 61.79 116.903 62.9112C115.728 64.0324 115.728 65.857 116.903 66.9781C117.796 67.8318 119.116 68.0333 120.215 67.5874L123.33 70.5613L124.823 69.1363L121.742 66.1955C122.282 65.1255 122.09 63.8012 121.162 62.9145V62.9112ZM124.123 69.1346L123.33 69.8909L120.673 67.3546C120.846 67.2473 121.01 67.1218 121.162 66.9781C121.281 66.8642 121.385 66.7404 121.481 66.6132L124.123 69.1346ZM120.812 66.6429C119.83 67.5792 118.234 67.5792 117.253 66.6429C116.271 65.7067 116.271 64.1826 117.253 63.2464C118.234 62.3102 119.83 62.3102 120.812 63.2464C121.793 64.1826 121.793 65.7067 120.812 66.6429Z" fill="white"/>
<path d="M60.2065 367.065H150.599L139.529 273.841H49.1367L60.2065 367.065Z" fill="#5E68BA"/>
<path d="M49.1366 273.841H139.529L138.681 288.127H48.2891L49.1366 273.841Z" fill="#404CA1"/>
<g style="mix-blend-mode:multiply">
<path d="M127.111 308.042C130.86 308.042 133.899 305.005 133.899 301.259C133.899 297.513 130.86 294.476 127.111 294.476C123.363 294.476 120.324 297.513 120.324 301.259C120.324 305.005 123.363 308.042 127.111 308.042Z" fill="#B8D0FF"/>
</g>
<g style="mix-blend-mode:multiply">
<path d="M104.416 308.042C108.165 308.042 111.203 305.005 111.203 301.259C111.203 297.513 108.165 294.476 104.416 294.476C100.668 294.476 97.6289 297.513 97.6289 301.259C97.6289 305.005 100.668 308.042 104.416 308.042Z" fill="#B8D0FF"/>
</g>
<g style="mix-blend-mode:multiply">
<path d="M81.7228 308.042C85.4713 308.042 88.5101 305.005 88.5101 301.259C88.5101 297.513 85.4713 294.476 81.7228 294.476C77.9743 294.476 74.9355 297.513 74.9355 301.259C74.9355 305.005 77.9743 308.042 81.7228 308.042Z" fill="#B8D0FF"/>
</g>
<path d="M59.0295 308.042C62.778 308.042 65.8167 305.005 65.8167 301.259C65.8167 297.513 62.778 294.476 59.0295 294.476C55.281 294.476 52.2422 297.513 52.2422 301.259C52.2422 305.005 55.281 308.042 59.0295 308.042Z" fill="#404CA1"/>
<g style="mix-blend-mode:multiply">
<path d="M126.866 331.196C130.411 329.976 132.294 326.116 131.074 322.574C129.854 319.032 125.991 317.149 122.447 318.369C118.903 319.588 117.019 323.448 118.239 326.991C119.459 330.533 123.322 332.415 126.866 331.196Z" fill="#B8D0FF"/>
</g>
<g style="mix-blend-mode:multiply">
<path d="M103.501 331.385C107.153 330.539 109.427 326.895 108.581 323.246C107.734 319.596 104.088 317.323 100.436 318.169C96.7845 319.015 94.5104 322.659 95.3568 326.309C96.2032 329.958 99.8497 332.231 103.501 331.385Z" fill="#B8D0FF"/>
</g>
<g style="mix-blend-mode:multiply">
<path d="M83.1178 330.362C86.2122 328.248 87.0057 324.027 84.8901 320.934C82.7745 317.842 78.5509 317.049 75.4565 319.163C72.362 321.277 71.5686 325.498 73.6842 328.591C75.7998 331.684 80.0234 332.477 83.1178 330.362Z" fill="#B8D0FF"/>
</g>
<path d="M61.3726 329.579C64.0232 326.93 64.0232 322.635 61.3726 319.986C58.722 317.337 54.4245 317.337 51.7739 319.986C49.1233 322.635 49.1234 326.93 51.7739 329.579C54.4245 332.228 58.722 332.228 61.3726 329.579Z" fill="#404CA1"/>
<g style="mix-blend-mode:multiply">
<path d="M123.213 354.078C126.962 354.078 130 351.041 130 347.295C130 343.548 126.962 340.511 123.213 340.511C119.465 340.511 116.426 343.548 116.426 347.295C116.426 351.041 119.465 354.078 123.213 354.078Z" fill="#B8D0FF"/>
</g>
<g style="mix-blend-mode:multiply">
<path d="M100.518 354.078C104.266 354.078 107.305 351.041 107.305 347.295C107.305 343.548 104.266 340.511 100.518 340.511C96.7692 340.511 93.7305 343.548 93.7305 347.295C93.7305 351.041 96.7692 354.078 100.518 354.078Z" fill="#B8D0FF"/>
</g>
<g style="mix-blend-mode:multiply">
<path d="M77.8244 354.078C81.5729 354.078 84.6117 351.041 84.6117 347.295C84.6117 343.548 81.5729 340.511 77.8244 340.511C74.0759 340.511 71.0371 343.548 71.0371 347.295C71.0371 351.041 74.0759 354.078 77.8244 354.078Z" fill="#B8D0FF"/>
</g>
<path d="M55.1291 354.078C58.8776 354.078 61.9164 351.041 61.9164 347.295C61.9164 343.548 58.8776 340.511 55.1291 340.511C51.3806 340.511 48.3418 343.548 48.3418 347.295C48.3418 351.041 51.3806 354.078 55.1291 354.078Z" fill="#404CA1"/>
<path d="M130.07 276.365H124.439V281.993H130.07V276.365Z" fill="#3A47A3"/>
<path d="M128.699 269.078H125.811V281.994H128.699V269.078Z" fill="#91A1F2"/>
<path d="M112.91 276.365H107.279V281.993H112.91V276.365Z" fill="#3A47A3"/>
<path d="M111.54 269.078H108.652V281.994H111.54V269.078Z" fill="#91A1F2"/>
<path d="M95.7518 276.365H90.1211V281.993H95.7518V276.365Z" fill="#3A47A3"/>
<path d="M94.3822 269.078H91.4941V281.994H94.3822V269.078Z" fill="#91A1F2"/>
<path d="M78.5936 276.365H72.9629V281.993H78.5936V276.365Z" fill="#3A47A3"/>
<path d="M77.224 269.078H74.3359V281.994H77.224V269.078Z" fill="#91A1F2"/>
<path d="M61.4354 276.365H55.8047V281.993H61.4354V276.365Z" fill="#3A47A3"/>
<path d="M60.0638 269.078H57.1758V281.994H60.0638V269.078Z" fill="#91A1F2"/>
<path d="M66.1453 257.647C66.1453 258.894 65.6464 265.001 68.5146 265.001C71.3828 265.001 73.8777 265.687 74.5633 267.308C75.249 268.928 75.8735 271.547 74.6872 271.857C73.5026 272.169 72.8781 269.551 72.5675 268.804C72.2568 268.058 70.7583 267.87 70.7583 267.87C70.7583 267.87 72.1924 269.366 72.3791 270.673C72.5658 271.983 72.6286 273.915 71.444 273.54C69.8231 274.288 68.1395 273.416 68.1395 273.416C66.9549 273.104 66.5187 270.799 63.5249 271.109C60.5311 271.421 58.0991 270.86 57.7884 267.12C57.4778 263.38 57.7884 258.831 57.7884 258.831L66.1453 257.647Z" fill="#FF8762"/>
<path d="M115.842 305.585L116.544 311.336C115.211 314.422 115.561 318.42 115.561 318.42L138.93 319.472C136.614 314.632 125.666 313.791 124.614 311.476C123.561 309.161 123.35 302.429 123.35 302.429L115.84 305.585H115.842Z" fill="#FF8762"/>
<path d="M120.825 311.827C120.825 311.008 121.559 308.09 123.718 307.309C123.91 308.929 124.196 310.553 124.615 311.476C125.668 313.791 136.615 314.632 138.932 319.472L115.563 318.42C115.563 318.42 115.213 314.422 116.546 311.336C116.546 311.336 120.687 313.299 120.827 311.827H120.825Z" fill="#2B1710"/>
<path d="M138.342 318.542C138.573 318.836 138.773 319.143 138.93 319.472L115.561 318.42C115.561 318.42 115.53 318.066 115.521 317.492L138.342 318.542Z" fill="#693E2F"/>
<path d="M122.858 312.522C122.911 312.522 122.961 312.49 122.982 312.438C122.985 312.428 123.377 311.491 124.071 311.224C124.357 311.113 124.662 311.133 124.976 311.282C125.044 311.313 125.123 311.285 125.155 311.217C125.186 311.15 125.158 311.07 125.09 311.039C124.707 310.857 124.33 310.834 123.972 310.975C123.169 311.285 122.751 312.296 122.733 312.338C122.705 312.408 122.738 312.485 122.807 312.513C122.824 312.52 122.84 312.523 122.858 312.523V312.522Z" fill="#693E2F"/>
<path d="M125.001 314.171C125.054 314.171 125.103 314.14 125.125 314.087C125.128 314.077 125.52 313.141 126.214 312.873C126.499 312.763 126.805 312.782 127.119 312.931C127.187 312.962 127.266 312.934 127.297 312.867C127.329 312.799 127.301 312.72 127.233 312.688C126.85 312.507 126.473 312.484 126.114 312.624C125.311 312.934 124.893 313.945 124.875 313.988C124.847 314.057 124.88 314.135 124.95 314.163C124.966 314.17 124.983 314.173 125.001 314.173V314.171Z" fill="#693E2F"/>
<path d="M128.579 315.363C128.632 315.363 128.681 315.332 128.703 315.279C128.706 315.269 129.098 314.333 129.792 314.065C130.077 313.955 130.383 313.975 130.697 314.123C130.765 314.155 130.844 314.127 130.875 314.059C130.907 313.991 130.879 313.912 130.811 313.881C130.428 313.699 130.051 313.676 129.693 313.816C128.89 314.127 128.472 315.137 128.453 315.18C128.425 315.249 128.458 315.327 128.528 315.355C128.544 315.362 128.561 315.365 128.579 315.365V315.363Z" fill="#693E2F"/>
<path d="M100.759 243.569L102.145 248.417C116.09 250.451 136.096 253.567 137.266 261.357C138.436 269.148 127.782 290.311 127.782 290.311L127.133 307.19H114.532L106.996 272.523C106.996 272.523 77.3752 273.82 74.7763 266.03C72.1774 258.24 71.918 249.541 71.918 249.541L88.678 238.894L100.761 243.569H100.759Z" fill="#6B8EED"/>
<g style="mix-blend-mode:multiply">
<path d="M127.436 289.438H127.439C127.53 289.436 127.603 289.36 127.601 289.268C127.577 288.227 126.964 263.725 124.373 259.41C121.761 255.059 96.2292 252.678 95.1437 252.579C95.0511 252.571 94.9718 252.639 94.9636 252.73C94.9553 252.82 95.023 252.901 95.1139 252.91C95.3783 252.934 121.562 255.375 124.089 259.582C126.635 263.824 127.264 289.023 127.269 289.278C127.271 289.368 127.345 289.439 127.434 289.439L127.436 289.438Z" fill="#E0C9C0"/>
</g>
<g style="mix-blend-mode:multiply">
<path d="M107.226 272.43C107.59 272.43 108.571 271.842 108.989 271.581C109.067 271.534 109.09 271.431 109.042 271.354C108.994 271.276 108.892 271.253 108.814 271.301C108.251 271.652 107.567 272.021 107.311 272.088C107.314 271.87 107.458 271.302 107.567 270.875C107.73 270.229 107.901 269.562 107.901 269.148C107.901 269.057 107.826 268.982 107.735 268.982C107.644 268.982 107.57 269.057 107.57 269.148C107.57 269.521 107.398 270.196 107.248 270.794C107.002 271.766 106.919 272.151 107.038 272.329C107.074 272.384 107.129 272.419 107.193 272.429C107.205 272.43 107.218 272.432 107.231 272.432L107.226 272.43Z" fill="#E0C9C0"/>
</g>
<g style="mix-blend-mode:multiply">
<path d="M79.5167 258.34C79.5332 258.34 79.5514 258.337 79.5696 258.332C80.2305 258.112 81.012 257.218 81.4713 256.159C81.8678 255.241 82.3817 253.369 81.3573 251.159C81.3193 251.077 81.2201 251.04 81.1375 251.078C81.0549 251.116 81.0186 251.215 81.0566 251.298C82.0264 253.392 81.5423 255.16 81.1673 256.027C80.6947 257.118 79.9546 257.855 79.4655 258.017C79.3779 258.046 79.3317 258.139 79.3598 258.226C79.3829 258.296 79.4473 258.34 79.5167 258.34Z" fill="#E0C9C0"/>
</g>
<g style="mix-blend-mode:multiply">
<path d="M118.17 306.837C118.17 306.837 118.18 306.837 118.186 306.837C118.277 306.828 118.345 306.747 118.335 306.655C117.988 303.037 114.895 271.284 113.043 270.424C112.529 270.186 112.25 269.953 112.189 269.716C112.109 269.407 112.382 269.034 112.727 268.563C112.893 268.338 113.079 268.083 113.246 267.805C113.299 267.718 113.302 267.62 113.258 267.528C112.836 266.661 105.748 265.692 94.9826 264.314C90.4688 263.737 86.5696 263.238 84.8149 262.883C79.9211 261.892 76.6332 257.888 76.6332 252.918C76.6332 252.827 76.5588 252.753 76.468 252.753C76.3771 252.753 76.3027 252.827 76.3027 252.918C76.3027 257.969 79.7773 262.201 84.7505 263.208C86.5183 263.566 90.4225 264.065 94.943 264.645C101.914 265.536 112.422 266.882 112.95 267.657C112.795 267.914 112.625 268.145 112.461 268.368C112.08 268.888 111.751 269.339 111.87 269.8C111.959 270.145 112.288 270.44 112.906 270.728C114.176 271.317 116.653 292.557 118.008 306.688C118.016 306.774 118.089 306.838 118.173 306.838L118.17 306.837Z" fill="#E0C9C0"/>
</g>
<path d="M96.3709 207.539C102.94 209.866 108.843 218.758 110.423 221.832C112.002 224.907 119.403 226.57 119.403 226.57C119.403 226.57 117.739 233.3 117.656 233.883C113.415 237.207 109.258 243.024 99.9463 239.201C90.6344 235.379 96.3709 207.541 96.3709 207.541V207.539Z" fill="#CCD5F0"/>
<path d="M87.8082 206.956C88.4311 206.79 96.3716 207.538 96.3716 207.538C103.106 213.021 102.192 227.98 101.693 233.63C101.194 239.281 105.019 245.763 105.019 245.763C92.7136 258.061 71.7603 260.388 71.7603 260.388C68.2675 252.576 64.7764 215.848 66.4385 213.021C68.1023 210.196 79.6595 206.456 79.6595 206.456L87.8099 206.955L87.8082 206.956Z" fill="white"/>
<path d="M96.3443 245.431H115.958C116.551 245.431 117.055 244.997 117.142 244.411L120.695 220.462C120.802 219.738 120.242 219.089 119.51 219.089H99.8966C99.3035 219.089 98.7995 219.524 98.712 220.11L95.1597 244.059C95.0523 244.782 95.6124 245.431 96.3443 245.431Z" fill="#2B1710"/>
<path d="M114.679 218.259H104.256C103.897 218.259 103.605 218.55 103.605 218.909V220.85C103.605 221.209 103.897 221.5 104.256 221.5H114.679C115.038 221.5 115.33 221.209 115.33 220.85V218.909C115.33 218.55 115.038 218.259 114.679 218.259Z" fill="#ABABAB"/>
<path d="M109.77 219.031C110.59 218.921 111.165 218.168 111.055 217.35C110.945 216.531 110.192 215.956 109.372 216.066C108.553 216.176 107.978 216.928 108.088 217.747C108.198 218.566 108.951 219.141 109.77 219.031Z" fill="#ABABAB"/>
<path d="M120.713 236.457C123.644 234.338 124.828 227.047 119.964 225.488C119.777 225.737 119.528 227.606 119.528 227.606C119.528 227.606 112.232 228.292 111.92 230.536C110.798 231.719 112.043 233.029 112.043 233.029C111.92 234.338 115.098 235.147 115.098 235.147C115.098 235.147 113.165 234.774 113.228 235.709C113.291 236.643 118.528 237.391 120.711 236.457H120.713Z" fill="#FF8762"/>
<g style="mix-blend-mode:multiply">
<path d="M114.225 231.204C115.87 231.204 118.383 231.036 120.063 230.138C120.101 230.116 120.116 230.068 120.096 230.03C120.075 229.991 120.027 229.978 119.989 229.997C117.359 231.403 112.629 230.99 112.582 230.985C112.538 230.98 112.5 231.013 112.496 231.057C112.493 231.102 112.524 231.14 112.569 231.143C112.587 231.143 113.256 231.203 114.226 231.203L114.225 231.204Z" fill="#E0B3A8"/>
</g>
<g style="mix-blend-mode:multiply">
<path d="M118.067 233.982C118.083 233.982 118.091 233.982 118.093 233.982C118.138 233.982 118.172 233.945 118.172 233.901C118.172 233.856 118.143 233.822 118.091 233.822C118.063 233.822 115.263 233.843 112.378 232.983C112.337 232.97 112.292 232.994 112.279 233.036C112.266 233.079 112.291 233.122 112.332 233.135C115.089 233.955 117.769 233.98 118.067 233.98V233.982Z" fill="#E0B3A8"/>
</g>
<g style="mix-blend-mode:multiply">
<path d="M116.914 235.453C117.065 235.453 117.154 235.446 117.165 235.445C117.21 235.441 117.241 235.403 117.238 235.359C117.235 235.314 117.197 235.283 117.152 235.286C117.144 235.286 116.372 235.344 115.401 235.101C115.358 235.091 115.315 235.116 115.305 235.159C115.295 235.202 115.32 235.245 115.363 235.256C116.035 235.425 116.605 235.453 116.914 235.453Z" fill="#E0B3A8"/>
</g>
<path d="M67.9552 211.527C71.6545 214.393 75.9998 220.627 72.5071 232.468C69.0143 244.308 69.2638 264.253 69.2638 264.253L56.5418 264.752C54.0469 246.055 56.2923 217.843 67.9536 211.529L67.9552 211.527Z" fill="#CCD5F0"/>
<g style="mix-blend-mode:multiply">
<path d="M70.2299 267.645C70.2795 267.645 70.3241 267.615 70.3423 267.566C70.3654 267.503 70.3324 267.435 70.2712 267.412L68.12 266.633C68.0589 266.61 67.9895 266.643 67.9664 266.704C67.9433 266.767 67.9763 266.834 68.0374 266.857L70.1886 267.637C70.2018 267.642 70.2151 267.643 70.2299 267.643V267.645Z" fill="#E0C9C0"/>
</g>
<g style="mix-blend-mode:multiply">
<path d="M71.2906 273.254C71.3038 273.254 71.3153 273.252 71.3286 273.247C71.3913 273.226 71.4244 273.158 71.4046 273.097C71.3666 272.982 70.4579 270.267 70.0448 269.729C69.6301 269.187 67.2377 268.322 66.9651 268.225C66.9023 268.203 66.8346 268.234 66.8114 268.297C66.7899 268.36 66.8213 268.428 66.8841 268.449C67.6028 268.707 69.5392 269.463 69.8548 269.874C70.2431 270.383 71.1683 273.145 71.1766 273.173C71.1931 273.223 71.2393 273.254 71.2906 273.254Z" fill="#E0C9C0"/>
</g>
<g style="mix-blend-mode:multiply">
<path d="M69.5444 272.816C69.5593 272.816 69.5758 272.813 69.5907 272.807C69.6518 272.78 69.6799 272.711 69.6535 272.65C69.2817 271.77 68.1219 270.432 66.9141 270.211C66.8497 270.199 66.7869 270.242 66.7753 270.307C66.7638 270.371 66.8067 270.434 66.8711 270.445C67.9814 270.65 69.0901 271.933 69.4337 272.742C69.4536 272.788 69.4965 272.815 69.5444 272.815V272.816Z" fill="#E0C9C0"/>
</g>
<path d="M81.0267 199.422C81.0267 199.422 78.7665 187.551 84.0767 186.12C87.2506 183.578 93.0003 186.253 93.0003 186.253C96.9607 187.114 97.4398 190.91 95.1581 191.975C92.878 193.04 87.857 200.31 87.857 200.31L82.099 200.426L81.0251 199.42L81.0267 199.422Z" fill="#2B1710"/>
<path d="M93.6791 188.836C94.8142 190.164 95.5395 191.873 95.6023 192.781C95.6651 193.689 94.6655 196.225 94.6242 196.534C94.5829 196.843 96.7622 199.526 96.7622 199.526C96.7622 199.526 95.9873 200.001 94.6837 200.033C94.3846 201.894 93.1273 205.546 92.2797 205.929C91.4321 206.314 89.0546 205.505 89.0546 205.505C88.2516 206.022 88.4615 206.928 88.4615 206.928C88.4615 206.928 91.067 209.285 89.737 210.125C88.4069 210.966 79.9509 207.51 79.5957 206.458C80.4317 203.438 81.0282 199.424 81.0282 199.424C81.9518 199.551 83.0587 198.053 83.0587 198.053C83.0587 198.053 83.7163 197.683 83.7593 197.523C84.4152 196.861 85.0183 197.341 85.547 197.602C86.0757 197.863 87.2256 196.204 86.6936 195.357C86.1616 194.51 85.5139 193.605 85.4957 193.122C85.4792 192.639 86.4408 188.55 87.5131 188.97C88.5837 189.389 92.6746 190.058 93.6808 188.838L93.6791 188.836Z" fill="#FF8762"/>
<path d="M82.2468 199.699C82.5624 200.631 83.5736 201.131 84.5071 200.815C85.4389 200.5 85.9395 199.49 85.624 198.557C85.3084 197.625 84.2972 197.125 83.3637 197.44C82.4319 197.756 81.9313 198.766 82.2468 199.699Z" fill="#FF7E5E"/>
<g style="mix-blend-mode:multiply">
<path d="M84.5927 199.884C84.6357 199.869 84.6671 199.831 84.672 199.783C84.677 199.719 84.6291 199.663 84.5663 199.658C84.4011 199.645 84.2887 199.58 84.2408 199.475C84.1929 199.366 84.2193 199.217 84.3069 199.105C84.4011 198.983 84.5448 198.928 84.7001 198.953C84.7414 198.96 84.7827 198.945 84.8092 198.912C84.8356 198.879 84.8422 198.836 84.8273 198.796C84.6737 198.401 84.2904 198.165 83.8294 198.179C83.3503 198.193 82.9537 198.472 82.8183 198.889C82.7984 198.95 82.8315 199.016 82.8926 199.035C82.9537 199.055 83.0198 199.022 83.0396 198.961C83.1669 198.57 83.5485 198.42 83.836 198.411C84.0723 198.405 84.3581 198.486 84.5266 198.723C84.368 198.748 84.2259 198.832 84.1235 198.963C83.9831 199.143 83.9467 199.381 84.0277 199.569C84.0756 199.676 84.2061 199.861 84.5465 199.889C84.563 199.889 84.5779 199.889 84.5927 199.884Z" fill="#E0B3A8"/>
</g>
<g style="mix-blend-mode:multiply">
<path d="M88.4816 205.256C88.4601 205.262 88.4353 205.262 88.4138 205.251C88.171 205.133 86.0379 204.085 85.7587 203.555C85.572 203.201 85.5125 202.338 85.4613 201.575C85.4349 201.185 85.4085 200.815 85.3705 200.602C85.3622 200.555 85.3936 200.508 85.4415 200.5C85.4894 200.492 85.5357 200.523 85.5439 200.571C85.5852 200.794 85.6084 201.151 85.6381 201.563C85.686 202.272 85.7472 203.152 85.9157 203.472C86.1288 203.877 87.8471 204.778 88.4915 205.09C88.5361 205.112 88.5543 205.165 88.5328 205.209C88.5212 205.231 88.5031 205.247 88.4816 205.254V205.256Z" fill="#E0B3A8"/>
</g>
<path d="M86.6591 198.294C86.6194 198.307 86.5748 198.292 86.5533 198.255C86.5286 198.212 86.5434 198.157 86.5864 198.134C87.32 197.71 87.4554 197.059 87.396 196.782C87.3497 196.841 87.2836 196.945 87.2291 197.033C86.9714 197.44 86.5831 198.056 86.0395 198.16C85.9916 198.17 85.9453 198.137 85.9354 198.089C85.9255 198.042 85.9569 197.995 86.0065 197.985C86.474 197.896 86.8392 197.318 87.0804 196.937C87.2473 196.673 87.3233 196.55 87.4323 196.56C87.4604 196.562 87.5116 196.577 87.5414 196.648C87.6735 196.957 87.5529 197.781 86.6756 198.286C86.6707 198.289 86.6657 198.291 86.6591 198.292V198.294Z" fill="#2B1710"/>
<path d="M86.6759 198.631C86.6296 198.647 86.5784 198.621 86.5635 198.575C86.547 198.528 86.5735 198.477 86.6197 198.462C87.0774 198.307 87.4739 197.939 87.4789 197.936C87.5152 197.903 87.5714 197.904 87.6044 197.941C87.6375 197.977 87.6358 198.033 87.6011 198.066C87.5846 198.083 87.1732 198.464 86.6775 198.631H86.6759Z" fill="#2B1710"/>
<path d="M93.3739 202.303C93.3739 202.303 93.3574 202.308 93.3491 202.308C93.3392 202.308 92.3016 202.351 91.9084 202.554C91.8654 202.577 91.8109 202.559 91.7894 202.516C91.7663 202.473 91.7844 202.419 91.8274 202.397C92.257 202.176 93.2995 202.133 93.3425 202.131C93.3921 202.13 93.4334 202.168 93.435 202.217C93.435 202.257 93.4119 202.293 93.3755 202.305L93.3739 202.303Z" fill="#2B1710"/>
<g style="mix-blend-mode:multiply">
<path d="M91.791 197.706C91.7811 197.71 91.7696 197.711 91.7597 197.711C91.5911 197.705 91.4292 197.604 91.3119 197.434C91.1764 197.236 91.1351 196.983 91.2062 196.777C91.2227 196.73 91.2723 196.706 91.3185 196.722C91.3648 196.739 91.3896 196.788 91.373 196.834C91.3202 196.99 91.3516 197.181 91.4573 197.335C91.5399 197.455 91.6556 197.53 91.7646 197.535C91.8142 197.536 91.8522 197.577 91.8505 197.627C91.8505 197.665 91.8241 197.696 91.791 197.708V197.706Z" fill="#E0B3A8"/>
</g>
<path d="M93.6865 193.912C93.6865 193.912 93.6766 193.915 93.6716 193.915C93.6518 193.918 91.755 194.197 90.6266 194.556C90.5803 194.571 90.5291 194.544 90.5159 194.498C90.501 194.452 90.5274 194.404 90.5737 194.386C91.7154 194.024 93.627 193.742 93.6468 193.738C93.6947 193.732 93.741 193.765 93.7476 193.813C93.7542 193.856 93.7278 193.897 93.6881 193.91L93.6865 193.912Z" fill="#2B1710"/>
<path d="M91.6645 196.327C91.539 196.795 91.6199 197.224 91.8479 197.285C92.0743 197.346 92.3618 197.016 92.4873 196.549C92.6129 196.081 92.5319 195.652 92.3039 195.591C92.0776 195.53 91.7901 195.86 91.6645 196.327Z" fill="#2B1710"/>
</g>
<defs>
<clipPath id="clip0_601_9863">
<rect width="388" height="377" fill="white"/>
</clipPath>
</defs>
</svg>
