<svg width="606" height="543" viewBox="0 0 606 543" fill="none" xmlns="http://www.w3.org/2000/svg">
<path d="M391.052 429.458C388.828 428.665 386.483 428.269 384.122 428.288C379.597 428.305 375.2 429.793 371.593 432.528C367.986 435.263 365.366 439.097 364.126 443.452L313.822 443.306H285.916C285.357 443.289 284.801 443.385 284.28 443.587C283.758 443.79 283.283 444.095 282.882 444.484C282.481 444.874 282.163 445.34 281.945 445.855C281.727 446.371 281.615 446.924 281.616 447.483V454.627V460.893C281.616 461.366 281.709 461.835 281.891 462.273C282.073 462.71 282.339 463.107 282.675 463.441C283.01 463.775 283.408 464.039 283.846 464.218C284.284 464.397 284.753 464.488 285.227 464.486H285.853C286.807 464.486 287.722 464.108 288.399 463.435C289.076 462.761 289.458 461.848 289.464 460.893V454.627H293.993V460.893C293.993 461.846 294.372 462.76 295.045 463.433C295.718 464.107 296.631 464.486 297.583 464.486H298.418C298.892 464.488 299.361 464.397 299.799 464.218C300.237 464.039 300.635 463.775 300.97 463.441C301.306 463.107 301.572 462.71 301.754 462.273C301.936 461.835 302.029 461.366 302.029 460.893V454.627H306.6V460.705C306.571 461.619 306.882 462.511 307.472 463.209C308.061 463.907 308.889 464.362 309.794 464.486C310.297 464.545 310.806 464.496 311.288 464.344C311.771 464.191 312.215 463.937 312.592 463.599C312.969 463.262 313.27 462.848 313.475 462.384C313.68 461.921 313.784 461.42 313.781 460.914V454.648L364.084 454.815C365.067 458.264 366.92 461.401 369.465 463.925C372.011 466.45 375.163 468.276 378.618 469.227C382.073 470.179 385.715 470.224 389.193 469.359C392.671 468.494 395.868 466.747 398.475 464.287C401.083 461.827 403.014 458.737 404.082 455.314C405.15 451.891 405.319 448.25 404.573 444.742C403.827 441.235 402.192 437.978 399.823 435.287C397.455 432.595 394.434 430.559 391.052 429.374V429.458ZM397.418 453.77C396.533 454.338 395.505 454.642 394.454 454.648C393.087 454.562 391.803 453.959 390.865 452.959C389.926 451.96 389.404 450.64 389.404 449.269C389.404 447.898 389.926 446.579 390.865 445.579C391.803 444.58 393.087 443.976 394.454 443.891C395.528 443.892 396.576 444.22 397.46 444.831C398.196 445.321 398.8 445.985 399.217 446.765C399.635 447.545 399.854 448.416 399.854 449.301C399.854 450.185 399.635 451.056 399.217 451.836C398.8 452.616 398.196 453.281 397.46 453.77H397.418Z" fill="#E2EBF7"/>
<path d="M405.183 448.319C405.427 452.778 404.237 457.197 401.787 460.929C399.337 464.661 395.757 467.51 391.571 469.056C387.385 470.603 382.814 470.766 378.528 469.523C374.242 468.279 370.468 465.694 367.758 462.146C374.667 465.509 382.598 467.034 389.925 462.94C391.744 462.019 393.35 460.728 394.641 459.149C395.931 457.569 396.877 455.737 397.418 453.771C398.154 453.281 398.758 452.616 399.176 451.836C399.593 451.056 399.812 450.185 399.812 449.301C399.812 448.416 399.593 447.545 399.176 446.765C398.758 445.985 398.154 445.321 397.418 444.831C396.17 439.376 393.996 434.176 390.989 429.458C394.963 430.83 398.438 433.358 400.966 436.718C403.495 440.078 404.963 444.118 405.183 448.319Z" fill="#E2EBF7"/>
<path d="M605.499 79.0783C603.222 58.2625 593.661 38.9234 578.507 24.4821C563.354 10.0407 543.585 1.4279 522.697 0.167096C520.964 0.167096 519.211 0 517.457 0C515.704 0 513.951 0 512.218 0.167096C491.332 1.43198 471.565 10.0462 456.412 24.4867C441.26 38.9273 431.697 58.264 429.416 79.0783C429.081 82.242 428.913 85.4213 428.915 88.6028V211.335C428.912 212.025 429.046 212.709 429.308 213.348C429.57 213.986 429.955 214.567 430.442 215.056C430.929 215.545 431.507 215.933 432.144 216.197C432.781 216.462 433.464 216.598 434.154 216.598H600.761C601.451 216.598 602.134 216.462 602.771 216.197C603.408 215.933 603.986 215.545 604.473 215.056C604.96 214.567 605.345 213.986 605.607 213.348C605.869 212.709 606.003 212.025 606 211.335V88.6028C606.012 85.421 605.845 82.2411 605.499 79.0783ZM522.697 10.6942C533.372 11.4059 543.786 14.3125 553.289 19.2324C562.791 24.1522 571.178 30.9797 577.926 39.2885C579.324 41.0012 580.66 42.7766 581.913 44.5938C583.165 46.411 584.334 48.3117 585.44 50.2542C586.546 52.1967 587.527 54.1809 588.488 56.207C589.448 58.233 590.241 60.3844 591.013 62.4731C592.153 65.688 593.08 68.9744 593.789 72.3109C594.269 74.5458 594.666 76.8225 594.937 79.1201H522.697V10.6942ZM522.697 89.6053H595.522V140.465H522.697V89.6053ZM448.974 51.1941C455.264 39.6677 464.356 29.9142 475.411 22.8353C486.465 15.7565 499.124 11.5807 512.218 10.6942V79.0783H439.999C441.183 69.2953 444.23 59.83 448.974 51.1941ZM439.414 89.6053H512.218V140.465H439.414V89.6053ZM512.218 206.092H439.414V150.951H512.218V206.092ZM595.522 206.092H522.697V150.951H595.522V206.092Z" fill="#EFF4F9"/>
<path d="M595.522 150.951H522.697V206.072H595.522V150.951Z" fill="#E2EBF7"/>
<path d="M595.522 89.6055H522.697V140.465H595.522V89.6055Z" fill="#E2EBF7"/>
<path d="M594.875 79.0785H522.655V10.6943C540.755 11.9291 557.861 19.4287 571.039 31.9064C584.216 44.3841 592.644 61.062 594.875 79.0785Z" fill="#E2EBF7"/>
<path d="M512.218 150.951H439.414V206.072H512.218V150.951Z" fill="#E2EBF7"/>
<path d="M512.218 89.6055H439.414V140.465H512.218V89.6055Z" fill="#E2EBF7"/>
<path d="M512.218 10.6943V79.0785H439.999C439.999 79.0785 439.999 78.9114 439.999 78.8278C442.276 60.8536 450.724 44.2299 463.899 31.8012C477.073 19.3725 494.154 11.9114 512.218 10.6943Z" fill="#E2EBF7"/>
<path d="M450.665 79.0785H439.999C441.183 69.2955 444.23 59.8302 448.974 51.1943C449.203 59.8207 449.725 69.3243 450.665 79.0785Z" fill="#E2EBF7"/>
<path d="M464.587 140.465H439.414V89.6055H451.813C454.109 107.568 458.033 125.719 464.587 140.465Z" fill="#E2EBF7"/>
<path d="M476.756 159.932C484.979 168.914 497.628 175.033 512.239 179.065V206.092H439.414V150.951H470.055C472.003 154.148 474.246 157.155 476.756 159.932Z" fill="#E2EBF7"/>
<path d="M595.522 186.25V206.092H522.697V181.592C546.867 186.605 574.566 187.022 595.522 186.25Z" fill="#E2EBF7"/>
<g style="mix-blend-mode:screen" opacity="0.3">
<g style="mix-blend-mode:screen" opacity="0.6">
<path d="M571.268 79.0786L522.697 21.4722V73.1049L528.103 79.0786H571.268Z" fill="#E2EBF7"/>
</g>
<g style="mix-blend-mode:screen" opacity="0.6">
<path d="M512.218 61.5542V10.6943C499.537 11.5215 487.256 15.4674 476.463 22.1822L512.218 61.5542Z" fill="#E2EBF7"/>
</g>
<g style="mix-blend-mode:screen" opacity="0.6">
<path d="M580.139 89.6055H537.663L583.854 140.465H595.522V107.861L580.139 89.6055Z" fill="#E2EBF7"/>
</g>
</g>
<path d="M109.373 542.979C169.779 542.979 218.747 536.508 218.747 528.525C218.747 520.542 169.779 514.071 109.373 514.071C48.9682 514.071 0 520.542 0 528.525C0 536.508 48.9682 542.979 109.373 542.979Z" fill="#EFF4F9"/>
<path d="M557.095 530.781C578.836 530.781 596.461 528.032 596.461 524.64C596.461 521.249 578.836 518.5 557.095 518.5C535.354 518.5 517.729 521.249 517.729 524.64C517.729 528.032 535.354 530.781 557.095 530.781Z" fill="#EFF4F9"/>
<path d="M76.8534 387.579C59.2368 380.561 68.5043 488.965 74.0982 507.116C79.6921 525.267 79.212 470.355 81.0697 439.442C82.9274 408.529 83.7832 390.337 76.8534 387.579Z" fill="#EED7BA"/>
<path d="M135.36 384.655C117.911 377.804 123.108 486.417 128.097 504.463C133.085 522.51 135.256 489.466 138.032 458.512C140.808 427.557 142.227 387.329 135.36 384.655Z" fill="#EED7BA"/>
<path d="M139.451 494.062L137.009 517.225L127.783 515.7L125.466 490.511L139.451 494.062Z" fill="#EED7BA"/>
<path d="M84.9314 494.291L82.3015 517.434L73.0757 515.826L71.0093 490.615L84.9314 494.291Z" fill="#EED7BA"/>
<path d="M161.68 218.144C160.329 218.058 159.018 217.644 157.862 216.938C156.705 216.232 155.738 215.256 155.043 214.092C147.8 202.604 121.897 161.018 125.237 156.11C129.098 150.428 169.216 208.745 167.817 212.108C166.732 214.739 166.085 218.311 161.68 218.144Z" fill="#E8CEB1"/>
<path d="M127.032 162.438C127.032 162.438 122.043 160.663 122.294 157.697C122.544 154.731 116.595 154.397 117.055 152.162C117.514 149.927 124.172 144.914 128.284 150.073C130.811 153.279 132.133 157.271 132.02 161.352L127.032 162.438Z" fill="#E8CEB1"/>
<path d="M103.237 309.128C96.4533 310.381 91.9656 317.9 93.4267 325.441C95.7573 335.642 98.8696 345.649 102.736 355.372C112.567 379.246 120.499 401.887 130.225 402.702C139.952 403.516 142.749 385.992 135.632 361.387C129.244 339.247 126.635 310.318 119.622 308.251C116.074 307.269 109.186 308.104 103.237 309.128Z" fill="#EED7BA"/>
<path d="M82.0094 307.039C75.5597 305.974 68.9221 311.488 67.5445 318.987C65.9882 329.211 65.1928 339.536 65.165 349.878C65.4155 375.298 64.3927 398.963 72.721 402.931C81.0492 406.9 89.7115 391.402 92.1536 366.296C94.3661 343.591 102.298 315.853 96.8291 311.613C94.053 309.399 87.6659 307.916 82.0094 307.039Z" fill="#EED7BA"/>
<path d="M93.8024 213.946C94.1945 215.502 95.0176 216.915 96.1771 218.024C97.3366 219.132 98.7853 219.891 100.357 220.212C114.613 223.554 165.501 233.976 168.757 223.637C172.576 211.481 126.531 204.839 113.799 204.4C103.195 204.129 92.1744 206.217 93.8024 213.946Z" fill="#E8CEB1"/>
<path d="M106.994 199.367L147.967 208.181L133.837 183.117L145.525 175.326C145.525 175.326 178.567 218.562 171.262 226.854C163.956 235.146 116.804 227.209 116.804 227.209L106.994 199.367Z" fill="#3D83DF"/>
<path d="M88.8345 194.437L106.451 202.291L108.184 191.033C108.696 191.379 109.241 191.673 109.812 191.91C111.724 192.744 113.812 193.092 115.891 192.925C117.97 192.757 119.976 192.079 121.73 190.949C122.888 190.185 123.784 189.084 124.297 187.795C125.391 184.903 125.97 181.843 126.009 178.751C126.04 178.446 126.04 178.138 126.009 177.832C126.093 171.532 125.583 165.238 124.485 159.034C124.485 159.034 124.485 159.034 124.631 159.034L124.423 158.741C124.423 158.741 121.459 156.82 116.7 154.355C114.995 153.122 112.911 152.53 110.814 152.684C105.929 152.684 106.013 153.749 103.779 154.355C101.546 154.961 98.9578 157.634 94.6162 161.039C86.5802 167.305 91.5062 179.44 91.5062 179.44H91.2766C91.338 179.537 91.4079 179.628 91.4853 179.712L88.8345 194.437Z" fill="#EED7BA"/>
<path d="M126.197 307.332C126.197 307.332 144.481 374.881 145.212 395.663C145.943 416.446 139.242 502.417 139.242 502.417H125.717C125.717 502.417 117.785 412.728 116.658 404.561C115.531 396.394 99.605 363.017 99.605 363.017L84.7435 505.049C84.7435 505.049 72.2199 505.78 71.7607 505.236C71.3015 504.693 54.0188 312.763 74.0358 306.1" fill="url(#paint0_linear_1427_9990)"/>
<path d="M78.8155 313.138C80.3183 313.138 81.8421 313.243 83.3658 313.243C96.9957 313.347 110.939 314.496 123.984 310.548C124.774 310.419 125.504 310.047 126.072 309.483C126.53 308.888 126.753 308.144 126.698 307.394C124.402 282.977 125.884 260.085 123.087 237.339C122.147 229.736 123.337 211.189 107.098 199.429L105.303 198.886C103.37 198.326 101.48 197.628 99.6466 196.797C95.9645 195.223 92.516 193.15 89.398 190.636C81.4455 194.375 73.9104 199.972 70.3203 207.993C68.7688 211.634 67.8918 215.526 67.7321 219.481C67.6068 221.569 67.5859 223.47 67.7321 225.475C67.2937 228.922 67.0015 232.326 66.8345 235.689C66.8345 236.817 66.7302 237.924 66.7093 239.031C66.4379 249.161 65.9996 259.291 66.0414 269.422C66.0414 280.116 67.0432 290.309 67.7529 300.877C67.9408 303.488 68.233 306.642 68.3165 309.232C68.3165 310.256 68.2121 312.846 69.6941 312.971C71.1761 313.096 77.2292 313.075 78.8155 313.138Z" fill="#3477CF"/>
<path d="M75.5388 205.111C74.0222 205.633 72.6832 206.572 71.6754 207.821C70.6676 209.069 70.0317 210.577 69.8405 212.17C67.7533 226.666 61.3453 275.354 71.9278 277.735C84.3471 280.513 87.4154 236.984 86.7266 224.264C86.1005 213.653 83.0948 202.855 75.5388 205.111Z" fill="#EED7BA"/>
<path d="M138.7 509.873C141.992 514.18 145.814 518.054 150.075 521.403C158.028 528.003 160.24 526.729 160.324 529.068C160.407 531.407 126.197 528.003 126.197 528.003L126.781 508.829C126.781 508.829 138.72 509.372 138.7 509.873Z" fill="#3D83DF"/>
<path d="M83.7835 510.521C87.2073 514.718 91.1409 518.472 95.4931 521.695C103.654 527.962 105.93 526.687 105.93 529.027C105.93 531.366 71.7607 529.027 71.7607 529.027V509.853C71.7607 509.853 83.7835 510.02 83.7835 510.521Z" fill="#3D83DF"/>
<path d="M70.4456 269.965C71.7103 269.505 73.0674 269.358 74.4012 269.536C75.735 269.715 77.006 270.213 78.1059 270.988C89.3146 278.466 129.641 305.891 128.576 311.697C127.345 318.444 67.3773 281.557 67.2729 277.923C67.2103 275.103 66.3754 271.532 70.4456 269.965Z" fill="#EED7BA"/>
<path d="M88.2502 234.875L84.3261 269.547L112.713 293.651L103.07 305.807C103.07 305.807 69.6734 287.573 65.4988 277.923C61.3243 268.273 59.6544 201.915 77.6259 203.272C94.3242 204.526 88.2502 234.875 88.2502 234.875Z" fill="#3D83DF"/>
<path d="M125.466 307.039C125.466 307.039 130.747 307.436 131.29 310.381C131.832 313.326 137.656 312.052 137.781 314.329C137.906 316.605 132.834 323.206 127.47 319.216C124.197 316.784 121.878 313.281 120.916 309.316L125.466 307.039Z" fill="#EED7BA"/>
<path d="M128.66 148.653C128.493 146.34 127.586 144.143 126.072 142.387C122.941 139.045 118.975 139.087 114.905 140.507C112.282 141.468 109.588 142.222 106.848 142.763C101.504 143.786 95.0964 142.763 90.7549 146.815C89.8196 147.698 89.0553 148.746 88.5006 149.906C87.4316 152.722 87.1431 155.775 87.6657 158.742C88.1666 164.59 88.9598 170.396 89.6277 176.224L90.6922 185.498L93.5518 182.741L98.7909 177.77C99.6726 176.953 100.29 175.891 100.565 174.72C100.919 173.502 101.136 172.248 101.212 170.981C100.735 168.977 100.643 166.9 100.941 164.861C101.483 163.044 103.675 161.519 105.115 163.232C106.138 164.381 106.973 165.697 107.871 166.929C108.768 168.162 109.394 169.394 110.793 169.54C113.527 169.853 112.88 165.237 112.713 163.713C112.337 158.282 121.417 159.18 124.569 157.614C126.085 156.719 127.291 155.38 128.022 153.777C128.754 152.175 128.977 150.386 128.66 148.653Z" fill="#1D262D"/>
<path d="M564.108 503.482C564.108 499.743 561.395 496.464 561.833 492.683C562.689 485.289 571.581 483.973 576.131 479.712C581.934 474.282 574.962 468.517 572.311 463.546C567.218 453.938 576.903 446.711 581.433 439.442C583.687 435.829 584.397 431.568 581.704 428.038C580.048 426.243 578.159 424.676 576.089 423.38C571.122 419.704 570.308 413.668 575.087 409.386C582.623 402.639 593.163 397.438 592.224 385.512C592.209 384.365 591.861 383.247 591.222 382.295C590.771 381.784 590.214 381.376 589.591 381.098C588.968 380.821 588.293 380.68 587.611 380.687C580.911 380.478 573.167 387.162 566.738 382.462C558.389 376.384 542.15 358.317 531.255 372.896C527.08 378.389 528.27 385.783 531.651 391.298C535.408 397.564 538.894 404.101 538.664 411.558C538.435 419.015 537.12 422.148 531.255 426.43C526.245 430.106 520.255 430.92 518.856 437.75C516.477 449.51 539.729 445.374 538.435 456.549C537.683 463.003 533.655 467.264 531.589 473.133C531.155 474.125 531.045 475.229 531.275 476.287C531.859 477.722 532.921 478.91 534.281 479.65C541.482 484.725 553.776 490.741 552.566 501.372" fill="#E2EBF7"/>
<path d="M579.011 392.279C568.178 391.047 560.435 399.903 557.992 403.182C557.464 397.232 555.423 391.516 552.065 386.577C552.031 386.528 551.988 386.486 551.938 386.454C551.888 386.422 551.832 386.4 551.774 386.391C551.715 386.381 551.655 386.383 551.598 386.397C551.54 386.411 551.486 386.437 551.438 386.473C551.361 386.554 551.317 386.663 551.317 386.776C551.317 386.888 551.361 386.997 551.438 387.079C554.868 392.186 556.891 398.108 557.304 404.248V404.373C557.247 404.468 557.228 404.582 557.251 404.69C557.274 404.799 557.338 404.894 557.429 404.958C558.285 414.19 557.116 424.445 556.01 433.97C555.571 437.792 555.154 441.427 554.882 444.894C554.882 445.27 554.882 445.667 554.882 446.063C548.168 442.207 540.872 439.47 533.279 437.959C533.173 437.956 533.07 437.991 532.988 438.058C532.907 438.125 532.852 438.22 532.834 438.324C532.816 438.428 532.837 438.535 532.892 438.626C532.946 438.716 533.032 438.784 533.133 438.816C540.69 440.324 547.942 443.085 554.59 446.983C554.201 455.657 554.326 464.348 554.966 473.008C552.545 472.277 543.006 469.728 537.14 472.757C537.037 472.815 536.96 472.91 536.925 473.022C536.89 473.135 536.9 473.257 536.953 473.363C536.979 473.413 537.015 473.458 537.059 473.494C537.103 473.53 537.154 473.557 537.209 473.573C537.264 473.588 537.321 473.593 537.377 473.585C537.434 473.578 537.488 473.559 537.537 473.53C543.361 470.543 553.421 473.53 555.029 473.927C555.655 482.908 556.469 489.613 556.49 489.759C556.505 489.864 556.558 489.96 556.638 490.03C556.719 490.099 556.822 490.136 556.928 490.135C556.986 490.127 557.041 490.108 557.092 490.079C557.142 490.049 557.186 490.01 557.221 489.963C557.256 489.917 557.281 489.864 557.296 489.807C557.31 489.75 557.312 489.691 557.304 489.634C557.304 489.634 556.991 487.023 556.615 483.034C556.681 483.029 556.744 483.008 556.799 482.971C556.854 482.934 556.899 482.884 556.928 482.825C556.928 482.825 562.626 472.694 571.268 474.345C571.375 474.354 571.483 474.323 571.57 474.258C571.656 474.193 571.716 474.098 571.737 473.992C571.757 473.885 571.738 473.775 571.682 473.682C571.626 473.589 571.538 473.52 571.434 473.488C563.398 471.922 557.846 479.754 556.51 481.843C555.237 469.563 554.923 457.202 555.571 444.873C555.822 441.949 556.156 438.878 556.51 435.704C557.763 434.972 567.427 429.563 575.588 432.341C575.699 432.379 575.821 432.373 575.926 432.322C576.032 432.271 576.113 432.18 576.152 432.069C576.191 431.958 576.184 431.837 576.133 431.731C576.082 431.625 575.991 431.544 575.88 431.505C568.032 428.853 559.182 433.218 556.636 434.617C556.636 434.409 556.636 434.2 556.636 433.991C557.742 424.257 558.932 413.793 557.992 404.352C559.412 402.263 567.343 391.82 578.865 393.031C578.923 393.04 578.982 393.037 579.038 393.023C579.095 393.009 579.148 392.984 579.195 392.949C579.241 392.914 579.281 392.87 579.31 392.819C579.339 392.769 579.359 392.713 579.366 392.655C579.354 392.563 579.314 392.477 579.25 392.409C579.186 392.342 579.103 392.296 579.011 392.279Z" fill="white"/>
<path d="M544.592 525.705H569.347C570.118 525.703 570.86 525.413 571.428 524.891C571.996 524.369 572.348 523.654 572.416 522.886L575.567 490.427H538.372L541.545 522.886C541.608 523.652 541.955 524.367 542.52 524.889C543.084 525.412 543.824 525.703 544.592 525.705Z" fill="#3D83DF"/>
<path d="M537.433 496.735H576.486C577.224 496.735 577.822 496.137 577.822 495.399V491.764C577.822 491.026 577.224 490.427 576.486 490.427H537.433C536.695 490.427 536.097 491.026 536.097 491.764V495.399C536.097 496.137 536.695 496.735 537.433 496.735Z" fill="url(#paint1_linear_1427_9990)"/>
<path d="M480.074 176.266V392.676C480.077 394.689 479.683 396.682 478.916 398.542C478.148 400.402 477.021 402.092 475.6 403.516C474.18 404.94 472.492 406.069 470.634 406.84C468.777 407.611 466.785 408.007 464.775 408.007H221.961C217.898 408.007 214.001 406.392 211.128 403.517C208.255 400.642 206.641 396.742 206.641 392.676V176.266C206.641 172.205 208.253 168.311 211.122 165.44C213.991 162.569 217.883 160.956 221.94 160.956H464.816C468.867 160.967 472.748 162.585 475.608 165.455C478.468 168.325 480.074 172.212 480.074 176.266Z" fill="#D7E3F4"/>
<path d="M480.074 176.266V188.234H206.641V176.266C206.641 172.205 208.253 168.311 211.122 165.44C213.991 162.569 217.883 160.956 221.94 160.956H464.816C468.867 160.967 472.748 162.585 475.608 165.455C478.468 168.325 480.074 172.212 480.074 176.266Z" fill="url(#paint2_linear_1427_9990)"/>
<path d="M343.399 354.202C381.902 354.202 413.114 322.968 413.114 284.439C413.114 245.911 381.902 214.677 343.399 214.677C304.897 214.677 273.684 245.911 273.684 284.439C273.684 322.968 304.897 354.202 343.399 354.202Z" fill="white"/>
<path d="M343.379 243.542C337.381 243.559 331.635 245.953 327.398 250.201C323.161 254.449 320.779 260.203 320.773 266.205V289.953H366.026V266.205C366.015 260.198 363.625 254.44 359.38 250.192C355.136 245.945 349.382 243.554 343.379 243.542ZM358.491 282.413H328.309V266.205C328.309 262.2 329.898 258.359 332.729 255.527C335.559 252.695 339.397 251.104 343.4 251.104C347.402 251.104 351.24 252.695 354.071 255.527C356.901 258.359 358.491 262.2 358.491 266.205V282.413Z" fill="#1D262D"/>
<path d="M352.792 289.285H333.526V310.653H352.792V289.285Z" fill="#1D262D"/>
<path d="M372.517 272.471H314.24C313.301 272.482 312.403 272.863 311.743 273.532C311.083 274.201 310.712 275.103 310.712 276.043V321.765C310.712 322.705 311.083 323.607 311.743 324.275C312.403 324.944 313.301 325.325 314.24 325.336H372.517C373.462 325.331 374.366 324.953 375.035 324.284C375.703 323.615 376.081 322.71 376.086 321.765V276.043C376.081 275.097 375.703 274.192 375.035 273.523C374.366 272.855 373.462 272.477 372.517 272.471ZM348.784 303.154C348.788 303.919 348.628 304.676 348.315 305.374C348.002 306.073 347.543 306.696 346.97 307.202C346.397 307.708 345.722 308.086 344.991 308.31C344.26 308.534 343.49 308.6 342.731 308.501C341.59 308.353 340.524 307.847 339.688 307.055C338.852 306.263 338.288 305.227 338.077 304.094C337.885 302.998 338.037 301.87 338.511 300.864C338.986 299.858 339.76 299.024 340.727 298.476V294.507C340.727 293.798 341.009 293.118 341.51 292.617C342.011 292.115 342.691 291.833 343.399 291.833C344.108 291.833 344.787 292.115 345.288 292.617C345.789 293.118 346.071 293.798 346.071 294.507V298.434C346.9 298.91 347.588 299.598 348.065 300.427C348.541 301.257 348.79 302.198 348.784 303.154Z" fill="#3D83DF"/>
<path style="mix-blend-mode:multiply" opacity="0.3" d="M376.065 276.022V321.785C376.065 322.722 375.693 323.619 375.032 324.281C374.37 324.943 373.473 325.315 372.538 325.315H314.261C313.323 325.315 312.424 324.944 311.759 324.283C311.094 323.621 310.718 322.723 310.712 321.785V319.571C324.572 319.759 345.215 319.154 356.382 314.621C372.371 308.125 372.35 281.202 371.786 272.555H372.538C373.462 272.555 374.35 272.918 375.01 273.566C375.67 274.215 376.049 275.097 376.065 276.022Z" fill="url(#paint3_linear_1427_9990)"/>
<path d="M418.166 175.451C418.17 176.204 417.95 176.941 417.535 177.569C417.121 178.196 416.529 178.687 415.835 178.978C415.141 179.269 414.377 179.347 413.638 179.203C412.9 179.058 412.221 178.698 411.688 178.167C411.155 177.636 410.791 176.959 410.642 176.221C410.494 175.483 410.568 174.718 410.855 174.022C411.142 173.326 411.629 172.731 412.254 172.313C412.879 171.894 413.614 171.67 414.367 171.67C415.371 171.67 416.334 172.068 417.046 172.776C417.757 173.485 418.16 174.446 418.166 175.451Z" fill="white"/>
<path d="M438.663 175.451C438.667 176.205 438.447 176.942 438.031 177.571C437.615 178.199 437.022 178.69 436.327 178.98C435.632 179.27 434.867 179.347 434.128 179.201C433.389 179.055 432.71 178.693 432.178 178.16C431.645 177.627 431.283 176.948 431.137 176.208C430.991 175.469 431.068 174.703 431.358 174.007C431.648 173.312 432.138 172.719 432.766 172.302C433.394 171.886 434.132 171.666 434.885 171.67C435.885 171.676 436.843 172.076 437.55 172.784C438.257 173.492 438.657 174.45 438.663 175.451Z" fill="white"/>
<path d="M459.201 175.451C459.201 176.199 458.98 176.93 458.565 177.551C458.15 178.173 457.56 178.658 456.869 178.944C456.179 179.23 455.419 179.305 454.686 179.159C453.954 179.013 453.28 178.653 452.752 178.124C452.224 177.595 451.864 176.922 451.718 176.189C451.572 175.455 451.647 174.695 451.933 174.004C452.219 173.313 452.703 172.723 453.325 172.308C453.946 171.892 454.676 171.67 455.423 171.67C456.424 171.676 457.382 172.076 458.089 172.784C458.796 173.492 459.196 174.45 459.201 175.451Z" fill="white"/>
<path d="M216.242 49.9409C179.276 49.9409 149.324 64.7916 149.324 83.0886C149.44 85.9057 150.125 88.6701 151.338 91.2152C152.55 93.7603 154.265 96.0334 156.379 97.8975C149.491 104.164 135.068 117.343 134.984 117.343L170.155 107.109C182.157 112.79 198.292 116.236 216.242 116.236C253.187 116.236 283.139 101.386 283.139 83.0886C283.139 64.7916 253.187 49.9409 216.242 49.9409Z" fill="#3D83DF"/>
<path d="M543.089 284.023C547.412 274.815 557.091 271.538 567.392 276.486C577.541 281.36 581.562 290.658 576.836 300.511C571.71 311.198 561.882 312.259 551.733 307.384L548.558 313.226L541.059 309.625L546.388 297.544L548.888 298.744C557.446 302.855 564.763 304.504 568.58 296.546C571.125 291.241 569.431 286.417 563.978 283.798C558.6 281.215 553.738 282.61 551.193 287.915L543.089 284.023ZM544.768 325.208C543.277 328.315 539.69 329.576 536.661 328.121C533.555 326.63 532.295 323.04 533.786 319.933C535.276 316.825 538.863 315.564 541.969 317.056C544.998 318.511 546.258 322.1 544.768 325.208Z" fill="#E2EBF7"/>
<path d="M364.092 82.4701C364.042 76.4449 368.371 72.2124 375.139 72.2124C381.807 72.2124 386.335 76.1461 386.335 82.6194C386.335 89.6405 381.359 92.7278 374.691 92.7278L374.492 96.6615H369.565L369.317 88.8438H370.959C376.582 88.8438 380.911 87.8479 380.911 82.6194C380.911 79.1338 378.771 76.9926 375.188 76.9926C371.655 76.9926 369.416 78.9844 369.416 82.4701H364.092ZM375.537 104.031C375.537 106.073 373.944 107.666 371.954 107.666C369.914 107.666 368.321 106.073 368.321 104.031C368.321 101.99 369.914 100.396 371.954 100.396C373.944 100.396 375.537 101.99 375.537 104.031Z" fill="#E2EBF7"/>
<path d="M308.382 127.203C305.753 123.063 306.92 118.272 311.595 115.354C316.201 112.478 321.023 113.242 323.811 117.714C326.835 122.564 324.727 126.842 320.121 129.718L321.678 132.521L318.275 134.646L314.736 129.353L315.87 128.645C319.755 126.22 322.316 123.665 320.064 120.053C318.563 117.645 316.163 117.089 313.688 118.634C311.248 120.158 310.559 122.499 312.06 124.907L308.382 127.203ZM325.574 137.161C326.453 138.571 326.039 140.359 324.664 141.217C323.255 142.097 321.469 141.683 320.589 140.273C319.71 138.863 320.124 137.075 321.533 136.195C322.908 135.337 324.694 135.751 325.574 137.161Z" fill="#E2EBF7"/>
<path d="M206.863 79.686C206.809 73.1377 211.514 68.5376 218.869 68.5376C226.116 68.5376 231.037 72.8129 231.037 79.8483C231.037 87.479 225.629 90.8343 218.382 90.8343L218.166 95.1097H212.812L212.541 86.6131H214.326C220.437 86.6131 225.142 85.5307 225.142 79.8483C225.142 76.06 222.817 73.733 218.923 73.733C215.083 73.733 212.649 75.8977 212.649 79.686H206.863ZM219.301 103.119C219.301 105.338 217.571 107.07 215.408 107.07C213.19 107.07 211.46 105.338 211.46 103.119C211.46 100.9 213.19 99.1685 215.408 99.1685C217.571 99.1685 219.301 100.9 219.301 103.119Z" fill="white"/>
<defs>
<linearGradient id="paint0_linear_1427_9990" x1="64.3717" y1="405.752" x2="145.275" y2="405.752" gradientUnits="userSpaceOnUse">
<stop offset="0.06" stop-color="#E38204"/>
<stop offset="1" stop-color="#E35802"/>
</linearGradient>
<linearGradient id="paint1_linear_1427_9990" x1="536.118" y1="493.581" x2="577.843" y2="493.581" gradientUnits="userSpaceOnUse">
<stop stop-color="#008BEC"/>
<stop offset="1" stop-color="#0077EC"/>
</linearGradient>
<linearGradient id="paint2_linear_1427_9990" x1="206.661" y1="174.595" x2="480.116" y2="174.595" gradientUnits="userSpaceOnUse">
<stop stop-color="#008BEC"/>
<stop offset="1" stop-color="#0077EC"/>
</linearGradient>
<linearGradient id="paint3_linear_1427_9990" x1="310.712" y1="298.914" x2="376.065" y2="298.914" gradientUnits="userSpaceOnUse">
<stop stop-color="#008BEC"/>
<stop offset="1" stop-color="#0077EC"/>
</linearGradient>
</defs>
</svg>
