<svg width="16" height="8" viewBox="0 0 16 8" fill="none" xmlns="http://www.w3.org/2000/svg">
<path fill-rule="evenodd" clip-rule="evenodd" d="M1.61574 2.02099C1.81432 1.60331 2.25483 1.15907 2.67252 0.964036C3.39957 0.624756 3.66682 0.729354 4.46466 0.807582L4.4275 0.184241L3.71 0.035397C3.6077 0.218399 3.63549 0.352023 3.55602 0.581926L3.21303 0.561396L2.99392 0C2.74313 0.0205302 2.45996 0.035397 2.25359 0.141588L2.34757 0.7267L2.0021 0.841032C1.89732 0.67856 1.79272 0.560511 1.63857 0.407596C1.45557 0.45255 1.14744 0.687232 1.05611 0.816077C1.1331 1.00616 1.26673 1.16279 1.33929 1.36615C1.25646 1.45517 1.2246 1.51906 1.12832 1.59286L0.591528 1.3373C0.460619 1.53208 0.350857 1.74027 0.264106 1.95834C0.442153 2.17072 0.537194 2.19178 0.720196 2.3831L0.574538 2.69371C0.430118 2.713 0.635951 2.69743 0.506045 2.70096C0.399854 2.70344 0.270124 2.65636 0.0738477 2.67442C-0.022432 2.8868 0.00305377 3.18236 0.00305377 3.43156C0.616837 3.68553 0.557901 3.52784 0.587988 4.02977C0.413482 4.06109 0.230479 4.11649 0.0945549 4.19949C0.113846 4.45471 0.223223 4.71594 0.296672 4.96619L0.835944 4.9446L1.02726 5.29857C0.916649 5.45786 0.768513 5.5598 0.668694 5.63484C0.715595 5.84545 1.03328 6.25234 1.17416 6.34508C1.30779 6.28119 1.50282 6.1681 1.64122 6.10544L1.9113 6.35039L1.72759 6.90524C1.83113 7.02329 2.24651 7.30363 2.40297 7.36381C2.48597 7.23266 2.6196 7.08063 2.68331 6.92577L3.04932 7.06647L3.0817 7.66592C3.27426 7.76592 3.62222 7.82839 3.84734 7.85848L3.95442 7.31089L4.29511 7.30239L4.55616 7.88025C4.7981 7.86255 5.06535 7.82715 5.26994 7.75016L5.17136 7.14718L5.49383 7.03638C5.6114 7.20212 5.7511 7.35099 5.90904 7.47885C6.10531 7.36699 6.26778 7.28753 6.45769 7.07444C6.42229 6.93373 6.25787 6.69056 6.18195 6.53534L6.88015 6.51764L6.92351 6.53941L6.94263 6.51658L16 6.29747H5.73099C5.49658 6.42932 5.24065 6.51854 4.97509 6.561C2.68101 6.94134 0.593829 4.17065 1.61574 2.02099ZM4.84146 0.943683C4.98588 1.02315 5.10694 1.08208 5.25915 1.17111C5.39631 1.25305 5.52162 1.36862 5.654 1.41429L5.79966 0.985805C5.63099 0.819617 5.38905 0.639092 5.14836 0.532016C5.03526 0.613783 4.90058 0.794485 4.84146 0.943683ZM6.73839 2.02701C6.65892 1.79215 6.50123 1.65746 6.38212 1.54419C6.2377 1.578 6.08372 1.64897 5.99452 1.74649L6.21487 2.02701H6.73839Z" fill="#4C7FC1"/>
<path fill-rule="evenodd" clip-rule="evenodd" d="M2.24536 1.77369C3.55133 0.796029 4.90243 1.4091 5.59993 2.39243V2.4165H15.9583L6.10186 2.1781C5.6732 1.6052 5.06296 1.16469 4.36971 1.007C3.57328 0.825232 2.58216 1.15265 2.24589 1.77369H2.24536Z" fill="#31BAA1"/>
<path d="M3.65507 4.4147C3.65299 4.51462 3.62831 4.61277 3.58286 4.70177C3.54108 4.78249 3.47693 4.84947 3.39808 4.89468C3.31491 4.94127 3.22085 4.96491 3.12553 4.96318C2.95704 4.96318 2.8243 4.89651 2.72731 4.76319C2.63032 4.62986 2.58189 4.44178 2.58201 4.19896V4.12197C2.5793 3.98564 2.60155 3.84996 2.64767 3.72163C2.69133 3.6073 2.75433 3.51881 2.83669 3.45615C2.91839 3.39392 3.01859 3.36089 3.12128 3.36235C3.27691 3.36235 3.40198 3.41202 3.49649 3.51137C3.591 3.61072 3.64468 3.74771 3.65754 3.92233H3.34941C3.34694 3.82794 3.32723 3.75992 3.2903 3.71827C3.25337 3.67662 3.19703 3.65597 3.12128 3.65632C3.08588 3.65496 3.05087 3.66419 3.02073 3.68282C2.99059 3.70145 2.96669 3.72864 2.95208 3.76092C2.91669 3.83077 2.89793 3.94233 2.8958 4.0956V4.20568C2.8958 4.37169 2.91297 4.49033 2.9473 4.5616C2.98164 4.63287 3.04063 4.66826 3.12429 4.66779C3.19508 4.66779 3.24936 4.6475 3.28712 4.60691C3.32481 4.5662 3.34464 4.50178 3.34711 4.41329L3.65507 4.4147Z" fill="#4C7FC1"/>
<path d="M4.59622 4.28146H4.11004V4.65313H4.68436V4.94179H3.80103V3.38574H4.68595V3.67529H4.11004V4.00342H4.59622V4.28146Z" fill="#4C7FC1"/>
<path d="M5.88148 4.94197H5.57494L5.12045 3.97351V4.94197H4.81055V3.38574H5.11956L5.57317 4.35367V3.38574H5.88148V4.94197Z" fill="#4C7FC1"/>
<path d="M7.0579 3.67529H6.67296V4.94197H6.36395V3.67529H5.98608V3.38574H7.0579V3.67529Z" fill="#4C7FC1"/>
<path d="M7.66492 4.39155H7.49749V4.94197H7.18848V3.38574H7.69306C7.84503 3.38574 7.96391 3.42663 8.04968 3.50839C8.13546 3.59016 8.17835 3.70585 8.17835 3.85546C8.17835 3.96366 8.1603 4.05333 8.1242 4.12448C8.0861 4.19772 8.02708 4.25797 7.95464 4.29757L8.22242 4.92586V4.94197H7.89128L7.66492 4.39155ZM7.49749 4.10288H7.69306C7.75182 4.10288 7.79589 4.08412 7.82562 4.0466C7.85536 4.00908 7.87004 3.95687 7.87004 3.88962C7.87004 3.82236 7.85518 3.7698 7.82509 3.73157C7.795 3.69334 7.75111 3.67423 7.69306 3.67423H7.49749V4.10288Z" fill="#4C7FC1"/>
<path d="M9.45078 4.19586C9.45332 4.33339 9.42972 4.47014 9.38123 4.59886C9.33486 4.71579 9.2689 4.80575 9.18336 4.86876C9.09913 4.93155 8.99656 4.96482 8.89151 4.96345C8.78743 4.965 8.68563 4.9329 8.60126 4.87195C8.51209 4.80517 8.44352 4.71464 8.40339 4.61072C8.35411 4.48682 8.32888 4.35468 8.32905 4.22135V4.13374C8.32644 3.99607 8.34992 3.85915 8.39826 3.73022C8.43727 3.62325 8.50597 3.52962 8.5963 3.46032C8.68118 3.39731 8.7844 3.36391 8.8901 3.36527C8.99464 3.36397 9.09672 3.39698 9.18071 3.45925C9.26578 3.52214 9.33197 3.6114 9.37928 3.72703C9.42825 3.85345 9.45253 3.98809 9.45078 4.12365V4.19586ZM9.13628 4.13073C9.13628 3.97605 9.11499 3.85865 9.07239 3.77853C9.0298 3.69842 8.96891 3.65836 8.88974 3.65836C8.7347 3.65836 8.65276 3.79942 8.64391 4.08153L8.64303 4.19586C8.64303 4.34842 8.66391 4.46565 8.70568 4.54753C8.74745 4.62942 8.80939 4.67042 8.89151 4.67054C8.9695 4.67054 9.02968 4.63024 9.07204 4.54966C9.11439 4.46907 9.13581 4.35332 9.13628 4.20241V4.13073Z" fill="#4C7FC1"/>
<path d="M10.542 3.67529H10.1573V4.94197H9.84808V3.67529H9.47021V3.38574H10.542V3.67529Z" fill="#4C7FC1"/>
<path d="M11.2952 4.65118H10.8717L10.7977 4.94197H10.4673L10.9375 3.38574H11.2281L11.7019 4.94197H11.3701L11.2952 4.65118ZM10.9457 4.36146H11.2207L11.083 3.82272L10.9457 4.36146Z" fill="#4C7FC1"/>
<path d="M12.1047 4.65331H12.6429V4.94197H11.7957V3.38574H12.1047V4.65331Z" fill="#4C7FC1"/>
<path d="M13.0821 4.65331H13.6204V4.94197H12.7729V3.38574H13.0821V4.65331Z" fill="#4C7FC1"/>
<path d="M14.5462 4.28146H14.06V4.65313H14.6343V4.94179H13.7517V3.38574H14.6366V3.67529H14.06V4.00342H14.5462V4.28146Z" fill="#4C7FC1"/>
<path d="M15.2366 4.39155H15.0693V4.94197H14.7605V3.38574H15.2649C15.4169 3.38574 15.5358 3.42663 15.6215 3.50839C15.7073 3.59016 15.7501 3.70585 15.75 3.85546C15.75 3.96366 15.732 4.05333 15.6959 4.12448C15.6578 4.1977 15.5989 4.25796 15.5265 4.29757L15.7941 4.92586V4.94197H15.463L15.2366 4.39155ZM15.0693 4.10288H15.264C15.3226 4.10288 15.3668 4.08412 15.3964 4.0466C15.426 4.00908 15.441 3.95687 15.441 3.88962C15.441 3.82236 15.426 3.7698 15.396 3.73157C15.3661 3.69334 15.3221 3.67423 15.264 3.67423H15.0693V4.10288Z" fill="#4C7FC1"/>
</svg>
