<svg width="30" height="11" viewBox="0 0 30 11" fill="none" xmlns="http://www.w3.org/2000/svg">
<path d="M29.273 6.01496C29.0773 5.24835 28.6173 4.70866 27.8852 4.41122C27.5765 4.2855 27.2655 4.16131 26.9484 4.06088C25.1954 3.50893 23.3889 3.30271 21.5618 3.24292C21.3226 3.23448 21.1239 3.16779 20.9237 3.03823C19.8982 2.37359 18.8627 1.72427 17.8349 1.06269C16.8331 0.417214 15.7426 0.033145 14.5513 0.0139799C13.0145 -0.0105514 11.477 0.00324746 9.94029 0.0101469C9.59794 0.0116801 9.25712 0.0668756 8.91784 0.125904C7.90455 0.303756 7.01659 0.792849 6.11258 1.24591C5.22691 1.68978 4.36492 2.2011 3.37074 2.36899C2.63714 2.49318 1.89666 2.57137 1.16001 2.6764C0.666354 2.74616 0.324771 3.02443 0.112333 3.47136C0.0810018 3.53729 0.0825301 3.62392 0 3.66071V7.1664C0.0221609 7.19399 0.0542559 7.21929 0.0641901 7.25072C0.29879 7.97133 0.798555 8.38529 1.52375 8.56621C2.04109 8.69577 2.54773 8.86672 3.06431 9.00165C3.25765 9.05224 3.35928 9.14577 3.44181 9.33205C3.88579 10.3248 4.6576 10.8952 5.73737 10.9825C6.7476 11.0638 7.56297 10.659 8.15672 9.83724C8.27975 9.66706 8.40202 9.61416 8.60223 9.61416C12.7929 9.61953 16.9836 9.61953 21.1743 9.61416C21.3837 9.61416 21.5151 9.66629 21.6435 9.84798C22.4016 10.9251 23.8015 11.2961 24.9768 10.7503C26.1811 10.1906 26.8169 8.87439 26.4945 7.60873C26.1422 6.22577 24.8607 5.36794 23.4363 5.56189C22.1028 5.74281 21.1033 6.95405 21.1346 8.35157C21.1402 8.62141 21.0065 8.75633 20.7334 8.75633H9.04927C8.97285 8.75633 8.89567 8.75173 8.82002 8.7571C8.68324 8.7663 8.62898 8.71187 8.64656 8.57158C8.66107 8.45812 8.66031 8.3416 8.65955 8.22738C8.63815 6.34153 6.75218 5.03524 4.99536 5.70678C4.00577 6.08472 3.41965 6.82066 3.25383 7.8732C3.21944 8.09169 3.16747 8.15761 2.94204 8.08249C2.508 7.9376 2.06402 7.82491 1.62538 7.69305C1.10804 7.5382 0.865802 7.21776 0.860453 6.68803C0.857396 6.41972 0.859688 6.15141 0.859688 5.88387C0.859688 5.61453 0.994182 5.47552 1.26317 5.46683C1.58641 5.4561 1.76905 5.30661 1.77516 5.0475C1.78051 4.78916 1.59635 4.62357 1.28227 4.60594C0.999022 4.59009 0.85816 4.43882 0.859688 4.15211C0.859688 4.12298 0.858924 4.09461 0.859688 4.06548C0.870387 3.73891 1.00259 3.57715 1.33042 3.52043C1.56502 3.48056 1.80267 3.45756 2.03956 3.4292C2.96803 3.31958 3.89573 3.20919 4.77452 2.85501C5.04351 2.74692 5.31249 2.46788 5.57384 2.56064C5.82678 2.65033 6.01094 2.94547 6.21497 3.16012C6.67806 3.64692 7.2252 3.98346 7.89844 4.05475C8.29504 4.09615 8.69928 4.08695 9.09971 4.08311C9.40767 4.08005 9.57196 3.92213 9.57655 3.66455C9.58113 3.39547 9.40767 3.23602 9.08748 3.22758C8.82996 3.22068 8.57167 3.21915 8.31414 3.22605C8.11852 3.23065 8.03981 3.17929 8.09788 2.96004C8.21022 2.53534 8.2958 2.10374 8.39438 1.67521C8.53575 1.06269 8.53728 1.06499 9.17459 0.958436C10.1802 0.789783 11.1943 0.885609 12.2038 0.856478C12.3879 0.851111 12.3994 0.952303 12.3986 1.09183C12.3956 1.71431 12.3879 2.33679 12.4024 2.95927C12.4078 3.17929 12.3329 3.23832 12.1243 3.22988C11.7621 3.21532 11.3991 3.21992 11.0361 3.22835C10.7465 3.23602 10.5631 3.41387 10.5654 3.66071C10.5677 3.89836 10.7404 4.06242 11.0155 4.08311C11.111 4.09078 11.2065 4.08771 11.302 4.08771C14.1661 4.08771 17.0302 4.09308 19.8936 4.08541C21.2408 4.08158 22.585 4.11301 23.9215 4.29393C25.1724 4.46335 26.405 4.70483 27.5712 5.21156C27.7232 5.27825 27.8768 5.34648 27.9983 5.49213C27.8463 5.56036 27.7118 5.52356 27.5819 5.53123C27.2815 5.54963 27.105 5.69988 27.0997 5.95056C27.0943 6.20201 27.2693 6.37526 27.5635 6.38982C27.8019 6.40132 28.0404 6.39672 28.2795 6.39366C28.4011 6.39213 28.4775 6.41666 28.4752 6.56538C28.4691 7.102 28.4828 7.63862 28.4645 8.17448C28.4522 8.53862 28.3017 8.68964 27.9578 8.76093C27.685 8.81766 27.5345 8.99551 27.5605 9.23009C27.5872 9.47694 27.7966 9.63793 28.0763 9.6111C28.6357 9.5582 29.004 9.25156 29.2164 8.73793C29.2516 8.65361 29.2424 8.54628 29.3333 8.48802V6.13148C29.2753 6.11231 29.2844 6.05942 29.273 6.01496ZM23.8504 6.39596C24.8874 6.39672 25.7272 7.24152 25.7196 8.27644C25.7127 9.29525 24.8683 10.137 23.8535 10.1393C22.8249 10.1408 21.9874 9.29066 21.992 8.25037C21.9966 7.22006 22.8226 6.39519 23.8504 6.39596ZM5.95669 6.39596C6.98526 6.40516 7.80215 7.23232 7.80062 8.26571C7.79986 9.29219 6.97456 10.1286 5.95287 10.1385C4.93041 10.1485 4.07225 9.29219 4.07301 8.26187C4.07378 7.22696 4.92124 6.38753 5.95669 6.39596ZM7.27029 2.75842C7.23972 2.89641 7.16254 2.87495 7.08995 2.80059C6.8584 2.56447 6.63145 2.32299 6.3915 2.07154C6.75753 1.88833 7.11975 1.70741 7.54998 1.49199C7.44605 1.96269 7.35817 2.36055 7.27029 2.75842ZM19.2203 3.22375C17.342 3.22605 15.4637 3.22068 13.5861 3.23142C13.3248 3.23295 13.2423 3.16472 13.2507 2.89718C13.2705 2.29539 13.2614 1.69284 13.2545 1.09029C13.2522 0.921639 13.3011 0.863377 13.4799 0.854178C15.022 0.771385 16.4464 1.09183 17.7241 2.00562C18.2972 2.41575 18.9086 2.77145 19.5268 3.16702C19.4076 3.25365 19.3105 3.22375 19.2203 3.22375ZM5.60593 9.01238C5.87951 9.01774 6.6964 8.21204 6.69564 7.92073C6.68035 7.77585 6.61616 7.64399 6.46868 7.5635C6.32119 7.483 6.15919 7.47304 6.03845 7.58266C5.77099 7.82567 5.51576 8.08402 5.27046 8.35003C5.15813 8.47192 5.16807 8.63674 5.23913 8.7824C5.31096 8.93035 5.43629 9.00931 5.60593 9.01238Z" fill="#707070"/>
</svg>
