<svg width="20" height="20" viewBox="0 0 20 20" fill="none" xmlns="http://www.w3.org/2000/svg">
<path d="M11.5546 2.29978L13.1429 5.49401C13.3569 5.93577 13.9314 6.35487 14.4158 6.44548L17.2884 6.92122C19.1245 7.22705 19.5526 8.56365 18.2346 9.90025L15.9929 12.1543C15.6211 12.5281 15.4071 13.2644 15.531 13.7968L16.1731 16.5832C16.68 18.7807 15.5085 19.6415 13.5822 18.4862L10.8899 16.8777C10.4055 16.5832 9.59446 16.5832 9.11007 16.8777L6.41775 18.4862C4.49146 19.6302 3.31993 18.7807 3.82685 16.5832L4.46895 13.7968C4.59287 13.2757 4.37883 12.5395 4.00709 12.1543L1.7654 9.90025C0.447408 8.57498 0.875468 7.23838 2.71164 6.92122L5.58416 6.44548C6.06855 6.36619 6.64306 5.93577 6.8571 5.49401L8.44545 2.29978C9.29031 0.566739 10.6872 0.566739 11.5546 2.29978Z" stroke="#707070" stroke-width="1.5" stroke-linecap="round" stroke-linejoin="round"/>
</svg>
